%TF.GenerationSoftware,KiCad,Pcbnew,7.0.1*%
%TF.CreationDate,2023-06-06T10:46:51-05:00*%
%TF.ProjectId,simulacion_Carro,73696d75-6c61-4636-996f-6e5f43617272,rev?*%
%TF.SameCoordinates,Original*%
%TF.FileFunction,Copper,L2,Bot*%
%TF.FilePolarity,Positive*%
%FSLAX46Y46*%
G04 Gerber Fmt 4.6, Leading zero omitted, Abs format (unit mm)*
G04 Created by KiCad (PCBNEW 7.0.1) date 2023-06-06 10:46:51*
%MOMM*%
%LPD*%
G01*
G04 APERTURE LIST*
G04 Aperture macros list*
%AMRoundRect*
0 Rectangle with rounded corners*
0 $1 Rounding radius*
0 $2 $3 $4 $5 $6 $7 $8 $9 X,Y pos of 4 corners*
0 Add a 4 corners polygon primitive as box body*
4,1,4,$2,$3,$4,$5,$6,$7,$8,$9,$2,$3,0*
0 Add four circle primitives for the rounded corners*
1,1,$1+$1,$2,$3*
1,1,$1+$1,$4,$5*
1,1,$1+$1,$6,$7*
1,1,$1+$1,$8,$9*
0 Add four rect primitives between the rounded corners*
20,1,$1+$1,$2,$3,$4,$5,0*
20,1,$1+$1,$4,$5,$6,$7,0*
20,1,$1+$1,$6,$7,$8,$9,0*
20,1,$1+$1,$8,$9,$2,$3,0*%
%AMFreePoly0*
4,1,58,0.281242,0.792533,0.314585,0.788777,0.324216,0.782725,0.335306,0.780194,0.361541,0.759271,0.389950,0.741421,0.741421,0.389950,0.759271,0.361541,0.780194,0.335306,0.782725,0.324216,0.788777,0.314585,0.792533,0.281242,0.800000,0.248529,0.800000,-0.248529,0.792533,-0.281242,0.788777,-0.314585,0.782725,-0.324216,0.780194,-0.335306,0.759271,-0.361541,0.741421,-0.389950,
0.389950,-0.741421,0.361541,-0.759271,0.335306,-0.780194,0.324216,-0.782725,0.314585,-0.788777,0.281242,-0.792533,0.248529,-0.800000,0.000000,-0.800000,-0.248529,-0.800000,-0.281242,-0.792533,-0.314585,-0.788777,-0.324216,-0.782725,-0.335306,-0.780194,-0.361541,-0.759271,-0.389950,-0.741421,-0.741421,-0.389950,-0.759271,-0.361541,-0.780194,-0.335306,-0.782725,-0.324216,-0.788777,-0.314585,
-0.792533,-0.281242,-0.800000,-0.248529,-0.800000,0.248529,-0.792533,0.281242,-0.788777,0.314585,-0.782725,0.324216,-0.780194,0.335306,-0.759271,0.361541,-0.741421,0.389950,-0.389950,0.741421,-0.361541,0.759271,-0.335306,0.780194,-0.324216,0.782725,-0.314585,0.788777,-0.281242,0.792533,-0.248529,0.800000,0.248529,0.800000,0.281242,0.792533,0.281242,0.792533,$1*%
G04 Aperture macros list end*
%TA.AperFunction,ComponentPad*%
%ADD10C,1.400000*%
%TD*%
%TA.AperFunction,ComponentPad*%
%ADD11O,1.400000X1.400000*%
%TD*%
%TA.AperFunction,ComponentPad*%
%ADD12C,2.400000*%
%TD*%
%TA.AperFunction,ComponentPad*%
%ADD13O,2.400000X2.400000*%
%TD*%
%TA.AperFunction,ComponentPad*%
%ADD14R,1.350000X1.350000*%
%TD*%
%TA.AperFunction,ComponentPad*%
%ADD15O,1.350000X1.350000*%
%TD*%
%TA.AperFunction,ComponentPad*%
%ADD16R,2.200000X2.200000*%
%TD*%
%TA.AperFunction,ComponentPad*%
%ADD17O,2.200000X2.200000*%
%TD*%
%TA.AperFunction,ComponentPad*%
%ADD18R,1.050000X1.500000*%
%TD*%
%TA.AperFunction,ComponentPad*%
%ADD19O,1.050000X1.500000*%
%TD*%
%TA.AperFunction,ComponentPad*%
%ADD20R,1.500000X1.050000*%
%TD*%
%TA.AperFunction,ComponentPad*%
%ADD21O,1.500000X1.050000*%
%TD*%
%TA.AperFunction,ComponentPad*%
%ADD22C,1.600000*%
%TD*%
%TA.AperFunction,ComponentPad*%
%ADD23RoundRect,0.200000X0.600000X-0.600000X0.600000X0.600000X-0.600000X0.600000X-0.600000X-0.600000X0*%
%TD*%
%TA.AperFunction,ComponentPad*%
%ADD24FreePoly0,90.000000*%
%TD*%
%TA.AperFunction,Conductor*%
%ADD25C,0.600000*%
%TD*%
G04 APERTURE END LIST*
D10*
%TO.P,R11,1*%
%TO.N,Net-(A1-GPIO21)*%
X148056600Y-118287800D03*
D11*
%TO.P,R11,2*%
%TO.N,+5V*%
X148056600Y-113207800D03*
%TD*%
D10*
%TO.P,R10,1*%
%TO.N,Net-(A1-GPIO19)*%
X155524200Y-118287800D03*
D11*
%TO.P,R10,2*%
%TO.N,+5V*%
X155524200Y-113207800D03*
%TD*%
D12*
%TO.P,R4,1*%
%TO.N,pilot_in_carg*%
X167919400Y-54864000D03*
D13*
%TO.P,R4,2*%
%TO.N,Net-(Q2-C)*%
X180619400Y-54864000D03*
%TD*%
D12*
%TO.P,R6,1*%
%TO.N,Net-(R6-Pad1)*%
X135001000Y-95021400D03*
D13*
%TO.P,R6,2*%
%TO.N,Net-(Q3-C)*%
X147701000Y-95021400D03*
%TD*%
D14*
%TO.P,J1,1,Pin_1*%
%TO.N,GND*%
X188386200Y-85293200D03*
D15*
%TO.P,J1,2,Pin_2*%
%TO.N,+3.3V*%
X190386200Y-85293200D03*
%TO.P,J1,3,Pin_3*%
%TO.N,SDA*%
X192386200Y-85293200D03*
%TO.P,J1,4,Pin_4*%
%TO.N,CLK*%
X194386200Y-85293200D03*
%TD*%
D12*
%TO.P,R9,1*%
%TO.N,Net-(R2-Pad2)*%
X155702000Y-67767200D03*
D13*
%TO.P,R9,2*%
%TO.N,GND*%
X155702000Y-80467200D03*
%TD*%
D12*
%TO.P,R1,1*%
%TO.N,Net-(D1-K)*%
X110058200Y-55041800D03*
D13*
%TO.P,R1,2*%
%TO.N,/micro/pilot_micro*%
X110058200Y-67741800D03*
%TD*%
D16*
%TO.P,D1,1,K*%
%TO.N,Net-(D1-K)*%
X124333000Y-54914800D03*
D17*
%TO.P,D1,2,A*%
%TO.N,pilot_in_carg*%
X134493000Y-54914800D03*
%TD*%
D12*
%TO.P,R7,1*%
%TO.N,/micro/pilot_micro*%
X110109000Y-88747600D03*
D13*
%TO.P,R7,2*%
%TO.N,GND*%
X122809000Y-88747600D03*
%TD*%
D18*
%TO.P,Q2,1,E*%
%TO.N,GND*%
X166243000Y-81305400D03*
D19*
%TO.P,Q2,2,B*%
%TO.N,Net-(Q2-B)*%
X167513000Y-81305400D03*
%TO.P,Q2,3,C*%
%TO.N,Net-(Q2-C)*%
X168783000Y-81305400D03*
%TD*%
D12*
%TO.P,R8,1*%
%TO.N,pilot_in_carg*%
X134874000Y-71221600D03*
D13*
%TO.P,R8,2*%
%TO.N,Net-(R6-Pad1)*%
X134874000Y-83921600D03*
%TD*%
D12*
%TO.P,R3,1*%
%TO.N,/micro/pwm1*%
X197916800Y-67843400D03*
D13*
%TO.P,R3,2*%
%TO.N,Net-(Q2-B)*%
X185216800Y-67843400D03*
%TD*%
D12*
%TO.P,R5,1*%
%TO.N,/micro/pwm2*%
X175996600Y-105384600D03*
D13*
%TO.P,R5,2*%
%TO.N,Net-(Q3-B)*%
X175996600Y-92684600D03*
%TD*%
D20*
%TO.P,Q3,1,E*%
%TO.N,GND*%
X166674800Y-90754200D03*
D21*
%TO.P,Q3,2,B*%
%TO.N,Net-(Q3-B)*%
X166674800Y-92024200D03*
%TO.P,Q3,3,C*%
%TO.N,Net-(Q3-C)*%
X166674800Y-93294200D03*
%TD*%
D12*
%TO.P,R2,1*%
%TO.N,pilot_in_carg*%
X145973800Y-55041800D03*
D13*
%TO.P,R2,2*%
%TO.N,Net-(R2-Pad2)*%
X145973800Y-67741800D03*
%TD*%
D22*
%TO.P,A1,43,SWDIO*%
%TO.N,unconnected-(A1-SWDIO-Pad43)*%
X163092000Y-131775000D03*
D23*
%TO.P,A1,42,SWGND*%
%TO.N,GND*%
X163092000Y-134315000D03*
D24*
%TO.P,A1,41,SWCLK*%
%TO.N,unconnected-(A1-SWCLK-Pad41)*%
X163092000Y-136855000D03*
D22*
%TO.P,A1,40,VBUS*%
%TO.N,unconnected-(A1-VBUS-Pad40)*%
X115062000Y-125425000D03*
%TO.P,A1,39,VSYS*%
%TO.N,+5V*%
X117602000Y-125425000D03*
D23*
%TO.P,A1,38,GND*%
%TO.N,GND*%
X120142000Y-125425000D03*
D22*
%TO.P,A1,37,3V3_EN*%
%TO.N,unconnected-(A1-3V3_EN-Pad37)*%
X122682000Y-125425000D03*
%TO.P,A1,36,3V3*%
%TO.N,unconnected-(A1-3V3-Pad36)*%
X125222000Y-125425000D03*
%TO.P,A1,35,ADC_VREF*%
%TO.N,unconnected-(A1-ADC_VREF-Pad35)*%
X127762000Y-125425000D03*
%TO.P,A1,34,GPIO28_ADC2*%
%TO.N,unconnected-(A1-GPIO28_ADC2-Pad34)*%
X130302000Y-125425000D03*
D23*
%TO.P,A1,33,AGND*%
%TO.N,GND*%
X132842000Y-125425000D03*
D22*
%TO.P,A1,32,GPIO27_ADC1*%
%TO.N,/micro/pilot_micro*%
X135382000Y-125425000D03*
%TO.P,A1,31,GPIO26_ADC0*%
%TO.N,unconnected-(A1-GPIO26_ADC0-Pad31)*%
X137922000Y-125425000D03*
%TO.P,A1,30,RUN*%
%TO.N,unconnected-(A1-RUN-Pad30)*%
X140462000Y-125425000D03*
%TO.P,A1,29,GPIO22*%
%TO.N,unconnected-(A1-GPIO22-Pad29)*%
X143002000Y-125425000D03*
D23*
%TO.P,A1,28,GND*%
%TO.N,GND*%
X145542000Y-125425000D03*
D22*
%TO.P,A1,27,GPIO21*%
%TO.N,Net-(A1-GPIO21)*%
X148082000Y-125425000D03*
%TO.P,A1,26,GPIO20*%
%TO.N,unconnected-(A1-GPIO20-Pad26)*%
X150622000Y-125425000D03*
%TO.P,A1,25,GPIO19*%
%TO.N,Net-(A1-GPIO19)*%
X153162000Y-125425000D03*
%TO.P,A1,24,GPIO18*%
%TO.N,unconnected-(A1-GPIO18-Pad24)*%
X155702000Y-125425000D03*
D23*
%TO.P,A1,23,GND*%
%TO.N,GND*%
X158242000Y-125425000D03*
D22*
%TO.P,A1,22,GPIO17*%
%TO.N,unconnected-(A1-GPIO17-Pad22)*%
X160782000Y-125425000D03*
%TO.P,A1,21,GPIO16*%
%TO.N,unconnected-(A1-GPIO16-Pad21)*%
X163322000Y-125425000D03*
%TO.P,A1,20,GPIO15*%
%TO.N,/micro/pwm2*%
X163322000Y-143205000D03*
%TO.P,A1,19,GPIO14*%
%TO.N,/micro/pwm1*%
X160782000Y-143205000D03*
D23*
%TO.P,A1,18,GND*%
%TO.N,GND*%
X158242000Y-143205000D03*
D22*
%TO.P,A1,17,GPIO13*%
%TO.N,unconnected-(A1-GPIO13-Pad17)*%
X155702000Y-143205000D03*
%TO.P,A1,16,GPIO12*%
%TO.N,unconnected-(A1-GPIO12-Pad16)*%
X153162000Y-143205000D03*
%TO.P,A1,15,GPIO11*%
%TO.N,unconnected-(A1-GPIO11-Pad15)*%
X150622000Y-143205000D03*
%TO.P,A1,14,GPIO10*%
%TO.N,unconnected-(A1-GPIO10-Pad14)*%
X148082000Y-143205000D03*
D23*
%TO.P,A1,13,GND*%
%TO.N,GND*%
X145542000Y-143205000D03*
D22*
%TO.P,A1,12,GPIO9*%
%TO.N,unconnected-(A1-GPIO9-Pad12)*%
X143002000Y-143205000D03*
%TO.P,A1,11,GPIO8*%
%TO.N,unconnected-(A1-GPIO8-Pad11)*%
X140462000Y-143205000D03*
%TO.P,A1,10,GPIO7*%
%TO.N,unconnected-(A1-GPIO7-Pad10)*%
X137922000Y-143205000D03*
%TO.P,A1,9,GPIO6*%
%TO.N,unconnected-(A1-GPIO6-Pad9)*%
X135382000Y-143205000D03*
D23*
%TO.P,A1,8,GND*%
%TO.N,GND*%
X132842000Y-143205000D03*
D22*
%TO.P,A1,7,GPIO5*%
%TO.N,SCL*%
X130302000Y-143205000D03*
%TO.P,A1,6,GPIO4*%
%TO.N,SDA*%
X127762000Y-143205000D03*
%TO.P,A1,5,GPIO3*%
%TO.N,unconnected-(A1-GPIO3-Pad5)*%
X125222000Y-143205000D03*
%TO.P,A1,4,GPIO2*%
%TO.N,unconnected-(A1-GPIO2-Pad4)*%
X122682000Y-143205000D03*
D23*
%TO.P,A1,3,GND*%
%TO.N,GND*%
X120142000Y-143205000D03*
D22*
%TO.P,A1,2,GPIO1*%
%TO.N,unconnected-(A1-GPIO1-Pad2)*%
X117602000Y-143205000D03*
D24*
%TO.P,A1,1,GPIO0*%
%TO.N,unconnected-(A1-GPIO0-Pad1)*%
X115062000Y-143205000D03*
%TD*%
D25*
%TO.N,GND*%
X166243000Y-81305400D02*
X166243000Y-81530400D01*
%TD*%
M02*
