%TF.GenerationSoftware,KiCad,Pcbnew,7.0.1*%
%TF.CreationDate,2023-06-06T10:46:51-05:00*%
%TF.ProjectId,simulacion_Carro,73696d75-6c61-4636-996f-6e5f43617272,rev?*%
%TF.SameCoordinates,Original*%
%TF.FileFunction,Copper,L1,Top*%
%TF.FilePolarity,Positive*%
%FSLAX46Y46*%
G04 Gerber Fmt 4.6, Leading zero omitted, Abs format (unit mm)*
G04 Created by KiCad (PCBNEW 7.0.1) date 2023-06-06 10:46:51*
%MOMM*%
%LPD*%
G01*
G04 APERTURE LIST*
G04 Aperture macros list*
%AMRoundRect*
0 Rectangle with rounded corners*
0 $1 Rounding radius*
0 $2 $3 $4 $5 $6 $7 $8 $9 X,Y pos of 4 corners*
0 Add a 4 corners polygon primitive as box body*
4,1,4,$2,$3,$4,$5,$6,$7,$8,$9,$2,$3,0*
0 Add four circle primitives for the rounded corners*
1,1,$1+$1,$2,$3*
1,1,$1+$1,$4,$5*
1,1,$1+$1,$6,$7*
1,1,$1+$1,$8,$9*
0 Add four rect primitives between the rounded corners*
20,1,$1+$1,$2,$3,$4,$5,0*
20,1,$1+$1,$4,$5,$6,$7,0*
20,1,$1+$1,$6,$7,$8,$9,0*
20,1,$1+$1,$8,$9,$2,$3,0*%
%AMFreePoly0*
4,1,58,0.281242,2.392533,0.314585,2.388777,0.324216,2.382725,0.335306,2.380194,0.361541,2.359271,0.389950,2.341421,0.741421,1.989950,0.759271,1.961541,0.780194,1.935306,0.782725,1.924216,0.788777,1.914585,0.792533,1.881242,0.800000,1.848529,0.800000,-0.248529,0.792533,-0.281242,0.788777,-0.314585,0.782725,-0.324216,0.780194,-0.335306,0.759271,-0.361541,0.741421,-0.389950,
0.389950,-0.741421,0.361541,-0.759271,0.335306,-0.780194,0.324216,-0.782725,0.314585,-0.788777,0.281242,-0.792533,0.248529,-0.800000,0.000000,-0.800000,-0.248529,-0.800000,-0.281242,-0.792533,-0.314585,-0.788777,-0.324216,-0.782725,-0.335306,-0.780194,-0.361541,-0.759271,-0.389950,-0.741421,-0.741421,-0.389950,-0.759271,-0.361541,-0.780194,-0.335306,-0.782725,-0.324216,-0.788777,-0.314585,
-0.792533,-0.281242,-0.800000,-0.248529,-0.800000,1.848529,-0.792533,1.881242,-0.788777,1.914585,-0.782725,1.924216,-0.780194,1.935306,-0.759271,1.961541,-0.741421,1.989950,-0.389950,2.341421,-0.361541,2.359271,-0.335306,2.380194,-0.324216,2.382725,-0.314585,2.388777,-0.281242,2.392533,-0.248529,2.400000,0.248529,2.400000,0.281242,2.392533,0.281242,2.392533,$1*%
%AMFreePoly1*
4,1,58,0.281242,0.792533,0.314585,0.788777,0.324216,0.782725,0.335306,0.780194,0.361541,0.759271,0.389950,0.741421,0.741421,0.389950,0.759271,0.361541,0.780194,0.335306,0.782725,0.324216,0.788777,0.314585,0.792533,0.281242,0.800000,0.248529,0.800000,-0.248529,0.792533,-0.281242,0.788777,-0.314585,0.782725,-0.324216,0.780194,-0.335306,0.759271,-0.361541,0.741421,-0.389950,
0.389950,-0.741421,0.361541,-0.759271,0.335306,-0.780194,0.324216,-0.782725,0.314585,-0.788777,0.281242,-0.792533,0.248529,-0.800000,0.000000,-0.800000,-0.248529,-0.800000,-0.281242,-0.792533,-0.314585,-0.788777,-0.324216,-0.782725,-0.335306,-0.780194,-0.361541,-0.759271,-0.389950,-0.741421,-0.741421,-0.389950,-0.759271,-0.361541,-0.780194,-0.335306,-0.782725,-0.324216,-0.788777,-0.314585,
-0.792533,-0.281242,-0.800000,-0.248529,-0.800000,0.248529,-0.792533,0.281242,-0.788777,0.314585,-0.782725,0.324216,-0.780194,0.335306,-0.759271,0.361541,-0.741421,0.389950,-0.389950,0.741421,-0.361541,0.759271,-0.335306,0.780194,-0.324216,0.782725,-0.314585,0.788777,-0.281242,0.792533,-0.248529,0.800000,0.248529,0.800000,0.281242,0.792533,0.281242,0.792533,$1*%
%AMFreePoly2*
4,1,58,1.881242,0.792533,1.914585,0.788777,1.924216,0.782725,1.935306,0.780194,1.961541,0.759271,1.989950,0.741421,2.341421,0.389950,2.359271,0.361541,2.380194,0.335306,2.382725,0.324216,2.388777,0.314585,2.392533,0.281242,2.400000,0.248529,2.400000,-0.248529,2.392533,-0.281242,2.388777,-0.314585,2.382725,-0.324216,2.380194,-0.335306,2.359271,-0.361541,2.341421,-0.389950,
1.989950,-0.741421,1.961541,-0.759271,1.935306,-0.780194,1.924216,-0.782725,1.914585,-0.788777,1.881242,-0.792533,1.848529,-0.800000,0.000000,-0.800000,-0.248529,-0.800000,-0.281242,-0.792533,-0.314585,-0.788777,-0.324216,-0.782725,-0.335306,-0.780194,-0.361541,-0.759271,-0.389950,-0.741421,-0.741421,-0.389950,-0.759271,-0.361541,-0.780194,-0.335306,-0.782725,-0.324216,-0.788777,-0.314585,
-0.792533,-0.281242,-0.800000,-0.248529,-0.800000,0.248529,-0.792533,0.281242,-0.788777,0.314585,-0.782725,0.324216,-0.780194,0.335306,-0.759271,0.361541,-0.741421,0.389950,-0.389950,0.741421,-0.361541,0.759271,-0.335306,0.780194,-0.324216,0.782725,-0.314585,0.788777,-0.281242,0.792533,-0.248529,0.800000,1.848529,0.800000,1.881242,0.792533,1.881242,0.792533,$1*%
G04 Aperture macros list end*
%TA.AperFunction,ComponentPad*%
%ADD10C,1.400000*%
%TD*%
%TA.AperFunction,ComponentPad*%
%ADD11O,1.400000X1.400000*%
%TD*%
%TA.AperFunction,ComponentPad*%
%ADD12C,2.400000*%
%TD*%
%TA.AperFunction,ComponentPad*%
%ADD13O,2.400000X2.400000*%
%TD*%
%TA.AperFunction,ComponentPad*%
%ADD14R,1.350000X1.350000*%
%TD*%
%TA.AperFunction,ComponentPad*%
%ADD15O,1.350000X1.350000*%
%TD*%
%TA.AperFunction,ComponentPad*%
%ADD16R,2.200000X2.200000*%
%TD*%
%TA.AperFunction,ComponentPad*%
%ADD17O,2.200000X2.200000*%
%TD*%
%TA.AperFunction,ComponentPad*%
%ADD18R,1.050000X1.500000*%
%TD*%
%TA.AperFunction,ComponentPad*%
%ADD19O,1.050000X1.500000*%
%TD*%
%TA.AperFunction,ComponentPad*%
%ADD20R,1.500000X1.050000*%
%TD*%
%TA.AperFunction,ComponentPad*%
%ADD21O,1.500000X1.050000*%
%TD*%
%TA.AperFunction,SMDPad,CuDef*%
%ADD22O,3.200000X1.600000*%
%TD*%
%TA.AperFunction,ComponentPad*%
%ADD23C,1.600000*%
%TD*%
%TA.AperFunction,SMDPad,CuDef*%
%ADD24RoundRect,0.200000X1.400000X-0.600000X1.400000X0.600000X-1.400000X0.600000X-1.400000X-0.600000X0*%
%TD*%
%TA.AperFunction,ComponentPad*%
%ADD25RoundRect,0.200000X0.600000X-0.600000X0.600000X0.600000X-0.600000X0.600000X-0.600000X-0.600000X0*%
%TD*%
%TA.AperFunction,SMDPad,CuDef*%
%ADD26FreePoly0,90.000000*%
%TD*%
%TA.AperFunction,ComponentPad*%
%ADD27FreePoly1,90.000000*%
%TD*%
%TA.AperFunction,SMDPad,CuDef*%
%ADD28O,1.600000X3.200000*%
%TD*%
%TA.AperFunction,SMDPad,CuDef*%
%ADD29RoundRect,0.200000X0.600000X-1.400000X0.600000X1.400000X-0.600000X1.400000X-0.600000X-1.400000X0*%
%TD*%
%TA.AperFunction,SMDPad,CuDef*%
%ADD30FreePoly2,90.000000*%
%TD*%
%TA.AperFunction,Conductor*%
%ADD31C,0.600000*%
%TD*%
G04 APERTURE END LIST*
D10*
%TO.P,R11,1*%
%TO.N,Net-(A1-GPIO21)*%
X148056600Y-118287800D03*
D11*
%TO.P,R11,2*%
%TO.N,+5V*%
X148056600Y-113207800D03*
%TD*%
D10*
%TO.P,R10,1*%
%TO.N,Net-(A1-GPIO19)*%
X155524200Y-118287800D03*
D11*
%TO.P,R10,2*%
%TO.N,+5V*%
X155524200Y-113207800D03*
%TD*%
D12*
%TO.P,R4,1*%
%TO.N,pilot_in_carg*%
X167919400Y-54864000D03*
D13*
%TO.P,R4,2*%
%TO.N,Net-(Q2-C)*%
X180619400Y-54864000D03*
%TD*%
D12*
%TO.P,R6,1*%
%TO.N,Net-(R6-Pad1)*%
X135001000Y-95021400D03*
D13*
%TO.P,R6,2*%
%TO.N,Net-(Q3-C)*%
X147701000Y-95021400D03*
%TD*%
D14*
%TO.P,J1,1,Pin_1*%
%TO.N,GND*%
X188386200Y-85293200D03*
D15*
%TO.P,J1,2,Pin_2*%
%TO.N,+3.3V*%
X190386200Y-85293200D03*
%TO.P,J1,3,Pin_3*%
%TO.N,SDA*%
X192386200Y-85293200D03*
%TO.P,J1,4,Pin_4*%
%TO.N,CLK*%
X194386200Y-85293200D03*
%TD*%
D12*
%TO.P,R9,1*%
%TO.N,Net-(R2-Pad2)*%
X155702000Y-67767200D03*
D13*
%TO.P,R9,2*%
%TO.N,GND*%
X155702000Y-80467200D03*
%TD*%
D12*
%TO.P,R1,1*%
%TO.N,Net-(D1-K)*%
X110058200Y-55041800D03*
D13*
%TO.P,R1,2*%
%TO.N,/micro/pilot_micro*%
X110058200Y-67741800D03*
%TD*%
D16*
%TO.P,D1,1,K*%
%TO.N,Net-(D1-K)*%
X124333000Y-54914800D03*
D17*
%TO.P,D1,2,A*%
%TO.N,pilot_in_carg*%
X134493000Y-54914800D03*
%TD*%
D12*
%TO.P,R7,1*%
%TO.N,/micro/pilot_micro*%
X110109000Y-88747600D03*
D13*
%TO.P,R7,2*%
%TO.N,GND*%
X122809000Y-88747600D03*
%TD*%
D18*
%TO.P,Q2,1,E*%
%TO.N,GND*%
X166243000Y-81305400D03*
D19*
%TO.P,Q2,2,B*%
%TO.N,Net-(Q2-B)*%
X167513000Y-81305400D03*
%TO.P,Q2,3,C*%
%TO.N,Net-(Q2-C)*%
X168783000Y-81305400D03*
%TD*%
D12*
%TO.P,R8,1*%
%TO.N,pilot_in_carg*%
X134874000Y-71221600D03*
D13*
%TO.P,R8,2*%
%TO.N,Net-(R6-Pad1)*%
X134874000Y-83921600D03*
%TD*%
D12*
%TO.P,R3,1*%
%TO.N,/micro/pwm1*%
X197916800Y-67843400D03*
D13*
%TO.P,R3,2*%
%TO.N,Net-(Q2-B)*%
X185216800Y-67843400D03*
%TD*%
D12*
%TO.P,R5,1*%
%TO.N,/micro/pwm2*%
X175996600Y-105384600D03*
D13*
%TO.P,R5,2*%
%TO.N,Net-(Q3-B)*%
X175996600Y-92684600D03*
%TD*%
D20*
%TO.P,Q3,1,E*%
%TO.N,GND*%
X166674800Y-90754200D03*
D21*
%TO.P,Q3,2,B*%
%TO.N,Net-(Q3-B)*%
X166674800Y-92024200D03*
%TO.P,Q3,3,C*%
%TO.N,Net-(Q3-C)*%
X166674800Y-93294200D03*
%TD*%
D12*
%TO.P,R2,1*%
%TO.N,pilot_in_carg*%
X145973800Y-55041800D03*
D13*
%TO.P,R2,2*%
%TO.N,Net-(R2-Pad2)*%
X145973800Y-67741800D03*
%TD*%
D22*
%TO.P,A1,43,SWDIO*%
%TO.N,unconnected-(A1-SWDIO-Pad43)*%
X163892000Y-131775000D03*
D23*
X163092000Y-131775000D03*
D24*
%TO.P,A1,42,SWGND*%
%TO.N,GND*%
X163892000Y-134315000D03*
D25*
X163092000Y-134315000D03*
D26*
%TO.P,A1,41,SWCLK*%
%TO.N,unconnected-(A1-SWCLK-Pad41)*%
X164692000Y-136855000D03*
D27*
X163092000Y-136855000D03*
D28*
%TO.P,A1,40,VBUS*%
%TO.N,unconnected-(A1-VBUS-Pad40)*%
X115062000Y-124625000D03*
D23*
X115062000Y-125425000D03*
D28*
%TO.P,A1,39,VSYS*%
%TO.N,+5V*%
X117602000Y-124625000D03*
D23*
X117602000Y-125425000D03*
D29*
%TO.P,A1,38,GND*%
%TO.N,GND*%
X120142000Y-124625000D03*
D25*
X120142000Y-125425000D03*
D28*
%TO.P,A1,37,3V3_EN*%
%TO.N,unconnected-(A1-3V3_EN-Pad37)*%
X122682000Y-124625000D03*
D23*
X122682000Y-125425000D03*
D28*
%TO.P,A1,36,3V3*%
%TO.N,unconnected-(A1-3V3-Pad36)*%
X125222000Y-124625000D03*
D23*
X125222000Y-125425000D03*
D28*
%TO.P,A1,35,ADC_VREF*%
%TO.N,unconnected-(A1-ADC_VREF-Pad35)*%
X127762000Y-124625000D03*
D23*
X127762000Y-125425000D03*
D28*
%TO.P,A1,34,GPIO28_ADC2*%
%TO.N,unconnected-(A1-GPIO28_ADC2-Pad34)*%
X130302000Y-124625000D03*
D23*
X130302000Y-125425000D03*
D29*
%TO.P,A1,33,AGND*%
%TO.N,GND*%
X132842000Y-124625000D03*
D25*
X132842000Y-125425000D03*
D28*
%TO.P,A1,32,GPIO27_ADC1*%
%TO.N,/micro/pilot_micro*%
X135382000Y-124625000D03*
D23*
X135382000Y-125425000D03*
D28*
%TO.P,A1,31,GPIO26_ADC0*%
%TO.N,unconnected-(A1-GPIO26_ADC0-Pad31)*%
X137922000Y-124625000D03*
D23*
X137922000Y-125425000D03*
D28*
%TO.P,A1,30,RUN*%
%TO.N,unconnected-(A1-RUN-Pad30)*%
X140462000Y-124625000D03*
D23*
X140462000Y-125425000D03*
D28*
%TO.P,A1,29,GPIO22*%
%TO.N,unconnected-(A1-GPIO22-Pad29)*%
X143002000Y-124625000D03*
D23*
X143002000Y-125425000D03*
D29*
%TO.P,A1,28,GND*%
%TO.N,GND*%
X145542000Y-124625000D03*
D25*
X145542000Y-125425000D03*
D28*
%TO.P,A1,27,GPIO21*%
%TO.N,Net-(A1-GPIO21)*%
X148082000Y-124625000D03*
D23*
X148082000Y-125425000D03*
D28*
%TO.P,A1,26,GPIO20*%
%TO.N,unconnected-(A1-GPIO20-Pad26)*%
X150622000Y-124625000D03*
D23*
X150622000Y-125425000D03*
D28*
%TO.P,A1,25,GPIO19*%
%TO.N,Net-(A1-GPIO19)*%
X153162000Y-124625000D03*
D23*
X153162000Y-125425000D03*
D28*
%TO.P,A1,24,GPIO18*%
%TO.N,unconnected-(A1-GPIO18-Pad24)*%
X155702000Y-124625000D03*
D23*
X155702000Y-125425000D03*
D29*
%TO.P,A1,23,GND*%
%TO.N,GND*%
X158242000Y-124625000D03*
D25*
X158242000Y-125425000D03*
D28*
%TO.P,A1,22,GPIO17*%
%TO.N,unconnected-(A1-GPIO17-Pad22)*%
X160782000Y-124625000D03*
D23*
X160782000Y-125425000D03*
D28*
%TO.P,A1,21,GPIO16*%
%TO.N,unconnected-(A1-GPIO16-Pad21)*%
X163322000Y-124625000D03*
D23*
X163322000Y-125425000D03*
%TO.P,A1,20,GPIO15*%
%TO.N,/micro/pwm2*%
X163322000Y-143205000D03*
D28*
X163322000Y-144005000D03*
D23*
%TO.P,A1,19,GPIO14*%
%TO.N,/micro/pwm1*%
X160782000Y-143205000D03*
D28*
X160782000Y-144005000D03*
D25*
%TO.P,A1,18,GND*%
%TO.N,GND*%
X158242000Y-143205000D03*
D29*
X158242000Y-144005000D03*
D23*
%TO.P,A1,17,GPIO13*%
%TO.N,unconnected-(A1-GPIO13-Pad17)*%
X155702000Y-143205000D03*
D28*
X155702000Y-144005000D03*
D23*
%TO.P,A1,16,GPIO12*%
%TO.N,unconnected-(A1-GPIO12-Pad16)*%
X153162000Y-143205000D03*
D28*
X153162000Y-144005000D03*
D23*
%TO.P,A1,15,GPIO11*%
%TO.N,unconnected-(A1-GPIO11-Pad15)*%
X150622000Y-143205000D03*
D28*
X150622000Y-144005000D03*
D23*
%TO.P,A1,14,GPIO10*%
%TO.N,unconnected-(A1-GPIO10-Pad14)*%
X148082000Y-143205000D03*
D28*
X148082000Y-144005000D03*
D25*
%TO.P,A1,13,GND*%
%TO.N,GND*%
X145542000Y-143205000D03*
D29*
X145542000Y-144005000D03*
D23*
%TO.P,A1,12,GPIO9*%
%TO.N,unconnected-(A1-GPIO9-Pad12)*%
X143002000Y-143205000D03*
D28*
X143002000Y-144005000D03*
D23*
%TO.P,A1,11,GPIO8*%
%TO.N,unconnected-(A1-GPIO8-Pad11)*%
X140462000Y-143205000D03*
D28*
X140462000Y-144005000D03*
D23*
%TO.P,A1,10,GPIO7*%
%TO.N,unconnected-(A1-GPIO7-Pad10)*%
X137922000Y-143205000D03*
D28*
X137922000Y-144005000D03*
D23*
%TO.P,A1,9,GPIO6*%
%TO.N,unconnected-(A1-GPIO6-Pad9)*%
X135382000Y-143205000D03*
D28*
X135382000Y-144005000D03*
D25*
%TO.P,A1,8,GND*%
%TO.N,GND*%
X132842000Y-143205000D03*
D29*
X132842000Y-144005000D03*
D23*
%TO.P,A1,7,GPIO5*%
%TO.N,SCL*%
X130302000Y-143205000D03*
D28*
X130302000Y-144005000D03*
D23*
%TO.P,A1,6,GPIO4*%
%TO.N,SDA*%
X127762000Y-143205000D03*
D28*
X127762000Y-144005000D03*
D23*
%TO.P,A1,5,GPIO3*%
%TO.N,unconnected-(A1-GPIO3-Pad5)*%
X125222000Y-143205000D03*
D28*
X125222000Y-144005000D03*
D23*
%TO.P,A1,4,GPIO2*%
%TO.N,unconnected-(A1-GPIO2-Pad4)*%
X122682000Y-143205000D03*
D28*
X122682000Y-144005000D03*
D25*
%TO.P,A1,3,GND*%
%TO.N,GND*%
X120142000Y-143205000D03*
D29*
X120142000Y-144005000D03*
D23*
%TO.P,A1,2,GPIO1*%
%TO.N,unconnected-(A1-GPIO1-Pad2)*%
X117602000Y-143205000D03*
D28*
X117602000Y-144005000D03*
D27*
%TO.P,A1,1,GPIO0*%
%TO.N,unconnected-(A1-GPIO0-Pad1)*%
X115062000Y-143205000D03*
D30*
X115062000Y-144805000D03*
%TD*%
D31*
%TO.N,Net-(A1-GPIO19)*%
X153162000Y-120650000D02*
X155524200Y-118287800D01*
X153162000Y-125425000D02*
X153162000Y-120650000D01*
%TO.N,Net-(A1-GPIO21)*%
X148082000Y-125425000D02*
X148082000Y-118313200D01*
X148082000Y-118313200D02*
X148056600Y-118287800D01*
%TO.N,+5V*%
X148056600Y-110058200D02*
X148031200Y-110032800D01*
X148056600Y-113207800D02*
X148056600Y-110058200D01*
X148031200Y-110032800D02*
X154508200Y-110032800D01*
X131648200Y-110032800D02*
X148031200Y-110032800D01*
X155524200Y-111048800D02*
X155524200Y-113207800D01*
X154508200Y-110032800D02*
X155524200Y-111048800D01*
X129082800Y-107467400D02*
X131648200Y-110032800D01*
X129082800Y-71678800D02*
X129082800Y-107467400D01*
X117348000Y-59944000D02*
X129082800Y-71678800D01*
X107746800Y-59944000D02*
X117348000Y-59944000D01*
X105943400Y-61747400D02*
X107746800Y-59944000D01*
X105943400Y-112635030D02*
X105943400Y-61747400D01*
X117602000Y-124293630D02*
X105943400Y-112635030D01*
X117602000Y-125425000D02*
X117602000Y-124293630D01*
%TO.N,Net-(D1-K)*%
X124206000Y-55041800D02*
X124333000Y-54914800D01*
X110058200Y-55041800D02*
X124206000Y-55041800D01*
%TO.N,pilot_in_carg*%
X134874000Y-71221600D02*
X134874000Y-55295800D01*
X145846800Y-54914800D02*
X145973800Y-55041800D01*
X167919400Y-54864000D02*
X146151600Y-54864000D01*
X134493000Y-54914800D02*
X145846800Y-54914800D01*
X146151600Y-54864000D02*
X145973800Y-55041800D01*
X134874000Y-55295800D02*
X134493000Y-54914800D01*
%TO.N,GND*%
X158242000Y-143205000D02*
X158242000Y-143855990D01*
%TO.N,SDA*%
X192386200Y-141827000D02*
X185089800Y-149123400D01*
X185089800Y-149123400D02*
X131368800Y-149123400D01*
X127762000Y-145516600D02*
X127762000Y-144805000D01*
X131368800Y-149123400D02*
X127762000Y-145516600D01*
X192386200Y-85293200D02*
X192386200Y-141827000D01*
%TO.N,Net-(Q2-B)*%
X169621200Y-67919600D02*
X185140600Y-67919600D01*
X167513000Y-81305400D02*
X167513000Y-70027800D01*
X167513000Y-70027800D02*
X169621200Y-67919600D01*
X185140600Y-67919600D02*
X185216800Y-67843400D01*
%TO.N,Net-(Q2-C)*%
X186664600Y-54864000D02*
X188823600Y-57023000D01*
X179501800Y-81305400D02*
X168783000Y-81305400D01*
X188823600Y-57023000D02*
X188823600Y-71983600D01*
X188823600Y-71983600D02*
X179501800Y-81305400D01*
X180619400Y-54864000D02*
X186664600Y-54864000D01*
%TO.N,Net-(Q3-B)*%
X175895000Y-92024200D02*
X175945800Y-92075000D01*
X166674800Y-92024200D02*
X175895000Y-92024200D01*
%TO.N,Net-(Q3-C)*%
X166674800Y-94792800D02*
X165125400Y-96342200D01*
X165125400Y-96342200D02*
X149021800Y-96342200D01*
X149021800Y-96342200D02*
X147701000Y-95021400D01*
X166674800Y-93294200D02*
X166674800Y-94792800D01*
%TO.N,Net-(R2-Pad2)*%
X155676600Y-67741800D02*
X155702000Y-67767200D01*
X145973800Y-67741800D02*
X155676600Y-67741800D01*
%TO.N,Net-(R6-Pad1)*%
X135001000Y-95021400D02*
X135001000Y-84048600D01*
X135001000Y-84048600D02*
X134874000Y-83921600D01*
%TO.N,/micro/pwm1*%
X197916800Y-67843400D02*
X197916800Y-71120000D01*
X181229000Y-87807800D02*
X181229000Y-139496800D01*
X181229000Y-139496800D02*
X173812200Y-146913600D01*
X162890600Y-146913600D02*
X160782000Y-144805000D01*
X173812200Y-146913600D02*
X162890600Y-146913600D01*
X197916800Y-71120000D02*
X181229000Y-87807800D01*
%TO.N,/micro/pwm2*%
X175996600Y-135737600D02*
X168529200Y-143205000D01*
X168529200Y-143205000D02*
X163322000Y-143205000D01*
X175996600Y-105384600D02*
X175996600Y-135737600D01*
%TO.N,/micro/pilot_micro*%
X135382000Y-119557800D02*
X135382000Y-123825000D01*
X134264400Y-118440200D02*
X135382000Y-119557800D01*
X110058200Y-67741800D02*
X110058200Y-88696800D01*
X110109000Y-111455200D02*
X117094000Y-118440200D01*
X110109000Y-88747600D02*
X110109000Y-111455200D01*
X117094000Y-118440200D02*
X134264400Y-118440200D01*
X110058200Y-88696800D02*
X110109000Y-88747600D01*
%TD*%
%TA.AperFunction,Conductor*%
%TO.N,GND*%
G36*
X199658200Y-50308613D02*
G01*
X199703587Y-50354000D01*
X199720200Y-50416000D01*
X199720200Y-67128480D01*
X199701684Y-67193665D01*
X199651667Y-67239383D01*
X199585085Y-67251981D01*
X199521822Y-67227697D01*
X199480773Y-67173784D01*
X199453193Y-67103512D01*
X199452601Y-67102487D01*
X199389475Y-66993149D01*
X199325759Y-66882788D01*
X199166850Y-66683523D01*
X198980017Y-66510168D01*
X198769434Y-66366595D01*
X198539804Y-66256011D01*
X198296258Y-66180887D01*
X198044235Y-66142900D01*
X197789365Y-66142900D01*
X197537342Y-66180887D01*
X197293796Y-66256011D01*
X197064166Y-66366595D01*
X196965348Y-66433968D01*
X196853581Y-66510169D01*
X196776249Y-66581923D01*
X196666750Y-66683523D01*
X196510624Y-66879299D01*
X196507838Y-66882792D01*
X196380408Y-67103508D01*
X196287292Y-67340762D01*
X196230577Y-67589245D01*
X196211531Y-67843400D01*
X196230577Y-68097554D01*
X196287292Y-68346037D01*
X196380408Y-68583291D01*
X196463847Y-68727812D01*
X196507841Y-68804012D01*
X196666750Y-69003277D01*
X196853583Y-69176632D01*
X197062154Y-69318833D01*
X197101930Y-69363344D01*
X197116300Y-69421285D01*
X197116300Y-70737060D01*
X197106861Y-70784513D01*
X197079980Y-70824741D01*
X180726738Y-87177984D01*
X180683497Y-87221225D01*
X180599184Y-87305537D01*
X180578817Y-87337951D01*
X180570772Y-87349289D01*
X180546908Y-87379213D01*
X180530300Y-87413699D01*
X180523576Y-87425864D01*
X180503211Y-87458275D01*
X180490565Y-87494413D01*
X180485246Y-87507253D01*
X180468639Y-87541738D01*
X180460118Y-87579068D01*
X180456270Y-87592423D01*
X180443631Y-87628543D01*
X180439345Y-87666580D01*
X180437017Y-87680280D01*
X180428500Y-87717603D01*
X180428500Y-139113860D01*
X180419061Y-139161313D01*
X180392181Y-139201541D01*
X173516941Y-146076781D01*
X173476713Y-146103661D01*
X173429260Y-146113100D01*
X164114471Y-146113100D01*
X164054355Y-146097553D01*
X164009313Y-146054810D01*
X163990641Y-145995589D01*
X164003021Y-145934742D01*
X164043348Y-145887525D01*
X164161140Y-145805046D01*
X164322046Y-145644140D01*
X164371858Y-145573000D01*
X164452568Y-145457734D01*
X164548739Y-145251496D01*
X164607635Y-145031692D01*
X164622500Y-144861784D01*
X164622500Y-144129500D01*
X164639113Y-144067500D01*
X164684500Y-144022113D01*
X164746500Y-144005500D01*
X168619395Y-144005500D01*
X168630209Y-144003031D01*
X168656720Y-143996980D01*
X168670397Y-143994655D01*
X168708455Y-143990368D01*
X168744599Y-143977720D01*
X168757921Y-143973882D01*
X168795261Y-143965360D01*
X168829749Y-143948750D01*
X168842591Y-143943431D01*
X168878722Y-143930789D01*
X168911132Y-143910423D01*
X168923303Y-143903697D01*
X168957787Y-143887091D01*
X168987715Y-143863222D01*
X168999034Y-143855190D01*
X169031462Y-143834816D01*
X169159016Y-143707262D01*
X169159016Y-143707261D01*
X176594426Y-136271852D01*
X176626415Y-136239863D01*
X176626416Y-136239862D01*
X176646782Y-136207447D01*
X176654816Y-136196123D01*
X176678691Y-136166187D01*
X176695304Y-136131688D01*
X176702013Y-136119548D01*
X176722389Y-136087122D01*
X176735032Y-136050988D01*
X176740352Y-136038145D01*
X176756959Y-136003660D01*
X176765476Y-135966345D01*
X176769320Y-135952998D01*
X176781968Y-135916855D01*
X176786255Y-135878801D01*
X176788582Y-135865112D01*
X176797100Y-135827796D01*
X176797100Y-106962485D01*
X176811470Y-106904544D01*
X176851245Y-106860033D01*
X177059817Y-106717832D01*
X177246650Y-106544477D01*
X177405559Y-106345212D01*
X177532993Y-106124488D01*
X177626108Y-105887237D01*
X177682822Y-105638757D01*
X177701868Y-105384600D01*
X177682822Y-105130443D01*
X177626108Y-104881963D01*
X177532993Y-104644712D01*
X177405559Y-104423988D01*
X177246650Y-104224723D01*
X177059817Y-104051368D01*
X176849234Y-103907795D01*
X176619604Y-103797211D01*
X176376058Y-103722087D01*
X176124035Y-103684100D01*
X175869165Y-103684100D01*
X175617142Y-103722087D01*
X175373596Y-103797211D01*
X175143966Y-103907795D01*
X175038674Y-103979581D01*
X174933381Y-104051369D01*
X174746550Y-104224723D01*
X174587638Y-104423992D01*
X174460208Y-104644708D01*
X174367092Y-104881962D01*
X174310377Y-105130445D01*
X174291331Y-105384600D01*
X174310377Y-105638754D01*
X174367092Y-105887237D01*
X174460208Y-106124491D01*
X174587638Y-106345207D01*
X174587641Y-106345212D01*
X174746550Y-106544477D01*
X174933383Y-106717832D01*
X175141954Y-106860033D01*
X175181730Y-106904544D01*
X175196100Y-106962485D01*
X175196100Y-135354660D01*
X175186661Y-135402113D01*
X175159781Y-135442341D01*
X168233941Y-142368181D01*
X168193713Y-142395061D01*
X168146260Y-142404500D01*
X164412049Y-142404500D01*
X164364596Y-142395061D01*
X164324368Y-142368181D01*
X164161140Y-142204953D01*
X163974735Y-142074432D01*
X163768497Y-141978261D01*
X163548689Y-141919364D01*
X163322000Y-141899531D01*
X163095310Y-141919364D01*
X162875502Y-141978261D01*
X162669264Y-142074432D01*
X162482859Y-142204953D01*
X162321953Y-142365859D01*
X162191433Y-142552263D01*
X162164382Y-142610275D01*
X162118625Y-142662450D01*
X162052000Y-142681869D01*
X161985375Y-142662450D01*
X161939618Y-142610275D01*
X161937325Y-142605358D01*
X161912568Y-142552266D01*
X161912518Y-142552194D01*
X161782046Y-142365859D01*
X161621140Y-142204953D01*
X161434735Y-142074432D01*
X161228497Y-141978261D01*
X161008689Y-141919364D01*
X160782000Y-141899531D01*
X160555310Y-141919364D01*
X160335502Y-141978261D01*
X160129264Y-142074432D01*
X159942859Y-142204953D01*
X159781955Y-142365857D01*
X159732140Y-142437001D01*
X159679169Y-142479955D01*
X159611496Y-142488402D01*
X159549591Y-142459788D01*
X159512179Y-142402767D01*
X159485016Y-142315599D01*
X159397074Y-142170124D01*
X159276875Y-142049925D01*
X159131396Y-141961980D01*
X158969106Y-141911409D01*
X158898576Y-141905000D01*
X158492000Y-141905000D01*
X158492000Y-146104999D01*
X158898579Y-146104999D01*
X158969104Y-146098591D01*
X159131397Y-146048018D01*
X159276875Y-145960074D01*
X159397074Y-145839875D01*
X159485016Y-145694400D01*
X159512179Y-145607232D01*
X159549591Y-145550211D01*
X159611496Y-145521597D01*
X159679169Y-145530045D01*
X159732140Y-145572999D01*
X159781953Y-145644140D01*
X159942859Y-145805046D01*
X160129264Y-145935567D01*
X160129265Y-145935567D01*
X160129266Y-145935568D01*
X160335504Y-146031739D01*
X160555308Y-146090635D01*
X160622551Y-146096518D01*
X160781997Y-146110468D01*
X160781998Y-146110467D01*
X160782000Y-146110468D01*
X160883840Y-146101557D01*
X160937055Y-146108563D01*
X160982326Y-146137404D01*
X162260784Y-147415862D01*
X162388338Y-147543416D01*
X162419367Y-147562913D01*
X162420745Y-147563779D01*
X162432083Y-147571824D01*
X162462011Y-147595690D01*
X162462014Y-147595692D01*
X162496495Y-147612297D01*
X162496499Y-147612299D01*
X162508668Y-147619024D01*
X162508670Y-147619026D01*
X162541080Y-147639390D01*
X162577197Y-147652028D01*
X162590041Y-147657348D01*
X162621099Y-147672303D01*
X162624539Y-147673960D01*
X162661876Y-147682481D01*
X162675213Y-147686325D01*
X162711345Y-147698968D01*
X162749376Y-147703253D01*
X162763081Y-147705581D01*
X162800406Y-147714100D01*
X162845646Y-147714100D01*
X162980794Y-147714100D01*
X173722006Y-147714100D01*
X173857154Y-147714100D01*
X173902394Y-147714100D01*
X173902395Y-147714100D01*
X173913209Y-147711631D01*
X173939720Y-147705580D01*
X173953397Y-147703255D01*
X173991455Y-147698968D01*
X174027599Y-147686320D01*
X174040921Y-147682482D01*
X174078261Y-147673960D01*
X174112749Y-147657350D01*
X174125591Y-147652031D01*
X174161722Y-147639389D01*
X174194132Y-147619023D01*
X174206303Y-147612297D01*
X174240787Y-147595691D01*
X174270715Y-147571822D01*
X174282034Y-147563790D01*
X174314462Y-147543416D01*
X174442016Y-147415862D01*
X181826826Y-140031052D01*
X181863605Y-139994273D01*
X181865629Y-139988218D01*
X181879186Y-139966642D01*
X181887216Y-139955323D01*
X181911091Y-139925387D01*
X181927698Y-139890900D01*
X181934426Y-139878728D01*
X181954789Y-139846322D01*
X181967431Y-139810191D01*
X181972751Y-139797349D01*
X181989360Y-139762861D01*
X181997882Y-139725521D01*
X182001720Y-139712199D01*
X182014368Y-139676055D01*
X182018655Y-139637997D01*
X182020980Y-139624320D01*
X182029500Y-139586994D01*
X182029500Y-139406606D01*
X182029500Y-88190740D01*
X182038939Y-88143287D01*
X182065819Y-88103059D01*
X184625678Y-85543200D01*
X187211200Y-85543200D01*
X187211200Y-86016024D01*
X187217602Y-86075575D01*
X187267847Y-86210289D01*
X187354011Y-86325388D01*
X187469110Y-86411552D01*
X187603824Y-86461797D01*
X187663376Y-86468200D01*
X188136200Y-86468200D01*
X188136200Y-85543200D01*
X187211200Y-85543200D01*
X184625678Y-85543200D01*
X185125678Y-85043200D01*
X187211200Y-85043200D01*
X188136200Y-85043200D01*
X188136200Y-84118200D01*
X187663376Y-84118200D01*
X187603824Y-84124602D01*
X187469110Y-84174847D01*
X187354011Y-84261011D01*
X187267847Y-84376110D01*
X187217602Y-84510824D01*
X187211200Y-84570376D01*
X187211200Y-85043200D01*
X185125678Y-85043200D01*
X190237478Y-79931400D01*
X198514626Y-71654252D01*
X198546616Y-71622262D01*
X198566990Y-71589834D01*
X198575022Y-71578515D01*
X198598891Y-71548587D01*
X198615498Y-71514100D01*
X198622226Y-71501928D01*
X198642589Y-71469522D01*
X198655231Y-71433391D01*
X198660551Y-71420549D01*
X198664313Y-71412737D01*
X198677160Y-71386061D01*
X198685682Y-71348721D01*
X198689520Y-71335399D01*
X198702168Y-71299255D01*
X198706455Y-71261197D01*
X198708780Y-71247520D01*
X198717300Y-71210194D01*
X198717300Y-71029806D01*
X198717300Y-69421285D01*
X198731670Y-69363344D01*
X198771445Y-69318833D01*
X198980017Y-69176632D01*
X199166850Y-69003277D01*
X199325759Y-68804012D01*
X199453193Y-68583288D01*
X199480773Y-68513015D01*
X199521822Y-68459103D01*
X199585085Y-68434819D01*
X199651667Y-68447417D01*
X199701684Y-68493135D01*
X199720200Y-68558320D01*
X199720200Y-149478438D01*
X199710761Y-149525891D01*
X199683881Y-149566119D01*
X199680319Y-149569681D01*
X199640091Y-149596561D01*
X199592638Y-149606000D01*
X186038640Y-149606000D01*
X185982345Y-149592485D01*
X185938322Y-149554885D01*
X185916167Y-149501398D01*
X185920709Y-149443682D01*
X185950959Y-149394319D01*
X193020805Y-142324473D01*
X193022829Y-142318418D01*
X193036387Y-142296840D01*
X193044419Y-142285521D01*
X193068292Y-142255586D01*
X193084904Y-142221088D01*
X193091623Y-142208931D01*
X193111989Y-142176522D01*
X193124633Y-142140385D01*
X193129947Y-142127556D01*
X193146560Y-142093061D01*
X193155082Y-142055721D01*
X193158920Y-142042399D01*
X193171568Y-142006255D01*
X193175855Y-141968197D01*
X193178180Y-141954520D01*
X193184231Y-141928009D01*
X193186700Y-141917195D01*
X193186700Y-86208843D01*
X193197266Y-86158756D01*
X193227163Y-86117205D01*
X193258627Y-86088522D01*
X193287245Y-86050624D01*
X193330928Y-86014350D01*
X193386200Y-86001350D01*
X193441472Y-86014350D01*
X193485155Y-86050625D01*
X193513772Y-86088522D01*
X193585700Y-86154092D01*
X193674768Y-86235288D01*
X193767378Y-86292629D01*
X193859991Y-86349973D01*
X194018945Y-86411552D01*
X194063131Y-86428670D01*
X194277274Y-86468700D01*
X194495124Y-86468700D01*
X194495126Y-86468700D01*
X194709269Y-86428670D01*
X194844696Y-86376204D01*
X194912408Y-86349973D01*
X194912410Y-86349972D01*
X195097632Y-86235288D01*
X195258627Y-86088522D01*
X195389912Y-85914672D01*
X195487017Y-85719659D01*
X195487018Y-85719657D01*
X195546635Y-85510125D01*
X195561013Y-85354957D01*
X195566736Y-85293200D01*
X195546635Y-85076277D01*
X195546635Y-85076274D01*
X195487018Y-84866742D01*
X195389912Y-84671728D01*
X195258626Y-84497876D01*
X195097632Y-84351112D01*
X194912408Y-84236426D01*
X194709273Y-84157731D01*
X194709270Y-84157730D01*
X194709269Y-84157730D01*
X194495126Y-84117700D01*
X194277274Y-84117700D01*
X194063131Y-84157730D01*
X194063126Y-84157731D01*
X193859991Y-84236426D01*
X193674767Y-84351112D01*
X193513773Y-84497877D01*
X193485154Y-84535775D01*
X193441471Y-84572048D01*
X193386200Y-84585048D01*
X193330929Y-84572048D01*
X193287246Y-84535775D01*
X193258626Y-84497877D01*
X193097632Y-84351112D01*
X192912408Y-84236426D01*
X192709273Y-84157731D01*
X192709270Y-84157730D01*
X192709269Y-84157730D01*
X192495126Y-84117700D01*
X192277274Y-84117700D01*
X192063131Y-84157730D01*
X192063126Y-84157731D01*
X191859991Y-84236426D01*
X191674767Y-84351112D01*
X191513773Y-84497877D01*
X191485154Y-84535775D01*
X191441471Y-84572048D01*
X191386200Y-84585048D01*
X191330929Y-84572048D01*
X191287246Y-84535775D01*
X191258626Y-84497877D01*
X191097632Y-84351112D01*
X190912408Y-84236426D01*
X190709273Y-84157731D01*
X190709270Y-84157730D01*
X190709269Y-84157730D01*
X190495126Y-84117700D01*
X190277274Y-84117700D01*
X190063131Y-84157730D01*
X190063126Y-84157731D01*
X189859994Y-84236425D01*
X189674765Y-84351114D01*
X189663415Y-84361461D01*
X189602491Y-84391742D01*
X189534761Y-84385321D01*
X189480613Y-84344132D01*
X189418388Y-84261011D01*
X189303289Y-84174847D01*
X189168575Y-84124602D01*
X189109024Y-84118200D01*
X188636200Y-84118200D01*
X188636200Y-86468200D01*
X189109024Y-86468200D01*
X189168575Y-86461797D01*
X189303289Y-86411552D01*
X189418388Y-86325388D01*
X189480613Y-86242268D01*
X189534762Y-86201078D01*
X189602493Y-86194658D01*
X189663417Y-86224941D01*
X189673612Y-86234234D01*
X189674768Y-86235288D01*
X189767378Y-86292629D01*
X189859991Y-86349973D01*
X190018945Y-86411552D01*
X190063131Y-86428670D01*
X190277274Y-86468700D01*
X190495124Y-86468700D01*
X190495126Y-86468700D01*
X190709269Y-86428670D01*
X190844696Y-86376204D01*
X190912408Y-86349973D01*
X190912410Y-86349972D01*
X191097632Y-86235288D01*
X191258627Y-86088522D01*
X191287245Y-86050624D01*
X191330928Y-86014350D01*
X191386200Y-86001350D01*
X191441472Y-86014350D01*
X191485155Y-86050625D01*
X191513772Y-86088521D01*
X191545237Y-86117205D01*
X191575134Y-86158756D01*
X191585700Y-86208843D01*
X191585700Y-141444060D01*
X191576261Y-141491513D01*
X191549381Y-141531741D01*
X184794541Y-148286581D01*
X184754313Y-148313461D01*
X184706860Y-148322900D01*
X131751740Y-148322900D01*
X131704287Y-148313461D01*
X131664059Y-148286581D01*
X129516541Y-146139063D01*
X129483400Y-146079276D01*
X129486978Y-146011011D01*
X129526187Y-145955016D01*
X129589111Y-145928306D01*
X129656625Y-145938999D01*
X129855504Y-146031739D01*
X130075308Y-146090635D01*
X130302000Y-146110468D01*
X130528692Y-146090635D01*
X130748496Y-146031739D01*
X130954734Y-145935568D01*
X131141139Y-145805047D01*
X131302047Y-145644139D01*
X131351859Y-145572998D01*
X131404829Y-145530045D01*
X131472502Y-145521597D01*
X131534407Y-145550211D01*
X131571819Y-145607231D01*
X131598981Y-145694397D01*
X131686925Y-145839875D01*
X131807124Y-145960074D01*
X131952603Y-146048019D01*
X132114893Y-146098590D01*
X132185424Y-146105000D01*
X132592000Y-146105000D01*
X132592000Y-146104999D01*
X133092000Y-146104999D01*
X133498579Y-146104999D01*
X133569104Y-146098591D01*
X133731397Y-146048018D01*
X133876875Y-145960074D01*
X133997074Y-145839875D01*
X134085016Y-145694400D01*
X134112179Y-145607232D01*
X134149591Y-145550211D01*
X134211496Y-145521597D01*
X134279169Y-145530045D01*
X134332140Y-145572999D01*
X134381953Y-145644140D01*
X134542859Y-145805046D01*
X134729264Y-145935567D01*
X134729265Y-145935567D01*
X134729266Y-145935568D01*
X134935504Y-146031739D01*
X135155308Y-146090635D01*
X135382000Y-146110468D01*
X135608692Y-146090635D01*
X135828496Y-146031739D01*
X136034734Y-145935568D01*
X136221139Y-145805047D01*
X136382047Y-145644139D01*
X136512568Y-145457734D01*
X136539618Y-145399724D01*
X136585375Y-145347549D01*
X136652000Y-145328129D01*
X136718625Y-145347549D01*
X136764382Y-145399725D01*
X136791431Y-145457733D01*
X136921953Y-145644140D01*
X137082859Y-145805046D01*
X137269264Y-145935567D01*
X137269265Y-145935567D01*
X137269266Y-145935568D01*
X137475504Y-146031739D01*
X137695308Y-146090635D01*
X137922000Y-146110468D01*
X138148692Y-146090635D01*
X138368496Y-146031739D01*
X138574734Y-145935568D01*
X138761139Y-145805047D01*
X138922047Y-145644139D01*
X139052568Y-145457734D01*
X139079618Y-145399724D01*
X139125375Y-145347549D01*
X139192000Y-145328129D01*
X139258625Y-145347549D01*
X139304382Y-145399725D01*
X139331431Y-145457733D01*
X139461953Y-145644140D01*
X139622859Y-145805046D01*
X139809264Y-145935567D01*
X139809265Y-145935567D01*
X139809266Y-145935568D01*
X140015504Y-146031739D01*
X140235308Y-146090635D01*
X140462000Y-146110468D01*
X140688692Y-146090635D01*
X140908496Y-146031739D01*
X141114734Y-145935568D01*
X141301139Y-145805047D01*
X141462047Y-145644139D01*
X141592568Y-145457734D01*
X141619618Y-145399724D01*
X141665375Y-145347549D01*
X141732000Y-145328129D01*
X141798625Y-145347549D01*
X141844382Y-145399725D01*
X141871431Y-145457733D01*
X142001953Y-145644140D01*
X142162859Y-145805046D01*
X142349264Y-145935567D01*
X142349265Y-145935567D01*
X142349266Y-145935568D01*
X142555504Y-146031739D01*
X142775308Y-146090635D01*
X143002000Y-146110468D01*
X143228692Y-146090635D01*
X143448496Y-146031739D01*
X143654734Y-145935568D01*
X143841139Y-145805047D01*
X144002047Y-145644139D01*
X144051859Y-145572998D01*
X144104829Y-145530045D01*
X144172502Y-145521597D01*
X144234407Y-145550211D01*
X144271819Y-145607231D01*
X144298981Y-145694397D01*
X144386925Y-145839875D01*
X144507124Y-145960074D01*
X144652603Y-146048019D01*
X144814893Y-146098590D01*
X144885424Y-146105000D01*
X145292000Y-146105000D01*
X145292000Y-146104999D01*
X145792000Y-146104999D01*
X146198579Y-146104999D01*
X146269104Y-146098591D01*
X146431397Y-146048018D01*
X146576875Y-145960074D01*
X146697074Y-145839875D01*
X146785016Y-145694400D01*
X146812179Y-145607232D01*
X146849591Y-145550211D01*
X146911496Y-145521597D01*
X146979169Y-145530045D01*
X147032140Y-145572999D01*
X147081953Y-145644140D01*
X147242859Y-145805046D01*
X147429264Y-145935567D01*
X147429265Y-145935567D01*
X147429266Y-145935568D01*
X147635504Y-146031739D01*
X147855308Y-146090635D01*
X148082000Y-146110468D01*
X148308692Y-146090635D01*
X148528496Y-146031739D01*
X148734734Y-145935568D01*
X148921139Y-145805047D01*
X149082047Y-145644139D01*
X149212568Y-145457734D01*
X149239618Y-145399724D01*
X149285375Y-145347549D01*
X149352000Y-145328129D01*
X149418625Y-145347549D01*
X149464382Y-145399725D01*
X149491431Y-145457733D01*
X149621953Y-145644140D01*
X149782859Y-145805046D01*
X149969264Y-145935567D01*
X149969265Y-145935567D01*
X149969266Y-145935568D01*
X150175504Y-146031739D01*
X150395308Y-146090635D01*
X150622000Y-146110468D01*
X150848692Y-146090635D01*
X151068496Y-146031739D01*
X151274734Y-145935568D01*
X151461139Y-145805047D01*
X151622047Y-145644139D01*
X151752568Y-145457734D01*
X151779618Y-145399724D01*
X151825375Y-145347549D01*
X151892000Y-145328129D01*
X151958625Y-145347549D01*
X152004382Y-145399725D01*
X152031431Y-145457733D01*
X152161953Y-145644140D01*
X152322859Y-145805046D01*
X152509264Y-145935567D01*
X152509265Y-145935567D01*
X152509266Y-145935568D01*
X152715504Y-146031739D01*
X152935308Y-146090635D01*
X153162000Y-146110468D01*
X153388692Y-146090635D01*
X153608496Y-146031739D01*
X153814734Y-145935568D01*
X154001139Y-145805047D01*
X154162047Y-145644139D01*
X154292568Y-145457734D01*
X154319618Y-145399724D01*
X154365375Y-145347549D01*
X154432000Y-145328129D01*
X154498625Y-145347549D01*
X154544382Y-145399725D01*
X154571431Y-145457733D01*
X154701953Y-145644140D01*
X154862859Y-145805046D01*
X155049264Y-145935567D01*
X155049265Y-145935567D01*
X155049266Y-145935568D01*
X155255504Y-146031739D01*
X155475308Y-146090635D01*
X155702000Y-146110468D01*
X155928692Y-146090635D01*
X156148496Y-146031739D01*
X156354734Y-145935568D01*
X156541139Y-145805047D01*
X156702047Y-145644139D01*
X156751859Y-145572998D01*
X156804829Y-145530045D01*
X156872502Y-145521597D01*
X156934407Y-145550211D01*
X156971819Y-145607231D01*
X156998981Y-145694397D01*
X157086925Y-145839875D01*
X157207124Y-145960074D01*
X157352603Y-146048019D01*
X157514893Y-146098590D01*
X157585424Y-146105000D01*
X157992000Y-146105000D01*
X157992000Y-141905001D01*
X157585421Y-141905001D01*
X157514895Y-141911408D01*
X157352602Y-141961981D01*
X157207124Y-142049925D01*
X157086925Y-142170124D01*
X156998981Y-142315602D01*
X156971819Y-142402768D01*
X156934407Y-142459788D01*
X156872502Y-142488402D01*
X156804829Y-142479954D01*
X156751859Y-142437000D01*
X156702046Y-142365859D01*
X156541140Y-142204953D01*
X156354735Y-142074432D01*
X156148497Y-141978261D01*
X155928689Y-141919364D01*
X155702000Y-141899531D01*
X155475310Y-141919364D01*
X155255502Y-141978261D01*
X155049264Y-142074432D01*
X154862859Y-142204953D01*
X154701953Y-142365859D01*
X154571433Y-142552263D01*
X154544382Y-142610275D01*
X154498625Y-142662450D01*
X154432000Y-142681869D01*
X154365375Y-142662450D01*
X154319618Y-142610275D01*
X154317325Y-142605358D01*
X154292568Y-142552266D01*
X154292518Y-142552194D01*
X154162046Y-142365859D01*
X154001140Y-142204953D01*
X153814735Y-142074432D01*
X153608497Y-141978261D01*
X153388689Y-141919364D01*
X153162000Y-141899531D01*
X152935310Y-141919364D01*
X152715502Y-141978261D01*
X152509264Y-142074432D01*
X152322859Y-142204953D01*
X152161953Y-142365859D01*
X152031433Y-142552263D01*
X152004382Y-142610275D01*
X151958625Y-142662450D01*
X151892000Y-142681869D01*
X151825375Y-142662450D01*
X151779618Y-142610275D01*
X151777325Y-142605358D01*
X151752568Y-142552266D01*
X151752518Y-142552194D01*
X151622046Y-142365859D01*
X151461140Y-142204953D01*
X151274735Y-142074432D01*
X151068497Y-141978261D01*
X150848689Y-141919364D01*
X150622000Y-141899531D01*
X150395310Y-141919364D01*
X150175502Y-141978261D01*
X149969264Y-142074432D01*
X149782859Y-142204953D01*
X149621953Y-142365859D01*
X149491433Y-142552263D01*
X149464382Y-142610275D01*
X149418625Y-142662450D01*
X149352000Y-142681869D01*
X149285375Y-142662450D01*
X149239618Y-142610275D01*
X149237325Y-142605358D01*
X149212568Y-142552266D01*
X149212518Y-142552194D01*
X149082046Y-142365859D01*
X148921140Y-142204953D01*
X148734735Y-142074432D01*
X148528497Y-141978261D01*
X148308689Y-141919364D01*
X148082000Y-141899531D01*
X147855310Y-141919364D01*
X147635502Y-141978261D01*
X147429264Y-142074432D01*
X147242859Y-142204953D01*
X147081955Y-142365857D01*
X147032140Y-142437001D01*
X146979169Y-142479955D01*
X146911496Y-142488402D01*
X146849591Y-142459788D01*
X146812179Y-142402767D01*
X146785016Y-142315599D01*
X146697074Y-142170124D01*
X146576875Y-142049925D01*
X146431396Y-141961980D01*
X146269106Y-141911409D01*
X146198576Y-141905000D01*
X145792000Y-141905000D01*
X145792000Y-146104999D01*
X145292000Y-146104999D01*
X145292000Y-141905001D01*
X144885421Y-141905001D01*
X144814895Y-141911408D01*
X144652602Y-141961981D01*
X144507124Y-142049925D01*
X144386925Y-142170124D01*
X144298981Y-142315602D01*
X144271819Y-142402768D01*
X144234407Y-142459788D01*
X144172502Y-142488402D01*
X144104829Y-142479954D01*
X144051859Y-142437000D01*
X144002046Y-142365859D01*
X143841140Y-142204953D01*
X143654735Y-142074432D01*
X143448497Y-141978261D01*
X143228689Y-141919364D01*
X143002000Y-141899531D01*
X142775310Y-141919364D01*
X142555502Y-141978261D01*
X142349264Y-142074432D01*
X142162859Y-142204953D01*
X142001953Y-142365859D01*
X141871433Y-142552263D01*
X141844382Y-142610275D01*
X141798625Y-142662450D01*
X141732000Y-142681869D01*
X141665375Y-142662450D01*
X141619618Y-142610275D01*
X141617325Y-142605358D01*
X141592568Y-142552266D01*
X141592518Y-142552194D01*
X141462046Y-142365859D01*
X141301140Y-142204953D01*
X141114735Y-142074432D01*
X140908497Y-141978261D01*
X140688689Y-141919364D01*
X140462000Y-141899531D01*
X140235310Y-141919364D01*
X140015502Y-141978261D01*
X139809264Y-142074432D01*
X139622859Y-142204953D01*
X139461953Y-142365859D01*
X139331433Y-142552263D01*
X139304382Y-142610275D01*
X139258625Y-142662450D01*
X139192000Y-142681869D01*
X139125375Y-142662450D01*
X139079618Y-142610275D01*
X139077325Y-142605358D01*
X139052568Y-142552266D01*
X139052518Y-142552194D01*
X138922046Y-142365859D01*
X138761140Y-142204953D01*
X138574735Y-142074432D01*
X138368497Y-141978261D01*
X138148689Y-141919364D01*
X137922000Y-141899531D01*
X137695310Y-141919364D01*
X137475502Y-141978261D01*
X137269264Y-142074432D01*
X137082859Y-142204953D01*
X136921953Y-142365859D01*
X136791433Y-142552263D01*
X136764382Y-142610275D01*
X136718625Y-142662450D01*
X136652000Y-142681869D01*
X136585375Y-142662450D01*
X136539618Y-142610275D01*
X136537325Y-142605358D01*
X136512568Y-142552266D01*
X136512518Y-142552194D01*
X136382046Y-142365859D01*
X136221140Y-142204953D01*
X136034735Y-142074432D01*
X135828497Y-141978261D01*
X135608689Y-141919364D01*
X135382000Y-141899531D01*
X135155310Y-141919364D01*
X134935502Y-141978261D01*
X134729264Y-142074432D01*
X134542859Y-142204953D01*
X134381955Y-142365857D01*
X134332140Y-142437001D01*
X134279169Y-142479955D01*
X134211496Y-142488402D01*
X134149591Y-142459788D01*
X134112179Y-142402767D01*
X134085016Y-142315599D01*
X133997074Y-142170124D01*
X133876875Y-142049925D01*
X133731396Y-141961980D01*
X133569106Y-141911409D01*
X133498576Y-141905000D01*
X133092000Y-141905000D01*
X133092000Y-146104999D01*
X132592000Y-146104999D01*
X132592000Y-141905001D01*
X132185421Y-141905001D01*
X132114895Y-141911408D01*
X131952602Y-141961981D01*
X131807124Y-142049925D01*
X131686925Y-142170124D01*
X131598981Y-142315602D01*
X131571819Y-142402768D01*
X131534407Y-142459788D01*
X131472502Y-142488402D01*
X131404829Y-142479954D01*
X131351859Y-142437000D01*
X131302046Y-142365859D01*
X131141140Y-142204953D01*
X130954735Y-142074432D01*
X130748497Y-141978261D01*
X130528689Y-141919364D01*
X130302000Y-141899531D01*
X130075310Y-141919364D01*
X129855502Y-141978261D01*
X129649264Y-142074432D01*
X129462859Y-142204953D01*
X129301953Y-142365859D01*
X129171433Y-142552263D01*
X129144382Y-142610275D01*
X129098625Y-142662450D01*
X129032000Y-142681869D01*
X128965375Y-142662450D01*
X128919618Y-142610275D01*
X128917325Y-142605358D01*
X128892568Y-142552266D01*
X128892518Y-142552194D01*
X128762046Y-142365859D01*
X128601140Y-142204953D01*
X128414735Y-142074432D01*
X128208497Y-141978261D01*
X127988689Y-141919364D01*
X127762000Y-141899531D01*
X127535310Y-141919364D01*
X127315502Y-141978261D01*
X127109264Y-142074432D01*
X126922859Y-142204953D01*
X126761953Y-142365859D01*
X126631433Y-142552263D01*
X126604382Y-142610275D01*
X126558625Y-142662450D01*
X126492000Y-142681869D01*
X126425375Y-142662450D01*
X126379618Y-142610275D01*
X126377325Y-142605358D01*
X126352568Y-142552266D01*
X126352518Y-142552194D01*
X126222046Y-142365859D01*
X126061140Y-142204953D01*
X125874735Y-142074432D01*
X125668497Y-141978261D01*
X125448689Y-141919364D01*
X125222000Y-141899531D01*
X124995310Y-141919364D01*
X124775502Y-141978261D01*
X124569264Y-142074432D01*
X124382859Y-142204953D01*
X124221953Y-142365859D01*
X124091433Y-142552263D01*
X124064382Y-142610275D01*
X124018625Y-142662450D01*
X123952000Y-142681869D01*
X123885375Y-142662450D01*
X123839618Y-142610275D01*
X123837325Y-142605358D01*
X123812568Y-142552266D01*
X123812518Y-142552194D01*
X123682046Y-142365859D01*
X123521140Y-142204953D01*
X123334735Y-142074432D01*
X123128497Y-141978261D01*
X122908689Y-141919364D01*
X122682000Y-141899531D01*
X122455310Y-141919364D01*
X122235502Y-141978261D01*
X122029264Y-142074432D01*
X121842859Y-142204953D01*
X121681955Y-142365857D01*
X121632140Y-142437001D01*
X121579169Y-142479955D01*
X121511496Y-142488402D01*
X121449591Y-142459788D01*
X121412179Y-142402767D01*
X121385016Y-142315599D01*
X121297074Y-142170124D01*
X121176875Y-142049925D01*
X121031396Y-141961980D01*
X120869106Y-141911409D01*
X120798576Y-141905000D01*
X120392000Y-141905000D01*
X120392000Y-146104999D01*
X120798579Y-146104999D01*
X120869104Y-146098591D01*
X121031397Y-146048018D01*
X121176875Y-145960074D01*
X121297074Y-145839875D01*
X121385016Y-145694400D01*
X121412179Y-145607232D01*
X121449591Y-145550211D01*
X121511496Y-145521597D01*
X121579169Y-145530045D01*
X121632140Y-145572999D01*
X121681953Y-145644140D01*
X121842859Y-145805046D01*
X122029264Y-145935567D01*
X122029265Y-145935567D01*
X122029266Y-145935568D01*
X122235504Y-146031739D01*
X122455308Y-146090635D01*
X122682000Y-146110468D01*
X122908692Y-146090635D01*
X123128496Y-146031739D01*
X123334734Y-145935568D01*
X123521139Y-145805047D01*
X123682047Y-145644139D01*
X123812568Y-145457734D01*
X123839618Y-145399724D01*
X123885375Y-145347549D01*
X123952000Y-145328129D01*
X124018625Y-145347549D01*
X124064382Y-145399725D01*
X124091431Y-145457733D01*
X124221953Y-145644140D01*
X124382859Y-145805046D01*
X124569264Y-145935567D01*
X124569265Y-145935567D01*
X124569266Y-145935568D01*
X124775504Y-146031739D01*
X124995308Y-146090635D01*
X125222000Y-146110468D01*
X125448692Y-146090635D01*
X125668496Y-146031739D01*
X125874734Y-145935568D01*
X126061139Y-145805047D01*
X126222047Y-145644139D01*
X126352568Y-145457734D01*
X126379618Y-145399724D01*
X126425375Y-145347549D01*
X126492000Y-145328129D01*
X126558625Y-145347549D01*
X126604382Y-145399725D01*
X126631431Y-145457733D01*
X126761953Y-145644140D01*
X126922856Y-145805043D01*
X126922859Y-145805045D01*
X126922861Y-145805047D01*
X127031444Y-145881076D01*
X127072039Y-145928846D01*
X127079909Y-145945187D01*
X127103772Y-145975110D01*
X127111818Y-145986450D01*
X127132184Y-146018862D01*
X130507641Y-149394319D01*
X130537891Y-149443682D01*
X130542433Y-149501398D01*
X130520278Y-149554885D01*
X130476255Y-149592485D01*
X130419960Y-149606000D01*
X100508362Y-149606000D01*
X100460909Y-149596561D01*
X100420681Y-149569681D01*
X100417119Y-149566119D01*
X100390239Y-149525891D01*
X100380800Y-149478438D01*
X100380800Y-144861656D01*
X113754470Y-144861656D01*
X113755678Y-145087174D01*
X113759532Y-145121371D01*
X113759532Y-145121373D01*
X113765899Y-145177886D01*
X113791097Y-145288290D01*
X113821600Y-145361929D01*
X113881846Y-145457808D01*
X113938754Y-145529171D01*
X114337828Y-145928245D01*
X114409191Y-145985153D01*
X114505070Y-146045399D01*
X114505072Y-146045399D01*
X114505074Y-146045401D01*
X114578706Y-146075901D01*
X114578707Y-146075901D01*
X114578709Y-146075902D01*
X114642751Y-146090518D01*
X114689112Y-146101100D01*
X114711841Y-146103661D01*
X114745627Y-146107468D01*
X114745628Y-146107468D01*
X114779824Y-146111321D01*
X114785194Y-146111349D01*
X115005344Y-146112530D01*
X115005385Y-146112530D01*
X115118615Y-146112530D01*
X115118656Y-146112530D01*
X115333684Y-146111377D01*
X115344176Y-146111321D01*
X115378372Y-146107468D01*
X115378373Y-146107468D01*
X115397210Y-146105345D01*
X115434888Y-146101100D01*
X115530507Y-146079276D01*
X115545290Y-146075902D01*
X115545290Y-146075901D01*
X115545294Y-146075901D01*
X115618926Y-146045401D01*
X115714806Y-145985155D01*
X115786171Y-145928245D01*
X116185245Y-145529171D01*
X116242155Y-145457806D01*
X116252637Y-145441123D01*
X116301060Y-145396751D01*
X116365355Y-145383336D01*
X116427483Y-145404642D01*
X116465108Y-145448919D01*
X116465210Y-145448848D01*
X116465968Y-145449931D01*
X116470012Y-145454690D01*
X116471432Y-145457733D01*
X116471433Y-145457736D01*
X116601953Y-145644140D01*
X116762859Y-145805046D01*
X116949264Y-145935567D01*
X116949265Y-145935567D01*
X116949266Y-145935568D01*
X117155504Y-146031739D01*
X117375308Y-146090635D01*
X117602000Y-146110468D01*
X117828692Y-146090635D01*
X118048496Y-146031739D01*
X118254734Y-145935568D01*
X118441139Y-145805047D01*
X118602047Y-145644139D01*
X118651859Y-145572998D01*
X118704829Y-145530045D01*
X118772502Y-145521597D01*
X118834407Y-145550211D01*
X118871819Y-145607231D01*
X118898981Y-145694397D01*
X118986925Y-145839875D01*
X119107124Y-145960074D01*
X119252603Y-146048019D01*
X119414893Y-146098590D01*
X119485424Y-146105000D01*
X119892000Y-146105000D01*
X119892000Y-141905001D01*
X119485421Y-141905001D01*
X119414895Y-141911408D01*
X119252602Y-141961981D01*
X119107124Y-142049925D01*
X118986925Y-142170124D01*
X118898981Y-142315602D01*
X118871819Y-142402768D01*
X118834407Y-142459788D01*
X118772502Y-142488402D01*
X118704829Y-142479954D01*
X118651859Y-142437000D01*
X118602046Y-142365859D01*
X118441140Y-142204953D01*
X118254735Y-142074432D01*
X118048497Y-141978261D01*
X117828689Y-141919364D01*
X117602000Y-141899531D01*
X117375310Y-141919364D01*
X117155502Y-141978261D01*
X116949264Y-142074432D01*
X116762859Y-142204953D01*
X116601953Y-142365859D01*
X116471432Y-142552265D01*
X116470012Y-142555311D01*
X116465966Y-142560071D01*
X116465210Y-142561152D01*
X116465108Y-142561081D01*
X116427482Y-142605358D01*
X116365355Y-142626663D01*
X116301061Y-142613248D01*
X116252638Y-142568877D01*
X116242200Y-142552266D01*
X116242155Y-142552194D01*
X116242153Y-142552191D01*
X116185245Y-142480828D01*
X115786171Y-142081754D01*
X115714808Y-142024846D01*
X115618929Y-141964600D01*
X115545290Y-141934097D01*
X115434886Y-141908899D01*
X115378373Y-141902532D01*
X115378372Y-141902532D01*
X115374028Y-141902042D01*
X115344174Y-141898678D01*
X115118656Y-141897470D01*
X115118615Y-141897470D01*
X115005385Y-141897470D01*
X115005344Y-141897470D01*
X114779825Y-141898678D01*
X114749482Y-141902097D01*
X114745628Y-141902532D01*
X114745627Y-141902532D01*
X114689113Y-141908899D01*
X114578709Y-141934097D01*
X114505070Y-141964600D01*
X114409191Y-142024846D01*
X114337828Y-142081754D01*
X113938754Y-142480828D01*
X113881846Y-142552191D01*
X113821600Y-142648070D01*
X113791097Y-142721709D01*
X113765899Y-142832113D01*
X113759532Y-142888627D01*
X113759532Y-142888629D01*
X113755678Y-142922825D01*
X113754470Y-143148344D01*
X113754470Y-143261657D01*
X113755343Y-143424699D01*
X113755345Y-143425445D01*
X113754470Y-144748385D01*
X113754470Y-144861656D01*
X100380800Y-144861656D01*
X100380800Y-136911656D01*
X161784470Y-136911656D01*
X161785678Y-137137174D01*
X161789532Y-137171371D01*
X161789532Y-137171373D01*
X161795899Y-137227886D01*
X161821097Y-137338290D01*
X161851600Y-137411929D01*
X161911846Y-137507808D01*
X161968754Y-137579171D01*
X162367828Y-137978245D01*
X162439191Y-138035153D01*
X162535070Y-138095399D01*
X162535072Y-138095399D01*
X162535074Y-138095401D01*
X162608706Y-138125901D01*
X162608707Y-138125901D01*
X162608709Y-138125902D01*
X162672751Y-138140518D01*
X162719112Y-138151100D01*
X162747369Y-138154283D01*
X162775627Y-138157468D01*
X162775628Y-138157468D01*
X162809824Y-138161321D01*
X162815194Y-138161349D01*
X163035344Y-138162530D01*
X163035385Y-138162530D01*
X163148615Y-138162530D01*
X163148656Y-138162530D01*
X163230038Y-138162093D01*
X163311782Y-138161654D01*
X163312380Y-138161653D01*
X164635385Y-138162530D01*
X164748615Y-138162530D01*
X164748656Y-138162530D01*
X164963684Y-138161377D01*
X164974176Y-138161321D01*
X165008372Y-138157468D01*
X165008373Y-138157468D01*
X165027210Y-138155345D01*
X165064888Y-138151100D01*
X165175294Y-138125901D01*
X165248926Y-138095401D01*
X165344806Y-138035155D01*
X165416171Y-137978245D01*
X165815245Y-137579171D01*
X165872155Y-137507806D01*
X165932401Y-137411926D01*
X165962901Y-137338294D01*
X165988100Y-137227888D01*
X165994468Y-137171372D01*
X165998321Y-137137176D01*
X165999530Y-136911615D01*
X165999530Y-136798385D01*
X165998321Y-136572824D01*
X165994468Y-136538628D01*
X165988100Y-136482112D01*
X165962901Y-136371706D01*
X165932401Y-136298074D01*
X165932399Y-136298072D01*
X165932399Y-136298070D01*
X165872153Y-136202191D01*
X165815245Y-136130828D01*
X165468008Y-135783591D01*
X165436243Y-135729208D01*
X165435292Y-135666235D01*
X165465400Y-135610917D01*
X165518799Y-135577524D01*
X165581400Y-135558016D01*
X165726875Y-135470074D01*
X165847074Y-135349875D01*
X165935019Y-135204396D01*
X165985590Y-135042106D01*
X165992000Y-134971576D01*
X165992000Y-134565000D01*
X161792001Y-134565000D01*
X161792001Y-134971579D01*
X161798408Y-135042104D01*
X161848981Y-135204397D01*
X161936925Y-135349875D01*
X162057124Y-135470074D01*
X162202603Y-135558019D01*
X162265200Y-135577525D01*
X162318599Y-135610917D01*
X162348707Y-135666235D01*
X162347756Y-135729208D01*
X162315991Y-135783591D01*
X161968754Y-136130828D01*
X161911846Y-136202191D01*
X161851600Y-136298070D01*
X161821097Y-136371709D01*
X161795899Y-136482113D01*
X161789532Y-136538627D01*
X161789532Y-136538629D01*
X161785678Y-136572825D01*
X161784470Y-136798344D01*
X161784470Y-136911656D01*
X100380800Y-136911656D01*
X100380800Y-131774999D01*
X161786531Y-131774999D01*
X161806364Y-132001689D01*
X161865261Y-132221497D01*
X161961432Y-132427735D01*
X162091953Y-132614140D01*
X162252859Y-132775046D01*
X162324000Y-132824859D01*
X162366954Y-132877829D01*
X162375402Y-132945502D01*
X162346788Y-133007407D01*
X162289768Y-133044819D01*
X162202602Y-133071981D01*
X162057124Y-133159925D01*
X161936925Y-133280124D01*
X161848980Y-133425603D01*
X161798409Y-133587893D01*
X161792000Y-133658424D01*
X161792000Y-134065000D01*
X165991999Y-134065000D01*
X165991999Y-133658421D01*
X165985591Y-133587895D01*
X165935018Y-133425602D01*
X165847074Y-133280124D01*
X165726875Y-133159925D01*
X165581397Y-133071981D01*
X165494231Y-133044819D01*
X165437211Y-133007407D01*
X165408597Y-132945502D01*
X165417045Y-132877829D01*
X165459998Y-132824859D01*
X165531139Y-132775047D01*
X165692047Y-132614139D01*
X165822568Y-132427734D01*
X165918739Y-132221496D01*
X165977635Y-132001692D01*
X165997468Y-131775000D01*
X165977635Y-131548308D01*
X165918739Y-131328504D01*
X165822568Y-131122266D01*
X165692047Y-130935861D01*
X165692046Y-130935859D01*
X165531140Y-130774953D01*
X165344735Y-130644432D01*
X165138497Y-130548261D01*
X164918689Y-130489364D01*
X164748786Y-130474500D01*
X164748784Y-130474500D01*
X163154197Y-130474500D01*
X163143389Y-130474028D01*
X163091999Y-130469531D01*
X162865310Y-130489364D01*
X162645502Y-130548261D01*
X162439264Y-130644432D01*
X162252859Y-130774953D01*
X162091953Y-130935859D01*
X161961432Y-131122264D01*
X161865261Y-131328502D01*
X161806364Y-131548310D01*
X161786531Y-131774999D01*
X100380800Y-131774999D01*
X100380800Y-112725226D01*
X105142900Y-112725226D01*
X105151417Y-112762548D01*
X105153745Y-112776249D01*
X105158031Y-112814282D01*
X105170672Y-112850410D01*
X105174519Y-112863766D01*
X105183038Y-112901088D01*
X105199650Y-112935583D01*
X105204970Y-112948428D01*
X105217609Y-112984550D01*
X105228170Y-113001357D01*
X105237976Y-113016963D01*
X105244698Y-113029125D01*
X105261308Y-113063616D01*
X105285172Y-113093540D01*
X105293218Y-113104880D01*
X105313584Y-113137292D01*
X114598751Y-122422459D01*
X114629331Y-122472852D01*
X114633186Y-122531672D01*
X114609446Y-122585626D01*
X114563475Y-122622522D01*
X114409265Y-122694432D01*
X114222859Y-122824953D01*
X114061953Y-122985859D01*
X113931432Y-123172264D01*
X113835261Y-123378502D01*
X113776364Y-123598310D01*
X113761500Y-123768214D01*
X113761500Y-125362803D01*
X113761028Y-125373611D01*
X113756531Y-125425000D01*
X113776364Y-125651689D01*
X113835261Y-125871497D01*
X113931432Y-126077735D01*
X114061953Y-126264140D01*
X114222859Y-126425046D01*
X114409264Y-126555567D01*
X114409265Y-126555567D01*
X114409266Y-126555568D01*
X114615504Y-126651739D01*
X114835308Y-126710635D01*
X115062000Y-126730468D01*
X115288692Y-126710635D01*
X115508496Y-126651739D01*
X115714734Y-126555568D01*
X115901139Y-126425047D01*
X116062047Y-126264139D01*
X116192568Y-126077734D01*
X116219618Y-126019724D01*
X116265375Y-125967549D01*
X116332000Y-125948129D01*
X116398625Y-125967549D01*
X116444382Y-126019725D01*
X116471431Y-126077733D01*
X116601953Y-126264140D01*
X116762859Y-126425046D01*
X116949264Y-126555567D01*
X116949265Y-126555567D01*
X116949266Y-126555568D01*
X117155504Y-126651739D01*
X117375308Y-126710635D01*
X117602000Y-126730468D01*
X117828692Y-126710635D01*
X118048496Y-126651739D01*
X118254734Y-126555568D01*
X118441139Y-126425047D01*
X118602047Y-126264139D01*
X118651859Y-126192998D01*
X118704829Y-126150045D01*
X118772502Y-126141597D01*
X118834407Y-126170211D01*
X118871819Y-126227231D01*
X118898981Y-126314397D01*
X118986925Y-126459875D01*
X119107124Y-126580074D01*
X119252603Y-126668019D01*
X119414893Y-126718590D01*
X119485424Y-126725000D01*
X119892000Y-126725000D01*
X119892000Y-126724999D01*
X120392000Y-126724999D01*
X120798579Y-126724999D01*
X120869104Y-126718591D01*
X121031397Y-126668018D01*
X121176875Y-126580074D01*
X121297074Y-126459875D01*
X121385016Y-126314400D01*
X121412179Y-126227232D01*
X121449591Y-126170211D01*
X121511496Y-126141597D01*
X121579169Y-126150045D01*
X121632140Y-126192999D01*
X121681953Y-126264140D01*
X121842859Y-126425046D01*
X122029264Y-126555567D01*
X122029265Y-126555567D01*
X122029266Y-126555568D01*
X122235504Y-126651739D01*
X122455308Y-126710635D01*
X122682000Y-126730468D01*
X122908692Y-126710635D01*
X123128496Y-126651739D01*
X123334734Y-126555568D01*
X123521139Y-126425047D01*
X123682047Y-126264139D01*
X123812568Y-126077734D01*
X123839618Y-126019724D01*
X123885375Y-125967549D01*
X123952000Y-125948129D01*
X124018625Y-125967549D01*
X124064382Y-126019725D01*
X124091431Y-126077733D01*
X124221953Y-126264140D01*
X124382859Y-126425046D01*
X124569264Y-126555567D01*
X124569265Y-126555567D01*
X124569266Y-126555568D01*
X124775504Y-126651739D01*
X124995308Y-126710635D01*
X125222000Y-126730468D01*
X125448692Y-126710635D01*
X125668496Y-126651739D01*
X125874734Y-126555568D01*
X126061139Y-126425047D01*
X126222047Y-126264139D01*
X126352568Y-126077734D01*
X126379618Y-126019724D01*
X126425375Y-125967549D01*
X126492000Y-125948129D01*
X126558625Y-125967549D01*
X126604382Y-126019725D01*
X126631431Y-126077733D01*
X126761953Y-126264140D01*
X126922859Y-126425046D01*
X127109264Y-126555567D01*
X127109265Y-126555567D01*
X127109266Y-126555568D01*
X127315504Y-126651739D01*
X127535308Y-126710635D01*
X127762000Y-126730468D01*
X127988692Y-126710635D01*
X128208496Y-126651739D01*
X128414734Y-126555568D01*
X128601139Y-126425047D01*
X128762047Y-126264139D01*
X128892568Y-126077734D01*
X128919618Y-126019724D01*
X128965375Y-125967549D01*
X129032000Y-125948129D01*
X129098625Y-125967549D01*
X129144382Y-126019725D01*
X129171431Y-126077733D01*
X129301953Y-126264140D01*
X129462859Y-126425046D01*
X129649264Y-126555567D01*
X129649265Y-126555567D01*
X129649266Y-126555568D01*
X129855504Y-126651739D01*
X130075308Y-126710635D01*
X130302000Y-126730468D01*
X130528692Y-126710635D01*
X130748496Y-126651739D01*
X130954734Y-126555568D01*
X131141139Y-126425047D01*
X131302047Y-126264139D01*
X131351859Y-126192998D01*
X131404829Y-126150045D01*
X131472502Y-126141597D01*
X131534407Y-126170211D01*
X131571819Y-126227231D01*
X131598981Y-126314397D01*
X131686925Y-126459875D01*
X131807124Y-126580074D01*
X131952603Y-126668019D01*
X132114893Y-126718590D01*
X132185424Y-126725000D01*
X132592000Y-126725000D01*
X132592000Y-122525001D01*
X132185421Y-122525001D01*
X132114895Y-122531408D01*
X131952602Y-122581981D01*
X131807124Y-122669925D01*
X131686925Y-122790124D01*
X131598981Y-122935602D01*
X131571819Y-123022768D01*
X131534407Y-123079788D01*
X131472502Y-123108402D01*
X131404829Y-123099954D01*
X131351859Y-123057000D01*
X131302046Y-122985859D01*
X131141140Y-122824953D01*
X130954735Y-122694432D01*
X130748497Y-122598261D01*
X130528689Y-122539364D01*
X130302000Y-122519531D01*
X130075310Y-122539364D01*
X129855502Y-122598261D01*
X129649264Y-122694432D01*
X129462859Y-122824953D01*
X129301953Y-122985859D01*
X129171433Y-123172263D01*
X129144382Y-123230275D01*
X129098625Y-123282450D01*
X129032000Y-123301869D01*
X128965375Y-123282450D01*
X128919618Y-123230275D01*
X128892568Y-123172266D01*
X128892566Y-123172263D01*
X128762046Y-122985859D01*
X128601140Y-122824953D01*
X128414735Y-122694432D01*
X128208497Y-122598261D01*
X127988689Y-122539364D01*
X127762000Y-122519531D01*
X127535310Y-122539364D01*
X127315502Y-122598261D01*
X127109264Y-122694432D01*
X126922859Y-122824953D01*
X126761953Y-122985859D01*
X126631433Y-123172263D01*
X126604382Y-123230275D01*
X126558625Y-123282450D01*
X126492000Y-123301869D01*
X126425375Y-123282450D01*
X126379618Y-123230275D01*
X126352568Y-123172266D01*
X126352566Y-123172263D01*
X126222046Y-122985859D01*
X126061140Y-122824953D01*
X125874735Y-122694432D01*
X125668497Y-122598261D01*
X125448689Y-122539364D01*
X125222000Y-122519531D01*
X124995310Y-122539364D01*
X124775502Y-122598261D01*
X124569264Y-122694432D01*
X124382859Y-122824953D01*
X124221953Y-122985859D01*
X124091433Y-123172263D01*
X124064382Y-123230275D01*
X124018625Y-123282450D01*
X123952000Y-123301869D01*
X123885375Y-123282450D01*
X123839618Y-123230275D01*
X123812568Y-123172266D01*
X123812566Y-123172263D01*
X123682046Y-122985859D01*
X123521140Y-122824953D01*
X123334735Y-122694432D01*
X123128497Y-122598261D01*
X122908689Y-122539364D01*
X122682000Y-122519531D01*
X122455310Y-122539364D01*
X122235502Y-122598261D01*
X122029264Y-122694432D01*
X121842859Y-122824953D01*
X121681955Y-122985857D01*
X121632140Y-123057001D01*
X121579169Y-123099955D01*
X121511496Y-123108402D01*
X121449591Y-123079788D01*
X121412179Y-123022767D01*
X121385016Y-122935599D01*
X121297074Y-122790124D01*
X121176875Y-122669925D01*
X121031396Y-122581980D01*
X120869106Y-122531409D01*
X120798576Y-122525000D01*
X120392000Y-122525000D01*
X120392000Y-126724999D01*
X119892000Y-126724999D01*
X119892000Y-122525001D01*
X119485421Y-122525001D01*
X119414895Y-122531408D01*
X119252602Y-122581981D01*
X119107124Y-122669925D01*
X118986925Y-122790124D01*
X118898981Y-122935602D01*
X118871819Y-123022768D01*
X118834407Y-123079788D01*
X118772502Y-123108402D01*
X118704829Y-123099954D01*
X118651859Y-123057000D01*
X118602046Y-122985859D01*
X118441140Y-122824953D01*
X118254735Y-122694432D01*
X118048497Y-122598261D01*
X117828689Y-122539364D01*
X117602000Y-122519531D01*
X117375310Y-122539364D01*
X117155497Y-122598263D01*
X117154535Y-122598712D01*
X117148372Y-122600172D01*
X117145026Y-122601069D01*
X117144999Y-122600971D01*
X117105739Y-122610275D01*
X117056353Y-122601565D01*
X117014456Y-122574008D01*
X106780219Y-112339771D01*
X106753339Y-112299543D01*
X106743900Y-112252090D01*
X106743900Y-67741800D01*
X108352931Y-67741800D01*
X108371977Y-67995954D01*
X108428692Y-68244437D01*
X108521808Y-68481691D01*
X108580465Y-68583288D01*
X108649241Y-68702412D01*
X108808150Y-68901677D01*
X108994983Y-69075032D01*
X109203554Y-69217233D01*
X109243330Y-69261744D01*
X109257700Y-69319685D01*
X109257700Y-87204350D01*
X109243330Y-87262291D01*
X109203554Y-87306801D01*
X109097346Y-87379213D01*
X109045781Y-87414369D01*
X108952440Y-87500977D01*
X108858950Y-87587723D01*
X108755372Y-87717606D01*
X108700038Y-87786992D01*
X108572608Y-88007708D01*
X108479492Y-88244962D01*
X108422777Y-88493445D01*
X108403731Y-88747600D01*
X108422777Y-89001754D01*
X108479492Y-89250237D01*
X108572608Y-89487491D01*
X108699877Y-89707928D01*
X108700041Y-89708212D01*
X108858950Y-89907477D01*
X109045783Y-90080832D01*
X109254354Y-90223033D01*
X109294130Y-90267544D01*
X109308500Y-90325485D01*
X109308500Y-111545396D01*
X109317017Y-111582718D01*
X109319345Y-111596419D01*
X109323631Y-111634452D01*
X109336272Y-111670580D01*
X109340119Y-111683936D01*
X109348638Y-111721258D01*
X109365250Y-111755753D01*
X109370570Y-111768598D01*
X109383209Y-111804720D01*
X109393770Y-111821527D01*
X109403576Y-111837133D01*
X109410298Y-111849295D01*
X109426908Y-111883786D01*
X109450772Y-111913710D01*
X109458818Y-111925050D01*
X109479184Y-111957462D01*
X109511174Y-111989452D01*
X116464183Y-118942461D01*
X116464184Y-118942462D01*
X116591738Y-119070016D01*
X116620268Y-119087943D01*
X116624145Y-119090379D01*
X116635483Y-119098424D01*
X116665411Y-119122290D01*
X116665414Y-119122292D01*
X116679786Y-119129213D01*
X116699899Y-119138899D01*
X116712069Y-119145625D01*
X116744480Y-119165990D01*
X116780597Y-119178628D01*
X116793441Y-119183948D01*
X116824499Y-119198903D01*
X116827939Y-119200560D01*
X116865276Y-119209081D01*
X116878613Y-119212925D01*
X116914745Y-119225568D01*
X116952776Y-119229853D01*
X116966481Y-119232181D01*
X117003806Y-119240700D01*
X117049046Y-119240700D01*
X117184194Y-119240700D01*
X133881460Y-119240700D01*
X133928913Y-119250139D01*
X133969141Y-119277019D01*
X134545181Y-119853059D01*
X134572061Y-119893287D01*
X134581500Y-119940740D01*
X134581500Y-122734951D01*
X134572061Y-122782404D01*
X134545181Y-122822632D01*
X134381955Y-122985857D01*
X134332140Y-123057001D01*
X134279169Y-123099955D01*
X134211496Y-123108402D01*
X134149591Y-123079788D01*
X134112179Y-123022767D01*
X134085016Y-122935599D01*
X133997074Y-122790124D01*
X133876875Y-122669925D01*
X133731396Y-122581980D01*
X133569106Y-122531409D01*
X133498576Y-122525000D01*
X133092000Y-122525000D01*
X133092000Y-126724999D01*
X133498579Y-126724999D01*
X133569104Y-126718591D01*
X133731397Y-126668018D01*
X133876875Y-126580074D01*
X133997074Y-126459875D01*
X134085016Y-126314400D01*
X134112179Y-126227232D01*
X134149591Y-126170211D01*
X134211496Y-126141597D01*
X134279169Y-126150045D01*
X134332140Y-126192999D01*
X134381953Y-126264140D01*
X134542859Y-126425046D01*
X134729264Y-126555567D01*
X134729265Y-126555567D01*
X134729266Y-126555568D01*
X134935504Y-126651739D01*
X135155308Y-126710635D01*
X135382000Y-126730468D01*
X135608692Y-126710635D01*
X135828496Y-126651739D01*
X136034734Y-126555568D01*
X136221139Y-126425047D01*
X136382047Y-126264139D01*
X136512568Y-126077734D01*
X136539618Y-126019724D01*
X136585375Y-125967549D01*
X136652000Y-125948129D01*
X136718625Y-125967549D01*
X136764382Y-126019725D01*
X136791431Y-126077733D01*
X136921953Y-126264140D01*
X137082859Y-126425046D01*
X137269264Y-126555567D01*
X137269265Y-126555567D01*
X137269266Y-126555568D01*
X137475504Y-126651739D01*
X137695308Y-126710635D01*
X137922000Y-126730468D01*
X138148692Y-126710635D01*
X138368496Y-126651739D01*
X138574734Y-126555568D01*
X138761139Y-126425047D01*
X138922047Y-126264139D01*
X139052568Y-126077734D01*
X139079618Y-126019724D01*
X139125375Y-125967549D01*
X139192000Y-125948129D01*
X139258625Y-125967549D01*
X139304382Y-126019725D01*
X139331431Y-126077733D01*
X139461953Y-126264140D01*
X139622859Y-126425046D01*
X139809264Y-126555567D01*
X139809265Y-126555567D01*
X139809266Y-126555568D01*
X140015504Y-126651739D01*
X140235308Y-126710635D01*
X140462000Y-126730468D01*
X140688692Y-126710635D01*
X140908496Y-126651739D01*
X141114734Y-126555568D01*
X141301139Y-126425047D01*
X141462047Y-126264139D01*
X141592568Y-126077734D01*
X141619618Y-126019724D01*
X141665375Y-125967549D01*
X141732000Y-125948129D01*
X141798625Y-125967549D01*
X141844382Y-126019725D01*
X141871431Y-126077733D01*
X142001953Y-126264140D01*
X142162859Y-126425046D01*
X142349264Y-126555567D01*
X142349265Y-126555567D01*
X142349266Y-126555568D01*
X142555504Y-126651739D01*
X142775308Y-126710635D01*
X143002000Y-126730468D01*
X143228692Y-126710635D01*
X143448496Y-126651739D01*
X143654734Y-126555568D01*
X143841139Y-126425047D01*
X144002047Y-126264139D01*
X144051859Y-126192998D01*
X144104829Y-126150045D01*
X144172502Y-126141597D01*
X144234407Y-126170211D01*
X144271819Y-126227231D01*
X144298981Y-126314397D01*
X144386925Y-126459875D01*
X144507124Y-126580074D01*
X144652603Y-126668019D01*
X144814893Y-126718590D01*
X144885424Y-126725000D01*
X145292000Y-126725000D01*
X145292000Y-126724999D01*
X145792000Y-126724999D01*
X146198579Y-126724999D01*
X146269104Y-126718591D01*
X146431397Y-126668018D01*
X146576875Y-126580074D01*
X146697074Y-126459875D01*
X146785016Y-126314400D01*
X146812179Y-126227232D01*
X146849591Y-126170211D01*
X146911496Y-126141597D01*
X146979169Y-126150045D01*
X147032140Y-126192999D01*
X147081953Y-126264140D01*
X147242859Y-126425046D01*
X147429264Y-126555567D01*
X147429265Y-126555567D01*
X147429266Y-126555568D01*
X147635504Y-126651739D01*
X147855308Y-126710635D01*
X148082000Y-126730468D01*
X148308692Y-126710635D01*
X148528496Y-126651739D01*
X148734734Y-126555568D01*
X148921139Y-126425047D01*
X149082047Y-126264139D01*
X149212568Y-126077734D01*
X149239618Y-126019724D01*
X149285375Y-125967549D01*
X149352000Y-125948129D01*
X149418625Y-125967549D01*
X149464382Y-126019725D01*
X149491431Y-126077733D01*
X149621953Y-126264140D01*
X149782859Y-126425046D01*
X149969264Y-126555567D01*
X149969265Y-126555567D01*
X149969266Y-126555568D01*
X150175504Y-126651739D01*
X150395308Y-126710635D01*
X150622000Y-126730468D01*
X150848692Y-126710635D01*
X151068496Y-126651739D01*
X151274734Y-126555568D01*
X151461139Y-126425047D01*
X151622047Y-126264139D01*
X151752568Y-126077734D01*
X151779618Y-126019724D01*
X151825375Y-125967549D01*
X151892000Y-125948129D01*
X151958625Y-125967549D01*
X152004382Y-126019725D01*
X152031431Y-126077733D01*
X152161953Y-126264140D01*
X152322859Y-126425046D01*
X152509264Y-126555567D01*
X152509265Y-126555567D01*
X152509266Y-126555568D01*
X152715504Y-126651739D01*
X152935308Y-126710635D01*
X153162000Y-126730468D01*
X153388692Y-126710635D01*
X153608496Y-126651739D01*
X153814734Y-126555568D01*
X154001139Y-126425047D01*
X154162047Y-126264139D01*
X154292568Y-126077734D01*
X154319618Y-126019724D01*
X154365375Y-125967549D01*
X154432000Y-125948129D01*
X154498625Y-125967549D01*
X154544382Y-126019725D01*
X154571431Y-126077733D01*
X154701953Y-126264140D01*
X154862859Y-126425046D01*
X155049264Y-126555567D01*
X155049265Y-126555567D01*
X155049266Y-126555568D01*
X155255504Y-126651739D01*
X155475308Y-126710635D01*
X155702000Y-126730468D01*
X155928692Y-126710635D01*
X156148496Y-126651739D01*
X156354734Y-126555568D01*
X156541139Y-126425047D01*
X156702047Y-126264139D01*
X156751859Y-126192998D01*
X156804829Y-126150045D01*
X156872502Y-126141597D01*
X156934407Y-126170211D01*
X156971819Y-126227231D01*
X156998981Y-126314397D01*
X157086925Y-126459875D01*
X157207124Y-126580074D01*
X157352603Y-126668019D01*
X157514893Y-126718590D01*
X157585424Y-126725000D01*
X157992000Y-126725000D01*
X157992000Y-126724999D01*
X158492000Y-126724999D01*
X158898579Y-126724999D01*
X158969104Y-126718591D01*
X159131397Y-126668018D01*
X159276875Y-126580074D01*
X159397074Y-126459875D01*
X159485016Y-126314400D01*
X159512179Y-126227232D01*
X159549591Y-126170211D01*
X159611496Y-126141597D01*
X159679169Y-126150045D01*
X159732140Y-126192999D01*
X159781953Y-126264140D01*
X159942859Y-126425046D01*
X160129264Y-126555567D01*
X160129265Y-126555567D01*
X160129266Y-126555568D01*
X160335504Y-126651739D01*
X160555308Y-126710635D01*
X160782000Y-126730468D01*
X161008692Y-126710635D01*
X161228496Y-126651739D01*
X161434734Y-126555568D01*
X161621139Y-126425047D01*
X161782047Y-126264139D01*
X161912568Y-126077734D01*
X161939618Y-126019724D01*
X161985375Y-125967549D01*
X162052000Y-125948129D01*
X162118625Y-125967549D01*
X162164382Y-126019725D01*
X162191431Y-126077733D01*
X162321953Y-126264140D01*
X162482859Y-126425046D01*
X162669264Y-126555567D01*
X162669265Y-126555567D01*
X162669266Y-126555568D01*
X162875504Y-126651739D01*
X163095308Y-126710635D01*
X163322000Y-126730468D01*
X163548692Y-126710635D01*
X163768496Y-126651739D01*
X163974734Y-126555568D01*
X164161139Y-126425047D01*
X164322047Y-126264139D01*
X164452568Y-126077734D01*
X164548739Y-125871496D01*
X164607635Y-125651692D01*
X164627468Y-125425000D01*
X164622971Y-125373610D01*
X164622500Y-125362803D01*
X164622500Y-123768214D01*
X164607635Y-123598310D01*
X164607635Y-123598308D01*
X164548739Y-123378504D01*
X164452568Y-123172266D01*
X164407850Y-123108402D01*
X164322046Y-122985859D01*
X164161140Y-122824953D01*
X163974735Y-122694432D01*
X163768497Y-122598261D01*
X163548689Y-122539364D01*
X163322000Y-122519531D01*
X163095310Y-122539364D01*
X162875502Y-122598261D01*
X162669264Y-122694432D01*
X162482859Y-122824953D01*
X162321953Y-122985859D01*
X162191433Y-123172263D01*
X162164382Y-123230275D01*
X162118625Y-123282450D01*
X162052000Y-123301869D01*
X161985375Y-123282450D01*
X161939618Y-123230275D01*
X161912568Y-123172266D01*
X161912566Y-123172263D01*
X161782046Y-122985859D01*
X161621140Y-122824953D01*
X161434735Y-122694432D01*
X161228497Y-122598261D01*
X161008689Y-122539364D01*
X160782000Y-122519531D01*
X160555310Y-122539364D01*
X160335502Y-122598261D01*
X160129264Y-122694432D01*
X159942859Y-122824953D01*
X159781955Y-122985857D01*
X159732140Y-123057001D01*
X159679169Y-123099955D01*
X159611496Y-123108402D01*
X159549591Y-123079788D01*
X159512179Y-123022767D01*
X159485016Y-122935599D01*
X159397074Y-122790124D01*
X159276875Y-122669925D01*
X159131396Y-122581980D01*
X158969106Y-122531409D01*
X158898576Y-122525000D01*
X158492000Y-122525000D01*
X158492000Y-126724999D01*
X157992000Y-126724999D01*
X157992000Y-122525001D01*
X157585421Y-122525001D01*
X157514895Y-122531408D01*
X157352602Y-122581981D01*
X157207124Y-122669925D01*
X157086925Y-122790124D01*
X156998981Y-122935602D01*
X156971819Y-123022768D01*
X156934407Y-123079788D01*
X156872502Y-123108402D01*
X156804829Y-123099954D01*
X156751859Y-123057000D01*
X156702046Y-122985859D01*
X156541140Y-122824953D01*
X156354735Y-122694432D01*
X156148497Y-122598261D01*
X155928689Y-122539364D01*
X155702000Y-122519531D01*
X155475310Y-122539364D01*
X155255502Y-122598261D01*
X155049264Y-122694432D01*
X154862859Y-122824953D01*
X154701953Y-122985859D01*
X154571433Y-123172263D01*
X154544382Y-123230275D01*
X154498625Y-123282450D01*
X154432000Y-123301869D01*
X154365375Y-123282450D01*
X154319618Y-123230275D01*
X154292568Y-123172266D01*
X154292566Y-123172263D01*
X154162046Y-122985859D01*
X153998819Y-122822632D01*
X153971939Y-122782404D01*
X153962500Y-122734951D01*
X153962500Y-121032940D01*
X153971939Y-120985487D01*
X153998819Y-120945259D01*
X155419459Y-119524619D01*
X155459687Y-119497739D01*
X155507140Y-119488300D01*
X155635441Y-119488300D01*
X155635443Y-119488300D01*
X155854140Y-119447418D01*
X156061601Y-119367047D01*
X156250762Y-119249924D01*
X156415181Y-119100036D01*
X156549258Y-118922489D01*
X156648429Y-118723328D01*
X156709315Y-118509336D01*
X156729843Y-118287800D01*
X156709315Y-118066264D01*
X156686427Y-117985821D01*
X156648430Y-117852273D01*
X156549258Y-117653111D01*
X156415180Y-117475562D01*
X156250762Y-117325675D01*
X156061604Y-117208554D01*
X156000374Y-117184833D01*
X155854140Y-117128182D01*
X155635443Y-117087300D01*
X155412957Y-117087300D01*
X155194260Y-117128181D01*
X155194260Y-117128182D01*
X154986795Y-117208554D01*
X154797637Y-117325675D01*
X154633219Y-117475562D01*
X154499141Y-117653111D01*
X154399969Y-117852273D01*
X154339085Y-118066262D01*
X154318557Y-118287798D01*
X154319425Y-118297169D01*
X154312582Y-118350719D01*
X154283634Y-118396286D01*
X152642297Y-120037624D01*
X152532185Y-120147735D01*
X152511817Y-120180151D01*
X152503772Y-120191489D01*
X152479908Y-120221413D01*
X152463300Y-120255899D01*
X152456576Y-120268064D01*
X152436211Y-120300475D01*
X152423565Y-120336613D01*
X152418246Y-120349453D01*
X152401639Y-120383938D01*
X152393118Y-120421268D01*
X152389270Y-120434623D01*
X152376631Y-120470743D01*
X152372345Y-120508780D01*
X152370017Y-120522480D01*
X152361500Y-120559803D01*
X152361500Y-122734951D01*
X152352061Y-122782404D01*
X152325181Y-122822632D01*
X152161953Y-122985859D01*
X152031433Y-123172263D01*
X152004382Y-123230275D01*
X151958625Y-123282450D01*
X151892000Y-123301869D01*
X151825375Y-123282450D01*
X151779618Y-123230275D01*
X151752568Y-123172266D01*
X151752566Y-123172263D01*
X151622046Y-122985859D01*
X151461140Y-122824953D01*
X151274735Y-122694432D01*
X151068497Y-122598261D01*
X150848689Y-122539364D01*
X150622000Y-122519531D01*
X150395310Y-122539364D01*
X150175502Y-122598261D01*
X149969264Y-122694432D01*
X149782859Y-122824953D01*
X149621953Y-122985859D01*
X149491433Y-123172263D01*
X149464382Y-123230275D01*
X149418625Y-123282450D01*
X149352000Y-123301869D01*
X149285375Y-123282450D01*
X149239618Y-123230275D01*
X149212568Y-123172266D01*
X149212566Y-123172263D01*
X149082046Y-122985859D01*
X148918819Y-122822632D01*
X148891939Y-122782404D01*
X148882500Y-122734951D01*
X148882500Y-119214116D01*
X148893066Y-119164029D01*
X148922963Y-119122478D01*
X148923169Y-119122290D01*
X148947581Y-119100036D01*
X149081658Y-118922489D01*
X149180829Y-118723328D01*
X149241715Y-118509336D01*
X149262243Y-118287800D01*
X149241715Y-118066264D01*
X149218827Y-117985821D01*
X149180830Y-117852273D01*
X149081658Y-117653111D01*
X148947580Y-117475562D01*
X148783162Y-117325675D01*
X148594004Y-117208554D01*
X148532774Y-117184833D01*
X148386540Y-117128182D01*
X148167843Y-117087300D01*
X147945357Y-117087300D01*
X147726660Y-117128181D01*
X147726660Y-117128182D01*
X147519195Y-117208554D01*
X147330037Y-117325675D01*
X147165619Y-117475562D01*
X147031541Y-117653111D01*
X146932369Y-117852273D01*
X146871485Y-118066262D01*
X146850957Y-118287799D01*
X146871485Y-118509337D01*
X146932369Y-118723326D01*
X147031541Y-118922488D01*
X147165619Y-119100037D01*
X147241038Y-119168790D01*
X147270934Y-119210341D01*
X147281500Y-119260427D01*
X147281500Y-122734951D01*
X147272061Y-122782404D01*
X147245181Y-122822632D01*
X147081955Y-122985857D01*
X147032140Y-123057001D01*
X146979169Y-123099955D01*
X146911496Y-123108402D01*
X146849591Y-123079788D01*
X146812179Y-123022767D01*
X146785016Y-122935599D01*
X146697074Y-122790124D01*
X146576875Y-122669925D01*
X146431396Y-122581980D01*
X146269106Y-122531409D01*
X146198576Y-122525000D01*
X145792000Y-122525000D01*
X145792000Y-126724999D01*
X145292000Y-126724999D01*
X145292000Y-122525001D01*
X144885421Y-122525001D01*
X144814895Y-122531408D01*
X144652602Y-122581981D01*
X144507124Y-122669925D01*
X144386925Y-122790124D01*
X144298981Y-122935602D01*
X144271819Y-123022768D01*
X144234407Y-123079788D01*
X144172502Y-123108402D01*
X144104829Y-123099954D01*
X144051859Y-123057000D01*
X144002046Y-122985859D01*
X143841140Y-122824953D01*
X143654735Y-122694432D01*
X143448497Y-122598261D01*
X143228689Y-122539364D01*
X143002000Y-122519531D01*
X142775310Y-122539364D01*
X142555502Y-122598261D01*
X142349264Y-122694432D01*
X142162859Y-122824953D01*
X142001953Y-122985859D01*
X141871433Y-123172263D01*
X141844382Y-123230275D01*
X141798625Y-123282450D01*
X141732000Y-123301869D01*
X141665375Y-123282450D01*
X141619618Y-123230275D01*
X141592568Y-123172266D01*
X141592566Y-123172263D01*
X141462046Y-122985859D01*
X141301140Y-122824953D01*
X141114735Y-122694432D01*
X140908497Y-122598261D01*
X140688689Y-122539364D01*
X140462000Y-122519531D01*
X140235310Y-122539364D01*
X140015502Y-122598261D01*
X139809264Y-122694432D01*
X139622859Y-122824953D01*
X139461953Y-122985859D01*
X139331433Y-123172263D01*
X139304382Y-123230275D01*
X139258625Y-123282450D01*
X139192000Y-123301869D01*
X139125375Y-123282450D01*
X139079618Y-123230275D01*
X139052568Y-123172266D01*
X139052566Y-123172263D01*
X138922046Y-122985859D01*
X138761140Y-122824953D01*
X138574735Y-122694432D01*
X138368497Y-122598261D01*
X138148689Y-122539364D01*
X137922000Y-122519531D01*
X137695310Y-122539364D01*
X137475502Y-122598261D01*
X137269264Y-122694432D01*
X137082859Y-122824953D01*
X136921953Y-122985859D01*
X136791433Y-123172263D01*
X136764382Y-123230275D01*
X136718625Y-123282450D01*
X136652000Y-123301869D01*
X136585375Y-123282450D01*
X136539618Y-123230275D01*
X136512568Y-123172266D01*
X136512566Y-123172263D01*
X136382046Y-122985859D01*
X136218819Y-122822632D01*
X136191939Y-122782404D01*
X136182500Y-122734951D01*
X136182500Y-119467607D01*
X136173982Y-119430287D01*
X136171653Y-119416576D01*
X136167368Y-119378545D01*
X136154725Y-119342411D01*
X136150876Y-119329050D01*
X136142360Y-119291739D01*
X136125753Y-119257255D01*
X136120432Y-119244408D01*
X136107790Y-119208280D01*
X136102937Y-119200557D01*
X136087422Y-119175864D01*
X136080697Y-119163695D01*
X136064092Y-119129214D01*
X136040225Y-119099286D01*
X136032177Y-119087943D01*
X136011816Y-119055538D01*
X135884262Y-118927984D01*
X134816093Y-117859814D01*
X134816091Y-117859812D01*
X134798652Y-117842374D01*
X134798652Y-117842373D01*
X134766662Y-117810384D01*
X134755109Y-117803125D01*
X134734249Y-117790017D01*
X134722911Y-117781972D01*
X134692986Y-117758108D01*
X134658495Y-117741498D01*
X134646333Y-117734776D01*
X134630727Y-117724970D01*
X134613920Y-117714409D01*
X134577798Y-117701770D01*
X134564953Y-117696450D01*
X134530458Y-117679838D01*
X134493136Y-117671319D01*
X134479780Y-117667472D01*
X134443652Y-117654831D01*
X134405619Y-117650545D01*
X134391918Y-117648217D01*
X134354596Y-117639700D01*
X134354594Y-117639700D01*
X134309354Y-117639700D01*
X117476940Y-117639700D01*
X117429487Y-117630261D01*
X117389259Y-117603381D01*
X110945819Y-111159941D01*
X110918939Y-111119713D01*
X110909500Y-111072260D01*
X110909500Y-90325485D01*
X110923870Y-90267544D01*
X110963645Y-90223033D01*
X111172217Y-90080832D01*
X111359050Y-89907477D01*
X111517959Y-89708212D01*
X111645393Y-89487488D01*
X111738508Y-89250237D01*
X111795222Y-89001757D01*
X111795534Y-88997600D01*
X121122968Y-88997600D01*
X121123273Y-89001680D01*
X121179971Y-89250091D01*
X121273057Y-89487269D01*
X121400454Y-89707928D01*
X121559317Y-89907136D01*
X121746095Y-90080441D01*
X121956615Y-90223971D01*
X122186179Y-90334522D01*
X122429654Y-90409625D01*
X122559000Y-90429120D01*
X122559000Y-88997600D01*
X123059000Y-88997600D01*
X123059000Y-90429120D01*
X123188345Y-90409625D01*
X123431823Y-90334521D01*
X123661379Y-90223974D01*
X123871907Y-90080439D01*
X124058682Y-89907136D01*
X124217545Y-89707928D01*
X124344942Y-89487269D01*
X124438028Y-89250091D01*
X124494726Y-89001680D01*
X124495032Y-88997600D01*
X123059000Y-88997600D01*
X122559000Y-88997600D01*
X121122968Y-88997600D01*
X111795534Y-88997600D01*
X111814268Y-88747600D01*
X111795533Y-88497599D01*
X121122967Y-88497599D01*
X121122968Y-88497600D01*
X122559000Y-88497600D01*
X122559000Y-87066079D01*
X123059000Y-87066079D01*
X123059000Y-88497600D01*
X124495032Y-88497600D01*
X124495032Y-88497599D01*
X124494726Y-88493519D01*
X124438028Y-88245108D01*
X124344942Y-88007930D01*
X124217545Y-87787271D01*
X124058682Y-87588063D01*
X123871907Y-87414760D01*
X123661379Y-87271225D01*
X123431823Y-87160678D01*
X123188345Y-87085574D01*
X123059000Y-87066079D01*
X122559000Y-87066079D01*
X122429654Y-87085574D01*
X122186179Y-87160677D01*
X121956615Y-87271228D01*
X121746095Y-87414758D01*
X121559317Y-87588063D01*
X121400454Y-87787271D01*
X121273057Y-88007930D01*
X121179971Y-88245108D01*
X121123273Y-88493519D01*
X121122967Y-88497599D01*
X111795533Y-88497599D01*
X111795222Y-88493443D01*
X111738508Y-88244963D01*
X111645393Y-88007712D01*
X111517959Y-87786988D01*
X111359050Y-87587723D01*
X111172217Y-87414368D01*
X110961634Y-87270795D01*
X110928898Y-87255030D01*
X110877707Y-87209284D01*
X110858700Y-87143311D01*
X110858700Y-69319685D01*
X110873070Y-69261744D01*
X110912845Y-69217233D01*
X111121417Y-69075032D01*
X111308250Y-68901677D01*
X111467159Y-68702412D01*
X111594593Y-68481688D01*
X111687708Y-68244437D01*
X111744422Y-67995957D01*
X111763468Y-67741800D01*
X111744422Y-67487643D01*
X111687708Y-67239163D01*
X111594593Y-67001912D01*
X111550007Y-66924687D01*
X111525817Y-66882788D01*
X111467159Y-66781188D01*
X111308250Y-66581923D01*
X111121417Y-66408568D01*
X110910834Y-66264995D01*
X110681204Y-66154411D01*
X110437658Y-66079287D01*
X110185635Y-66041300D01*
X109930765Y-66041300D01*
X109678742Y-66079287D01*
X109435196Y-66154411D01*
X109205566Y-66264995D01*
X109168311Y-66290395D01*
X108994981Y-66408569D01*
X108808150Y-66581922D01*
X108808150Y-66581923D01*
X108727127Y-66683523D01*
X108649238Y-66781192D01*
X108521808Y-67001908D01*
X108428692Y-67239162D01*
X108371977Y-67487645D01*
X108352931Y-67741800D01*
X106743900Y-67741800D01*
X106743900Y-62130340D01*
X106753339Y-62082887D01*
X106780219Y-62042659D01*
X108042059Y-60780819D01*
X108082287Y-60753939D01*
X108129740Y-60744500D01*
X116965060Y-60744500D01*
X117012513Y-60753939D01*
X117052741Y-60780819D01*
X128245981Y-71974059D01*
X128272861Y-72014287D01*
X128282300Y-72061740D01*
X128282300Y-107557596D01*
X128290817Y-107594918D01*
X128293145Y-107608619D01*
X128297431Y-107646652D01*
X128310072Y-107682780D01*
X128313919Y-107696136D01*
X128322438Y-107733458D01*
X128339050Y-107767953D01*
X128344370Y-107780798D01*
X128357009Y-107816920D01*
X128367570Y-107833727D01*
X128377376Y-107849333D01*
X128384098Y-107861495D01*
X128400708Y-107895986D01*
X128424572Y-107925910D01*
X128432618Y-107937250D01*
X128452984Y-107969662D01*
X128484973Y-108001651D01*
X128484974Y-108001652D01*
X131018384Y-110535062D01*
X131103535Y-110620213D01*
X131145938Y-110662616D01*
X131178343Y-110682977D01*
X131189686Y-110691025D01*
X131219611Y-110714890D01*
X131219612Y-110714890D01*
X131219613Y-110714891D01*
X131254099Y-110731498D01*
X131266258Y-110738218D01*
X131298678Y-110758589D01*
X131334820Y-110771235D01*
X131347658Y-110776554D01*
X131382139Y-110793159D01*
X131417037Y-110801124D01*
X131419449Y-110801675D01*
X131432811Y-110805524D01*
X131468945Y-110818168D01*
X131507000Y-110822455D01*
X131520681Y-110824780D01*
X131543675Y-110830029D01*
X131558004Y-110833300D01*
X131558005Y-110833300D01*
X131603246Y-110833300D01*
X131738394Y-110833300D01*
X147132100Y-110833300D01*
X147194100Y-110849913D01*
X147239487Y-110895300D01*
X147256100Y-110957300D01*
X147256100Y-112258329D01*
X147245534Y-112308416D01*
X147215640Y-112349963D01*
X147165619Y-112395564D01*
X147165617Y-112395566D01*
X147031541Y-112573111D01*
X146932369Y-112772273D01*
X146871485Y-112986262D01*
X146850957Y-113207799D01*
X146871485Y-113429337D01*
X146932369Y-113643326D01*
X147031541Y-113842488D01*
X147165619Y-114020037D01*
X147330037Y-114169924D01*
X147519195Y-114287045D01*
X147519197Y-114287045D01*
X147519199Y-114287047D01*
X147726660Y-114367418D01*
X147945357Y-114408300D01*
X148167841Y-114408300D01*
X148167843Y-114408300D01*
X148386540Y-114367418D01*
X148594001Y-114287047D01*
X148783162Y-114169924D01*
X148947581Y-114020036D01*
X149081658Y-113842489D01*
X149180829Y-113643328D01*
X149241715Y-113429336D01*
X149262243Y-113207800D01*
X149241715Y-112986264D01*
X149217480Y-112901088D01*
X149180830Y-112772273D01*
X149081658Y-112573111D01*
X149060306Y-112544836D01*
X148947581Y-112395564D01*
X148897559Y-112349963D01*
X148867666Y-112308416D01*
X148857100Y-112258329D01*
X148857100Y-110957300D01*
X148873713Y-110895300D01*
X148919100Y-110849913D01*
X148981100Y-110833300D01*
X154125260Y-110833300D01*
X154172713Y-110842739D01*
X154212941Y-110869619D01*
X154687381Y-111344059D01*
X154714261Y-111384287D01*
X154723700Y-111431740D01*
X154723700Y-112258329D01*
X154713134Y-112308416D01*
X154683240Y-112349963D01*
X154633219Y-112395564D01*
X154633217Y-112395566D01*
X154499141Y-112573111D01*
X154399969Y-112772273D01*
X154339085Y-112986262D01*
X154318557Y-113207799D01*
X154339085Y-113429337D01*
X154399969Y-113643326D01*
X154499141Y-113842488D01*
X154633219Y-114020037D01*
X154797637Y-114169924D01*
X154986795Y-114287045D01*
X154986797Y-114287045D01*
X154986799Y-114287047D01*
X155194260Y-114367418D01*
X155412957Y-114408300D01*
X155635441Y-114408300D01*
X155635443Y-114408300D01*
X155854140Y-114367418D01*
X156061601Y-114287047D01*
X156250762Y-114169924D01*
X156415181Y-114020036D01*
X156549258Y-113842489D01*
X156648429Y-113643328D01*
X156709315Y-113429336D01*
X156729843Y-113207800D01*
X156709315Y-112986264D01*
X156685080Y-112901088D01*
X156648430Y-112772273D01*
X156549258Y-112573111D01*
X156527906Y-112544836D01*
X156415181Y-112395564D01*
X156365159Y-112349963D01*
X156335266Y-112308416D01*
X156324700Y-112258329D01*
X156324700Y-110958607D01*
X156316182Y-110921287D01*
X156313853Y-110907576D01*
X156309568Y-110869545D01*
X156296925Y-110833411D01*
X156293076Y-110820050D01*
X156284560Y-110782739D01*
X156267953Y-110748255D01*
X156262632Y-110735408D01*
X156249990Y-110699280D01*
X156229623Y-110666866D01*
X156222897Y-110654695D01*
X156206292Y-110620214D01*
X156182425Y-110590286D01*
X156174377Y-110578943D01*
X156154016Y-110546538D01*
X156142540Y-110535062D01*
X156026462Y-110418984D01*
X155042452Y-109434974D01*
X155010462Y-109402984D01*
X154978051Y-109382618D01*
X154966710Y-109374572D01*
X154936786Y-109350708D01*
X154902295Y-109334098D01*
X154890133Y-109327376D01*
X154874527Y-109317570D01*
X154857720Y-109307009D01*
X154821598Y-109294370D01*
X154808753Y-109289050D01*
X154774258Y-109272438D01*
X154736936Y-109263919D01*
X154723580Y-109260072D01*
X154687452Y-109247431D01*
X154649419Y-109243145D01*
X154635718Y-109240817D01*
X154598396Y-109232300D01*
X154598394Y-109232300D01*
X154553154Y-109232300D01*
X148121394Y-109232300D01*
X148076154Y-109232300D01*
X132031140Y-109232300D01*
X131983687Y-109222861D01*
X131943459Y-109195981D01*
X129919619Y-107172141D01*
X129892739Y-107131913D01*
X129883300Y-107084460D01*
X129883300Y-83921599D01*
X133168731Y-83921599D01*
X133187777Y-84175754D01*
X133244492Y-84424237D01*
X133337608Y-84661491D01*
X133456109Y-84866741D01*
X133465041Y-84882212D01*
X133623950Y-85081477D01*
X133810783Y-85254832D01*
X134021366Y-85398405D01*
X134021369Y-85398406D01*
X134021370Y-85398407D01*
X134130301Y-85450865D01*
X134181494Y-85496613D01*
X134200500Y-85562585D01*
X134200500Y-93443515D01*
X134186130Y-93501456D01*
X134146354Y-93545966D01*
X134000795Y-93645207D01*
X133937781Y-93688169D01*
X133769322Y-93844476D01*
X133750950Y-93861523D01*
X133626298Y-94017832D01*
X133592038Y-94060792D01*
X133464608Y-94281508D01*
X133371492Y-94518762D01*
X133314777Y-94767245D01*
X133295731Y-95021400D01*
X133314777Y-95275554D01*
X133371492Y-95524037D01*
X133464608Y-95761291D01*
X133592038Y-95982007D01*
X133592041Y-95982012D01*
X133750950Y-96181277D01*
X133937783Y-96354632D01*
X134148366Y-96498205D01*
X134377996Y-96608789D01*
X134621542Y-96683913D01*
X134873565Y-96721900D01*
X135128435Y-96721900D01*
X135380458Y-96683913D01*
X135624004Y-96608789D01*
X135853634Y-96498205D01*
X136064217Y-96354632D01*
X136251050Y-96181277D01*
X136409959Y-95982012D01*
X136537393Y-95761288D01*
X136630508Y-95524037D01*
X136687222Y-95275557D01*
X136706268Y-95021400D01*
X145995731Y-95021400D01*
X146014777Y-95275554D01*
X146071492Y-95524037D01*
X146164608Y-95761291D01*
X146292038Y-95982007D01*
X146292041Y-95982012D01*
X146450950Y-96181277D01*
X146637783Y-96354632D01*
X146848366Y-96498205D01*
X147077996Y-96608789D01*
X147321542Y-96683913D01*
X147573565Y-96721900D01*
X147828435Y-96721900D01*
X148080458Y-96683913D01*
X148124447Y-96670343D01*
X148190843Y-96668481D01*
X148248676Y-96701154D01*
X148391983Y-96844461D01*
X148391984Y-96844462D01*
X148519535Y-96972013D01*
X148519538Y-96972016D01*
X148551943Y-96992377D01*
X148563286Y-97000425D01*
X148593214Y-97024292D01*
X148627695Y-97040897D01*
X148639866Y-97047623D01*
X148672280Y-97067990D01*
X148708408Y-97080632D01*
X148721250Y-97085950D01*
X148755735Y-97102558D01*
X148755739Y-97102560D01*
X148793050Y-97111076D01*
X148806411Y-97114925D01*
X148842545Y-97127568D01*
X148880576Y-97131853D01*
X148894281Y-97134181D01*
X148931606Y-97142700D01*
X148976846Y-97142700D01*
X149111994Y-97142700D01*
X165035206Y-97142700D01*
X165170354Y-97142700D01*
X165215594Y-97142700D01*
X165215595Y-97142700D01*
X165226409Y-97140231D01*
X165252920Y-97134180D01*
X165266597Y-97131855D01*
X165304655Y-97127568D01*
X165340799Y-97114920D01*
X165354121Y-97111082D01*
X165391461Y-97102560D01*
X165425949Y-97085950D01*
X165438791Y-97080631D01*
X165474922Y-97067989D01*
X165507332Y-97047623D01*
X165519503Y-97040897D01*
X165553987Y-97024291D01*
X165583915Y-97000422D01*
X165595234Y-96992390D01*
X165627662Y-96972016D01*
X165755216Y-96844462D01*
X165755216Y-96844461D01*
X167272626Y-95327052D01*
X167309405Y-95290273D01*
X167311429Y-95284218D01*
X167324986Y-95262642D01*
X167333016Y-95251323D01*
X167356891Y-95221387D01*
X167373504Y-95186888D01*
X167380213Y-95174748D01*
X167400589Y-95142322D01*
X167413232Y-95106188D01*
X167418552Y-95093345D01*
X167435159Y-95058860D01*
X167443676Y-95021545D01*
X167447520Y-95008198D01*
X167460168Y-94972055D01*
X167464455Y-94934001D01*
X167466782Y-94920312D01*
X167475300Y-94882996D01*
X167475300Y-94207179D01*
X167487205Y-94154162D01*
X167520636Y-94111325D01*
X167628447Y-94022847D01*
X167632564Y-94017830D01*
X167756598Y-93866694D01*
X167851823Y-93688541D01*
X167910462Y-93495233D01*
X167930262Y-93294200D01*
X167910462Y-93093167D01*
X167877556Y-92984692D01*
X167874044Y-92927501D01*
X167896620Y-92874833D01*
X167940466Y-92837940D01*
X167996218Y-92824700D01*
X174186775Y-92824700D01*
X174246077Y-92839800D01*
X174290937Y-92881422D01*
X174307239Y-92929941D01*
X174308310Y-92929697D01*
X174367092Y-93187237D01*
X174460208Y-93424491D01*
X174587638Y-93645207D01*
X174587641Y-93645212D01*
X174746550Y-93844477D01*
X174933383Y-94017832D01*
X175143966Y-94161405D01*
X175373596Y-94271989D01*
X175617142Y-94347113D01*
X175869165Y-94385100D01*
X176124035Y-94385100D01*
X176376058Y-94347113D01*
X176619604Y-94271989D01*
X176849234Y-94161405D01*
X177059817Y-94017832D01*
X177246650Y-93844477D01*
X177405559Y-93645212D01*
X177532993Y-93424488D01*
X177626108Y-93187237D01*
X177682822Y-92938757D01*
X177701868Y-92684600D01*
X177682822Y-92430443D01*
X177626108Y-92181963D01*
X177532993Y-91944712D01*
X177405559Y-91723988D01*
X177246650Y-91524723D01*
X177059817Y-91351368D01*
X176849234Y-91207795D01*
X176619604Y-91097211D01*
X176376058Y-91022087D01*
X176124035Y-90984100D01*
X175869165Y-90984100D01*
X175617142Y-91022087D01*
X175373596Y-91097211D01*
X175145437Y-91207087D01*
X175136439Y-91211420D01*
X175082637Y-91223700D01*
X168048800Y-91223700D01*
X167986800Y-91207087D01*
X167941413Y-91161700D01*
X167924800Y-91099700D01*
X167924800Y-91004200D01*
X167012115Y-91004200D01*
X166999961Y-91003603D01*
X166950180Y-90998700D01*
X166399420Y-90998700D01*
X166349639Y-91003603D01*
X166337485Y-91004200D01*
X165424800Y-91004200D01*
X165424800Y-91327024D01*
X165431202Y-91386575D01*
X165487678Y-91537993D01*
X165487606Y-91538019D01*
X165501751Y-91570713D01*
X165498285Y-91628179D01*
X165439138Y-91823166D01*
X165419338Y-92024199D01*
X165439137Y-92225231D01*
X165497778Y-92418543D01*
X165595168Y-92600747D01*
X165609810Y-92659200D01*
X165595168Y-92717653D01*
X165497778Y-92899856D01*
X165439137Y-93093168D01*
X165419338Y-93294199D01*
X165439137Y-93495231D01*
X165468457Y-93591887D01*
X165497777Y-93688541D01*
X165593002Y-93866694D01*
X165643075Y-93927708D01*
X165721152Y-94022847D01*
X165828964Y-94111325D01*
X165862395Y-94154162D01*
X165874300Y-94207179D01*
X165874300Y-94409860D01*
X165864861Y-94457313D01*
X165837981Y-94497541D01*
X164830141Y-95505381D01*
X164789913Y-95532261D01*
X164742460Y-95541700D01*
X149481967Y-95541700D01*
X149428165Y-95529420D01*
X149385020Y-95495012D01*
X149361076Y-95445292D01*
X149361076Y-95390107D01*
X149375468Y-95327052D01*
X149387222Y-95275557D01*
X149406268Y-95021400D01*
X149387222Y-94767243D01*
X149330508Y-94518763D01*
X149237393Y-94281512D01*
X149231894Y-94271988D01*
X149109961Y-94060792D01*
X149109959Y-94060788D01*
X148951050Y-93861523D01*
X148764217Y-93688168D01*
X148553634Y-93544595D01*
X148324004Y-93434011D01*
X148080458Y-93358887D01*
X147828435Y-93320900D01*
X147573565Y-93320900D01*
X147321542Y-93358887D01*
X147077996Y-93434011D01*
X146848366Y-93544595D01*
X146846351Y-93545969D01*
X146637781Y-93688169D01*
X146469322Y-93844476D01*
X146450950Y-93861523D01*
X146326298Y-94017832D01*
X146292038Y-94060792D01*
X146164608Y-94281508D01*
X146071492Y-94518762D01*
X146014777Y-94767245D01*
X145995731Y-95021400D01*
X136706268Y-95021400D01*
X136687222Y-94767243D01*
X136630508Y-94518763D01*
X136537393Y-94281512D01*
X136531894Y-94271988D01*
X136409961Y-94060792D01*
X136409959Y-94060788D01*
X136251050Y-93861523D01*
X136064217Y-93688168D01*
X135855645Y-93545966D01*
X135815870Y-93501456D01*
X135801500Y-93443515D01*
X135801500Y-90504200D01*
X165424800Y-90504200D01*
X166424800Y-90504200D01*
X166424800Y-89729200D01*
X166924800Y-89729200D01*
X166924800Y-90504200D01*
X167924800Y-90504200D01*
X167924800Y-90181376D01*
X167918397Y-90121824D01*
X167868152Y-89987110D01*
X167781988Y-89872011D01*
X167666889Y-89785847D01*
X167532175Y-89735602D01*
X167472624Y-89729200D01*
X166924800Y-89729200D01*
X166424800Y-89729200D01*
X165876976Y-89729200D01*
X165817424Y-89735602D01*
X165682710Y-89785847D01*
X165567611Y-89872011D01*
X165481447Y-89987110D01*
X165431202Y-90121824D01*
X165424800Y-90181376D01*
X165424800Y-90504200D01*
X135801500Y-90504200D01*
X135801500Y-85412898D01*
X135815870Y-85354957D01*
X135855646Y-85310445D01*
X135937217Y-85254832D01*
X136124050Y-85081477D01*
X136282959Y-84882212D01*
X136410393Y-84661488D01*
X136503508Y-84424237D01*
X136560222Y-84175757D01*
X136579268Y-83921600D01*
X136560222Y-83667443D01*
X136503508Y-83418963D01*
X136410393Y-83181712D01*
X136282959Y-82960988D01*
X136124050Y-82761723D01*
X135937217Y-82588368D01*
X135726634Y-82444795D01*
X135497004Y-82334211D01*
X135253458Y-82259087D01*
X135001435Y-82221100D01*
X134746565Y-82221100D01*
X134494542Y-82259087D01*
X134250996Y-82334211D01*
X134088245Y-82412588D01*
X134021366Y-82444795D01*
X133966179Y-82482421D01*
X133810781Y-82588369D01*
X133623950Y-82761723D01*
X133465038Y-82960992D01*
X133337608Y-83181708D01*
X133244492Y-83418962D01*
X133187777Y-83667445D01*
X133168731Y-83921599D01*
X129883300Y-83921599D01*
X129883300Y-80717200D01*
X154015968Y-80717200D01*
X154016273Y-80721280D01*
X154072971Y-80969691D01*
X154166057Y-81206869D01*
X154293454Y-81427528D01*
X154452317Y-81626736D01*
X154639095Y-81800041D01*
X154849615Y-81943571D01*
X155079179Y-82054122D01*
X155322654Y-82129225D01*
X155452000Y-82148720D01*
X155452000Y-80717200D01*
X155952000Y-80717200D01*
X155952000Y-82148720D01*
X156081345Y-82129225D01*
X156324823Y-82054121D01*
X156554379Y-81943574D01*
X156764907Y-81800039D01*
X156951682Y-81626736D01*
X157008571Y-81555400D01*
X165218000Y-81555400D01*
X165218000Y-82103224D01*
X165224402Y-82162775D01*
X165274647Y-82297489D01*
X165360811Y-82412588D01*
X165475910Y-82498752D01*
X165610624Y-82548997D01*
X165670176Y-82555400D01*
X165993000Y-82555400D01*
X165993000Y-81580780D01*
X166487500Y-81580780D01*
X166492403Y-81630561D01*
X166493000Y-81642715D01*
X166493000Y-82555400D01*
X166815824Y-82555400D01*
X166875377Y-82548997D01*
X167026795Y-82492522D01*
X167026821Y-82492592D01*
X167059512Y-82478448D01*
X167116983Y-82481914D01*
X167118656Y-82482421D01*
X167118659Y-82482423D01*
X167311967Y-82541062D01*
X167513000Y-82560862D01*
X167714033Y-82541062D01*
X167907341Y-82482423D01*
X168037993Y-82412588D01*
X168089547Y-82385032D01*
X168148000Y-82370390D01*
X168206453Y-82385032D01*
X168258007Y-82412588D01*
X168388659Y-82482423D01*
X168581967Y-82541062D01*
X168783000Y-82560862D01*
X168984033Y-82541062D01*
X169177341Y-82482423D01*
X169355494Y-82387198D01*
X169511647Y-82259047D01*
X169600124Y-82151236D01*
X169642962Y-82117805D01*
X169695979Y-82105900D01*
X179591995Y-82105900D01*
X179605164Y-82102894D01*
X179629320Y-82097380D01*
X179642997Y-82095055D01*
X179681055Y-82090768D01*
X179717199Y-82078120D01*
X179730521Y-82074282D01*
X179767861Y-82065760D01*
X179802349Y-82049150D01*
X179815191Y-82043831D01*
X179851322Y-82031189D01*
X179883732Y-82010823D01*
X179895903Y-82004097D01*
X179930387Y-81987491D01*
X179960315Y-81963622D01*
X179971634Y-81955590D01*
X180004062Y-81935216D01*
X180131616Y-81807662D01*
X180131616Y-81807661D01*
X189421426Y-72517852D01*
X189453415Y-72485863D01*
X189453416Y-72485862D01*
X189473782Y-72453447D01*
X189481816Y-72442123D01*
X189505691Y-72412187D01*
X189522298Y-72377700D01*
X189529026Y-72365528D01*
X189549389Y-72333122D01*
X189562031Y-72296991D01*
X189567351Y-72284149D01*
X189583960Y-72249661D01*
X189592482Y-72212321D01*
X189596320Y-72198999D01*
X189608968Y-72162855D01*
X189613255Y-72124797D01*
X189615580Y-72111120D01*
X189624100Y-72073794D01*
X189624100Y-71893406D01*
X189624100Y-56978046D01*
X189624100Y-56932806D01*
X189615581Y-56895481D01*
X189613253Y-56881776D01*
X189608968Y-56843745D01*
X189596325Y-56807611D01*
X189592476Y-56794250D01*
X189583960Y-56756939D01*
X189567353Y-56722455D01*
X189562032Y-56709608D01*
X189549390Y-56673480D01*
X189529023Y-56641066D01*
X189522297Y-56628895D01*
X189505692Y-56594414D01*
X189481825Y-56564486D01*
X189473777Y-56553143D01*
X189453416Y-56520738D01*
X189401258Y-56468580D01*
X189343300Y-56410622D01*
X189343298Y-56410619D01*
X187216293Y-54283615D01*
X187216291Y-54283612D01*
X187198852Y-54266174D01*
X187198852Y-54266173D01*
X187166862Y-54234184D01*
X187151748Y-54224687D01*
X187134449Y-54213817D01*
X187123111Y-54205772D01*
X187093186Y-54181908D01*
X187058695Y-54165298D01*
X187046533Y-54158576D01*
X187030927Y-54148770D01*
X187014120Y-54138209D01*
X186977998Y-54125570D01*
X186965153Y-54120250D01*
X186930658Y-54103638D01*
X186893336Y-54095119D01*
X186879980Y-54091272D01*
X186843852Y-54078631D01*
X186805819Y-54074345D01*
X186792118Y-54072017D01*
X186754796Y-54063500D01*
X186754794Y-54063500D01*
X186709554Y-54063500D01*
X182192391Y-54063500D01*
X182130391Y-54046887D01*
X182085004Y-54001500D01*
X182028361Y-53903392D01*
X182028359Y-53903388D01*
X181869450Y-53704123D01*
X181682617Y-53530768D01*
X181472034Y-53387195D01*
X181242404Y-53276611D01*
X180998858Y-53201487D01*
X180746835Y-53163500D01*
X180491965Y-53163500D01*
X180239942Y-53201487D01*
X179996396Y-53276611D01*
X179766766Y-53387195D01*
X179668178Y-53454411D01*
X179556181Y-53530769D01*
X179369350Y-53704123D01*
X179210438Y-53903392D01*
X179083008Y-54124108D01*
X178989892Y-54361362D01*
X178933177Y-54609845D01*
X178914131Y-54864000D01*
X178933177Y-55118154D01*
X178989892Y-55366637D01*
X179083008Y-55603891D01*
X179185661Y-55781691D01*
X179210441Y-55824612D01*
X179369350Y-56023877D01*
X179556183Y-56197232D01*
X179766766Y-56340805D01*
X179996396Y-56451389D01*
X180239942Y-56526513D01*
X180491965Y-56564500D01*
X180746835Y-56564500D01*
X180998858Y-56526513D01*
X181242404Y-56451389D01*
X181472034Y-56340805D01*
X181682617Y-56197232D01*
X181869450Y-56023877D01*
X182028359Y-55824612D01*
X182075363Y-55743198D01*
X182085004Y-55726500D01*
X182130391Y-55681113D01*
X182192391Y-55664500D01*
X186281660Y-55664500D01*
X186329113Y-55673939D01*
X186369341Y-55700819D01*
X187986781Y-57318259D01*
X188013661Y-57358487D01*
X188023100Y-57405940D01*
X188023100Y-71600660D01*
X188013661Y-71648113D01*
X187986781Y-71688341D01*
X179206541Y-80468581D01*
X179166313Y-80495461D01*
X179118860Y-80504900D01*
X169695979Y-80504900D01*
X169642962Y-80492995D01*
X169600125Y-80459564D01*
X169511647Y-80351752D01*
X169416508Y-80273675D01*
X169355494Y-80223602D01*
X169177341Y-80128377D01*
X169080686Y-80099057D01*
X168984031Y-80069737D01*
X168804962Y-80052101D01*
X168783000Y-80049938D01*
X168782999Y-80049938D01*
X168581968Y-80069737D01*
X168522295Y-80087839D01*
X168473492Y-80102643D01*
X168416301Y-80106156D01*
X168363633Y-80083580D01*
X168326740Y-80039734D01*
X168313500Y-79983982D01*
X168313500Y-70410740D01*
X168322939Y-70363287D01*
X168349819Y-70323059D01*
X169916459Y-68756419D01*
X169956687Y-68729539D01*
X170004140Y-68720100D01*
X183687804Y-68720100D01*
X183749805Y-68736713D01*
X183795190Y-68782100D01*
X183807841Y-68804012D01*
X183966750Y-69003277D01*
X184153583Y-69176632D01*
X184364166Y-69320205D01*
X184593796Y-69430789D01*
X184837342Y-69505913D01*
X185089365Y-69543900D01*
X185344235Y-69543900D01*
X185596258Y-69505913D01*
X185839804Y-69430789D01*
X186069434Y-69320205D01*
X186280017Y-69176632D01*
X186466850Y-69003277D01*
X186625759Y-68804012D01*
X186753193Y-68583288D01*
X186846308Y-68346037D01*
X186903022Y-68097557D01*
X186922068Y-67843400D01*
X186903022Y-67589243D01*
X186846308Y-67340763D01*
X186753193Y-67103512D01*
X186752601Y-67102487D01*
X186689475Y-66993149D01*
X186625759Y-66882788D01*
X186466850Y-66683523D01*
X186280017Y-66510168D01*
X186069434Y-66366595D01*
X185839804Y-66256011D01*
X185596258Y-66180887D01*
X185344235Y-66142900D01*
X185089365Y-66142900D01*
X184837342Y-66180887D01*
X184593796Y-66256011D01*
X184364166Y-66366595D01*
X184265348Y-66433968D01*
X184153581Y-66510169D01*
X183966750Y-66683523D01*
X183807840Y-66882789D01*
X183707203Y-67057100D01*
X183661816Y-67102487D01*
X183599816Y-67119100D01*
X169531003Y-67119100D01*
X169493680Y-67127617D01*
X169479980Y-67129945D01*
X169441943Y-67134231D01*
X169405823Y-67146870D01*
X169392468Y-67150718D01*
X169355138Y-67159239D01*
X169320653Y-67175846D01*
X169307813Y-67181165D01*
X169271675Y-67193811D01*
X169239264Y-67214176D01*
X169227099Y-67220900D01*
X169192613Y-67237508D01*
X169162687Y-67261373D01*
X169151352Y-67269415D01*
X169118940Y-67289781D01*
X169069506Y-67339215D01*
X167973903Y-68434819D01*
X167010738Y-69397984D01*
X166977934Y-69430788D01*
X166883184Y-69525537D01*
X166862817Y-69557951D01*
X166854772Y-69569289D01*
X166830908Y-69599213D01*
X166814300Y-69633699D01*
X166807576Y-69645864D01*
X166787211Y-69678275D01*
X166774565Y-69714413D01*
X166769246Y-69727253D01*
X166752639Y-69761738D01*
X166744118Y-69799068D01*
X166740270Y-69812423D01*
X166727631Y-69848543D01*
X166723345Y-69886580D01*
X166721017Y-69900280D01*
X166712500Y-69937603D01*
X166712500Y-79931400D01*
X166695887Y-79993400D01*
X166650500Y-80038787D01*
X166588500Y-80055400D01*
X166493000Y-80055400D01*
X166493000Y-80968085D01*
X166492403Y-80980239D01*
X166487500Y-81030020D01*
X166487500Y-81580780D01*
X165993000Y-81580780D01*
X165993000Y-81555400D01*
X165218000Y-81555400D01*
X157008571Y-81555400D01*
X157110545Y-81427528D01*
X157237942Y-81206869D01*
X157297390Y-81055400D01*
X165218000Y-81055400D01*
X165993000Y-81055400D01*
X165993000Y-80055400D01*
X165670176Y-80055400D01*
X165610624Y-80061802D01*
X165475910Y-80112047D01*
X165360811Y-80198211D01*
X165274647Y-80313310D01*
X165224402Y-80448024D01*
X165218000Y-80507576D01*
X165218000Y-81055400D01*
X157297390Y-81055400D01*
X157331028Y-80969691D01*
X157387726Y-80721280D01*
X157388032Y-80717200D01*
X155952000Y-80717200D01*
X155452000Y-80717200D01*
X154015968Y-80717200D01*
X129883300Y-80717200D01*
X129883300Y-80217199D01*
X154015967Y-80217199D01*
X154015968Y-80217200D01*
X155452000Y-80217200D01*
X155452000Y-78785679D01*
X155952000Y-78785679D01*
X155952000Y-80217200D01*
X157388032Y-80217200D01*
X157388032Y-80217199D01*
X157387726Y-80213119D01*
X157331028Y-79964708D01*
X157237942Y-79727530D01*
X157110545Y-79506871D01*
X156951682Y-79307663D01*
X156764907Y-79134360D01*
X156554379Y-78990825D01*
X156324823Y-78880278D01*
X156081345Y-78805174D01*
X155952000Y-78785679D01*
X155452000Y-78785679D01*
X155322654Y-78805174D01*
X155079179Y-78880277D01*
X154849615Y-78990828D01*
X154639095Y-79134358D01*
X154452317Y-79307663D01*
X154293454Y-79506871D01*
X154166057Y-79727530D01*
X154072971Y-79964708D01*
X154016273Y-80213119D01*
X154015967Y-80217199D01*
X129883300Y-80217199D01*
X129883300Y-71588604D01*
X129874782Y-71551288D01*
X129872455Y-71537600D01*
X129868168Y-71499545D01*
X129855524Y-71463410D01*
X129851675Y-71450049D01*
X129846373Y-71426822D01*
X129843159Y-71412739D01*
X129826554Y-71378258D01*
X129821233Y-71365414D01*
X129813024Y-71341953D01*
X129808589Y-71329278D01*
X129788218Y-71296858D01*
X129781498Y-71284699D01*
X129764891Y-71250213D01*
X129764890Y-71250212D01*
X129764890Y-71250211D01*
X129741025Y-71220286D01*
X129732977Y-71208943D01*
X129712616Y-71176538D01*
X129585062Y-71048984D01*
X129585061Y-71048983D01*
X117882252Y-59346174D01*
X117850262Y-59314184D01*
X117817851Y-59293818D01*
X117806510Y-59285772D01*
X117776586Y-59261908D01*
X117742095Y-59245298D01*
X117729933Y-59238576D01*
X117714327Y-59228770D01*
X117697520Y-59218209D01*
X117661398Y-59205570D01*
X117648553Y-59200250D01*
X117614058Y-59183638D01*
X117576736Y-59175119D01*
X117563380Y-59171272D01*
X117527252Y-59158631D01*
X117489219Y-59154345D01*
X117475518Y-59152017D01*
X117438196Y-59143500D01*
X117438194Y-59143500D01*
X117392954Y-59143500D01*
X107836994Y-59143500D01*
X107656606Y-59143500D01*
X107656603Y-59143500D01*
X107619280Y-59152017D01*
X107605580Y-59154345D01*
X107567543Y-59158631D01*
X107531423Y-59171270D01*
X107518068Y-59175118D01*
X107480739Y-59183639D01*
X107446241Y-59200251D01*
X107433404Y-59205568D01*
X107397276Y-59218211D01*
X107364867Y-59238574D01*
X107352703Y-59245297D01*
X107318215Y-59261906D01*
X107288284Y-59285774D01*
X107276953Y-59293813D01*
X107244542Y-59314180D01*
X107195107Y-59363614D01*
X107195106Y-59363615D01*
X105313585Y-61245135D01*
X105293217Y-61277551D01*
X105285172Y-61288889D01*
X105261308Y-61318813D01*
X105244700Y-61353299D01*
X105237976Y-61365464D01*
X105217611Y-61397875D01*
X105204965Y-61434013D01*
X105199646Y-61446853D01*
X105183039Y-61481338D01*
X105174518Y-61518668D01*
X105170670Y-61532023D01*
X105158031Y-61568143D01*
X105153745Y-61606180D01*
X105151417Y-61619880D01*
X105142900Y-61657203D01*
X105142900Y-112725226D01*
X100380800Y-112725226D01*
X100380800Y-55041799D01*
X108352931Y-55041799D01*
X108371977Y-55295954D01*
X108428692Y-55544437D01*
X108521808Y-55781691D01*
X108628392Y-55966300D01*
X108649241Y-56002412D01*
X108808150Y-56201677D01*
X108994983Y-56375032D01*
X109205566Y-56518605D01*
X109435196Y-56629189D01*
X109678742Y-56704313D01*
X109930765Y-56742300D01*
X110185635Y-56742300D01*
X110437658Y-56704313D01*
X110681204Y-56629189D01*
X110910834Y-56518605D01*
X111121417Y-56375032D01*
X111308250Y-56201677D01*
X111467159Y-56002412D01*
X111523804Y-55904300D01*
X111569191Y-55858913D01*
X111631191Y-55842300D01*
X122608501Y-55842300D01*
X122670501Y-55858913D01*
X122715888Y-55904300D01*
X122732501Y-55966300D01*
X122732501Y-56062672D01*
X122738909Y-56122283D01*
X122789204Y-56257131D01*
X122875454Y-56372346D01*
X122990669Y-56458596D01*
X123125517Y-56508891D01*
X123185127Y-56515300D01*
X125480872Y-56515299D01*
X125540483Y-56508891D01*
X125675331Y-56458596D01*
X125790546Y-56372346D01*
X125876796Y-56257131D01*
X125927091Y-56122283D01*
X125933500Y-56062673D01*
X125933499Y-54914800D01*
X132887551Y-54914800D01*
X132907317Y-55165949D01*
X132966126Y-55410910D01*
X133014330Y-55527284D01*
X133062534Y-55643659D01*
X133194164Y-55858459D01*
X133357776Y-56050024D01*
X133549341Y-56213636D01*
X133764141Y-56345266D01*
X133921918Y-56410619D01*
X133996953Y-56441700D01*
X134037181Y-56468580D01*
X134064061Y-56508808D01*
X134073500Y-56556261D01*
X134073500Y-69643715D01*
X134059130Y-69701656D01*
X134019354Y-69746166D01*
X133931821Y-69805846D01*
X133810781Y-69888369D01*
X133623950Y-70061723D01*
X133465038Y-70260992D01*
X133337608Y-70481708D01*
X133244492Y-70718962D01*
X133187777Y-70967445D01*
X133168731Y-71221599D01*
X133187777Y-71475754D01*
X133244492Y-71724237D01*
X133337608Y-71961491D01*
X133431909Y-72124826D01*
X133465041Y-72182212D01*
X133623950Y-72381477D01*
X133810783Y-72554832D01*
X134021366Y-72698405D01*
X134250996Y-72808989D01*
X134494542Y-72884113D01*
X134746565Y-72922100D01*
X135001435Y-72922100D01*
X135253458Y-72884113D01*
X135497004Y-72808989D01*
X135726634Y-72698405D01*
X135937217Y-72554832D01*
X136124050Y-72381477D01*
X136282959Y-72182212D01*
X136410393Y-71961488D01*
X136503508Y-71724237D01*
X136560222Y-71475757D01*
X136579268Y-71221600D01*
X136560222Y-70967443D01*
X136503508Y-70718963D01*
X136410393Y-70481712D01*
X136282959Y-70260988D01*
X136124050Y-70061723D01*
X135937217Y-69888368D01*
X135728645Y-69746166D01*
X135688870Y-69701656D01*
X135674500Y-69643715D01*
X135674500Y-67741799D01*
X144268531Y-67741799D01*
X144287577Y-67995954D01*
X144344292Y-68244437D01*
X144437408Y-68481691D01*
X144496065Y-68583288D01*
X144564841Y-68702412D01*
X144723750Y-68901677D01*
X144910583Y-69075032D01*
X145121166Y-69218605D01*
X145350796Y-69329189D01*
X145594342Y-69404313D01*
X145846365Y-69442300D01*
X146101235Y-69442300D01*
X146353258Y-69404313D01*
X146596804Y-69329189D01*
X146826434Y-69218605D01*
X147037017Y-69075032D01*
X147223850Y-68901677D01*
X147382759Y-68702412D01*
X147439404Y-68604300D01*
X147484791Y-68558913D01*
X147546791Y-68542300D01*
X154114344Y-68542300D01*
X154176344Y-68558913D01*
X154221731Y-68604300D01*
X154293040Y-68727811D01*
X154353808Y-68804012D01*
X154451950Y-68927077D01*
X154638783Y-69100432D01*
X154849366Y-69244005D01*
X155078996Y-69354589D01*
X155322542Y-69429713D01*
X155574565Y-69467700D01*
X155829435Y-69467700D01*
X156081458Y-69429713D01*
X156325004Y-69354589D01*
X156554634Y-69244005D01*
X156765217Y-69100432D01*
X156952050Y-68927077D01*
X157110959Y-68727812D01*
X157238393Y-68507088D01*
X157331508Y-68269837D01*
X157388222Y-68021357D01*
X157407268Y-67767200D01*
X157388222Y-67513043D01*
X157331508Y-67264563D01*
X157238393Y-67027312D01*
X157223728Y-67001912D01*
X157110961Y-66806592D01*
X157110959Y-66806588D01*
X156952050Y-66607323D01*
X156765217Y-66433968D01*
X156554634Y-66290395D01*
X156325004Y-66179811D01*
X156081458Y-66104687D01*
X155829435Y-66066700D01*
X155574565Y-66066700D01*
X155322542Y-66104687D01*
X155078996Y-66179811D01*
X154849366Y-66290395D01*
X154744074Y-66362181D01*
X154638781Y-66433969D01*
X154479325Y-66581923D01*
X154451950Y-66607323D01*
X154293041Y-66806588D01*
X154251060Y-66879301D01*
X154205676Y-66924687D01*
X154143675Y-66941300D01*
X147546791Y-66941300D01*
X147484791Y-66924687D01*
X147439404Y-66879300D01*
X147397426Y-66806592D01*
X147382759Y-66781188D01*
X147223850Y-66581923D01*
X147037017Y-66408568D01*
X146826434Y-66264995D01*
X146596804Y-66154411D01*
X146353258Y-66079287D01*
X146101235Y-66041300D01*
X145846365Y-66041300D01*
X145594342Y-66079287D01*
X145350796Y-66154411D01*
X145121166Y-66264995D01*
X145083911Y-66290395D01*
X144910581Y-66408569D01*
X144723750Y-66581922D01*
X144723750Y-66581923D01*
X144642727Y-66683523D01*
X144564838Y-66781192D01*
X144437408Y-67001908D01*
X144344292Y-67239162D01*
X144287577Y-67487645D01*
X144268531Y-67741799D01*
X135674500Y-67741799D01*
X135674500Y-56041587D01*
X135682164Y-55998668D01*
X135704208Y-55961058D01*
X135791836Y-55858459D01*
X135843280Y-55774509D01*
X135888418Y-55731111D01*
X135949007Y-55715300D01*
X144327487Y-55715300D01*
X144389487Y-55731913D01*
X144434874Y-55777300D01*
X144437406Y-55781685D01*
X144437407Y-55781688D01*
X144564841Y-56002412D01*
X144723750Y-56201677D01*
X144910583Y-56375032D01*
X145121166Y-56518605D01*
X145350796Y-56629189D01*
X145594342Y-56704313D01*
X145846365Y-56742300D01*
X146101235Y-56742300D01*
X146353258Y-56704313D01*
X146596804Y-56629189D01*
X146826434Y-56518605D01*
X147037017Y-56375032D01*
X147223850Y-56201677D01*
X147382759Y-56002412D01*
X147510193Y-55781688D01*
X147525299Y-55743197D01*
X147551959Y-55701919D01*
X147592561Y-55674237D01*
X147640727Y-55664500D01*
X166346409Y-55664500D01*
X166408409Y-55681113D01*
X166453796Y-55726500D01*
X166485661Y-55781691D01*
X166510441Y-55824612D01*
X166669350Y-56023877D01*
X166856183Y-56197232D01*
X167066766Y-56340805D01*
X167296396Y-56451389D01*
X167539942Y-56526513D01*
X167791965Y-56564500D01*
X168046835Y-56564500D01*
X168298858Y-56526513D01*
X168542404Y-56451389D01*
X168772034Y-56340805D01*
X168982617Y-56197232D01*
X169169450Y-56023877D01*
X169328359Y-55824612D01*
X169455793Y-55603888D01*
X169548908Y-55366637D01*
X169605622Y-55118157D01*
X169624668Y-54864000D01*
X169605622Y-54609843D01*
X169548908Y-54361363D01*
X169455793Y-54124112D01*
X169455306Y-54123269D01*
X169392075Y-54013749D01*
X169328359Y-53903388D01*
X169169450Y-53704123D01*
X168982617Y-53530768D01*
X168772034Y-53387195D01*
X168542404Y-53276611D01*
X168298858Y-53201487D01*
X168046835Y-53163500D01*
X167791965Y-53163500D01*
X167539942Y-53201487D01*
X167296396Y-53276611D01*
X167066766Y-53387195D01*
X166968178Y-53454411D01*
X166856181Y-53530769D01*
X166669350Y-53704123D01*
X166510440Y-53903389D01*
X166453796Y-54001500D01*
X166408409Y-54046887D01*
X166346409Y-54063500D01*
X147428368Y-54063500D01*
X147374566Y-54051220D01*
X147331421Y-54016813D01*
X147223850Y-53881923D01*
X147037017Y-53708568D01*
X146826434Y-53564995D01*
X146596804Y-53454411D01*
X146353258Y-53379287D01*
X146101235Y-53341300D01*
X145846365Y-53341300D01*
X145594342Y-53379287D01*
X145350796Y-53454411D01*
X145121166Y-53564995D01*
X145110204Y-53572469D01*
X144910581Y-53708569D01*
X144847683Y-53766930D01*
X144723750Y-53881923D01*
X144616179Y-54016813D01*
X144575667Y-54067613D01*
X144532521Y-54102020D01*
X144478720Y-54114300D01*
X135949007Y-54114300D01*
X135888418Y-54098489D01*
X135843280Y-54055090D01*
X135791836Y-53971141D01*
X135628224Y-53779576D01*
X135436659Y-53615964D01*
X135221859Y-53484334D01*
X135105484Y-53436130D01*
X134989110Y-53387926D01*
X134744149Y-53329117D01*
X134493000Y-53309351D01*
X134241850Y-53329117D01*
X133996889Y-53387926D01*
X133764139Y-53484335D01*
X133549342Y-53615963D01*
X133357776Y-53779576D01*
X133194163Y-53971142D01*
X133062535Y-54185939D01*
X132966126Y-54418689D01*
X132907317Y-54663650D01*
X132887551Y-54914800D01*
X125933499Y-54914800D01*
X125933499Y-53766928D01*
X125927091Y-53707317D01*
X125876796Y-53572469D01*
X125790546Y-53457254D01*
X125675331Y-53371004D01*
X125540483Y-53320709D01*
X125480873Y-53314300D01*
X125480869Y-53314300D01*
X123185130Y-53314300D01*
X123125515Y-53320709D01*
X122990669Y-53371004D01*
X122875454Y-53457254D01*
X122789204Y-53572468D01*
X122738909Y-53707316D01*
X122732500Y-53766931D01*
X122732500Y-54117300D01*
X122715887Y-54179300D01*
X122670500Y-54224687D01*
X122608500Y-54241300D01*
X111631191Y-54241300D01*
X111569191Y-54224687D01*
X111523804Y-54179300D01*
X111486276Y-54114300D01*
X111467159Y-54081188D01*
X111308250Y-53881923D01*
X111121417Y-53708568D01*
X110910834Y-53564995D01*
X110681204Y-53454411D01*
X110437658Y-53379287D01*
X110185635Y-53341300D01*
X109930765Y-53341300D01*
X109678742Y-53379287D01*
X109435196Y-53454411D01*
X109205566Y-53564995D01*
X109194604Y-53572469D01*
X108994981Y-53708569D01*
X108932083Y-53766930D01*
X108808150Y-53881923D01*
X108651280Y-54078632D01*
X108649238Y-54081192D01*
X108521808Y-54301908D01*
X108428692Y-54539162D01*
X108371977Y-54787645D01*
X108352931Y-55041799D01*
X100380800Y-55041799D01*
X100380800Y-50416000D01*
X100397413Y-50354000D01*
X100442800Y-50308613D01*
X100504800Y-50292000D01*
X199596200Y-50292000D01*
X199658200Y-50308613D01*
G37*
%TD.AperFunction*%
%TD*%
M02*
