M48
; DRILL file {KiCad 7.0.1} date Tue Jun  6 10:46:43 2023
; FORMAT={-:-/ absolute / metric / decimal}
; #@! TF.CreationDate,2023-06-06T10:46:43-05:00
; #@! TF.GenerationSoftware,Kicad,Pcbnew,7.0.1
; #@! TF.FileFunction,Plated,1,2,PTH
FMAT,2
METRIC
; #@! TA.AperFunction,Plated,PTH,ComponentDrill
T1C0.700
; #@! TA.AperFunction,Plated,PTH,ComponentDrill
T2C0.750
; #@! TA.AperFunction,Plated,PTH,ComponentDrill
T3C0.800
; #@! TA.AperFunction,Plated,PTH,ComponentDrill
T4C1.000
; #@! TA.AperFunction,Plated,PTH,ComponentDrill
T5C1.100
; #@! TA.AperFunction,Plated,PTH,ComponentDrill
T6C1.200
%
G90
G05
T1
X148.057Y-113.208
X148.057Y-118.288
X155.524Y-113.208
X155.524Y-118.288
T2
X166.243Y-81.305
X166.675Y-90.754
X166.675Y-92.024
X166.675Y-93.294
X167.513Y-81.305
X168.783Y-81.305
T3
X188.386Y-85.293
X190.386Y-85.293
X192.386Y-85.293
X194.386Y-85.293
T4
X115.062Y-125.425
X115.062Y-143.205
X117.602Y-125.425
X117.602Y-143.205
X120.142Y-125.425
X120.142Y-143.205
X122.682Y-125.425
X122.682Y-143.205
X125.222Y-125.425
X125.222Y-143.205
X127.762Y-125.425
X127.762Y-143.205
X130.302Y-125.425
X130.302Y-143.205
X132.842Y-125.425
X132.842Y-143.205
X135.382Y-125.425
X135.382Y-143.205
X137.922Y-125.425
X137.922Y-143.205
X140.462Y-125.425
X140.462Y-143.205
X143.002Y-125.425
X143.002Y-143.205
X145.542Y-125.425
X145.542Y-143.205
X148.082Y-125.425
X148.082Y-143.205
X150.622Y-125.425
X150.622Y-143.205
X153.162Y-125.425
X153.162Y-143.205
X155.702Y-125.425
X155.702Y-143.205
X158.242Y-125.425
X158.242Y-143.205
X160.782Y-125.425
X160.782Y-143.205
X163.092Y-131.775
X163.092Y-134.315
X163.092Y-136.855
X163.322Y-125.425
X163.322Y-143.205
T5
X124.333Y-54.915
X134.493Y-54.915
T6
X110.058Y-55.042
X110.058Y-67.742
X110.109Y-88.748
X122.809Y-88.748
X134.874Y-71.222
X134.874Y-83.922
X135.001Y-95.021
X145.974Y-55.042
X145.974Y-67.742
X147.701Y-95.021
X155.702Y-67.767
X155.702Y-80.467
X167.919Y-54.864
X175.997Y-92.685
X175.997Y-105.385
X180.619Y-54.864
X185.217Y-67.843
X197.917Y-67.843
T0
M30
