%TF.GenerationSoftware,KiCad,Pcbnew,7.0.1*%
%TF.CreationDate,2023-05-11T18:44:24-05:00*%
%TF.ProjectId,CircuitoPotencia,43697263-7569-4746-9f50-6f74656e6369,rev?*%
%TF.SameCoordinates,Original*%
%TF.FileFunction,Other,User*%
%FSLAX46Y46*%
G04 Gerber Fmt 4.6, Leading zero omitted, Abs format (unit mm)*
G04 Created by KiCad (PCBNEW 7.0.1) date 2023-05-11 18:44:24*
%MOMM*%
%LPD*%
G01*
G04 APERTURE LIST*
%ADD10C,0.050000*%
G04 APERTURE END LIST*
D10*
%TO.C,SW2*%
X97947500Y-146839000D02*
X97947500Y-140689000D01*
X97947500Y-140689000D02*
X94347500Y-140689000D01*
X94347500Y-146839000D02*
X97947500Y-146839000D01*
X94347500Y-140689000D02*
X94347500Y-146839000D01*
%TO.C,J3*%
X45850000Y-93460000D02*
X45850000Y-114820000D01*
X45850000Y-114820000D02*
X55750000Y-114820000D01*
X55750000Y-93460000D02*
X45850000Y-93460000D01*
X55750000Y-114820000D02*
X55750000Y-93460000D01*
%TO.C,R7*%
X95216000Y-100100000D02*
X95216000Y-103100000D01*
X95216000Y-103100000D02*
X107476000Y-103100000D01*
X107476000Y-100100000D02*
X95216000Y-100100000D01*
X107476000Y-103100000D02*
X107476000Y-100100000D01*
%TO.C,J1*%
X51973500Y-140484000D02*
X51973500Y-129284000D01*
X51973500Y-129284000D02*
X48373500Y-129284000D01*
X48373500Y-140484000D02*
X51973500Y-140484000D01*
X48373500Y-129284000D02*
X48373500Y-140484000D01*
%TO.C,R10*%
X173900000Y-114912000D02*
X169000000Y-114912000D01*
X173900000Y-112672000D02*
X173900000Y-114912000D01*
X169000000Y-114912000D02*
X169000000Y-112672000D01*
X169000000Y-112672000D02*
X173900000Y-112672000D01*
%TO.C,C5*%
X152298000Y-106970000D02*
X156058000Y-106970000D01*
X152298000Y-108930000D02*
X152298000Y-106970000D01*
X156058000Y-106970000D02*
X156058000Y-108930000D01*
X156058000Y-108930000D02*
X152298000Y-108930000D01*
%TO.C,J6*%
X180662000Y-109268000D02*
X175862000Y-109268000D01*
X175862000Y-109268000D02*
X175862000Y-117768000D01*
X180662000Y-117768000D02*
X180662000Y-109268000D01*
X175862000Y-117768000D02*
X180662000Y-117768000D01*
%TO.C,R6*%
X162240000Y-130844000D02*
X162240000Y-128744000D01*
X162240000Y-128744000D02*
X155260000Y-128744000D01*
X155260000Y-130844000D02*
X162240000Y-130844000D01*
X155260000Y-128744000D02*
X155260000Y-130844000D01*
%TO.C,J8*%
X145560000Y-137802000D02*
X161780000Y-137802000D01*
X145560000Y-147302000D02*
X145560000Y-137802000D01*
X161780000Y-137802000D02*
X161780000Y-147302000D01*
X161780000Y-147302000D02*
X145560000Y-147302000D01*
%TO.C,SW5*%
X113441500Y-146839000D02*
X113441500Y-140689000D01*
X113441500Y-140689000D02*
X109841500Y-140689000D01*
X109841500Y-146839000D02*
X113441500Y-146839000D01*
X109841500Y-140689000D02*
X109841500Y-146839000D01*
%TO.C,C7*%
X114486000Y-133506651D02*
G75*
G03*
X114486000Y-133506651I-4250000J0D01*
G01*
%TO.C,J4*%
X180916000Y-94576000D02*
X176116000Y-94576000D01*
X176116000Y-94576000D02*
X176116000Y-108076000D01*
X180916000Y-108076000D02*
X180916000Y-94576000D01*
X176116000Y-108076000D02*
X180916000Y-108076000D01*
%TO.C,CIn3*%
X111894500Y-20556750D02*
G75*
G03*
X111894500Y-20556750I-5250000J0D01*
G01*
%TO.C,D6*%
X148062000Y-91152000D02*
X145562000Y-91152000D01*
X145562000Y-91152000D02*
X145562000Y-100872000D01*
X148062000Y-100872000D02*
X148062000Y-91152000D01*
X145562000Y-100872000D02*
X148062000Y-100872000D01*
%TO.C,R5*%
X155260000Y-124680000D02*
X155260000Y-126780000D01*
X155260000Y-126780000D02*
X162240000Y-126780000D01*
X162240000Y-124680000D02*
X155260000Y-124680000D01*
X162240000Y-126780000D02*
X162240000Y-124680000D01*
%TO.C,D9*%
X175490000Y-100546000D02*
X175490000Y-105546000D01*
X172490000Y-100546000D02*
X175490000Y-100546000D01*
X175490000Y-105546000D02*
X172490000Y-105546000D01*
X172490000Y-105546000D02*
X172490000Y-100546000D01*
%TO.C,C2*%
X155158000Y-128282000D02*
G75*
G03*
X155158000Y-128282000I-2250000J0D01*
G01*
%TO.C,R8*%
X94962000Y-95528000D02*
X94962000Y-98528000D01*
X94962000Y-98528000D02*
X107222000Y-98528000D01*
X107222000Y-95528000D02*
X94962000Y-95528000D01*
X107222000Y-98528000D02*
X107222000Y-95528000D01*
%TO.C,R14*%
X139536000Y-107846000D02*
X144436000Y-107846000D01*
X139536000Y-110086000D02*
X139536000Y-107846000D01*
X144436000Y-107846000D02*
X144436000Y-110086000D01*
X144436000Y-110086000D02*
X139536000Y-110086000D01*
%TO.C,R4*%
X161986000Y-118652000D02*
X161986000Y-116552000D01*
X161986000Y-116552000D02*
X155006000Y-116552000D01*
X155006000Y-118652000D02*
X161986000Y-118652000D01*
X155006000Y-116552000D02*
X155006000Y-118652000D01*
%TO.C,D5*%
X149626000Y-101380000D02*
X152126000Y-101380000D01*
X152126000Y-101380000D02*
X152126000Y-91660000D01*
X149626000Y-91660000D02*
X149626000Y-101380000D01*
X152126000Y-91660000D02*
X149626000Y-91660000D01*
%TO.C,C1*%
X139010099Y-130810000D02*
G75*
G03*
X139010099Y-130810000I-2250000J0D01*
G01*
%TO.C,R15*%
X157511500Y-102018000D02*
X157511500Y-97118000D01*
X159751500Y-102018000D02*
X157511500Y-102018000D01*
X157511500Y-97118000D02*
X159751500Y-97118000D01*
X159751500Y-97118000D02*
X159751500Y-102018000D01*
%TO.C,D4*%
X116552000Y-122448000D02*
X116552000Y-124948000D01*
X116552000Y-124948000D02*
X126272000Y-124948000D01*
X126272000Y-122448000D02*
X116552000Y-122448000D01*
X126272000Y-124948000D02*
X126272000Y-122448000D01*
%TO.C,Q2*%
X135199500Y-127338000D02*
X135199500Y-122598000D01*
X135199500Y-127338000D02*
X129739500Y-127338000D01*
X129739500Y-122598000D02*
X135199500Y-122598000D01*
X129739500Y-122598000D02*
X129739500Y-127338000D01*
%TO.C,Input110*%
X38800000Y-38210000D02*
X38800000Y-21990000D01*
X48300000Y-38210000D02*
X38800000Y-38210000D01*
X38800000Y-21990000D02*
X48300000Y-21990000D01*
X48300000Y-21990000D02*
X48300000Y-38210000D01*
%TO.C,SW1*%
X93121500Y-146839000D02*
X93121500Y-140689000D01*
X93121500Y-140689000D02*
X89521500Y-140689000D01*
X89521500Y-146839000D02*
X93121500Y-146839000D01*
X89521500Y-140689000D02*
X89521500Y-146839000D01*
%TO.C,R3*%
X151958000Y-110710000D02*
X151958000Y-112810000D01*
X151958000Y-112810000D02*
X158938000Y-112810000D01*
X158938000Y-110710000D02*
X151958000Y-110710000D01*
X158938000Y-112810000D02*
X158938000Y-110710000D01*
%TO.C,R19*%
X142344000Y-91784000D02*
X142344000Y-96684000D01*
X140104000Y-91784000D02*
X142344000Y-91784000D01*
X142344000Y-96684000D02*
X140104000Y-96684000D01*
X140104000Y-96684000D02*
X140104000Y-91784000D01*
%TO.C,R2*%
X167420000Y-117668000D02*
X165320000Y-117668000D01*
X165320000Y-117668000D02*
X165320000Y-124648000D01*
X167420000Y-124648000D02*
X167420000Y-117668000D01*
X165320000Y-124648000D02*
X167420000Y-124648000D01*
%TO.C,C6*%
X103310000Y-119731349D02*
G75*
G03*
X103310000Y-119731349I-4250000J0D01*
G01*
%TO.C,A1*%
X86546200Y-148290000D02*
X79526200Y-148290000D01*
X79526200Y-149860000D01*
X70486200Y-149860000D01*
X70486200Y-148290000D01*
X63466200Y-148290000D01*
X63466200Y-95990000D01*
X86546200Y-95990000D01*
X86546200Y-148290000D01*
%TO.C,R1*%
X170400000Y-124648000D02*
X172500000Y-124648000D01*
X172500000Y-124648000D02*
X172500000Y-117668000D01*
X170400000Y-117668000D02*
X170400000Y-124648000D01*
X172500000Y-117668000D02*
X170400000Y-117668000D01*
%TO.C,C3*%
X158718000Y-132462000D02*
X158718000Y-135762000D01*
X157258000Y-132462000D02*
X158718000Y-132462000D01*
X158718000Y-135762000D02*
X157258000Y-135762000D01*
X157258000Y-135762000D02*
X157258000Y-132462000D01*
%TO.C,Q1*%
X134691500Y-120840000D02*
X134691500Y-116100000D01*
X134691500Y-120840000D02*
X129231500Y-120840000D01*
X129231500Y-116100000D02*
X134691500Y-116100000D01*
X129231500Y-116100000D02*
X129231500Y-120840000D01*
%TO.C,D3*%
X116806000Y-117114000D02*
X116806000Y-119614000D01*
X116806000Y-119614000D02*
X126526000Y-119614000D01*
X126526000Y-117114000D02*
X116806000Y-117114000D01*
X126526000Y-119614000D02*
X126526000Y-117114000D01*
%TO.C,CIn0*%
X123292000Y-32730000D02*
X119532000Y-32730000D01*
X123292000Y-30770000D02*
X123292000Y-32730000D01*
X119532000Y-32730000D02*
X119532000Y-30770000D01*
X119532000Y-30770000D02*
X123292000Y-30770000D01*
%TO.C,R16*%
X151728000Y-103782000D02*
X156628000Y-103782000D01*
X151728000Y-106022000D02*
X151728000Y-103782000D01*
X156628000Y-103782000D02*
X156628000Y-106022000D01*
X156628000Y-106022000D02*
X151728000Y-106022000D01*
%TO.C,D8*%
X172371500Y-111720000D02*
X172371500Y-106720000D01*
X175371500Y-111720000D02*
X172371500Y-111720000D01*
X172371500Y-106720000D02*
X175371500Y-106720000D01*
X175371500Y-106720000D02*
X175371500Y-111720000D01*
%TO.C,R18*%
X154074000Y-99986000D02*
X154074000Y-95086000D01*
X156314000Y-99986000D02*
X154074000Y-99986000D01*
X154074000Y-95086000D02*
X156314000Y-95086000D01*
X156314000Y-95086000D02*
X156314000Y-99986000D01*
%TO.C,U3*%
X117432000Y-18190000D02*
X117432000Y-23100000D01*
X117432000Y-23100000D02*
X127932000Y-23100000D01*
X127932000Y-18190000D02*
X117432000Y-18190000D01*
X127932000Y-23100000D02*
X127932000Y-18190000D01*
%TO.C,CIn4*%
X111930000Y-33020000D02*
G75*
G03*
X111930000Y-33020000I-5250000J0D01*
G01*
%TO.C,JP1*%
X78080000Y-19980000D02*
X86730000Y-19980000D01*
X86730000Y-19980000D02*
X86730000Y-16380000D01*
X78080000Y-16380000D02*
X78080000Y-19980000D01*
X86730000Y-16380000D02*
X78080000Y-16380000D01*
%TO.C,R11*%
X139536000Y-104290000D02*
X144436000Y-104290000D01*
X139536000Y-106530000D02*
X139536000Y-104290000D01*
X144436000Y-104290000D02*
X144436000Y-106530000D01*
X144436000Y-106530000D02*
X139536000Y-106530000D01*
%TO.C,R9*%
X144462000Y-102974000D02*
X139562000Y-102974000D01*
X144462000Y-100734000D02*
X144462000Y-102974000D01*
X139562000Y-102974000D02*
X139562000Y-100734000D01*
X139562000Y-100734000D02*
X144462000Y-100734000D01*
%TO.C,R17*%
X163319500Y-113942000D02*
X168219500Y-113942000D01*
X163319500Y-116182000D02*
X163319500Y-113942000D01*
X168219500Y-113942000D02*
X168219500Y-116182000D01*
X168219500Y-116182000D02*
X163319500Y-116182000D01*
%TO.C,C4*%
X166980000Y-108168000D02*
X163220000Y-108168000D01*
X166980000Y-106208000D02*
X166980000Y-108168000D01*
X163220000Y-108168000D02*
X163220000Y-106208000D01*
X163220000Y-106208000D02*
X166980000Y-106208000D01*
%TO.C,R12*%
X135218000Y-78890000D02*
X140118000Y-78890000D01*
X135218000Y-81130000D02*
X135218000Y-78890000D01*
X140118000Y-78890000D02*
X140118000Y-81130000D01*
X140118000Y-81130000D02*
X135218000Y-81130000D01*
%TO.C,J2*%
X126889500Y-141614000D02*
X126889500Y-148414000D01*
X126889500Y-148414000D02*
X132969500Y-148414000D01*
X132969500Y-141614000D02*
X126889500Y-141614000D01*
X132969500Y-148414000D02*
X132969500Y-141614000D01*
%TO.C,R13*%
X140118000Y-74780000D02*
X135218000Y-74780000D01*
X140118000Y-72540000D02*
X140118000Y-74780000D01*
X135218000Y-74780000D02*
X135218000Y-72540000D01*
X135218000Y-72540000D02*
X140118000Y-72540000D01*
%TO.C,J5*%
X153942000Y-79638000D02*
X153942000Y-89138000D01*
X153942000Y-89138000D02*
X167742000Y-89138000D01*
X167742000Y-79638000D02*
X153942000Y-79638000D01*
X167742000Y-89138000D02*
X167742000Y-79638000D01*
%TO.C,R21*%
X117568000Y-109498000D02*
X117568000Y-112498000D01*
X117568000Y-112498000D02*
X129828000Y-112498000D01*
X129828000Y-109498000D02*
X117568000Y-109498000D01*
X129828000Y-112498000D02*
X129828000Y-109498000D01*
%TO.C,SW4*%
X108107500Y-146839000D02*
X108107500Y-140689000D01*
X108107500Y-140689000D02*
X104507500Y-140689000D01*
X104507500Y-146839000D02*
X108107500Y-146839000D01*
X104507500Y-140689000D02*
X104507500Y-146839000D01*
%TO.C,J9*%
X124587500Y-148200000D02*
X124587500Y-141400000D01*
X124587500Y-141400000D02*
X118507500Y-141400000D01*
X118507500Y-148200000D02*
X124587500Y-148200000D01*
X118507500Y-141400000D02*
X118507500Y-148200000D01*
%TO.C,R20*%
X107476000Y-108688000D02*
X107476000Y-105688000D01*
X107476000Y-105688000D02*
X95216000Y-105688000D01*
X95216000Y-108688000D02*
X107476000Y-108688000D01*
X95216000Y-105688000D02*
X95216000Y-108688000D01*
%TO.C,SW3*%
X102773500Y-146834000D02*
X102773500Y-140684000D01*
X102773500Y-140684000D02*
X99173500Y-140684000D01*
X99173500Y-146834000D02*
X102773500Y-146834000D01*
X99173500Y-140684000D02*
X99173500Y-146834000D01*
%TD*%
M02*
