M48
; DRILL file {KiCad 7.0.1} date Thu May 11 18:44:16 2023
; FORMAT={-:-/ absolute / metric / decimal}
; #@! TF.CreationDate,2023-05-11T18:44:16-05:00
; #@! TF.GenerationSoftware,Kicad,Pcbnew,7.0.1
; #@! TF.FileFunction,Plated,1,2,PTH
FMAT,2
METRIC
; #@! TA.AperFunction,Plated,PTH,ViaDrill
T1C0.400
; #@! TA.AperFunction,Plated,PTH,ViaDrill
T2C0.600
; #@! TA.AperFunction,Plated,PTH,ComponentDrill
T3C0.600
; #@! TA.AperFunction,Plated,PTH,ComponentDrill
T4C0.700
; #@! TA.AperFunction,Plated,PTH,ComponentDrill
T5C0.750
; #@! TA.AperFunction,Plated,PTH,ComponentDrill
T6C0.762
; #@! TA.AperFunction,Plated,PTH,ComponentDrill
T7C0.800
; #@! TA.AperFunction,Plated,PTH,ComponentDrill
T8C0.813
; #@! TA.AperFunction,Plated,PTH,ComponentDrill
T9C0.900
; #@! TA.AperFunction,Plated,PTH,ComponentDrill
T10C0.950
; #@! TA.AperFunction,Plated,PTH,ComponentDrill
T11C1.000
; #@! TA.AperFunction,Plated,PTH,ComponentDrill
T12C1.100
; #@! TA.AperFunction,Plated,PTH,ComponentDrill
T13C1.190
; #@! TA.AperFunction,Plated,PTH,ComponentDrill
T14C1.600
%
G90
G05
T1
X109.864Y-94.742
X111.133Y-107.188
X124.341Y-54.61
X130.048Y-78.74
T2
X41.283Y-141.986
X43.569Y-135.636
X44.331Y-119.888
X56.015Y-120.904
X56.015Y-134.366
X59.317Y-95.758
X59.572Y-126.492
X60.587Y-118.618
X62.111Y-101.092
X87.511Y-141.224
X87.766Y-135.382
X88.646Y-132.842
X89.543Y-149.86
X89.797Y-131.826
X91.322Y-149.098
X94.797Y-148.107
X97.248Y-151.299
X98.433Y-148.336
X111.895Y-113.792
X115.959Y-113.792
X124.341Y-101.6
X125.103Y-136.906
X125.865Y-28.702
X127.897Y-121.412
X132.469Y-148.336
X133.35Y-131.52
X135.01Y-35.306
X135.772Y-109.474
X137.7Y-125.86
X138.811Y-122.453
X144.407Y-91.186
X148.01Y-112.89
X148.98Y-97.282
X149.995Y-103.632
X150.58Y-121.94
X152.028Y-118.872
X157.615Y-137.414
X158.124Y-94.996
X158.631Y-70.358
X160.155Y-94.996
X160.155Y-104.394
X160.409Y-98.552
X160.917Y-113.284
X160.917Y-128.016
X162.695Y-150.368
X164.474Y-132.08
X168.284Y-107.442
X171.332Y-116.078
X173.889Y-117.293
X174.288Y-119.107
X174.379Y-99.314
X176.411Y-108.458
T3
X136.01Y-130.81
X137.51Y-130.81
X152.908Y-127.532
X152.908Y-129.032
T4
X152.908Y-111.76
X155.956Y-117.602
X156.21Y-125.73
X156.21Y-129.794
X157.988Y-111.76
X161.036Y-117.602
X161.29Y-125.73
X161.29Y-129.794
X166.37Y-118.618
X166.37Y-123.698
X171.45Y-118.618
X171.45Y-123.698
T5
X130.691Y-118.11
X131.2Y-124.608
X131.962Y-118.11
X132.469Y-124.608
X133.231Y-118.11
X133.739Y-124.608
T6
X60.912Y-49.63
X60.912Y-54.63
X60.912Y-67.53
X60.912Y-70.03
X78.99Y-66.846
X78.99Y-84.646
X79.13Y-44.54
X79.13Y-62.34
X116.59Y-66.846
X116.59Y-84.646
X116.73Y-44.54
X116.73Y-62.34
T7
X96.012Y-97.028
X96.266Y-101.6
X96.266Y-107.188
X99.06Y-117.981
X99.06Y-121.481
X104.144Y-20.557
X104.18Y-33.02
X106.172Y-97.028
X106.426Y-101.6
X106.426Y-107.188
X109.144Y-20.557
X109.18Y-33.02
X110.236Y-131.757
X110.236Y-135.257
X117.602Y-123.698
X117.856Y-118.364
X118.618Y-110.998
X125.222Y-123.698
X125.476Y-118.364
X128.778Y-110.998
X146.812Y-92.202
X146.812Y-99.822
X150.876Y-92.71
X150.876Y-100.33
T8
X140.344Y-117.602
X140.344Y-120.142
X140.344Y-122.682
X140.344Y-125.222
X147.963Y-117.602
X147.963Y-120.142
X147.963Y-122.682
X147.963Y-125.222
X162.01Y-96.445
X162.01Y-98.985
X162.01Y-101.525
X162.01Y-104.065
X169.63Y-96.445
X169.63Y-98.985
X169.63Y-101.525
X169.63Y-104.065
T9
X157.092Y-81.788
X159.592Y-81.788
X162.092Y-81.788
X164.592Y-81.788
T10
X178.816Y-97.576
X178.816Y-100.076
X178.816Y-102.576
X178.816Y-105.076
T11
X49.53Y-99.06
X49.53Y-101.6
X49.53Y-104.14
X49.53Y-106.68
X49.53Y-109.22
X50.173Y-131.064
X50.173Y-133.604
X50.173Y-136.144
X50.173Y-138.684
X52.07Y-99.06
X52.07Y-101.6
X52.07Y-104.14
X52.07Y-106.68
X52.07Y-109.22
X66.116Y-98.41
X66.116Y-100.95
X66.116Y-103.49
X66.116Y-106.03
X66.116Y-108.57
X66.116Y-111.11
X66.116Y-113.65
X66.116Y-116.19
X66.116Y-118.73
X66.116Y-121.27
X66.116Y-123.81
X66.116Y-126.35
X66.116Y-128.89
X66.116Y-131.43
X66.116Y-133.97
X66.116Y-136.51
X66.116Y-139.05
X66.116Y-141.59
X66.116Y-144.13
X66.116Y-146.67
X79.88Y-18.18
X82.42Y-18.18
X83.896Y-98.41
X83.896Y-100.95
X83.896Y-103.49
X83.896Y-106.03
X83.896Y-108.57
X83.896Y-111.11
X83.896Y-113.65
X83.896Y-116.19
X83.896Y-118.73
X83.896Y-121.27
X83.896Y-123.81
X83.896Y-126.35
X83.896Y-128.89
X83.896Y-131.43
X83.896Y-133.97
X83.896Y-136.51
X83.896Y-139.04
X83.896Y-141.59
X83.896Y-144.13
X83.896Y-146.67
X84.96Y-18.18
X91.322Y-142.499
X91.322Y-145.039
X96.147Y-142.499
X96.147Y-145.039
X100.974Y-142.494
X100.974Y-145.034
X106.307Y-142.499
X106.307Y-145.039
X111.641Y-142.499
X111.641Y-145.039
X178.562Y-112.268
X178.562Y-114.768
T12
X120.142Y-21.59
X122.682Y-21.59
X125.222Y-21.59
T13
X120.277Y-144.78
X122.817Y-144.78
X128.659Y-145.034
X131.2Y-145.034
T14
X44.0Y-26.29
X44.0Y-33.91
X149.86Y-143.002
X157.48Y-143.002
T0
M30
