%TF.GenerationSoftware,KiCad,Pcbnew,7.0.1*%
%TF.CreationDate,2023-05-11T18:44:24-05:00*%
%TF.ProjectId,CircuitoPotencia,43697263-7569-4746-9f50-6f74656e6369,rev?*%
%TF.SameCoordinates,Original*%
%TF.FileFunction,Legend,Top*%
%TF.FilePolarity,Positive*%
%FSLAX46Y46*%
G04 Gerber Fmt 4.6, Leading zero omitted, Abs format (unit mm)*
G04 Created by KiCad (PCBNEW 7.0.1) date 2023-05-11 18:44:24*
%MOMM*%
%LPD*%
G01*
G04 APERTURE LIST*
%ADD10C,0.150000*%
%ADD11C,0.100000*%
%ADD12C,0.120000*%
%ADD13C,0.152400*%
G04 APERTURE END LIST*
D10*
%TO.C,SW2*%
X94814167Y-147784000D02*
X94957024Y-147831619D01*
X94957024Y-147831619D02*
X95195119Y-147831619D01*
X95195119Y-147831619D02*
X95290357Y-147784000D01*
X95290357Y-147784000D02*
X95337976Y-147736380D01*
X95337976Y-147736380D02*
X95385595Y-147641142D01*
X95385595Y-147641142D02*
X95385595Y-147545904D01*
X95385595Y-147545904D02*
X95337976Y-147450666D01*
X95337976Y-147450666D02*
X95290357Y-147403047D01*
X95290357Y-147403047D02*
X95195119Y-147355428D01*
X95195119Y-147355428D02*
X95004643Y-147307809D01*
X95004643Y-147307809D02*
X94909405Y-147260190D01*
X94909405Y-147260190D02*
X94861786Y-147212571D01*
X94861786Y-147212571D02*
X94814167Y-147117333D01*
X94814167Y-147117333D02*
X94814167Y-147022095D01*
X94814167Y-147022095D02*
X94861786Y-146926857D01*
X94861786Y-146926857D02*
X94909405Y-146879238D01*
X94909405Y-146879238D02*
X95004643Y-146831619D01*
X95004643Y-146831619D02*
X95242738Y-146831619D01*
X95242738Y-146831619D02*
X95385595Y-146879238D01*
X95718929Y-146831619D02*
X95957024Y-147831619D01*
X95957024Y-147831619D02*
X96147500Y-147117333D01*
X96147500Y-147117333D02*
X96337976Y-147831619D01*
X96337976Y-147831619D02*
X96576072Y-146831619D01*
X96909405Y-146926857D02*
X96957024Y-146879238D01*
X96957024Y-146879238D02*
X97052262Y-146831619D01*
X97052262Y-146831619D02*
X97290357Y-146831619D01*
X97290357Y-146831619D02*
X97385595Y-146879238D01*
X97385595Y-146879238D02*
X97433214Y-146926857D01*
X97433214Y-146926857D02*
X97480833Y-147022095D01*
X97480833Y-147022095D02*
X97480833Y-147117333D01*
X97480833Y-147117333D02*
X97433214Y-147260190D01*
X97433214Y-147260190D02*
X96861786Y-147831619D01*
X96861786Y-147831619D02*
X97480833Y-147831619D01*
%TO.C,J3*%
X50466666Y-92422619D02*
X50466666Y-93136904D01*
X50466666Y-93136904D02*
X50419047Y-93279761D01*
X50419047Y-93279761D02*
X50323809Y-93375000D01*
X50323809Y-93375000D02*
X50180952Y-93422619D01*
X50180952Y-93422619D02*
X50085714Y-93422619D01*
X50847619Y-92422619D02*
X51466666Y-92422619D01*
X51466666Y-92422619D02*
X51133333Y-92803571D01*
X51133333Y-92803571D02*
X51276190Y-92803571D01*
X51276190Y-92803571D02*
X51371428Y-92851190D01*
X51371428Y-92851190D02*
X51419047Y-92898809D01*
X51419047Y-92898809D02*
X51466666Y-92994047D01*
X51466666Y-92994047D02*
X51466666Y-93232142D01*
X51466666Y-93232142D02*
X51419047Y-93327380D01*
X51419047Y-93327380D02*
X51371428Y-93375000D01*
X51371428Y-93375000D02*
X51276190Y-93422619D01*
X51276190Y-93422619D02*
X50990476Y-93422619D01*
X50990476Y-93422619D02*
X50895238Y-93375000D01*
X50895238Y-93375000D02*
X50847619Y-93327380D01*
%TO.C,R7*%
X101179333Y-99692619D02*
X100846000Y-99216428D01*
X100607905Y-99692619D02*
X100607905Y-98692619D01*
X100607905Y-98692619D02*
X100988857Y-98692619D01*
X100988857Y-98692619D02*
X101084095Y-98740238D01*
X101084095Y-98740238D02*
X101131714Y-98787857D01*
X101131714Y-98787857D02*
X101179333Y-98883095D01*
X101179333Y-98883095D02*
X101179333Y-99025952D01*
X101179333Y-99025952D02*
X101131714Y-99121190D01*
X101131714Y-99121190D02*
X101084095Y-99168809D01*
X101084095Y-99168809D02*
X100988857Y-99216428D01*
X100988857Y-99216428D02*
X100607905Y-99216428D01*
X101512667Y-98692619D02*
X102179333Y-98692619D01*
X102179333Y-98692619D02*
X101750762Y-99692619D01*
%TO.C,J1*%
X49840166Y-140476619D02*
X49840166Y-141190904D01*
X49840166Y-141190904D02*
X49792547Y-141333761D01*
X49792547Y-141333761D02*
X49697309Y-141429000D01*
X49697309Y-141429000D02*
X49554452Y-141476619D01*
X49554452Y-141476619D02*
X49459214Y-141476619D01*
X50840166Y-141476619D02*
X50268738Y-141476619D01*
X50554452Y-141476619D02*
X50554452Y-140476619D01*
X50554452Y-140476619D02*
X50459214Y-140619476D01*
X50459214Y-140619476D02*
X50363976Y-140714714D01*
X50363976Y-140714714D02*
X50268738Y-140762333D01*
%TO.C,R10*%
X170807142Y-116074619D02*
X170473809Y-115598428D01*
X170235714Y-116074619D02*
X170235714Y-115074619D01*
X170235714Y-115074619D02*
X170616666Y-115074619D01*
X170616666Y-115074619D02*
X170711904Y-115122238D01*
X170711904Y-115122238D02*
X170759523Y-115169857D01*
X170759523Y-115169857D02*
X170807142Y-115265095D01*
X170807142Y-115265095D02*
X170807142Y-115407952D01*
X170807142Y-115407952D02*
X170759523Y-115503190D01*
X170759523Y-115503190D02*
X170711904Y-115550809D01*
X170711904Y-115550809D02*
X170616666Y-115598428D01*
X170616666Y-115598428D02*
X170235714Y-115598428D01*
X171759523Y-116074619D02*
X171188095Y-116074619D01*
X171473809Y-116074619D02*
X171473809Y-115074619D01*
X171473809Y-115074619D02*
X171378571Y-115217476D01*
X171378571Y-115217476D02*
X171283333Y-115312714D01*
X171283333Y-115312714D02*
X171188095Y-115360333D01*
X172378571Y-115074619D02*
X172473809Y-115074619D01*
X172473809Y-115074619D02*
X172569047Y-115122238D01*
X172569047Y-115122238D02*
X172616666Y-115169857D01*
X172616666Y-115169857D02*
X172664285Y-115265095D01*
X172664285Y-115265095D02*
X172711904Y-115455571D01*
X172711904Y-115455571D02*
X172711904Y-115693666D01*
X172711904Y-115693666D02*
X172664285Y-115884142D01*
X172664285Y-115884142D02*
X172616666Y-115979380D01*
X172616666Y-115979380D02*
X172569047Y-116027000D01*
X172569047Y-116027000D02*
X172473809Y-116074619D01*
X172473809Y-116074619D02*
X172378571Y-116074619D01*
X172378571Y-116074619D02*
X172283333Y-116027000D01*
X172283333Y-116027000D02*
X172235714Y-115979380D01*
X172235714Y-115979380D02*
X172188095Y-115884142D01*
X172188095Y-115884142D02*
X172140476Y-115693666D01*
X172140476Y-115693666D02*
X172140476Y-115455571D01*
X172140476Y-115455571D02*
X172188095Y-115265095D01*
X172188095Y-115265095D02*
X172235714Y-115169857D01*
X172235714Y-115169857D02*
X172283333Y-115122238D01*
X172283333Y-115122238D02*
X172378571Y-115074619D01*
%TO.C,C5*%
X154036733Y-106894980D02*
X153989114Y-106942600D01*
X153989114Y-106942600D02*
X153846257Y-106990219D01*
X153846257Y-106990219D02*
X153751019Y-106990219D01*
X153751019Y-106990219D02*
X153608162Y-106942600D01*
X153608162Y-106942600D02*
X153512924Y-106847361D01*
X153512924Y-106847361D02*
X153465305Y-106752123D01*
X153465305Y-106752123D02*
X153417686Y-106561647D01*
X153417686Y-106561647D02*
X153417686Y-106418790D01*
X153417686Y-106418790D02*
X153465305Y-106228314D01*
X153465305Y-106228314D02*
X153512924Y-106133076D01*
X153512924Y-106133076D02*
X153608162Y-106037838D01*
X153608162Y-106037838D02*
X153751019Y-105990219D01*
X153751019Y-105990219D02*
X153846257Y-105990219D01*
X153846257Y-105990219D02*
X153989114Y-106037838D01*
X153989114Y-106037838D02*
X154036733Y-106085457D01*
X154941495Y-105990219D02*
X154465305Y-105990219D01*
X154465305Y-105990219D02*
X154417686Y-106466409D01*
X154417686Y-106466409D02*
X154465305Y-106418790D01*
X154465305Y-106418790D02*
X154560543Y-106371171D01*
X154560543Y-106371171D02*
X154798638Y-106371171D01*
X154798638Y-106371171D02*
X154893876Y-106418790D01*
X154893876Y-106418790D02*
X154941495Y-106466409D01*
X154941495Y-106466409D02*
X154989114Y-106561647D01*
X154989114Y-106561647D02*
X154989114Y-106799742D01*
X154989114Y-106799742D02*
X154941495Y-106894980D01*
X154941495Y-106894980D02*
X154893876Y-106942600D01*
X154893876Y-106942600D02*
X154798638Y-106990219D01*
X154798638Y-106990219D02*
X154560543Y-106990219D01*
X154560543Y-106990219D02*
X154465305Y-106942600D01*
X154465305Y-106942600D02*
X154417686Y-106894980D01*
%TO.C,J6*%
X180824619Y-113851333D02*
X181538904Y-113851333D01*
X181538904Y-113851333D02*
X181681761Y-113898952D01*
X181681761Y-113898952D02*
X181777000Y-113994190D01*
X181777000Y-113994190D02*
X181824619Y-114137047D01*
X181824619Y-114137047D02*
X181824619Y-114232285D01*
X180824619Y-112946571D02*
X180824619Y-113137047D01*
X180824619Y-113137047D02*
X180872238Y-113232285D01*
X180872238Y-113232285D02*
X180919857Y-113279904D01*
X180919857Y-113279904D02*
X181062714Y-113375142D01*
X181062714Y-113375142D02*
X181253190Y-113422761D01*
X181253190Y-113422761D02*
X181634142Y-113422761D01*
X181634142Y-113422761D02*
X181729380Y-113375142D01*
X181729380Y-113375142D02*
X181777000Y-113327523D01*
X181777000Y-113327523D02*
X181824619Y-113232285D01*
X181824619Y-113232285D02*
X181824619Y-113041809D01*
X181824619Y-113041809D02*
X181777000Y-112946571D01*
X181777000Y-112946571D02*
X181729380Y-112898952D01*
X181729380Y-112898952D02*
X181634142Y-112851333D01*
X181634142Y-112851333D02*
X181396047Y-112851333D01*
X181396047Y-112851333D02*
X181300809Y-112898952D01*
X181300809Y-112898952D02*
X181253190Y-112946571D01*
X181253190Y-112946571D02*
X181205571Y-113041809D01*
X181205571Y-113041809D02*
X181205571Y-113232285D01*
X181205571Y-113232285D02*
X181253190Y-113327523D01*
X181253190Y-113327523D02*
X181300809Y-113375142D01*
X181300809Y-113375142D02*
X181396047Y-113422761D01*
%TO.C,R6*%
X158583333Y-132176619D02*
X158250000Y-131700428D01*
X158011905Y-132176619D02*
X158011905Y-131176619D01*
X158011905Y-131176619D02*
X158392857Y-131176619D01*
X158392857Y-131176619D02*
X158488095Y-131224238D01*
X158488095Y-131224238D02*
X158535714Y-131271857D01*
X158535714Y-131271857D02*
X158583333Y-131367095D01*
X158583333Y-131367095D02*
X158583333Y-131509952D01*
X158583333Y-131509952D02*
X158535714Y-131605190D01*
X158535714Y-131605190D02*
X158488095Y-131652809D01*
X158488095Y-131652809D02*
X158392857Y-131700428D01*
X158392857Y-131700428D02*
X158011905Y-131700428D01*
X159440476Y-131176619D02*
X159250000Y-131176619D01*
X159250000Y-131176619D02*
X159154762Y-131224238D01*
X159154762Y-131224238D02*
X159107143Y-131271857D01*
X159107143Y-131271857D02*
X159011905Y-131414714D01*
X159011905Y-131414714D02*
X158964286Y-131605190D01*
X158964286Y-131605190D02*
X158964286Y-131986142D01*
X158964286Y-131986142D02*
X159011905Y-132081380D01*
X159011905Y-132081380D02*
X159059524Y-132129000D01*
X159059524Y-132129000D02*
X159154762Y-132176619D01*
X159154762Y-132176619D02*
X159345238Y-132176619D01*
X159345238Y-132176619D02*
X159440476Y-132129000D01*
X159440476Y-132129000D02*
X159488095Y-132081380D01*
X159488095Y-132081380D02*
X159535714Y-131986142D01*
X159535714Y-131986142D02*
X159535714Y-131748047D01*
X159535714Y-131748047D02*
X159488095Y-131652809D01*
X159488095Y-131652809D02*
X159440476Y-131605190D01*
X159440476Y-131605190D02*
X159345238Y-131557571D01*
X159345238Y-131557571D02*
X159154762Y-131557571D01*
X159154762Y-131557571D02*
X159059524Y-131605190D01*
X159059524Y-131605190D02*
X159011905Y-131652809D01*
X159011905Y-131652809D02*
X158964286Y-131748047D01*
%TO.C,U2*%
X143870119Y-116204904D02*
X144679642Y-116204904D01*
X144679642Y-116204904D02*
X144774880Y-116157285D01*
X144774880Y-116157285D02*
X144822500Y-116109666D01*
X144822500Y-116109666D02*
X144870119Y-116014428D01*
X144870119Y-116014428D02*
X144870119Y-115823952D01*
X144870119Y-115823952D02*
X144822500Y-115728714D01*
X144822500Y-115728714D02*
X144774880Y-115681095D01*
X144774880Y-115681095D02*
X144679642Y-115633476D01*
X144679642Y-115633476D02*
X143870119Y-115633476D01*
X143965357Y-115204904D02*
X143917738Y-115157285D01*
X143917738Y-115157285D02*
X143870119Y-115062047D01*
X143870119Y-115062047D02*
X143870119Y-114823952D01*
X143870119Y-114823952D02*
X143917738Y-114728714D01*
X143917738Y-114728714D02*
X143965357Y-114681095D01*
X143965357Y-114681095D02*
X144060595Y-114633476D01*
X144060595Y-114633476D02*
X144155833Y-114633476D01*
X144155833Y-114633476D02*
X144298690Y-114681095D01*
X144298690Y-114681095D02*
X144870119Y-115252523D01*
X144870119Y-115252523D02*
X144870119Y-114633476D01*
%TO.C,IC1*%
X166536619Y-95262389D02*
X165536619Y-95262389D01*
X166441380Y-94214771D02*
X166489000Y-94262390D01*
X166489000Y-94262390D02*
X166536619Y-94405247D01*
X166536619Y-94405247D02*
X166536619Y-94500485D01*
X166536619Y-94500485D02*
X166489000Y-94643342D01*
X166489000Y-94643342D02*
X166393761Y-94738580D01*
X166393761Y-94738580D02*
X166298523Y-94786199D01*
X166298523Y-94786199D02*
X166108047Y-94833818D01*
X166108047Y-94833818D02*
X165965190Y-94833818D01*
X165965190Y-94833818D02*
X165774714Y-94786199D01*
X165774714Y-94786199D02*
X165679476Y-94738580D01*
X165679476Y-94738580D02*
X165584238Y-94643342D01*
X165584238Y-94643342D02*
X165536619Y-94500485D01*
X165536619Y-94500485D02*
X165536619Y-94405247D01*
X165536619Y-94405247D02*
X165584238Y-94262390D01*
X165584238Y-94262390D02*
X165631857Y-94214771D01*
X166536619Y-93262390D02*
X166536619Y-93833818D01*
X166536619Y-93548104D02*
X165536619Y-93548104D01*
X165536619Y-93548104D02*
X165679476Y-93643342D01*
X165679476Y-93643342D02*
X165774714Y-93738580D01*
X165774714Y-93738580D02*
X165822333Y-93833818D01*
%TO.C,J8*%
X153336666Y-136464619D02*
X153336666Y-137178904D01*
X153336666Y-137178904D02*
X153289047Y-137321761D01*
X153289047Y-137321761D02*
X153193809Y-137417000D01*
X153193809Y-137417000D02*
X153050952Y-137464619D01*
X153050952Y-137464619D02*
X152955714Y-137464619D01*
X153955714Y-136893190D02*
X153860476Y-136845571D01*
X153860476Y-136845571D02*
X153812857Y-136797952D01*
X153812857Y-136797952D02*
X153765238Y-136702714D01*
X153765238Y-136702714D02*
X153765238Y-136655095D01*
X153765238Y-136655095D02*
X153812857Y-136559857D01*
X153812857Y-136559857D02*
X153860476Y-136512238D01*
X153860476Y-136512238D02*
X153955714Y-136464619D01*
X153955714Y-136464619D02*
X154146190Y-136464619D01*
X154146190Y-136464619D02*
X154241428Y-136512238D01*
X154241428Y-136512238D02*
X154289047Y-136559857D01*
X154289047Y-136559857D02*
X154336666Y-136655095D01*
X154336666Y-136655095D02*
X154336666Y-136702714D01*
X154336666Y-136702714D02*
X154289047Y-136797952D01*
X154289047Y-136797952D02*
X154241428Y-136845571D01*
X154241428Y-136845571D02*
X154146190Y-136893190D01*
X154146190Y-136893190D02*
X153955714Y-136893190D01*
X153955714Y-136893190D02*
X153860476Y-136940809D01*
X153860476Y-136940809D02*
X153812857Y-136988428D01*
X153812857Y-136988428D02*
X153765238Y-137083666D01*
X153765238Y-137083666D02*
X153765238Y-137274142D01*
X153765238Y-137274142D02*
X153812857Y-137369380D01*
X153812857Y-137369380D02*
X153860476Y-137417000D01*
X153860476Y-137417000D02*
X153955714Y-137464619D01*
X153955714Y-137464619D02*
X154146190Y-137464619D01*
X154146190Y-137464619D02*
X154241428Y-137417000D01*
X154241428Y-137417000D02*
X154289047Y-137369380D01*
X154289047Y-137369380D02*
X154336666Y-137274142D01*
X154336666Y-137274142D02*
X154336666Y-137083666D01*
X154336666Y-137083666D02*
X154289047Y-136988428D01*
X154289047Y-136988428D02*
X154241428Y-136940809D01*
X154241428Y-136940809D02*
X154146190Y-136893190D01*
%TO.C,SW5*%
X110308167Y-147784000D02*
X110451024Y-147831619D01*
X110451024Y-147831619D02*
X110689119Y-147831619D01*
X110689119Y-147831619D02*
X110784357Y-147784000D01*
X110784357Y-147784000D02*
X110831976Y-147736380D01*
X110831976Y-147736380D02*
X110879595Y-147641142D01*
X110879595Y-147641142D02*
X110879595Y-147545904D01*
X110879595Y-147545904D02*
X110831976Y-147450666D01*
X110831976Y-147450666D02*
X110784357Y-147403047D01*
X110784357Y-147403047D02*
X110689119Y-147355428D01*
X110689119Y-147355428D02*
X110498643Y-147307809D01*
X110498643Y-147307809D02*
X110403405Y-147260190D01*
X110403405Y-147260190D02*
X110355786Y-147212571D01*
X110355786Y-147212571D02*
X110308167Y-147117333D01*
X110308167Y-147117333D02*
X110308167Y-147022095D01*
X110308167Y-147022095D02*
X110355786Y-146926857D01*
X110355786Y-146926857D02*
X110403405Y-146879238D01*
X110403405Y-146879238D02*
X110498643Y-146831619D01*
X110498643Y-146831619D02*
X110736738Y-146831619D01*
X110736738Y-146831619D02*
X110879595Y-146879238D01*
X111212929Y-146831619D02*
X111451024Y-147831619D01*
X111451024Y-147831619D02*
X111641500Y-147117333D01*
X111641500Y-147117333D02*
X111831976Y-147831619D01*
X111831976Y-147831619D02*
X112070072Y-146831619D01*
X112927214Y-146831619D02*
X112451024Y-146831619D01*
X112451024Y-146831619D02*
X112403405Y-147307809D01*
X112403405Y-147307809D02*
X112451024Y-147260190D01*
X112451024Y-147260190D02*
X112546262Y-147212571D01*
X112546262Y-147212571D02*
X112784357Y-147212571D01*
X112784357Y-147212571D02*
X112879595Y-147260190D01*
X112879595Y-147260190D02*
X112927214Y-147307809D01*
X112927214Y-147307809D02*
X112974833Y-147403047D01*
X112974833Y-147403047D02*
X112974833Y-147641142D01*
X112974833Y-147641142D02*
X112927214Y-147736380D01*
X112927214Y-147736380D02*
X112879595Y-147784000D01*
X112879595Y-147784000D02*
X112784357Y-147831619D01*
X112784357Y-147831619D02*
X112546262Y-147831619D01*
X112546262Y-147831619D02*
X112451024Y-147784000D01*
X112451024Y-147784000D02*
X112403405Y-147736380D01*
%TO.C,C7*%
X105353380Y-133673317D02*
X105401000Y-133720936D01*
X105401000Y-133720936D02*
X105448619Y-133863793D01*
X105448619Y-133863793D02*
X105448619Y-133959031D01*
X105448619Y-133959031D02*
X105401000Y-134101888D01*
X105401000Y-134101888D02*
X105305761Y-134197126D01*
X105305761Y-134197126D02*
X105210523Y-134244745D01*
X105210523Y-134244745D02*
X105020047Y-134292364D01*
X105020047Y-134292364D02*
X104877190Y-134292364D01*
X104877190Y-134292364D02*
X104686714Y-134244745D01*
X104686714Y-134244745D02*
X104591476Y-134197126D01*
X104591476Y-134197126D02*
X104496238Y-134101888D01*
X104496238Y-134101888D02*
X104448619Y-133959031D01*
X104448619Y-133959031D02*
X104448619Y-133863793D01*
X104448619Y-133863793D02*
X104496238Y-133720936D01*
X104496238Y-133720936D02*
X104543857Y-133673317D01*
X104448619Y-133339983D02*
X104448619Y-132673317D01*
X104448619Y-132673317D02*
X105448619Y-133101888D01*
%TO.C,J4*%
X180894819Y-103584333D02*
X181609104Y-103584333D01*
X181609104Y-103584333D02*
X181751961Y-103631952D01*
X181751961Y-103631952D02*
X181847200Y-103727190D01*
X181847200Y-103727190D02*
X181894819Y-103870047D01*
X181894819Y-103870047D02*
X181894819Y-103965285D01*
X181228152Y-102679571D02*
X181894819Y-102679571D01*
X180847200Y-102917666D02*
X181561485Y-103155761D01*
X181561485Y-103155761D02*
X181561485Y-102536714D01*
%TO.C,CIn3*%
X99397357Y-18130130D02*
X99349738Y-18177750D01*
X99349738Y-18177750D02*
X99206881Y-18225369D01*
X99206881Y-18225369D02*
X99111643Y-18225369D01*
X99111643Y-18225369D02*
X98968786Y-18177750D01*
X98968786Y-18177750D02*
X98873548Y-18082511D01*
X98873548Y-18082511D02*
X98825929Y-17987273D01*
X98825929Y-17987273D02*
X98778310Y-17796797D01*
X98778310Y-17796797D02*
X98778310Y-17653940D01*
X98778310Y-17653940D02*
X98825929Y-17463464D01*
X98825929Y-17463464D02*
X98873548Y-17368226D01*
X98873548Y-17368226D02*
X98968786Y-17272988D01*
X98968786Y-17272988D02*
X99111643Y-17225369D01*
X99111643Y-17225369D02*
X99206881Y-17225369D01*
X99206881Y-17225369D02*
X99349738Y-17272988D01*
X99349738Y-17272988D02*
X99397357Y-17320607D01*
X99825929Y-18225369D02*
X99825929Y-17225369D01*
X100302119Y-17558702D02*
X100302119Y-18225369D01*
X100302119Y-17653940D02*
X100349738Y-17606321D01*
X100349738Y-17606321D02*
X100444976Y-17558702D01*
X100444976Y-17558702D02*
X100587833Y-17558702D01*
X100587833Y-17558702D02*
X100683071Y-17606321D01*
X100683071Y-17606321D02*
X100730690Y-17701559D01*
X100730690Y-17701559D02*
X100730690Y-18225369D01*
X101111643Y-17225369D02*
X101730690Y-17225369D01*
X101730690Y-17225369D02*
X101397357Y-17606321D01*
X101397357Y-17606321D02*
X101540214Y-17606321D01*
X101540214Y-17606321D02*
X101635452Y-17653940D01*
X101635452Y-17653940D02*
X101683071Y-17701559D01*
X101683071Y-17701559D02*
X101730690Y-17796797D01*
X101730690Y-17796797D02*
X101730690Y-18034892D01*
X101730690Y-18034892D02*
X101683071Y-18130130D01*
X101683071Y-18130130D02*
X101635452Y-18177750D01*
X101635452Y-18177750D02*
X101540214Y-18225369D01*
X101540214Y-18225369D02*
X101254500Y-18225369D01*
X101254500Y-18225369D02*
X101159262Y-18177750D01*
X101159262Y-18177750D02*
X101111643Y-18130130D01*
D11*
%TO.C,U_5V1*%
X95882381Y-36442619D02*
X95882381Y-37252142D01*
X95882381Y-37252142D02*
X95930000Y-37347380D01*
X95930000Y-37347380D02*
X95977619Y-37395000D01*
X95977619Y-37395000D02*
X96072857Y-37442619D01*
X96072857Y-37442619D02*
X96263333Y-37442619D01*
X96263333Y-37442619D02*
X96358571Y-37395000D01*
X96358571Y-37395000D02*
X96406190Y-37347380D01*
X96406190Y-37347380D02*
X96453809Y-37252142D01*
X96453809Y-37252142D02*
X96453809Y-36442619D01*
X96691905Y-37537857D02*
X97453809Y-37537857D01*
X98168095Y-36442619D02*
X97691905Y-36442619D01*
X97691905Y-36442619D02*
X97644286Y-36918809D01*
X97644286Y-36918809D02*
X97691905Y-36871190D01*
X97691905Y-36871190D02*
X97787143Y-36823571D01*
X97787143Y-36823571D02*
X98025238Y-36823571D01*
X98025238Y-36823571D02*
X98120476Y-36871190D01*
X98120476Y-36871190D02*
X98168095Y-36918809D01*
X98168095Y-36918809D02*
X98215714Y-37014047D01*
X98215714Y-37014047D02*
X98215714Y-37252142D01*
X98215714Y-37252142D02*
X98168095Y-37347380D01*
X98168095Y-37347380D02*
X98120476Y-37395000D01*
X98120476Y-37395000D02*
X98025238Y-37442619D01*
X98025238Y-37442619D02*
X97787143Y-37442619D01*
X97787143Y-37442619D02*
X97691905Y-37395000D01*
X97691905Y-37395000D02*
X97644286Y-37347380D01*
X98501429Y-36442619D02*
X98834762Y-37442619D01*
X98834762Y-37442619D02*
X99168095Y-36442619D01*
X100025238Y-37442619D02*
X99453810Y-37442619D01*
X99739524Y-37442619D02*
X99739524Y-36442619D01*
X99739524Y-36442619D02*
X99644286Y-36585476D01*
X99644286Y-36585476D02*
X99549048Y-36680714D01*
X99549048Y-36680714D02*
X99453810Y-36728333D01*
D10*
%TO.C,D6*%
X144963219Y-97131094D02*
X143963219Y-97131094D01*
X143963219Y-97131094D02*
X143963219Y-96892999D01*
X143963219Y-96892999D02*
X144010838Y-96750142D01*
X144010838Y-96750142D02*
X144106076Y-96654904D01*
X144106076Y-96654904D02*
X144201314Y-96607285D01*
X144201314Y-96607285D02*
X144391790Y-96559666D01*
X144391790Y-96559666D02*
X144534647Y-96559666D01*
X144534647Y-96559666D02*
X144725123Y-96607285D01*
X144725123Y-96607285D02*
X144820361Y-96654904D01*
X144820361Y-96654904D02*
X144915600Y-96750142D01*
X144915600Y-96750142D02*
X144963219Y-96892999D01*
X144963219Y-96892999D02*
X144963219Y-97131094D01*
X143963219Y-95702523D02*
X143963219Y-95892999D01*
X143963219Y-95892999D02*
X144010838Y-95988237D01*
X144010838Y-95988237D02*
X144058457Y-96035856D01*
X144058457Y-96035856D02*
X144201314Y-96131094D01*
X144201314Y-96131094D02*
X144391790Y-96178713D01*
X144391790Y-96178713D02*
X144772742Y-96178713D01*
X144772742Y-96178713D02*
X144867980Y-96131094D01*
X144867980Y-96131094D02*
X144915600Y-96083475D01*
X144915600Y-96083475D02*
X144963219Y-95988237D01*
X144963219Y-95988237D02*
X144963219Y-95797761D01*
X144963219Y-95797761D02*
X144915600Y-95702523D01*
X144915600Y-95702523D02*
X144867980Y-95654904D01*
X144867980Y-95654904D02*
X144772742Y-95607285D01*
X144772742Y-95607285D02*
X144534647Y-95607285D01*
X144534647Y-95607285D02*
X144439409Y-95654904D01*
X144439409Y-95654904D02*
X144391790Y-95702523D01*
X144391790Y-95702523D02*
X144344171Y-95797761D01*
X144344171Y-95797761D02*
X144344171Y-95988237D01*
X144344171Y-95988237D02*
X144391790Y-96083475D01*
X144391790Y-96083475D02*
X144439409Y-96131094D01*
X144439409Y-96131094D02*
X144534647Y-96178713D01*
X149074619Y-92463904D02*
X148074619Y-92463904D01*
X149074619Y-91892476D02*
X148503190Y-92321047D01*
X148074619Y-91892476D02*
X148646047Y-92463904D01*
%TO.C,R5*%
X158583333Y-124272619D02*
X158250000Y-123796428D01*
X158011905Y-124272619D02*
X158011905Y-123272619D01*
X158011905Y-123272619D02*
X158392857Y-123272619D01*
X158392857Y-123272619D02*
X158488095Y-123320238D01*
X158488095Y-123320238D02*
X158535714Y-123367857D01*
X158535714Y-123367857D02*
X158583333Y-123463095D01*
X158583333Y-123463095D02*
X158583333Y-123605952D01*
X158583333Y-123605952D02*
X158535714Y-123701190D01*
X158535714Y-123701190D02*
X158488095Y-123748809D01*
X158488095Y-123748809D02*
X158392857Y-123796428D01*
X158392857Y-123796428D02*
X158011905Y-123796428D01*
X159488095Y-123272619D02*
X159011905Y-123272619D01*
X159011905Y-123272619D02*
X158964286Y-123748809D01*
X158964286Y-123748809D02*
X159011905Y-123701190D01*
X159011905Y-123701190D02*
X159107143Y-123653571D01*
X159107143Y-123653571D02*
X159345238Y-123653571D01*
X159345238Y-123653571D02*
X159440476Y-123701190D01*
X159440476Y-123701190D02*
X159488095Y-123748809D01*
X159488095Y-123748809D02*
X159535714Y-123844047D01*
X159535714Y-123844047D02*
X159535714Y-124082142D01*
X159535714Y-124082142D02*
X159488095Y-124177380D01*
X159488095Y-124177380D02*
X159440476Y-124225000D01*
X159440476Y-124225000D02*
X159345238Y-124272619D01*
X159345238Y-124272619D02*
X159107143Y-124272619D01*
X159107143Y-124272619D02*
X159011905Y-124225000D01*
X159011905Y-124225000D02*
X158964286Y-124177380D01*
D11*
%TO.C,D9*%
X176221309Y-103415047D02*
X175721309Y-103415047D01*
X175721309Y-103415047D02*
X175721309Y-103295999D01*
X175721309Y-103295999D02*
X175745119Y-103224571D01*
X175745119Y-103224571D02*
X175792738Y-103176952D01*
X175792738Y-103176952D02*
X175840357Y-103153142D01*
X175840357Y-103153142D02*
X175935595Y-103129333D01*
X175935595Y-103129333D02*
X176007023Y-103129333D01*
X176007023Y-103129333D02*
X176102261Y-103153142D01*
X176102261Y-103153142D02*
X176149880Y-103176952D01*
X176149880Y-103176952D02*
X176197500Y-103224571D01*
X176197500Y-103224571D02*
X176221309Y-103295999D01*
X176221309Y-103295999D02*
X176221309Y-103415047D01*
X176221309Y-102891237D02*
X176221309Y-102795999D01*
X176221309Y-102795999D02*
X176197500Y-102748380D01*
X176197500Y-102748380D02*
X176173690Y-102724571D01*
X176173690Y-102724571D02*
X176102261Y-102676952D01*
X176102261Y-102676952D02*
X176007023Y-102653142D01*
X176007023Y-102653142D02*
X175816547Y-102653142D01*
X175816547Y-102653142D02*
X175768928Y-102676952D01*
X175768928Y-102676952D02*
X175745119Y-102700761D01*
X175745119Y-102700761D02*
X175721309Y-102748380D01*
X175721309Y-102748380D02*
X175721309Y-102843618D01*
X175721309Y-102843618D02*
X175745119Y-102891237D01*
X175745119Y-102891237D02*
X175768928Y-102915047D01*
X175768928Y-102915047D02*
X175816547Y-102938856D01*
X175816547Y-102938856D02*
X175935595Y-102938856D01*
X175935595Y-102938856D02*
X175983214Y-102915047D01*
X175983214Y-102915047D02*
X176007023Y-102891237D01*
X176007023Y-102891237D02*
X176030833Y-102843618D01*
X176030833Y-102843618D02*
X176030833Y-102748380D01*
X176030833Y-102748380D02*
X176007023Y-102700761D01*
X176007023Y-102700761D02*
X175983214Y-102676952D01*
X175983214Y-102676952D02*
X175935595Y-102653142D01*
D10*
%TO.C,C2*%
X156525380Y-128448666D02*
X156573000Y-128496285D01*
X156573000Y-128496285D02*
X156620619Y-128639142D01*
X156620619Y-128639142D02*
X156620619Y-128734380D01*
X156620619Y-128734380D02*
X156573000Y-128877237D01*
X156573000Y-128877237D02*
X156477761Y-128972475D01*
X156477761Y-128972475D02*
X156382523Y-129020094D01*
X156382523Y-129020094D02*
X156192047Y-129067713D01*
X156192047Y-129067713D02*
X156049190Y-129067713D01*
X156049190Y-129067713D02*
X155858714Y-129020094D01*
X155858714Y-129020094D02*
X155763476Y-128972475D01*
X155763476Y-128972475D02*
X155668238Y-128877237D01*
X155668238Y-128877237D02*
X155620619Y-128734380D01*
X155620619Y-128734380D02*
X155620619Y-128639142D01*
X155620619Y-128639142D02*
X155668238Y-128496285D01*
X155668238Y-128496285D02*
X155715857Y-128448666D01*
X155715857Y-128067713D02*
X155668238Y-128020094D01*
X155668238Y-128020094D02*
X155620619Y-127924856D01*
X155620619Y-127924856D02*
X155620619Y-127686761D01*
X155620619Y-127686761D02*
X155668238Y-127591523D01*
X155668238Y-127591523D02*
X155715857Y-127543904D01*
X155715857Y-127543904D02*
X155811095Y-127496285D01*
X155811095Y-127496285D02*
X155906333Y-127496285D01*
X155906333Y-127496285D02*
X156049190Y-127543904D01*
X156049190Y-127543904D02*
X156620619Y-128115332D01*
X156620619Y-128115332D02*
X156620619Y-127496285D01*
%TO.C,R8*%
X100925333Y-95120619D02*
X100592000Y-94644428D01*
X100353905Y-95120619D02*
X100353905Y-94120619D01*
X100353905Y-94120619D02*
X100734857Y-94120619D01*
X100734857Y-94120619D02*
X100830095Y-94168238D01*
X100830095Y-94168238D02*
X100877714Y-94215857D01*
X100877714Y-94215857D02*
X100925333Y-94311095D01*
X100925333Y-94311095D02*
X100925333Y-94453952D01*
X100925333Y-94453952D02*
X100877714Y-94549190D01*
X100877714Y-94549190D02*
X100830095Y-94596809D01*
X100830095Y-94596809D02*
X100734857Y-94644428D01*
X100734857Y-94644428D02*
X100353905Y-94644428D01*
X101496762Y-94549190D02*
X101401524Y-94501571D01*
X101401524Y-94501571D02*
X101353905Y-94453952D01*
X101353905Y-94453952D02*
X101306286Y-94358714D01*
X101306286Y-94358714D02*
X101306286Y-94311095D01*
X101306286Y-94311095D02*
X101353905Y-94215857D01*
X101353905Y-94215857D02*
X101401524Y-94168238D01*
X101401524Y-94168238D02*
X101496762Y-94120619D01*
X101496762Y-94120619D02*
X101687238Y-94120619D01*
X101687238Y-94120619D02*
X101782476Y-94168238D01*
X101782476Y-94168238D02*
X101830095Y-94215857D01*
X101830095Y-94215857D02*
X101877714Y-94311095D01*
X101877714Y-94311095D02*
X101877714Y-94358714D01*
X101877714Y-94358714D02*
X101830095Y-94453952D01*
X101830095Y-94453952D02*
X101782476Y-94501571D01*
X101782476Y-94501571D02*
X101687238Y-94549190D01*
X101687238Y-94549190D02*
X101496762Y-94549190D01*
X101496762Y-94549190D02*
X101401524Y-94596809D01*
X101401524Y-94596809D02*
X101353905Y-94644428D01*
X101353905Y-94644428D02*
X101306286Y-94739666D01*
X101306286Y-94739666D02*
X101306286Y-94930142D01*
X101306286Y-94930142D02*
X101353905Y-95025380D01*
X101353905Y-95025380D02*
X101401524Y-95073000D01*
X101401524Y-95073000D02*
X101496762Y-95120619D01*
X101496762Y-95120619D02*
X101687238Y-95120619D01*
X101687238Y-95120619D02*
X101782476Y-95073000D01*
X101782476Y-95073000D02*
X101830095Y-95025380D01*
X101830095Y-95025380D02*
X101877714Y-94930142D01*
X101877714Y-94930142D02*
X101877714Y-94739666D01*
X101877714Y-94739666D02*
X101830095Y-94644428D01*
X101830095Y-94644428D02*
X101782476Y-94596809D01*
X101782476Y-94596809D02*
X101687238Y-94549190D01*
%TO.C,R14*%
X141292342Y-107701419D02*
X140959009Y-107225228D01*
X140720914Y-107701419D02*
X140720914Y-106701419D01*
X140720914Y-106701419D02*
X141101866Y-106701419D01*
X141101866Y-106701419D02*
X141197104Y-106749038D01*
X141197104Y-106749038D02*
X141244723Y-106796657D01*
X141244723Y-106796657D02*
X141292342Y-106891895D01*
X141292342Y-106891895D02*
X141292342Y-107034752D01*
X141292342Y-107034752D02*
X141244723Y-107129990D01*
X141244723Y-107129990D02*
X141197104Y-107177609D01*
X141197104Y-107177609D02*
X141101866Y-107225228D01*
X141101866Y-107225228D02*
X140720914Y-107225228D01*
X142244723Y-107701419D02*
X141673295Y-107701419D01*
X141959009Y-107701419D02*
X141959009Y-106701419D01*
X141959009Y-106701419D02*
X141863771Y-106844276D01*
X141863771Y-106844276D02*
X141768533Y-106939514D01*
X141768533Y-106939514D02*
X141673295Y-106987133D01*
X143101866Y-107034752D02*
X143101866Y-107701419D01*
X142863771Y-106653800D02*
X142625676Y-107368085D01*
X142625676Y-107368085D02*
X143244723Y-107368085D01*
%TO.C,R4*%
X158329333Y-119984619D02*
X157996000Y-119508428D01*
X157757905Y-119984619D02*
X157757905Y-118984619D01*
X157757905Y-118984619D02*
X158138857Y-118984619D01*
X158138857Y-118984619D02*
X158234095Y-119032238D01*
X158234095Y-119032238D02*
X158281714Y-119079857D01*
X158281714Y-119079857D02*
X158329333Y-119175095D01*
X158329333Y-119175095D02*
X158329333Y-119317952D01*
X158329333Y-119317952D02*
X158281714Y-119413190D01*
X158281714Y-119413190D02*
X158234095Y-119460809D01*
X158234095Y-119460809D02*
X158138857Y-119508428D01*
X158138857Y-119508428D02*
X157757905Y-119508428D01*
X159186476Y-119317952D02*
X159186476Y-119984619D01*
X158948381Y-118937000D02*
X158710286Y-119651285D01*
X158710286Y-119651285D02*
X159329333Y-119651285D01*
%TO.C,D5*%
X149218619Y-97258094D02*
X148218619Y-97258094D01*
X148218619Y-97258094D02*
X148218619Y-97019999D01*
X148218619Y-97019999D02*
X148266238Y-96877142D01*
X148266238Y-96877142D02*
X148361476Y-96781904D01*
X148361476Y-96781904D02*
X148456714Y-96734285D01*
X148456714Y-96734285D02*
X148647190Y-96686666D01*
X148647190Y-96686666D02*
X148790047Y-96686666D01*
X148790047Y-96686666D02*
X148980523Y-96734285D01*
X148980523Y-96734285D02*
X149075761Y-96781904D01*
X149075761Y-96781904D02*
X149171000Y-96877142D01*
X149171000Y-96877142D02*
X149218619Y-97019999D01*
X149218619Y-97019999D02*
X149218619Y-97258094D01*
X148218619Y-95781904D02*
X148218619Y-96258094D01*
X148218619Y-96258094D02*
X148694809Y-96305713D01*
X148694809Y-96305713D02*
X148647190Y-96258094D01*
X148647190Y-96258094D02*
X148599571Y-96162856D01*
X148599571Y-96162856D02*
X148599571Y-95924761D01*
X148599571Y-95924761D02*
X148647190Y-95829523D01*
X148647190Y-95829523D02*
X148694809Y-95781904D01*
X148694809Y-95781904D02*
X148790047Y-95734285D01*
X148790047Y-95734285D02*
X149028142Y-95734285D01*
X149028142Y-95734285D02*
X149123380Y-95781904D01*
X149123380Y-95781904D02*
X149171000Y-95829523D01*
X149171000Y-95829523D02*
X149218619Y-95924761D01*
X149218619Y-95924761D02*
X149218619Y-96162856D01*
X149218619Y-96162856D02*
X149171000Y-96258094D01*
X149171000Y-96258094D02*
X149123380Y-96305713D01*
X149538619Y-100591904D02*
X148538619Y-100591904D01*
X149538619Y-100020476D02*
X148967190Y-100449047D01*
X148538619Y-100020476D02*
X149110047Y-100591904D01*
D11*
%TO.C,U_3.3V1*%
X95028095Y-58748619D02*
X95028095Y-59558142D01*
X95028095Y-59558142D02*
X95075714Y-59653380D01*
X95075714Y-59653380D02*
X95123333Y-59701000D01*
X95123333Y-59701000D02*
X95218571Y-59748619D01*
X95218571Y-59748619D02*
X95409047Y-59748619D01*
X95409047Y-59748619D02*
X95504285Y-59701000D01*
X95504285Y-59701000D02*
X95551904Y-59653380D01*
X95551904Y-59653380D02*
X95599523Y-59558142D01*
X95599523Y-59558142D02*
X95599523Y-58748619D01*
X95837619Y-59843857D02*
X96599523Y-59843857D01*
X96742381Y-58748619D02*
X97361428Y-58748619D01*
X97361428Y-58748619D02*
X97028095Y-59129571D01*
X97028095Y-59129571D02*
X97170952Y-59129571D01*
X97170952Y-59129571D02*
X97266190Y-59177190D01*
X97266190Y-59177190D02*
X97313809Y-59224809D01*
X97313809Y-59224809D02*
X97361428Y-59320047D01*
X97361428Y-59320047D02*
X97361428Y-59558142D01*
X97361428Y-59558142D02*
X97313809Y-59653380D01*
X97313809Y-59653380D02*
X97266190Y-59701000D01*
X97266190Y-59701000D02*
X97170952Y-59748619D01*
X97170952Y-59748619D02*
X96885238Y-59748619D01*
X96885238Y-59748619D02*
X96790000Y-59701000D01*
X96790000Y-59701000D02*
X96742381Y-59653380D01*
X97790000Y-59653380D02*
X97837619Y-59701000D01*
X97837619Y-59701000D02*
X97790000Y-59748619D01*
X97790000Y-59748619D02*
X97742381Y-59701000D01*
X97742381Y-59701000D02*
X97790000Y-59653380D01*
X97790000Y-59653380D02*
X97790000Y-59748619D01*
X98170952Y-58748619D02*
X98789999Y-58748619D01*
X98789999Y-58748619D02*
X98456666Y-59129571D01*
X98456666Y-59129571D02*
X98599523Y-59129571D01*
X98599523Y-59129571D02*
X98694761Y-59177190D01*
X98694761Y-59177190D02*
X98742380Y-59224809D01*
X98742380Y-59224809D02*
X98789999Y-59320047D01*
X98789999Y-59320047D02*
X98789999Y-59558142D01*
X98789999Y-59558142D02*
X98742380Y-59653380D01*
X98742380Y-59653380D02*
X98694761Y-59701000D01*
X98694761Y-59701000D02*
X98599523Y-59748619D01*
X98599523Y-59748619D02*
X98313809Y-59748619D01*
X98313809Y-59748619D02*
X98218571Y-59701000D01*
X98218571Y-59701000D02*
X98170952Y-59653380D01*
X99075714Y-58748619D02*
X99409047Y-59748619D01*
X99409047Y-59748619D02*
X99742380Y-58748619D01*
X100599523Y-59748619D02*
X100028095Y-59748619D01*
X100313809Y-59748619D02*
X100313809Y-58748619D01*
X100313809Y-58748619D02*
X100218571Y-58891476D01*
X100218571Y-58891476D02*
X100123333Y-58986714D01*
X100123333Y-58986714D02*
X100028095Y-59034333D01*
D10*
%TO.C,PT1*%
X37275119Y-61349047D02*
X36275119Y-61349047D01*
X36275119Y-61349047D02*
X36275119Y-60968095D01*
X36275119Y-60968095D02*
X36322738Y-60872857D01*
X36322738Y-60872857D02*
X36370357Y-60825238D01*
X36370357Y-60825238D02*
X36465595Y-60777619D01*
X36465595Y-60777619D02*
X36608452Y-60777619D01*
X36608452Y-60777619D02*
X36703690Y-60825238D01*
X36703690Y-60825238D02*
X36751309Y-60872857D01*
X36751309Y-60872857D02*
X36798928Y-60968095D01*
X36798928Y-60968095D02*
X36798928Y-61349047D01*
X36275119Y-60491904D02*
X36275119Y-59920476D01*
X37275119Y-60206190D02*
X36275119Y-60206190D01*
X37275119Y-59063333D02*
X37275119Y-59634761D01*
X37275119Y-59349047D02*
X36275119Y-59349047D01*
X36275119Y-59349047D02*
X36417976Y-59444285D01*
X36417976Y-59444285D02*
X36513214Y-59539523D01*
X36513214Y-59539523D02*
X36560833Y-59634761D01*
%TO.C,C1*%
X136593432Y-134427380D02*
X136545813Y-134475000D01*
X136545813Y-134475000D02*
X136402956Y-134522619D01*
X136402956Y-134522619D02*
X136307718Y-134522619D01*
X136307718Y-134522619D02*
X136164861Y-134475000D01*
X136164861Y-134475000D02*
X136069623Y-134379761D01*
X136069623Y-134379761D02*
X136022004Y-134284523D01*
X136022004Y-134284523D02*
X135974385Y-134094047D01*
X135974385Y-134094047D02*
X135974385Y-133951190D01*
X135974385Y-133951190D02*
X136022004Y-133760714D01*
X136022004Y-133760714D02*
X136069623Y-133665476D01*
X136069623Y-133665476D02*
X136164861Y-133570238D01*
X136164861Y-133570238D02*
X136307718Y-133522619D01*
X136307718Y-133522619D02*
X136402956Y-133522619D01*
X136402956Y-133522619D02*
X136545813Y-133570238D01*
X136545813Y-133570238D02*
X136593432Y-133617857D01*
X137545813Y-134522619D02*
X136974385Y-134522619D01*
X137260099Y-134522619D02*
X137260099Y-133522619D01*
X137260099Y-133522619D02*
X137164861Y-133665476D01*
X137164861Y-133665476D02*
X137069623Y-133760714D01*
X137069623Y-133760714D02*
X136974385Y-133808333D01*
%TO.C,D4*%
X120673905Y-122040619D02*
X120673905Y-121040619D01*
X120673905Y-121040619D02*
X120912000Y-121040619D01*
X120912000Y-121040619D02*
X121054857Y-121088238D01*
X121054857Y-121088238D02*
X121150095Y-121183476D01*
X121150095Y-121183476D02*
X121197714Y-121278714D01*
X121197714Y-121278714D02*
X121245333Y-121469190D01*
X121245333Y-121469190D02*
X121245333Y-121612047D01*
X121245333Y-121612047D02*
X121197714Y-121802523D01*
X121197714Y-121802523D02*
X121150095Y-121897761D01*
X121150095Y-121897761D02*
X121054857Y-121993000D01*
X121054857Y-121993000D02*
X120912000Y-122040619D01*
X120912000Y-122040619D02*
X120673905Y-122040619D01*
X122102476Y-121373952D02*
X122102476Y-122040619D01*
X121864381Y-120993000D02*
X121626286Y-121707285D01*
X121626286Y-121707285D02*
X122245333Y-121707285D01*
X117340095Y-122360619D02*
X117340095Y-121360619D01*
X117911523Y-122360619D02*
X117482952Y-121789190D01*
X117911523Y-121360619D02*
X117340095Y-121932047D01*
%TO.C,Q2*%
X132374261Y-129105857D02*
X132279023Y-129058238D01*
X132279023Y-129058238D02*
X132183785Y-128963000D01*
X132183785Y-128963000D02*
X132040928Y-128820142D01*
X132040928Y-128820142D02*
X131945690Y-128772523D01*
X131945690Y-128772523D02*
X131850452Y-128772523D01*
X131898071Y-129010619D02*
X131802833Y-128963000D01*
X131802833Y-128963000D02*
X131707595Y-128867761D01*
X131707595Y-128867761D02*
X131659976Y-128677285D01*
X131659976Y-128677285D02*
X131659976Y-128343952D01*
X131659976Y-128343952D02*
X131707595Y-128153476D01*
X131707595Y-128153476D02*
X131802833Y-128058238D01*
X131802833Y-128058238D02*
X131898071Y-128010619D01*
X131898071Y-128010619D02*
X132088547Y-128010619D01*
X132088547Y-128010619D02*
X132183785Y-128058238D01*
X132183785Y-128058238D02*
X132279023Y-128153476D01*
X132279023Y-128153476D02*
X132326642Y-128343952D01*
X132326642Y-128343952D02*
X132326642Y-128677285D01*
X132326642Y-128677285D02*
X132279023Y-128867761D01*
X132279023Y-128867761D02*
X132183785Y-128963000D01*
X132183785Y-128963000D02*
X132088547Y-129010619D01*
X132088547Y-129010619D02*
X131898071Y-129010619D01*
X132707595Y-128105857D02*
X132755214Y-128058238D01*
X132755214Y-128058238D02*
X132850452Y-128010619D01*
X132850452Y-128010619D02*
X133088547Y-128010619D01*
X133088547Y-128010619D02*
X133183785Y-128058238D01*
X133183785Y-128058238D02*
X133231404Y-128105857D01*
X133231404Y-128105857D02*
X133279023Y-128201095D01*
X133279023Y-128201095D02*
X133279023Y-128296333D01*
X133279023Y-128296333D02*
X133231404Y-128439190D01*
X133231404Y-128439190D02*
X132659976Y-129010619D01*
X132659976Y-129010619D02*
X133279023Y-129010619D01*
%TO.C,Input110*%
X42176619Y-32663428D02*
X41176619Y-32663428D01*
X41509952Y-32187238D02*
X42176619Y-32187238D01*
X41605190Y-32187238D02*
X41557571Y-32139619D01*
X41557571Y-32139619D02*
X41509952Y-32044381D01*
X41509952Y-32044381D02*
X41509952Y-31901524D01*
X41509952Y-31901524D02*
X41557571Y-31806286D01*
X41557571Y-31806286D02*
X41652809Y-31758667D01*
X41652809Y-31758667D02*
X42176619Y-31758667D01*
X41509952Y-31282476D02*
X42509952Y-31282476D01*
X41557571Y-31282476D02*
X41509952Y-31187238D01*
X41509952Y-31187238D02*
X41509952Y-30996762D01*
X41509952Y-30996762D02*
X41557571Y-30901524D01*
X41557571Y-30901524D02*
X41605190Y-30853905D01*
X41605190Y-30853905D02*
X41700428Y-30806286D01*
X41700428Y-30806286D02*
X41986142Y-30806286D01*
X41986142Y-30806286D02*
X42081380Y-30853905D01*
X42081380Y-30853905D02*
X42129000Y-30901524D01*
X42129000Y-30901524D02*
X42176619Y-30996762D01*
X42176619Y-30996762D02*
X42176619Y-31187238D01*
X42176619Y-31187238D02*
X42129000Y-31282476D01*
X41509952Y-29949143D02*
X42176619Y-29949143D01*
X41509952Y-30377714D02*
X42033761Y-30377714D01*
X42033761Y-30377714D02*
X42129000Y-30330095D01*
X42129000Y-30330095D02*
X42176619Y-30234857D01*
X42176619Y-30234857D02*
X42176619Y-30092000D01*
X42176619Y-30092000D02*
X42129000Y-29996762D01*
X42129000Y-29996762D02*
X42081380Y-29949143D01*
X41509952Y-29615809D02*
X41509952Y-29234857D01*
X41176619Y-29472952D02*
X42033761Y-29472952D01*
X42033761Y-29472952D02*
X42129000Y-29425333D01*
X42129000Y-29425333D02*
X42176619Y-29330095D01*
X42176619Y-29330095D02*
X42176619Y-29234857D01*
X42176619Y-28377714D02*
X42176619Y-28949142D01*
X42176619Y-28663428D02*
X41176619Y-28663428D01*
X41176619Y-28663428D02*
X41319476Y-28758666D01*
X41319476Y-28758666D02*
X41414714Y-28853904D01*
X41414714Y-28853904D02*
X41462333Y-28949142D01*
X42176619Y-27425333D02*
X42176619Y-27996761D01*
X42176619Y-27711047D02*
X41176619Y-27711047D01*
X41176619Y-27711047D02*
X41319476Y-27806285D01*
X41319476Y-27806285D02*
X41414714Y-27901523D01*
X41414714Y-27901523D02*
X41462333Y-27996761D01*
X41176619Y-26806285D02*
X41176619Y-26711047D01*
X41176619Y-26711047D02*
X41224238Y-26615809D01*
X41224238Y-26615809D02*
X41271857Y-26568190D01*
X41271857Y-26568190D02*
X41367095Y-26520571D01*
X41367095Y-26520571D02*
X41557571Y-26472952D01*
X41557571Y-26472952D02*
X41795666Y-26472952D01*
X41795666Y-26472952D02*
X41986142Y-26520571D01*
X41986142Y-26520571D02*
X42081380Y-26568190D01*
X42081380Y-26568190D02*
X42129000Y-26615809D01*
X42129000Y-26615809D02*
X42176619Y-26711047D01*
X42176619Y-26711047D02*
X42176619Y-26806285D01*
X42176619Y-26806285D02*
X42129000Y-26901523D01*
X42129000Y-26901523D02*
X42081380Y-26949142D01*
X42081380Y-26949142D02*
X41986142Y-26996761D01*
X41986142Y-26996761D02*
X41795666Y-27044380D01*
X41795666Y-27044380D02*
X41557571Y-27044380D01*
X41557571Y-27044380D02*
X41367095Y-26996761D01*
X41367095Y-26996761D02*
X41271857Y-26949142D01*
X41271857Y-26949142D02*
X41224238Y-26901523D01*
X41224238Y-26901523D02*
X41176619Y-26806285D01*
%TO.C,SW1*%
X89988167Y-147784000D02*
X90131024Y-147831619D01*
X90131024Y-147831619D02*
X90369119Y-147831619D01*
X90369119Y-147831619D02*
X90464357Y-147784000D01*
X90464357Y-147784000D02*
X90511976Y-147736380D01*
X90511976Y-147736380D02*
X90559595Y-147641142D01*
X90559595Y-147641142D02*
X90559595Y-147545904D01*
X90559595Y-147545904D02*
X90511976Y-147450666D01*
X90511976Y-147450666D02*
X90464357Y-147403047D01*
X90464357Y-147403047D02*
X90369119Y-147355428D01*
X90369119Y-147355428D02*
X90178643Y-147307809D01*
X90178643Y-147307809D02*
X90083405Y-147260190D01*
X90083405Y-147260190D02*
X90035786Y-147212571D01*
X90035786Y-147212571D02*
X89988167Y-147117333D01*
X89988167Y-147117333D02*
X89988167Y-147022095D01*
X89988167Y-147022095D02*
X90035786Y-146926857D01*
X90035786Y-146926857D02*
X90083405Y-146879238D01*
X90083405Y-146879238D02*
X90178643Y-146831619D01*
X90178643Y-146831619D02*
X90416738Y-146831619D01*
X90416738Y-146831619D02*
X90559595Y-146879238D01*
X90892929Y-146831619D02*
X91131024Y-147831619D01*
X91131024Y-147831619D02*
X91321500Y-147117333D01*
X91321500Y-147117333D02*
X91511976Y-147831619D01*
X91511976Y-147831619D02*
X91750072Y-146831619D01*
X92654833Y-147831619D02*
X92083405Y-147831619D01*
X92369119Y-147831619D02*
X92369119Y-146831619D01*
X92369119Y-146831619D02*
X92273881Y-146974476D01*
X92273881Y-146974476D02*
X92178643Y-147069714D01*
X92178643Y-147069714D02*
X92083405Y-147117333D01*
%TO.C,R3*%
X155281333Y-110302619D02*
X154948000Y-109826428D01*
X154709905Y-110302619D02*
X154709905Y-109302619D01*
X154709905Y-109302619D02*
X155090857Y-109302619D01*
X155090857Y-109302619D02*
X155186095Y-109350238D01*
X155186095Y-109350238D02*
X155233714Y-109397857D01*
X155233714Y-109397857D02*
X155281333Y-109493095D01*
X155281333Y-109493095D02*
X155281333Y-109635952D01*
X155281333Y-109635952D02*
X155233714Y-109731190D01*
X155233714Y-109731190D02*
X155186095Y-109778809D01*
X155186095Y-109778809D02*
X155090857Y-109826428D01*
X155090857Y-109826428D02*
X154709905Y-109826428D01*
X155614667Y-109302619D02*
X156233714Y-109302619D01*
X156233714Y-109302619D02*
X155900381Y-109683571D01*
X155900381Y-109683571D02*
X156043238Y-109683571D01*
X156043238Y-109683571D02*
X156138476Y-109731190D01*
X156138476Y-109731190D02*
X156186095Y-109778809D01*
X156186095Y-109778809D02*
X156233714Y-109874047D01*
X156233714Y-109874047D02*
X156233714Y-110112142D01*
X156233714Y-110112142D02*
X156186095Y-110207380D01*
X156186095Y-110207380D02*
X156138476Y-110255000D01*
X156138476Y-110255000D02*
X156043238Y-110302619D01*
X156043238Y-110302619D02*
X155757524Y-110302619D01*
X155757524Y-110302619D02*
X155662286Y-110255000D01*
X155662286Y-110255000D02*
X155614667Y-110207380D01*
%TO.C,R19*%
X143506619Y-94876857D02*
X143030428Y-95210190D01*
X143506619Y-95448285D02*
X142506619Y-95448285D01*
X142506619Y-95448285D02*
X142506619Y-95067333D01*
X142506619Y-95067333D02*
X142554238Y-94972095D01*
X142554238Y-94972095D02*
X142601857Y-94924476D01*
X142601857Y-94924476D02*
X142697095Y-94876857D01*
X142697095Y-94876857D02*
X142839952Y-94876857D01*
X142839952Y-94876857D02*
X142935190Y-94924476D01*
X142935190Y-94924476D02*
X142982809Y-94972095D01*
X142982809Y-94972095D02*
X143030428Y-95067333D01*
X143030428Y-95067333D02*
X143030428Y-95448285D01*
X143506619Y-93924476D02*
X143506619Y-94495904D01*
X143506619Y-94210190D02*
X142506619Y-94210190D01*
X142506619Y-94210190D02*
X142649476Y-94305428D01*
X142649476Y-94305428D02*
X142744714Y-94400666D01*
X142744714Y-94400666D02*
X142792333Y-94495904D01*
X143506619Y-93448285D02*
X143506619Y-93257809D01*
X143506619Y-93257809D02*
X143459000Y-93162571D01*
X143459000Y-93162571D02*
X143411380Y-93114952D01*
X143411380Y-93114952D02*
X143268523Y-93019714D01*
X143268523Y-93019714D02*
X143078047Y-92972095D01*
X143078047Y-92972095D02*
X142697095Y-92972095D01*
X142697095Y-92972095D02*
X142601857Y-93019714D01*
X142601857Y-93019714D02*
X142554238Y-93067333D01*
X142554238Y-93067333D02*
X142506619Y-93162571D01*
X142506619Y-93162571D02*
X142506619Y-93353047D01*
X142506619Y-93353047D02*
X142554238Y-93448285D01*
X142554238Y-93448285D02*
X142601857Y-93495904D01*
X142601857Y-93495904D02*
X142697095Y-93543523D01*
X142697095Y-93543523D02*
X142935190Y-93543523D01*
X142935190Y-93543523D02*
X143030428Y-93495904D01*
X143030428Y-93495904D02*
X143078047Y-93448285D01*
X143078047Y-93448285D02*
X143125666Y-93353047D01*
X143125666Y-93353047D02*
X143125666Y-93162571D01*
X143125666Y-93162571D02*
X143078047Y-93067333D01*
X143078047Y-93067333D02*
X143030428Y-93019714D01*
X143030428Y-93019714D02*
X142935190Y-92972095D01*
%TO.C,R2*%
X168752619Y-121324666D02*
X168276428Y-121657999D01*
X168752619Y-121896094D02*
X167752619Y-121896094D01*
X167752619Y-121896094D02*
X167752619Y-121515142D01*
X167752619Y-121515142D02*
X167800238Y-121419904D01*
X167800238Y-121419904D02*
X167847857Y-121372285D01*
X167847857Y-121372285D02*
X167943095Y-121324666D01*
X167943095Y-121324666D02*
X168085952Y-121324666D01*
X168085952Y-121324666D02*
X168181190Y-121372285D01*
X168181190Y-121372285D02*
X168228809Y-121419904D01*
X168228809Y-121419904D02*
X168276428Y-121515142D01*
X168276428Y-121515142D02*
X168276428Y-121896094D01*
X167847857Y-120943713D02*
X167800238Y-120896094D01*
X167800238Y-120896094D02*
X167752619Y-120800856D01*
X167752619Y-120800856D02*
X167752619Y-120562761D01*
X167752619Y-120562761D02*
X167800238Y-120467523D01*
X167800238Y-120467523D02*
X167847857Y-120419904D01*
X167847857Y-120419904D02*
X167943095Y-120372285D01*
X167943095Y-120372285D02*
X168038333Y-120372285D01*
X168038333Y-120372285D02*
X168181190Y-120419904D01*
X168181190Y-120419904D02*
X168752619Y-120991332D01*
X168752619Y-120991332D02*
X168752619Y-120372285D01*
%TO.C,C6*%
X92993380Y-115326015D02*
X93041000Y-115373634D01*
X93041000Y-115373634D02*
X93088619Y-115516491D01*
X93088619Y-115516491D02*
X93088619Y-115611729D01*
X93088619Y-115611729D02*
X93041000Y-115754586D01*
X93041000Y-115754586D02*
X92945761Y-115849824D01*
X92945761Y-115849824D02*
X92850523Y-115897443D01*
X92850523Y-115897443D02*
X92660047Y-115945062D01*
X92660047Y-115945062D02*
X92517190Y-115945062D01*
X92517190Y-115945062D02*
X92326714Y-115897443D01*
X92326714Y-115897443D02*
X92231476Y-115849824D01*
X92231476Y-115849824D02*
X92136238Y-115754586D01*
X92136238Y-115754586D02*
X92088619Y-115611729D01*
X92088619Y-115611729D02*
X92088619Y-115516491D01*
X92088619Y-115516491D02*
X92136238Y-115373634D01*
X92136238Y-115373634D02*
X92183857Y-115326015D01*
X92088619Y-114468872D02*
X92088619Y-114659348D01*
X92088619Y-114659348D02*
X92136238Y-114754586D01*
X92136238Y-114754586D02*
X92183857Y-114802205D01*
X92183857Y-114802205D02*
X92326714Y-114897443D01*
X92326714Y-114897443D02*
X92517190Y-114945062D01*
X92517190Y-114945062D02*
X92898142Y-114945062D01*
X92898142Y-114945062D02*
X92993380Y-114897443D01*
X92993380Y-114897443D02*
X93041000Y-114849824D01*
X93041000Y-114849824D02*
X93088619Y-114754586D01*
X93088619Y-114754586D02*
X93088619Y-114564110D01*
X93088619Y-114564110D02*
X93041000Y-114468872D01*
X93041000Y-114468872D02*
X92993380Y-114421253D01*
X92993380Y-114421253D02*
X92898142Y-114373634D01*
X92898142Y-114373634D02*
X92660047Y-114373634D01*
X92660047Y-114373634D02*
X92564809Y-114421253D01*
X92564809Y-114421253D02*
X92517190Y-114468872D01*
X92517190Y-114468872D02*
X92469571Y-114564110D01*
X92469571Y-114564110D02*
X92469571Y-114754586D01*
X92469571Y-114754586D02*
X92517190Y-114849824D01*
X92517190Y-114849824D02*
X92564809Y-114897443D01*
X92564809Y-114897443D02*
X92660047Y-114945062D01*
%TO.C,A1*%
X87883104Y-123254285D02*
X87883104Y-122778095D01*
X88168819Y-123349523D02*
X87168819Y-123016190D01*
X87168819Y-123016190D02*
X88168819Y-122682857D01*
X88168819Y-121825714D02*
X88168819Y-122397142D01*
X88168819Y-122111428D02*
X87168819Y-122111428D01*
X87168819Y-122111428D02*
X87311676Y-122206666D01*
X87311676Y-122206666D02*
X87406914Y-122301904D01*
X87406914Y-122301904D02*
X87454533Y-122397142D01*
%TO.C,R1*%
X169992619Y-121324666D02*
X169516428Y-121657999D01*
X169992619Y-121896094D02*
X168992619Y-121896094D01*
X168992619Y-121896094D02*
X168992619Y-121515142D01*
X168992619Y-121515142D02*
X169040238Y-121419904D01*
X169040238Y-121419904D02*
X169087857Y-121372285D01*
X169087857Y-121372285D02*
X169183095Y-121324666D01*
X169183095Y-121324666D02*
X169325952Y-121324666D01*
X169325952Y-121324666D02*
X169421190Y-121372285D01*
X169421190Y-121372285D02*
X169468809Y-121419904D01*
X169468809Y-121419904D02*
X169516428Y-121515142D01*
X169516428Y-121515142D02*
X169516428Y-121896094D01*
X169992619Y-120372285D02*
X169992619Y-120943713D01*
X169992619Y-120657999D02*
X168992619Y-120657999D01*
X168992619Y-120657999D02*
X169135476Y-120753237D01*
X169135476Y-120753237D02*
X169230714Y-120848475D01*
X169230714Y-120848475D02*
X169278333Y-120943713D01*
%TO.C,C3*%
X159785380Y-134278666D02*
X159833000Y-134326285D01*
X159833000Y-134326285D02*
X159880619Y-134469142D01*
X159880619Y-134469142D02*
X159880619Y-134564380D01*
X159880619Y-134564380D02*
X159833000Y-134707237D01*
X159833000Y-134707237D02*
X159737761Y-134802475D01*
X159737761Y-134802475D02*
X159642523Y-134850094D01*
X159642523Y-134850094D02*
X159452047Y-134897713D01*
X159452047Y-134897713D02*
X159309190Y-134897713D01*
X159309190Y-134897713D02*
X159118714Y-134850094D01*
X159118714Y-134850094D02*
X159023476Y-134802475D01*
X159023476Y-134802475D02*
X158928238Y-134707237D01*
X158928238Y-134707237D02*
X158880619Y-134564380D01*
X158880619Y-134564380D02*
X158880619Y-134469142D01*
X158880619Y-134469142D02*
X158928238Y-134326285D01*
X158928238Y-134326285D02*
X158975857Y-134278666D01*
X158880619Y-133945332D02*
X158880619Y-133326285D01*
X158880619Y-133326285D02*
X159261571Y-133659618D01*
X159261571Y-133659618D02*
X159261571Y-133516761D01*
X159261571Y-133516761D02*
X159309190Y-133421523D01*
X159309190Y-133421523D02*
X159356809Y-133373904D01*
X159356809Y-133373904D02*
X159452047Y-133326285D01*
X159452047Y-133326285D02*
X159690142Y-133326285D01*
X159690142Y-133326285D02*
X159785380Y-133373904D01*
X159785380Y-133373904D02*
X159833000Y-133421523D01*
X159833000Y-133421523D02*
X159880619Y-133516761D01*
X159880619Y-133516761D02*
X159880619Y-133802475D01*
X159880619Y-133802475D02*
X159833000Y-133897713D01*
X159833000Y-133897713D02*
X159785380Y-133945332D01*
%TO.C,Q1*%
X131866261Y-122227857D02*
X131771023Y-122180238D01*
X131771023Y-122180238D02*
X131675785Y-122085000D01*
X131675785Y-122085000D02*
X131532928Y-121942142D01*
X131532928Y-121942142D02*
X131437690Y-121894523D01*
X131437690Y-121894523D02*
X131342452Y-121894523D01*
X131390071Y-122132619D02*
X131294833Y-122085000D01*
X131294833Y-122085000D02*
X131199595Y-121989761D01*
X131199595Y-121989761D02*
X131151976Y-121799285D01*
X131151976Y-121799285D02*
X131151976Y-121465952D01*
X131151976Y-121465952D02*
X131199595Y-121275476D01*
X131199595Y-121275476D02*
X131294833Y-121180238D01*
X131294833Y-121180238D02*
X131390071Y-121132619D01*
X131390071Y-121132619D02*
X131580547Y-121132619D01*
X131580547Y-121132619D02*
X131675785Y-121180238D01*
X131675785Y-121180238D02*
X131771023Y-121275476D01*
X131771023Y-121275476D02*
X131818642Y-121465952D01*
X131818642Y-121465952D02*
X131818642Y-121799285D01*
X131818642Y-121799285D02*
X131771023Y-121989761D01*
X131771023Y-121989761D02*
X131675785Y-122085000D01*
X131675785Y-122085000D02*
X131580547Y-122132619D01*
X131580547Y-122132619D02*
X131390071Y-122132619D01*
X132771023Y-122132619D02*
X132199595Y-122132619D01*
X132485309Y-122132619D02*
X132485309Y-121132619D01*
X132485309Y-121132619D02*
X132390071Y-121275476D01*
X132390071Y-121275476D02*
X132294833Y-121370714D01*
X132294833Y-121370714D02*
X132199595Y-121418333D01*
%TO.C,D3*%
X120927905Y-116706619D02*
X120927905Y-115706619D01*
X120927905Y-115706619D02*
X121166000Y-115706619D01*
X121166000Y-115706619D02*
X121308857Y-115754238D01*
X121308857Y-115754238D02*
X121404095Y-115849476D01*
X121404095Y-115849476D02*
X121451714Y-115944714D01*
X121451714Y-115944714D02*
X121499333Y-116135190D01*
X121499333Y-116135190D02*
X121499333Y-116278047D01*
X121499333Y-116278047D02*
X121451714Y-116468523D01*
X121451714Y-116468523D02*
X121404095Y-116563761D01*
X121404095Y-116563761D02*
X121308857Y-116659000D01*
X121308857Y-116659000D02*
X121166000Y-116706619D01*
X121166000Y-116706619D02*
X120927905Y-116706619D01*
X121832667Y-115706619D02*
X122451714Y-115706619D01*
X122451714Y-115706619D02*
X122118381Y-116087571D01*
X122118381Y-116087571D02*
X122261238Y-116087571D01*
X122261238Y-116087571D02*
X122356476Y-116135190D01*
X122356476Y-116135190D02*
X122404095Y-116182809D01*
X122404095Y-116182809D02*
X122451714Y-116278047D01*
X122451714Y-116278047D02*
X122451714Y-116516142D01*
X122451714Y-116516142D02*
X122404095Y-116611380D01*
X122404095Y-116611380D02*
X122356476Y-116659000D01*
X122356476Y-116659000D02*
X122261238Y-116706619D01*
X122261238Y-116706619D02*
X121975524Y-116706619D01*
X121975524Y-116706619D02*
X121880286Y-116659000D01*
X121880286Y-116659000D02*
X121832667Y-116611380D01*
X117594095Y-117026619D02*
X117594095Y-116026619D01*
X118165523Y-117026619D02*
X117736952Y-116455190D01*
X118165523Y-116026619D02*
X117594095Y-116598047D01*
%TO.C,CIn0*%
X120554857Y-33797380D02*
X120507238Y-33845000D01*
X120507238Y-33845000D02*
X120364381Y-33892619D01*
X120364381Y-33892619D02*
X120269143Y-33892619D01*
X120269143Y-33892619D02*
X120126286Y-33845000D01*
X120126286Y-33845000D02*
X120031048Y-33749761D01*
X120031048Y-33749761D02*
X119983429Y-33654523D01*
X119983429Y-33654523D02*
X119935810Y-33464047D01*
X119935810Y-33464047D02*
X119935810Y-33321190D01*
X119935810Y-33321190D02*
X119983429Y-33130714D01*
X119983429Y-33130714D02*
X120031048Y-33035476D01*
X120031048Y-33035476D02*
X120126286Y-32940238D01*
X120126286Y-32940238D02*
X120269143Y-32892619D01*
X120269143Y-32892619D02*
X120364381Y-32892619D01*
X120364381Y-32892619D02*
X120507238Y-32940238D01*
X120507238Y-32940238D02*
X120554857Y-32987857D01*
X120983429Y-33892619D02*
X120983429Y-32892619D01*
X121459619Y-33225952D02*
X121459619Y-33892619D01*
X121459619Y-33321190D02*
X121507238Y-33273571D01*
X121507238Y-33273571D02*
X121602476Y-33225952D01*
X121602476Y-33225952D02*
X121745333Y-33225952D01*
X121745333Y-33225952D02*
X121840571Y-33273571D01*
X121840571Y-33273571D02*
X121888190Y-33368809D01*
X121888190Y-33368809D02*
X121888190Y-33892619D01*
X122554857Y-32892619D02*
X122650095Y-32892619D01*
X122650095Y-32892619D02*
X122745333Y-32940238D01*
X122745333Y-32940238D02*
X122792952Y-32987857D01*
X122792952Y-32987857D02*
X122840571Y-33083095D01*
X122840571Y-33083095D02*
X122888190Y-33273571D01*
X122888190Y-33273571D02*
X122888190Y-33511666D01*
X122888190Y-33511666D02*
X122840571Y-33702142D01*
X122840571Y-33702142D02*
X122792952Y-33797380D01*
X122792952Y-33797380D02*
X122745333Y-33845000D01*
X122745333Y-33845000D02*
X122650095Y-33892619D01*
X122650095Y-33892619D02*
X122554857Y-33892619D01*
X122554857Y-33892619D02*
X122459619Y-33845000D01*
X122459619Y-33845000D02*
X122412000Y-33797380D01*
X122412000Y-33797380D02*
X122364381Y-33702142D01*
X122364381Y-33702142D02*
X122316762Y-33511666D01*
X122316762Y-33511666D02*
X122316762Y-33273571D01*
X122316762Y-33273571D02*
X122364381Y-33083095D01*
X122364381Y-33083095D02*
X122412000Y-32987857D01*
X122412000Y-32987857D02*
X122459619Y-32940238D01*
X122459619Y-32940238D02*
X122554857Y-32892619D01*
%TO.C,R16*%
X153535142Y-103544619D02*
X153201809Y-103068428D01*
X152963714Y-103544619D02*
X152963714Y-102544619D01*
X152963714Y-102544619D02*
X153344666Y-102544619D01*
X153344666Y-102544619D02*
X153439904Y-102592238D01*
X153439904Y-102592238D02*
X153487523Y-102639857D01*
X153487523Y-102639857D02*
X153535142Y-102735095D01*
X153535142Y-102735095D02*
X153535142Y-102877952D01*
X153535142Y-102877952D02*
X153487523Y-102973190D01*
X153487523Y-102973190D02*
X153439904Y-103020809D01*
X153439904Y-103020809D02*
X153344666Y-103068428D01*
X153344666Y-103068428D02*
X152963714Y-103068428D01*
X154487523Y-103544619D02*
X153916095Y-103544619D01*
X154201809Y-103544619D02*
X154201809Y-102544619D01*
X154201809Y-102544619D02*
X154106571Y-102687476D01*
X154106571Y-102687476D02*
X154011333Y-102782714D01*
X154011333Y-102782714D02*
X153916095Y-102830333D01*
X155344666Y-102544619D02*
X155154190Y-102544619D01*
X155154190Y-102544619D02*
X155058952Y-102592238D01*
X155058952Y-102592238D02*
X155011333Y-102639857D01*
X155011333Y-102639857D02*
X154916095Y-102782714D01*
X154916095Y-102782714D02*
X154868476Y-102973190D01*
X154868476Y-102973190D02*
X154868476Y-103354142D01*
X154868476Y-103354142D02*
X154916095Y-103449380D01*
X154916095Y-103449380D02*
X154963714Y-103497000D01*
X154963714Y-103497000D02*
X155058952Y-103544619D01*
X155058952Y-103544619D02*
X155249428Y-103544619D01*
X155249428Y-103544619D02*
X155344666Y-103497000D01*
X155344666Y-103497000D02*
X155392285Y-103449380D01*
X155392285Y-103449380D02*
X155439904Y-103354142D01*
X155439904Y-103354142D02*
X155439904Y-103116047D01*
X155439904Y-103116047D02*
X155392285Y-103020809D01*
X155392285Y-103020809D02*
X155344666Y-102973190D01*
X155344666Y-102973190D02*
X155249428Y-102925571D01*
X155249428Y-102925571D02*
X155058952Y-102925571D01*
X155058952Y-102925571D02*
X154963714Y-102973190D01*
X154963714Y-102973190D02*
X154916095Y-103020809D01*
X154916095Y-103020809D02*
X154868476Y-103116047D01*
D11*
%TO.C,D8*%
X172951309Y-106541047D02*
X172451309Y-106541047D01*
X172451309Y-106541047D02*
X172451309Y-106421999D01*
X172451309Y-106421999D02*
X172475119Y-106350571D01*
X172475119Y-106350571D02*
X172522738Y-106302952D01*
X172522738Y-106302952D02*
X172570357Y-106279142D01*
X172570357Y-106279142D02*
X172665595Y-106255333D01*
X172665595Y-106255333D02*
X172737023Y-106255333D01*
X172737023Y-106255333D02*
X172832261Y-106279142D01*
X172832261Y-106279142D02*
X172879880Y-106302952D01*
X172879880Y-106302952D02*
X172927500Y-106350571D01*
X172927500Y-106350571D02*
X172951309Y-106421999D01*
X172951309Y-106421999D02*
X172951309Y-106541047D01*
X172665595Y-105969618D02*
X172641785Y-106017237D01*
X172641785Y-106017237D02*
X172617976Y-106041047D01*
X172617976Y-106041047D02*
X172570357Y-106064856D01*
X172570357Y-106064856D02*
X172546547Y-106064856D01*
X172546547Y-106064856D02*
X172498928Y-106041047D01*
X172498928Y-106041047D02*
X172475119Y-106017237D01*
X172475119Y-106017237D02*
X172451309Y-105969618D01*
X172451309Y-105969618D02*
X172451309Y-105874380D01*
X172451309Y-105874380D02*
X172475119Y-105826761D01*
X172475119Y-105826761D02*
X172498928Y-105802952D01*
X172498928Y-105802952D02*
X172546547Y-105779142D01*
X172546547Y-105779142D02*
X172570357Y-105779142D01*
X172570357Y-105779142D02*
X172617976Y-105802952D01*
X172617976Y-105802952D02*
X172641785Y-105826761D01*
X172641785Y-105826761D02*
X172665595Y-105874380D01*
X172665595Y-105874380D02*
X172665595Y-105969618D01*
X172665595Y-105969618D02*
X172689404Y-106017237D01*
X172689404Y-106017237D02*
X172713214Y-106041047D01*
X172713214Y-106041047D02*
X172760833Y-106064856D01*
X172760833Y-106064856D02*
X172856071Y-106064856D01*
X172856071Y-106064856D02*
X172903690Y-106041047D01*
X172903690Y-106041047D02*
X172927500Y-106017237D01*
X172927500Y-106017237D02*
X172951309Y-105969618D01*
X172951309Y-105969618D02*
X172951309Y-105874380D01*
X172951309Y-105874380D02*
X172927500Y-105826761D01*
X172927500Y-105826761D02*
X172903690Y-105802952D01*
X172903690Y-105802952D02*
X172856071Y-105779142D01*
X172856071Y-105779142D02*
X172760833Y-105779142D01*
X172760833Y-105779142D02*
X172713214Y-105802952D01*
X172713214Y-105802952D02*
X172689404Y-105826761D01*
X172689404Y-105826761D02*
X172665595Y-105874380D01*
D10*
%TO.C,R18*%
X153836619Y-98178857D02*
X153360428Y-98512190D01*
X153836619Y-98750285D02*
X152836619Y-98750285D01*
X152836619Y-98750285D02*
X152836619Y-98369333D01*
X152836619Y-98369333D02*
X152884238Y-98274095D01*
X152884238Y-98274095D02*
X152931857Y-98226476D01*
X152931857Y-98226476D02*
X153027095Y-98178857D01*
X153027095Y-98178857D02*
X153169952Y-98178857D01*
X153169952Y-98178857D02*
X153265190Y-98226476D01*
X153265190Y-98226476D02*
X153312809Y-98274095D01*
X153312809Y-98274095D02*
X153360428Y-98369333D01*
X153360428Y-98369333D02*
X153360428Y-98750285D01*
X153836619Y-97226476D02*
X153836619Y-97797904D01*
X153836619Y-97512190D02*
X152836619Y-97512190D01*
X152836619Y-97512190D02*
X152979476Y-97607428D01*
X152979476Y-97607428D02*
X153074714Y-97702666D01*
X153074714Y-97702666D02*
X153122333Y-97797904D01*
X153265190Y-96655047D02*
X153217571Y-96750285D01*
X153217571Y-96750285D02*
X153169952Y-96797904D01*
X153169952Y-96797904D02*
X153074714Y-96845523D01*
X153074714Y-96845523D02*
X153027095Y-96845523D01*
X153027095Y-96845523D02*
X152931857Y-96797904D01*
X152931857Y-96797904D02*
X152884238Y-96750285D01*
X152884238Y-96750285D02*
X152836619Y-96655047D01*
X152836619Y-96655047D02*
X152836619Y-96464571D01*
X152836619Y-96464571D02*
X152884238Y-96369333D01*
X152884238Y-96369333D02*
X152931857Y-96321714D01*
X152931857Y-96321714D02*
X153027095Y-96274095D01*
X153027095Y-96274095D02*
X153074714Y-96274095D01*
X153074714Y-96274095D02*
X153169952Y-96321714D01*
X153169952Y-96321714D02*
X153217571Y-96369333D01*
X153217571Y-96369333D02*
X153265190Y-96464571D01*
X153265190Y-96464571D02*
X153265190Y-96655047D01*
X153265190Y-96655047D02*
X153312809Y-96750285D01*
X153312809Y-96750285D02*
X153360428Y-96797904D01*
X153360428Y-96797904D02*
X153455666Y-96845523D01*
X153455666Y-96845523D02*
X153646142Y-96845523D01*
X153646142Y-96845523D02*
X153741380Y-96797904D01*
X153741380Y-96797904D02*
X153789000Y-96750285D01*
X153789000Y-96750285D02*
X153836619Y-96655047D01*
X153836619Y-96655047D02*
X153836619Y-96464571D01*
X153836619Y-96464571D02*
X153789000Y-96369333D01*
X153789000Y-96369333D02*
X153741380Y-96321714D01*
X153741380Y-96321714D02*
X153646142Y-96274095D01*
X153646142Y-96274095D02*
X153455666Y-96274095D01*
X153455666Y-96274095D02*
X153360428Y-96321714D01*
X153360428Y-96321714D02*
X153312809Y-96369333D01*
X153312809Y-96369333D02*
X153265190Y-96464571D01*
%TO.C,U3*%
X116800095Y-17782619D02*
X116800095Y-18592142D01*
X116800095Y-18592142D02*
X116847714Y-18687380D01*
X116847714Y-18687380D02*
X116895333Y-18735000D01*
X116895333Y-18735000D02*
X116990571Y-18782619D01*
X116990571Y-18782619D02*
X117181047Y-18782619D01*
X117181047Y-18782619D02*
X117276285Y-18735000D01*
X117276285Y-18735000D02*
X117323904Y-18687380D01*
X117323904Y-18687380D02*
X117371523Y-18592142D01*
X117371523Y-18592142D02*
X117371523Y-17782619D01*
X117752476Y-17782619D02*
X118371523Y-17782619D01*
X118371523Y-17782619D02*
X118038190Y-18163571D01*
X118038190Y-18163571D02*
X118181047Y-18163571D01*
X118181047Y-18163571D02*
X118276285Y-18211190D01*
X118276285Y-18211190D02*
X118323904Y-18258809D01*
X118323904Y-18258809D02*
X118371523Y-18354047D01*
X118371523Y-18354047D02*
X118371523Y-18592142D01*
X118371523Y-18592142D02*
X118323904Y-18687380D01*
X118323904Y-18687380D02*
X118276285Y-18735000D01*
X118276285Y-18735000D02*
X118181047Y-18782619D01*
X118181047Y-18782619D02*
X117895333Y-18782619D01*
X117895333Y-18782619D02*
X117800095Y-18735000D01*
X117800095Y-18735000D02*
X117752476Y-18687380D01*
%TO.C,CIn4*%
X99496357Y-25831130D02*
X99448738Y-25878750D01*
X99448738Y-25878750D02*
X99305881Y-25926369D01*
X99305881Y-25926369D02*
X99210643Y-25926369D01*
X99210643Y-25926369D02*
X99067786Y-25878750D01*
X99067786Y-25878750D02*
X98972548Y-25783511D01*
X98972548Y-25783511D02*
X98924929Y-25688273D01*
X98924929Y-25688273D02*
X98877310Y-25497797D01*
X98877310Y-25497797D02*
X98877310Y-25354940D01*
X98877310Y-25354940D02*
X98924929Y-25164464D01*
X98924929Y-25164464D02*
X98972548Y-25069226D01*
X98972548Y-25069226D02*
X99067786Y-24973988D01*
X99067786Y-24973988D02*
X99210643Y-24926369D01*
X99210643Y-24926369D02*
X99305881Y-24926369D01*
X99305881Y-24926369D02*
X99448738Y-24973988D01*
X99448738Y-24973988D02*
X99496357Y-25021607D01*
X99924929Y-25926369D02*
X99924929Y-24926369D01*
X100401119Y-25259702D02*
X100401119Y-25926369D01*
X100401119Y-25354940D02*
X100448738Y-25307321D01*
X100448738Y-25307321D02*
X100543976Y-25259702D01*
X100543976Y-25259702D02*
X100686833Y-25259702D01*
X100686833Y-25259702D02*
X100782071Y-25307321D01*
X100782071Y-25307321D02*
X100829690Y-25402559D01*
X100829690Y-25402559D02*
X100829690Y-25926369D01*
X101734452Y-25259702D02*
X101734452Y-25926369D01*
X101496357Y-24878750D02*
X101258262Y-25593035D01*
X101258262Y-25593035D02*
X101877309Y-25593035D01*
%TO.C,JP1*%
X77012619Y-19013333D02*
X77726904Y-19013333D01*
X77726904Y-19013333D02*
X77869761Y-19060952D01*
X77869761Y-19060952D02*
X77965000Y-19156190D01*
X77965000Y-19156190D02*
X78012619Y-19299047D01*
X78012619Y-19299047D02*
X78012619Y-19394285D01*
X78012619Y-18537142D02*
X77012619Y-18537142D01*
X77012619Y-18537142D02*
X77012619Y-18156190D01*
X77012619Y-18156190D02*
X77060238Y-18060952D01*
X77060238Y-18060952D02*
X77107857Y-18013333D01*
X77107857Y-18013333D02*
X77203095Y-17965714D01*
X77203095Y-17965714D02*
X77345952Y-17965714D01*
X77345952Y-17965714D02*
X77441190Y-18013333D01*
X77441190Y-18013333D02*
X77488809Y-18060952D01*
X77488809Y-18060952D02*
X77536428Y-18156190D01*
X77536428Y-18156190D02*
X77536428Y-18537142D01*
X78012619Y-17013333D02*
X78012619Y-17584761D01*
X78012619Y-17299047D02*
X77012619Y-17299047D01*
X77012619Y-17299047D02*
X77155476Y-17394285D01*
X77155476Y-17394285D02*
X77250714Y-17489523D01*
X77250714Y-17489523D02*
X77298333Y-17584761D01*
%TO.C,R11*%
X141470142Y-104221619D02*
X141136809Y-103745428D01*
X140898714Y-104221619D02*
X140898714Y-103221619D01*
X140898714Y-103221619D02*
X141279666Y-103221619D01*
X141279666Y-103221619D02*
X141374904Y-103269238D01*
X141374904Y-103269238D02*
X141422523Y-103316857D01*
X141422523Y-103316857D02*
X141470142Y-103412095D01*
X141470142Y-103412095D02*
X141470142Y-103554952D01*
X141470142Y-103554952D02*
X141422523Y-103650190D01*
X141422523Y-103650190D02*
X141374904Y-103697809D01*
X141374904Y-103697809D02*
X141279666Y-103745428D01*
X141279666Y-103745428D02*
X140898714Y-103745428D01*
X142422523Y-104221619D02*
X141851095Y-104221619D01*
X142136809Y-104221619D02*
X142136809Y-103221619D01*
X142136809Y-103221619D02*
X142041571Y-103364476D01*
X142041571Y-103364476D02*
X141946333Y-103459714D01*
X141946333Y-103459714D02*
X141851095Y-103507333D01*
X143374904Y-104221619D02*
X142803476Y-104221619D01*
X143089190Y-104221619D02*
X143089190Y-103221619D01*
X143089190Y-103221619D02*
X142993952Y-103364476D01*
X142993952Y-103364476D02*
X142898714Y-103459714D01*
X142898714Y-103459714D02*
X142803476Y-103507333D01*
%TO.C,R9*%
X141895533Y-100767219D02*
X141562200Y-100291028D01*
X141324105Y-100767219D02*
X141324105Y-99767219D01*
X141324105Y-99767219D02*
X141705057Y-99767219D01*
X141705057Y-99767219D02*
X141800295Y-99814838D01*
X141800295Y-99814838D02*
X141847914Y-99862457D01*
X141847914Y-99862457D02*
X141895533Y-99957695D01*
X141895533Y-99957695D02*
X141895533Y-100100552D01*
X141895533Y-100100552D02*
X141847914Y-100195790D01*
X141847914Y-100195790D02*
X141800295Y-100243409D01*
X141800295Y-100243409D02*
X141705057Y-100291028D01*
X141705057Y-100291028D02*
X141324105Y-100291028D01*
X142371724Y-100767219D02*
X142562200Y-100767219D01*
X142562200Y-100767219D02*
X142657438Y-100719600D01*
X142657438Y-100719600D02*
X142705057Y-100671980D01*
X142705057Y-100671980D02*
X142800295Y-100529123D01*
X142800295Y-100529123D02*
X142847914Y-100338647D01*
X142847914Y-100338647D02*
X142847914Y-99957695D01*
X142847914Y-99957695D02*
X142800295Y-99862457D01*
X142800295Y-99862457D02*
X142752676Y-99814838D01*
X142752676Y-99814838D02*
X142657438Y-99767219D01*
X142657438Y-99767219D02*
X142466962Y-99767219D01*
X142466962Y-99767219D02*
X142371724Y-99814838D01*
X142371724Y-99814838D02*
X142324105Y-99862457D01*
X142324105Y-99862457D02*
X142276486Y-99957695D01*
X142276486Y-99957695D02*
X142276486Y-100195790D01*
X142276486Y-100195790D02*
X142324105Y-100291028D01*
X142324105Y-100291028D02*
X142371724Y-100338647D01*
X142371724Y-100338647D02*
X142466962Y-100386266D01*
X142466962Y-100386266D02*
X142657438Y-100386266D01*
X142657438Y-100386266D02*
X142752676Y-100338647D01*
X142752676Y-100338647D02*
X142800295Y-100291028D01*
X142800295Y-100291028D02*
X142847914Y-100195790D01*
%TO.C,R17*%
X165126642Y-113704619D02*
X164793309Y-113228428D01*
X164555214Y-113704619D02*
X164555214Y-112704619D01*
X164555214Y-112704619D02*
X164936166Y-112704619D01*
X164936166Y-112704619D02*
X165031404Y-112752238D01*
X165031404Y-112752238D02*
X165079023Y-112799857D01*
X165079023Y-112799857D02*
X165126642Y-112895095D01*
X165126642Y-112895095D02*
X165126642Y-113037952D01*
X165126642Y-113037952D02*
X165079023Y-113133190D01*
X165079023Y-113133190D02*
X165031404Y-113180809D01*
X165031404Y-113180809D02*
X164936166Y-113228428D01*
X164936166Y-113228428D02*
X164555214Y-113228428D01*
X166079023Y-113704619D02*
X165507595Y-113704619D01*
X165793309Y-113704619D02*
X165793309Y-112704619D01*
X165793309Y-112704619D02*
X165698071Y-112847476D01*
X165698071Y-112847476D02*
X165602833Y-112942714D01*
X165602833Y-112942714D02*
X165507595Y-112990333D01*
X166412357Y-112704619D02*
X167079023Y-112704619D01*
X167079023Y-112704619D02*
X166650452Y-113704619D01*
%TO.C,C4*%
X164933333Y-109235380D02*
X164885714Y-109283000D01*
X164885714Y-109283000D02*
X164742857Y-109330619D01*
X164742857Y-109330619D02*
X164647619Y-109330619D01*
X164647619Y-109330619D02*
X164504762Y-109283000D01*
X164504762Y-109283000D02*
X164409524Y-109187761D01*
X164409524Y-109187761D02*
X164361905Y-109092523D01*
X164361905Y-109092523D02*
X164314286Y-108902047D01*
X164314286Y-108902047D02*
X164314286Y-108759190D01*
X164314286Y-108759190D02*
X164361905Y-108568714D01*
X164361905Y-108568714D02*
X164409524Y-108473476D01*
X164409524Y-108473476D02*
X164504762Y-108378238D01*
X164504762Y-108378238D02*
X164647619Y-108330619D01*
X164647619Y-108330619D02*
X164742857Y-108330619D01*
X164742857Y-108330619D02*
X164885714Y-108378238D01*
X164885714Y-108378238D02*
X164933333Y-108425857D01*
X165790476Y-108663952D02*
X165790476Y-109330619D01*
X165552381Y-108283000D02*
X165314286Y-108997285D01*
X165314286Y-108997285D02*
X165933333Y-108997285D01*
%TO.C,R12*%
X137025142Y-78652619D02*
X136691809Y-78176428D01*
X136453714Y-78652619D02*
X136453714Y-77652619D01*
X136453714Y-77652619D02*
X136834666Y-77652619D01*
X136834666Y-77652619D02*
X136929904Y-77700238D01*
X136929904Y-77700238D02*
X136977523Y-77747857D01*
X136977523Y-77747857D02*
X137025142Y-77843095D01*
X137025142Y-77843095D02*
X137025142Y-77985952D01*
X137025142Y-77985952D02*
X136977523Y-78081190D01*
X136977523Y-78081190D02*
X136929904Y-78128809D01*
X136929904Y-78128809D02*
X136834666Y-78176428D01*
X136834666Y-78176428D02*
X136453714Y-78176428D01*
X137977523Y-78652619D02*
X137406095Y-78652619D01*
X137691809Y-78652619D02*
X137691809Y-77652619D01*
X137691809Y-77652619D02*
X137596571Y-77795476D01*
X137596571Y-77795476D02*
X137501333Y-77890714D01*
X137501333Y-77890714D02*
X137406095Y-77938333D01*
X138358476Y-77747857D02*
X138406095Y-77700238D01*
X138406095Y-77700238D02*
X138501333Y-77652619D01*
X138501333Y-77652619D02*
X138739428Y-77652619D01*
X138739428Y-77652619D02*
X138834666Y-77700238D01*
X138834666Y-77700238D02*
X138882285Y-77747857D01*
X138882285Y-77747857D02*
X138929904Y-77843095D01*
X138929904Y-77843095D02*
X138929904Y-77938333D01*
X138929904Y-77938333D02*
X138882285Y-78081190D01*
X138882285Y-78081190D02*
X138310857Y-78652619D01*
X138310857Y-78652619D02*
X138929904Y-78652619D01*
%TO.C,J2*%
X129596166Y-140376619D02*
X129596166Y-141090904D01*
X129596166Y-141090904D02*
X129548547Y-141233761D01*
X129548547Y-141233761D02*
X129453309Y-141329000D01*
X129453309Y-141329000D02*
X129310452Y-141376619D01*
X129310452Y-141376619D02*
X129215214Y-141376619D01*
X130024738Y-140471857D02*
X130072357Y-140424238D01*
X130072357Y-140424238D02*
X130167595Y-140376619D01*
X130167595Y-140376619D02*
X130405690Y-140376619D01*
X130405690Y-140376619D02*
X130500928Y-140424238D01*
X130500928Y-140424238D02*
X130548547Y-140471857D01*
X130548547Y-140471857D02*
X130596166Y-140567095D01*
X130596166Y-140567095D02*
X130596166Y-140662333D01*
X130596166Y-140662333D02*
X130548547Y-140805190D01*
X130548547Y-140805190D02*
X129977119Y-141376619D01*
X129977119Y-141376619D02*
X130596166Y-141376619D01*
%TO.C,*%
%TO.C,R13*%
X137025142Y-75942619D02*
X136691809Y-75466428D01*
X136453714Y-75942619D02*
X136453714Y-74942619D01*
X136453714Y-74942619D02*
X136834666Y-74942619D01*
X136834666Y-74942619D02*
X136929904Y-74990238D01*
X136929904Y-74990238D02*
X136977523Y-75037857D01*
X136977523Y-75037857D02*
X137025142Y-75133095D01*
X137025142Y-75133095D02*
X137025142Y-75275952D01*
X137025142Y-75275952D02*
X136977523Y-75371190D01*
X136977523Y-75371190D02*
X136929904Y-75418809D01*
X136929904Y-75418809D02*
X136834666Y-75466428D01*
X136834666Y-75466428D02*
X136453714Y-75466428D01*
X137977523Y-75942619D02*
X137406095Y-75942619D01*
X137691809Y-75942619D02*
X137691809Y-74942619D01*
X137691809Y-74942619D02*
X137596571Y-75085476D01*
X137596571Y-75085476D02*
X137501333Y-75180714D01*
X137501333Y-75180714D02*
X137406095Y-75228333D01*
X138310857Y-74942619D02*
X138929904Y-74942619D01*
X138929904Y-74942619D02*
X138596571Y-75323571D01*
X138596571Y-75323571D02*
X138739428Y-75323571D01*
X138739428Y-75323571D02*
X138834666Y-75371190D01*
X138834666Y-75371190D02*
X138882285Y-75418809D01*
X138882285Y-75418809D02*
X138929904Y-75514047D01*
X138929904Y-75514047D02*
X138929904Y-75752142D01*
X138929904Y-75752142D02*
X138882285Y-75847380D01*
X138882285Y-75847380D02*
X138834666Y-75895000D01*
X138834666Y-75895000D02*
X138739428Y-75942619D01*
X138739428Y-75942619D02*
X138453714Y-75942619D01*
X138453714Y-75942619D02*
X138358476Y-75895000D01*
X138358476Y-75895000D02*
X138310857Y-75847380D01*
D11*
%TO.C,J5*%
X158950066Y-92477419D02*
X158950066Y-93191704D01*
X158950066Y-93191704D02*
X158902447Y-93334561D01*
X158902447Y-93334561D02*
X158807209Y-93429800D01*
X158807209Y-93429800D02*
X158664352Y-93477419D01*
X158664352Y-93477419D02*
X158569114Y-93477419D01*
X159902447Y-92477419D02*
X159426257Y-92477419D01*
X159426257Y-92477419D02*
X159378638Y-92953609D01*
X159378638Y-92953609D02*
X159426257Y-92905990D01*
X159426257Y-92905990D02*
X159521495Y-92858371D01*
X159521495Y-92858371D02*
X159759590Y-92858371D01*
X159759590Y-92858371D02*
X159854828Y-92905990D01*
X159854828Y-92905990D02*
X159902447Y-92953609D01*
X159902447Y-92953609D02*
X159950066Y-93048847D01*
X159950066Y-93048847D02*
X159950066Y-93286942D01*
X159950066Y-93286942D02*
X159902447Y-93382180D01*
X159902447Y-93382180D02*
X159854828Y-93429800D01*
X159854828Y-93429800D02*
X159759590Y-93477419D01*
X159759590Y-93477419D02*
X159521495Y-93477419D01*
X159521495Y-93477419D02*
X159426257Y-93429800D01*
X159426257Y-93429800D02*
X159378638Y-93382180D01*
D10*
%TO.C,R21*%
X123055142Y-109090619D02*
X122721809Y-108614428D01*
X122483714Y-109090619D02*
X122483714Y-108090619D01*
X122483714Y-108090619D02*
X122864666Y-108090619D01*
X122864666Y-108090619D02*
X122959904Y-108138238D01*
X122959904Y-108138238D02*
X123007523Y-108185857D01*
X123007523Y-108185857D02*
X123055142Y-108281095D01*
X123055142Y-108281095D02*
X123055142Y-108423952D01*
X123055142Y-108423952D02*
X123007523Y-108519190D01*
X123007523Y-108519190D02*
X122959904Y-108566809D01*
X122959904Y-108566809D02*
X122864666Y-108614428D01*
X122864666Y-108614428D02*
X122483714Y-108614428D01*
X123436095Y-108185857D02*
X123483714Y-108138238D01*
X123483714Y-108138238D02*
X123578952Y-108090619D01*
X123578952Y-108090619D02*
X123817047Y-108090619D01*
X123817047Y-108090619D02*
X123912285Y-108138238D01*
X123912285Y-108138238D02*
X123959904Y-108185857D01*
X123959904Y-108185857D02*
X124007523Y-108281095D01*
X124007523Y-108281095D02*
X124007523Y-108376333D01*
X124007523Y-108376333D02*
X123959904Y-108519190D01*
X123959904Y-108519190D02*
X123388476Y-109090619D01*
X123388476Y-109090619D02*
X124007523Y-109090619D01*
X124959904Y-109090619D02*
X124388476Y-109090619D01*
X124674190Y-109090619D02*
X124674190Y-108090619D01*
X124674190Y-108090619D02*
X124578952Y-108233476D01*
X124578952Y-108233476D02*
X124483714Y-108328714D01*
X124483714Y-108328714D02*
X124388476Y-108376333D01*
%TO.C,SW4*%
X104974167Y-147784000D02*
X105117024Y-147831619D01*
X105117024Y-147831619D02*
X105355119Y-147831619D01*
X105355119Y-147831619D02*
X105450357Y-147784000D01*
X105450357Y-147784000D02*
X105497976Y-147736380D01*
X105497976Y-147736380D02*
X105545595Y-147641142D01*
X105545595Y-147641142D02*
X105545595Y-147545904D01*
X105545595Y-147545904D02*
X105497976Y-147450666D01*
X105497976Y-147450666D02*
X105450357Y-147403047D01*
X105450357Y-147403047D02*
X105355119Y-147355428D01*
X105355119Y-147355428D02*
X105164643Y-147307809D01*
X105164643Y-147307809D02*
X105069405Y-147260190D01*
X105069405Y-147260190D02*
X105021786Y-147212571D01*
X105021786Y-147212571D02*
X104974167Y-147117333D01*
X104974167Y-147117333D02*
X104974167Y-147022095D01*
X104974167Y-147022095D02*
X105021786Y-146926857D01*
X105021786Y-146926857D02*
X105069405Y-146879238D01*
X105069405Y-146879238D02*
X105164643Y-146831619D01*
X105164643Y-146831619D02*
X105402738Y-146831619D01*
X105402738Y-146831619D02*
X105545595Y-146879238D01*
X105878929Y-146831619D02*
X106117024Y-147831619D01*
X106117024Y-147831619D02*
X106307500Y-147117333D01*
X106307500Y-147117333D02*
X106497976Y-147831619D01*
X106497976Y-147831619D02*
X106736072Y-146831619D01*
X107545595Y-147164952D02*
X107545595Y-147831619D01*
X107307500Y-146784000D02*
X107069405Y-147498285D01*
X107069405Y-147498285D02*
X107688452Y-147498285D01*
%TO.C,J9*%
X121214166Y-148362619D02*
X121214166Y-149076904D01*
X121214166Y-149076904D02*
X121166547Y-149219761D01*
X121166547Y-149219761D02*
X121071309Y-149315000D01*
X121071309Y-149315000D02*
X120928452Y-149362619D01*
X120928452Y-149362619D02*
X120833214Y-149362619D01*
X121737976Y-149362619D02*
X121928452Y-149362619D01*
X121928452Y-149362619D02*
X122023690Y-149315000D01*
X122023690Y-149315000D02*
X122071309Y-149267380D01*
X122071309Y-149267380D02*
X122166547Y-149124523D01*
X122166547Y-149124523D02*
X122214166Y-148934047D01*
X122214166Y-148934047D02*
X122214166Y-148553095D01*
X122214166Y-148553095D02*
X122166547Y-148457857D01*
X122166547Y-148457857D02*
X122118928Y-148410238D01*
X122118928Y-148410238D02*
X122023690Y-148362619D01*
X122023690Y-148362619D02*
X121833214Y-148362619D01*
X121833214Y-148362619D02*
X121737976Y-148410238D01*
X121737976Y-148410238D02*
X121690357Y-148457857D01*
X121690357Y-148457857D02*
X121642738Y-148553095D01*
X121642738Y-148553095D02*
X121642738Y-148791190D01*
X121642738Y-148791190D02*
X121690357Y-148886428D01*
X121690357Y-148886428D02*
X121737976Y-148934047D01*
X121737976Y-148934047D02*
X121833214Y-148981666D01*
X121833214Y-148981666D02*
X122023690Y-148981666D01*
X122023690Y-148981666D02*
X122118928Y-148934047D01*
X122118928Y-148934047D02*
X122166547Y-148886428D01*
X122166547Y-148886428D02*
X122214166Y-148791190D01*
%TO.C,R20*%
X100703142Y-110020619D02*
X100369809Y-109544428D01*
X100131714Y-110020619D02*
X100131714Y-109020619D01*
X100131714Y-109020619D02*
X100512666Y-109020619D01*
X100512666Y-109020619D02*
X100607904Y-109068238D01*
X100607904Y-109068238D02*
X100655523Y-109115857D01*
X100655523Y-109115857D02*
X100703142Y-109211095D01*
X100703142Y-109211095D02*
X100703142Y-109353952D01*
X100703142Y-109353952D02*
X100655523Y-109449190D01*
X100655523Y-109449190D02*
X100607904Y-109496809D01*
X100607904Y-109496809D02*
X100512666Y-109544428D01*
X100512666Y-109544428D02*
X100131714Y-109544428D01*
X101084095Y-109115857D02*
X101131714Y-109068238D01*
X101131714Y-109068238D02*
X101226952Y-109020619D01*
X101226952Y-109020619D02*
X101465047Y-109020619D01*
X101465047Y-109020619D02*
X101560285Y-109068238D01*
X101560285Y-109068238D02*
X101607904Y-109115857D01*
X101607904Y-109115857D02*
X101655523Y-109211095D01*
X101655523Y-109211095D02*
X101655523Y-109306333D01*
X101655523Y-109306333D02*
X101607904Y-109449190D01*
X101607904Y-109449190D02*
X101036476Y-110020619D01*
X101036476Y-110020619D02*
X101655523Y-110020619D01*
X102274571Y-109020619D02*
X102369809Y-109020619D01*
X102369809Y-109020619D02*
X102465047Y-109068238D01*
X102465047Y-109068238D02*
X102512666Y-109115857D01*
X102512666Y-109115857D02*
X102560285Y-109211095D01*
X102560285Y-109211095D02*
X102607904Y-109401571D01*
X102607904Y-109401571D02*
X102607904Y-109639666D01*
X102607904Y-109639666D02*
X102560285Y-109830142D01*
X102560285Y-109830142D02*
X102512666Y-109925380D01*
X102512666Y-109925380D02*
X102465047Y-109973000D01*
X102465047Y-109973000D02*
X102369809Y-110020619D01*
X102369809Y-110020619D02*
X102274571Y-110020619D01*
X102274571Y-110020619D02*
X102179333Y-109973000D01*
X102179333Y-109973000D02*
X102131714Y-109925380D01*
X102131714Y-109925380D02*
X102084095Y-109830142D01*
X102084095Y-109830142D02*
X102036476Y-109639666D01*
X102036476Y-109639666D02*
X102036476Y-109401571D01*
X102036476Y-109401571D02*
X102084095Y-109211095D01*
X102084095Y-109211095D02*
X102131714Y-109115857D01*
X102131714Y-109115857D02*
X102179333Y-109068238D01*
X102179333Y-109068238D02*
X102274571Y-109020619D01*
%TO.C,SW3*%
X99640167Y-147779000D02*
X99783024Y-147826619D01*
X99783024Y-147826619D02*
X100021119Y-147826619D01*
X100021119Y-147826619D02*
X100116357Y-147779000D01*
X100116357Y-147779000D02*
X100163976Y-147731380D01*
X100163976Y-147731380D02*
X100211595Y-147636142D01*
X100211595Y-147636142D02*
X100211595Y-147540904D01*
X100211595Y-147540904D02*
X100163976Y-147445666D01*
X100163976Y-147445666D02*
X100116357Y-147398047D01*
X100116357Y-147398047D02*
X100021119Y-147350428D01*
X100021119Y-147350428D02*
X99830643Y-147302809D01*
X99830643Y-147302809D02*
X99735405Y-147255190D01*
X99735405Y-147255190D02*
X99687786Y-147207571D01*
X99687786Y-147207571D02*
X99640167Y-147112333D01*
X99640167Y-147112333D02*
X99640167Y-147017095D01*
X99640167Y-147017095D02*
X99687786Y-146921857D01*
X99687786Y-146921857D02*
X99735405Y-146874238D01*
X99735405Y-146874238D02*
X99830643Y-146826619D01*
X99830643Y-146826619D02*
X100068738Y-146826619D01*
X100068738Y-146826619D02*
X100211595Y-146874238D01*
X100544929Y-146826619D02*
X100783024Y-147826619D01*
X100783024Y-147826619D02*
X100973500Y-147112333D01*
X100973500Y-147112333D02*
X101163976Y-147826619D01*
X101163976Y-147826619D02*
X101402072Y-146826619D01*
X101687786Y-146826619D02*
X102306833Y-146826619D01*
X102306833Y-146826619D02*
X101973500Y-147207571D01*
X101973500Y-147207571D02*
X102116357Y-147207571D01*
X102116357Y-147207571D02*
X102211595Y-147255190D01*
X102211595Y-147255190D02*
X102259214Y-147302809D01*
X102259214Y-147302809D02*
X102306833Y-147398047D01*
X102306833Y-147398047D02*
X102306833Y-147636142D01*
X102306833Y-147636142D02*
X102259214Y-147731380D01*
X102259214Y-147731380D02*
X102211595Y-147779000D01*
X102211595Y-147779000D02*
X102116357Y-147826619D01*
X102116357Y-147826619D02*
X101830643Y-147826619D01*
X101830643Y-147826619D02*
X101735405Y-147779000D01*
X101735405Y-147779000D02*
X101687786Y-147731380D01*
D12*
%TO.C,SW2*%
X97477500Y-146369000D02*
X96147500Y-146369000D01*
X97477500Y-145039000D02*
X97477500Y-146369000D01*
X97477500Y-143769000D02*
X97477500Y-141169000D01*
X97477500Y-143769000D02*
X94817500Y-143769000D01*
X97477500Y-141169000D02*
X94817500Y-141169000D01*
X94817500Y-143769000D02*
X94817500Y-141169000D01*
%TO.C,J3*%
X44850000Y-98560000D02*
X44850000Y-99560000D01*
X44850000Y-99560000D02*
X45850000Y-99060000D01*
X45850000Y-99060000D02*
X44850000Y-98560000D01*
X46240000Y-93850000D02*
X55360000Y-93850000D01*
X46240000Y-102090000D02*
X47550000Y-102090000D01*
X46240000Y-114430000D02*
X46240000Y-93850000D01*
X47550000Y-95150000D02*
X54050000Y-95150000D01*
X47550000Y-102090000D02*
X47550000Y-95150000D01*
X47550000Y-106190000D02*
X46240000Y-106190000D01*
X47550000Y-106190000D02*
X47550000Y-106190000D01*
X47550000Y-113130000D02*
X47550000Y-106190000D01*
X54050000Y-95150000D02*
X54050000Y-113130000D01*
X54050000Y-113130000D02*
X47550000Y-113130000D01*
X55360000Y-93850000D02*
X55360000Y-114430000D01*
X55360000Y-114430000D02*
X46240000Y-114430000D01*
%TO.C,R7*%
X97306000Y-101600000D02*
X98076000Y-101600000D01*
X98076000Y-100230000D02*
X98076000Y-102970000D01*
X98076000Y-102970000D02*
X104616000Y-102970000D01*
X104616000Y-100230000D02*
X98076000Y-100230000D01*
X104616000Y-102970000D02*
X104616000Y-100230000D01*
X105386000Y-101600000D02*
X104616000Y-101600000D01*
%TO.C,J1*%
X51503500Y-140014000D02*
X50173500Y-140014000D01*
X51503500Y-138684000D02*
X51503500Y-140014000D01*
X51503500Y-137414000D02*
X51503500Y-129734000D01*
X51503500Y-137414000D02*
X48843500Y-137414000D01*
X51503500Y-129734000D02*
X48843500Y-129734000D01*
X48843500Y-137414000D02*
X48843500Y-129734000D01*
%TO.C,R10*%
X172177064Y-114702000D02*
X170722936Y-114702000D01*
X172177064Y-112882000D02*
X170722936Y-112882000D01*
%TO.C,C5*%
X153916748Y-107215000D02*
X154439252Y-107215000D01*
X153916748Y-108685000D02*
X154439252Y-108685000D01*
%TO.C,J6*%
X178452000Y-109358000D02*
X175952000Y-109358000D01*
X175952000Y-109358000D02*
X175952000Y-111858000D01*
X180272000Y-109658000D02*
X176252000Y-109658000D01*
X178562000Y-109658000D02*
X178562000Y-110158000D01*
X177752000Y-109658000D02*
X177752000Y-110658000D01*
X176252000Y-109658000D02*
X176252000Y-117378000D01*
X179772000Y-110158000D02*
X179772000Y-116878000D01*
X178562000Y-110158000D02*
X179772000Y-110158000D01*
X177752000Y-110658000D02*
X176252000Y-110658000D01*
X177752000Y-116378000D02*
X176252000Y-116378000D01*
X179772000Y-116878000D02*
X178562000Y-116878000D01*
X178562000Y-116878000D02*
X178562000Y-117378000D01*
X180272000Y-117378000D02*
X180272000Y-109658000D01*
X177752000Y-117378000D02*
X177752000Y-116378000D01*
X176252000Y-117378000D02*
X180272000Y-117378000D01*
%TO.C,R6*%
X160670000Y-130714000D02*
X156830000Y-130714000D01*
X160670000Y-128874000D02*
X156830000Y-128874000D01*
D13*
%TO.C,U2*%
X147074500Y-116332000D02*
X145169500Y-116332000D01*
X141232500Y-116332000D02*
X143137500Y-116332000D01*
X141232500Y-116332000D02*
X141232500Y-126492000D01*
X147074500Y-126492000D02*
X147074500Y-116332000D01*
X147074500Y-126492000D02*
X141232500Y-126492000D01*
X143137500Y-116332000D02*
G75*
G03*
X145169500Y-116332000I1016000J0D01*
G01*
%TO.C,IC1*%
X168741000Y-95175200D02*
X166836000Y-95175200D01*
X162899000Y-95175200D02*
X164804000Y-95175200D01*
X162899000Y-95175200D02*
X162899000Y-105335200D01*
X168741000Y-105335200D02*
X168741000Y-95175200D01*
X168741000Y-105335200D02*
X162899000Y-105335200D01*
X164804000Y-95175200D02*
G75*
G03*
X166836000Y-95175200I1016000J0D01*
G01*
D12*
%TO.C,J8*%
X145690000Y-137932000D02*
X145690000Y-138932000D01*
X145690000Y-137932000D02*
X146690000Y-137932000D01*
X145990000Y-146872000D02*
X145990000Y-138232000D01*
X146000000Y-138232000D02*
X161350000Y-138232000D01*
X146970000Y-139802000D02*
X146970000Y-145102000D01*
X146970000Y-145102000D02*
X147720000Y-145102000D01*
X152000000Y-145102000D02*
X155320000Y-145102000D01*
X159640000Y-145102000D02*
X160390000Y-145102000D01*
X160390000Y-139802000D02*
X146970000Y-139802000D01*
X160390000Y-145102000D02*
X160390000Y-139802000D01*
X161350000Y-138232000D02*
X161350000Y-146872000D01*
X161350000Y-146872000D02*
X145990000Y-146872000D01*
X147720000Y-145102000D02*
G75*
G03*
X152000696Y-145101291I2140000J2100000D01*
G01*
X155320000Y-145102000D02*
G75*
G03*
X159639492Y-145102522I2160000J2100000D01*
G01*
%TO.C,SW5*%
X112971500Y-146369000D02*
X111641500Y-146369000D01*
X112971500Y-145039000D02*
X112971500Y-146369000D01*
X112971500Y-143769000D02*
X112971500Y-141169000D01*
X112971500Y-143769000D02*
X110311500Y-143769000D01*
X112971500Y-141169000D02*
X110311500Y-141169000D01*
X110311500Y-143769000D02*
X110311500Y-141169000D01*
%TO.C,C7*%
X107921000Y-137916349D02*
X107921000Y-137116349D01*
X107521000Y-137516349D02*
X108321000Y-137516349D01*
X106156000Y-133506651D02*
X114316000Y-133506651D01*
X106156000Y-133466651D02*
X114316000Y-133466651D01*
X106156000Y-133426651D02*
X114316000Y-133426651D01*
X106157000Y-133386651D02*
X114315000Y-133386651D01*
X106159000Y-133346651D02*
X114313000Y-133346651D01*
X106160000Y-133306651D02*
X114312000Y-133306651D01*
X106162000Y-133266651D02*
X114310000Y-133266651D01*
X106165000Y-133226651D02*
X114307000Y-133226651D01*
X106168000Y-133186651D02*
X114304000Y-133186651D01*
X106171000Y-133146651D02*
X114301000Y-133146651D01*
X106175000Y-133106651D02*
X114297000Y-133106651D01*
X106179000Y-133066651D02*
X114293000Y-133066651D01*
X106184000Y-133026651D02*
X114288000Y-133026651D01*
X106188000Y-132986651D02*
X114284000Y-132986651D01*
X106194000Y-132946651D02*
X114278000Y-132946651D01*
X106199000Y-132906651D02*
X114273000Y-132906651D01*
X106206000Y-132866651D02*
X114266000Y-132866651D01*
X106212000Y-132826651D02*
X114260000Y-132826651D01*
X106219000Y-132785651D02*
X109196000Y-132785651D01*
X111276000Y-132785651D02*
X114253000Y-132785651D01*
X106226000Y-132745651D02*
X109196000Y-132745651D01*
X111276000Y-132745651D02*
X114246000Y-132745651D01*
X106234000Y-132705651D02*
X109196000Y-132705651D01*
X111276000Y-132705651D02*
X114238000Y-132705651D01*
X106242000Y-132665651D02*
X109196000Y-132665651D01*
X111276000Y-132665651D02*
X114230000Y-132665651D01*
X106251000Y-132625651D02*
X109196000Y-132625651D01*
X111276000Y-132625651D02*
X114221000Y-132625651D01*
X106260000Y-132585651D02*
X109196000Y-132585651D01*
X111276000Y-132585651D02*
X114212000Y-132585651D01*
X106269000Y-132545651D02*
X109196000Y-132545651D01*
X111276000Y-132545651D02*
X114203000Y-132545651D01*
X106279000Y-132505651D02*
X109196000Y-132505651D01*
X111276000Y-132505651D02*
X114193000Y-132505651D01*
X106289000Y-132465651D02*
X109196000Y-132465651D01*
X111276000Y-132465651D02*
X114183000Y-132465651D01*
X106300000Y-132425651D02*
X109196000Y-132425651D01*
X111276000Y-132425651D02*
X114172000Y-132425651D01*
X106311000Y-132385651D02*
X109196000Y-132385651D01*
X111276000Y-132385651D02*
X114161000Y-132385651D01*
X106322000Y-132345651D02*
X109196000Y-132345651D01*
X111276000Y-132345651D02*
X114150000Y-132345651D01*
X106334000Y-132305651D02*
X109196000Y-132305651D01*
X111276000Y-132305651D02*
X114138000Y-132305651D01*
X106347000Y-132265651D02*
X109196000Y-132265651D01*
X111276000Y-132265651D02*
X114125000Y-132265651D01*
X106359000Y-132225651D02*
X109196000Y-132225651D01*
X111276000Y-132225651D02*
X114113000Y-132225651D01*
X106373000Y-132185651D02*
X109196000Y-132185651D01*
X111276000Y-132185651D02*
X114099000Y-132185651D01*
X106386000Y-132145651D02*
X109196000Y-132145651D01*
X111276000Y-132145651D02*
X114086000Y-132145651D01*
X106401000Y-132105651D02*
X109196000Y-132105651D01*
X111276000Y-132105651D02*
X114071000Y-132105651D01*
X106415000Y-132065651D02*
X109196000Y-132065651D01*
X111276000Y-132065651D02*
X114057000Y-132065651D01*
X106431000Y-132025651D02*
X109196000Y-132025651D01*
X111276000Y-132025651D02*
X114041000Y-132025651D01*
X106446000Y-131985651D02*
X109196000Y-131985651D01*
X111276000Y-131985651D02*
X114026000Y-131985651D01*
X106462000Y-131945651D02*
X109196000Y-131945651D01*
X111276000Y-131945651D02*
X114010000Y-131945651D01*
X106479000Y-131905651D02*
X109196000Y-131905651D01*
X111276000Y-131905651D02*
X113993000Y-131905651D01*
X106496000Y-131865651D02*
X109196000Y-131865651D01*
X111276000Y-131865651D02*
X113976000Y-131865651D01*
X106514000Y-131825651D02*
X109196000Y-131825651D01*
X111276000Y-131825651D02*
X113958000Y-131825651D01*
X106532000Y-131785651D02*
X109196000Y-131785651D01*
X111276000Y-131785651D02*
X113940000Y-131785651D01*
X106550000Y-131745651D02*
X109196000Y-131745651D01*
X111276000Y-131745651D02*
X113922000Y-131745651D01*
X106570000Y-131705651D02*
X109196000Y-131705651D01*
X111276000Y-131705651D02*
X113902000Y-131705651D01*
X106589000Y-131665651D02*
X109196000Y-131665651D01*
X111276000Y-131665651D02*
X113883000Y-131665651D01*
X106609000Y-131625651D02*
X109196000Y-131625651D01*
X111276000Y-131625651D02*
X113863000Y-131625651D01*
X106630000Y-131585651D02*
X109196000Y-131585651D01*
X111276000Y-131585651D02*
X113842000Y-131585651D01*
X106652000Y-131545651D02*
X109196000Y-131545651D01*
X111276000Y-131545651D02*
X113820000Y-131545651D01*
X106674000Y-131505651D02*
X109196000Y-131505651D01*
X111276000Y-131505651D02*
X113798000Y-131505651D01*
X106696000Y-131465651D02*
X109196000Y-131465651D01*
X111276000Y-131465651D02*
X113776000Y-131465651D01*
X106719000Y-131425651D02*
X109196000Y-131425651D01*
X111276000Y-131425651D02*
X113753000Y-131425651D01*
X106743000Y-131385651D02*
X109196000Y-131385651D01*
X111276000Y-131385651D02*
X113729000Y-131385651D01*
X106767000Y-131345651D02*
X109196000Y-131345651D01*
X111276000Y-131345651D02*
X113705000Y-131345651D01*
X106792000Y-131305651D02*
X109196000Y-131305651D01*
X111276000Y-131305651D02*
X113680000Y-131305651D01*
X106818000Y-131265651D02*
X109196000Y-131265651D01*
X111276000Y-131265651D02*
X113654000Y-131265651D01*
X106844000Y-131225651D02*
X109196000Y-131225651D01*
X111276000Y-131225651D02*
X113628000Y-131225651D01*
X106871000Y-131185651D02*
X109196000Y-131185651D01*
X111276000Y-131185651D02*
X113601000Y-131185651D01*
X106898000Y-131145651D02*
X109196000Y-131145651D01*
X111276000Y-131145651D02*
X113574000Y-131145651D01*
X106927000Y-131105651D02*
X109196000Y-131105651D01*
X111276000Y-131105651D02*
X113545000Y-131105651D01*
X106956000Y-131065651D02*
X109196000Y-131065651D01*
X111276000Y-131065651D02*
X113516000Y-131065651D01*
X106986000Y-131025651D02*
X109196000Y-131025651D01*
X111276000Y-131025651D02*
X113486000Y-131025651D01*
X107016000Y-130985651D02*
X109196000Y-130985651D01*
X111276000Y-130985651D02*
X113456000Y-130985651D01*
X107047000Y-130945651D02*
X109196000Y-130945651D01*
X111276000Y-130945651D02*
X113425000Y-130945651D01*
X107080000Y-130905651D02*
X109196000Y-130905651D01*
X111276000Y-130905651D02*
X113392000Y-130905651D01*
X107112000Y-130865651D02*
X109196000Y-130865651D01*
X111276000Y-130865651D02*
X113360000Y-130865651D01*
X107146000Y-130825651D02*
X109196000Y-130825651D01*
X111276000Y-130825651D02*
X113326000Y-130825651D01*
X107181000Y-130785651D02*
X109196000Y-130785651D01*
X111276000Y-130785651D02*
X113291000Y-130785651D01*
X107217000Y-130745651D02*
X109196000Y-130745651D01*
X111276000Y-130745651D02*
X113255000Y-130745651D01*
X107253000Y-130705651D02*
X113219000Y-130705651D01*
X107291000Y-130665651D02*
X113181000Y-130665651D01*
X107329000Y-130625651D02*
X113143000Y-130625651D01*
X107369000Y-130585651D02*
X113103000Y-130585651D01*
X107410000Y-130545651D02*
X113062000Y-130545651D01*
X107452000Y-130505651D02*
X113020000Y-130505651D01*
X107495000Y-130465651D02*
X112977000Y-130465651D01*
X107539000Y-130425651D02*
X112933000Y-130425651D01*
X107585000Y-130385651D02*
X112887000Y-130385651D01*
X107632000Y-130345651D02*
X112840000Y-130345651D01*
X107680000Y-130305651D02*
X112792000Y-130305651D01*
X107731000Y-130265651D02*
X112741000Y-130265651D01*
X107782000Y-130225651D02*
X112690000Y-130225651D01*
X107836000Y-130185651D02*
X112636000Y-130185651D01*
X107891000Y-130145651D02*
X112581000Y-130145651D01*
X107949000Y-130105651D02*
X112523000Y-130105651D01*
X108008000Y-130065651D02*
X112464000Y-130065651D01*
X108070000Y-130025651D02*
X112402000Y-130025651D01*
X108134000Y-129985651D02*
X112338000Y-129985651D01*
X108202000Y-129945651D02*
X112270000Y-129945651D01*
X108272000Y-129905651D02*
X112200000Y-129905651D01*
X108346000Y-129865651D02*
X112126000Y-129865651D01*
X108423000Y-129825651D02*
X112049000Y-129825651D01*
X108505000Y-129785651D02*
X111967000Y-129785651D01*
X108591000Y-129745651D02*
X111881000Y-129745651D01*
X108684000Y-129705651D02*
X111788000Y-129705651D01*
X108783000Y-129665651D02*
X111689000Y-129665651D01*
X108890000Y-129625651D02*
X111582000Y-129625651D01*
X109007000Y-129585651D02*
X111465000Y-129585651D01*
X109138000Y-129545651D02*
X111334000Y-129545651D01*
X109288000Y-129505651D02*
X111184000Y-129505651D01*
X109468000Y-129465651D02*
X111004000Y-129465651D01*
X109703000Y-129425651D02*
X110769000Y-129425651D01*
X114356000Y-133506651D02*
G75*
G03*
X114356000Y-133506651I-4120000J0D01*
G01*
%TO.C,J4*%
X178706000Y-94666000D02*
X176206000Y-94666000D01*
X176206000Y-94666000D02*
X176206000Y-97166000D01*
X180526000Y-94966000D02*
X176506000Y-94966000D01*
X178816000Y-94966000D02*
X178816000Y-95466000D01*
X178006000Y-94966000D02*
X178006000Y-95966000D01*
X176506000Y-94966000D02*
X176506000Y-107686000D01*
X180026000Y-95466000D02*
X180026000Y-107186000D01*
X178816000Y-95466000D02*
X180026000Y-95466000D01*
X178006000Y-95966000D02*
X176506000Y-95966000D01*
X178006000Y-106686000D02*
X176506000Y-106686000D01*
X180026000Y-107186000D02*
X178816000Y-107186000D01*
X178816000Y-107186000D02*
X178816000Y-107686000D01*
X180526000Y-107686000D02*
X180526000Y-94966000D01*
X178006000Y-107686000D02*
X178006000Y-106686000D01*
X176506000Y-107686000D02*
X180526000Y-107686000D01*
%TO.C,CIn3*%
X111764500Y-20556750D02*
G75*
G03*
X111764500Y-20556750I-5120000J0D01*
G01*
D11*
%TO.C,U_5V1*%
X77430000Y-43140000D02*
X118430000Y-43140000D01*
X118430000Y-43140000D02*
X118430000Y-64140000D01*
X118430000Y-64140000D02*
X77430000Y-64140000D01*
X77430000Y-64140000D02*
X77430000Y-43140000D01*
D12*
%TO.C,D6*%
X146812000Y-93242000D02*
X146812000Y-93892000D01*
X147932000Y-93892000D02*
X145692000Y-93892000D01*
X145692000Y-93892000D02*
X145692000Y-98132000D01*
X147932000Y-94492000D02*
X145692000Y-94492000D01*
X147932000Y-94612000D02*
X145692000Y-94612000D01*
X147932000Y-94732000D02*
X145692000Y-94732000D01*
X147932000Y-98132000D02*
X147932000Y-93892000D01*
X145692000Y-98132000D02*
X147932000Y-98132000D01*
X146812000Y-98782000D02*
X146812000Y-98132000D01*
%TO.C,R5*%
X156830000Y-124810000D02*
X160670000Y-124810000D01*
X156830000Y-126650000D02*
X160670000Y-126650000D01*
D10*
%TO.C,D9*%
X175240000Y-100296000D02*
X172740000Y-100296000D01*
D12*
%TO.C,C2*%
X154103000Y-126012199D02*
X154103000Y-126412199D01*
X154303000Y-126212199D02*
X153903000Y-126212199D01*
X154988000Y-128282000D02*
X153748000Y-128282000D01*
X152068000Y-128282000D02*
X150828000Y-128282000D01*
X154988000Y-128322000D02*
X153748000Y-128322000D01*
X152068000Y-128322000D02*
X150828000Y-128322000D01*
X154987000Y-128362000D02*
X153748000Y-128362000D01*
X152068000Y-128362000D02*
X150829000Y-128362000D01*
X154985000Y-128402000D02*
X153748000Y-128402000D01*
X152068000Y-128402000D02*
X150831000Y-128402000D01*
X154982000Y-128442000D02*
X153748000Y-128442000D01*
X152068000Y-128442000D02*
X150834000Y-128442000D01*
X154979000Y-128482000D02*
X153748000Y-128482000D01*
X152068000Y-128482000D02*
X150837000Y-128482000D01*
X154975000Y-128522000D02*
X153748000Y-128522000D01*
X152068000Y-128522000D02*
X150841000Y-128522000D01*
X154970000Y-128562000D02*
X153748000Y-128562000D01*
X152068000Y-128562000D02*
X150846000Y-128562000D01*
X154964000Y-128602000D02*
X153748000Y-128602000D01*
X152068000Y-128602000D02*
X150852000Y-128602000D01*
X154958000Y-128642000D02*
X153748000Y-128642000D01*
X152068000Y-128642000D02*
X150858000Y-128642000D01*
X154950000Y-128682000D02*
X153748000Y-128682000D01*
X152068000Y-128682000D02*
X150866000Y-128682000D01*
X154942000Y-128722000D02*
X153748000Y-128722000D01*
X152068000Y-128722000D02*
X150874000Y-128722000D01*
X154933000Y-128762000D02*
X153748000Y-128762000D01*
X152068000Y-128762000D02*
X150883000Y-128762000D01*
X154924000Y-128802000D02*
X153748000Y-128802000D01*
X152068000Y-128802000D02*
X150892000Y-128802000D01*
X154913000Y-128842000D02*
X153748000Y-128842000D01*
X152068000Y-128842000D02*
X150903000Y-128842000D01*
X154902000Y-128882000D02*
X153748000Y-128882000D01*
X152068000Y-128882000D02*
X150914000Y-128882000D01*
X154890000Y-128922000D02*
X153748000Y-128922000D01*
X152068000Y-128922000D02*
X150926000Y-128922000D01*
X154876000Y-128962000D02*
X153748000Y-128962000D01*
X152068000Y-128962000D02*
X150940000Y-128962000D01*
X154862000Y-129003000D02*
X153748000Y-129003000D01*
X152068000Y-129003000D02*
X150954000Y-129003000D01*
X154848000Y-129043000D02*
X153748000Y-129043000D01*
X152068000Y-129043000D02*
X150968000Y-129043000D01*
X154832000Y-129083000D02*
X153748000Y-129083000D01*
X152068000Y-129083000D02*
X150984000Y-129083000D01*
X154815000Y-129123000D02*
X153748000Y-129123000D01*
X152068000Y-129123000D02*
X151001000Y-129123000D01*
X154797000Y-129163000D02*
X153748000Y-129163000D01*
X152068000Y-129163000D02*
X151019000Y-129163000D01*
X154778000Y-129203000D02*
X153748000Y-129203000D01*
X152068000Y-129203000D02*
X151038000Y-129203000D01*
X154759000Y-129243000D02*
X153748000Y-129243000D01*
X152068000Y-129243000D02*
X151057000Y-129243000D01*
X154738000Y-129283000D02*
X153748000Y-129283000D01*
X152068000Y-129283000D02*
X151078000Y-129283000D01*
X154716000Y-129323000D02*
X153748000Y-129323000D01*
X152068000Y-129323000D02*
X151100000Y-129323000D01*
X154693000Y-129363000D02*
X153748000Y-129363000D01*
X152068000Y-129363000D02*
X151123000Y-129363000D01*
X154668000Y-129403000D02*
X153748000Y-129403000D01*
X152068000Y-129403000D02*
X151148000Y-129403000D01*
X154643000Y-129443000D02*
X153748000Y-129443000D01*
X152068000Y-129443000D02*
X151173000Y-129443000D01*
X154616000Y-129483000D02*
X153748000Y-129483000D01*
X152068000Y-129483000D02*
X151200000Y-129483000D01*
X154588000Y-129523000D02*
X153748000Y-129523000D01*
X152068000Y-129523000D02*
X151228000Y-129523000D01*
X154558000Y-129563000D02*
X153748000Y-129563000D01*
X152068000Y-129563000D02*
X151258000Y-129563000D01*
X154527000Y-129603000D02*
X153748000Y-129603000D01*
X152068000Y-129603000D02*
X151289000Y-129603000D01*
X154495000Y-129643000D02*
X153748000Y-129643000D01*
X152068000Y-129643000D02*
X151321000Y-129643000D01*
X154460000Y-129683000D02*
X153748000Y-129683000D01*
X152068000Y-129683000D02*
X151356000Y-129683000D01*
X154424000Y-129723000D02*
X153748000Y-129723000D01*
X152068000Y-129723000D02*
X151392000Y-129723000D01*
X154386000Y-129763000D02*
X153748000Y-129763000D01*
X152068000Y-129763000D02*
X151430000Y-129763000D01*
X154346000Y-129803000D02*
X153748000Y-129803000D01*
X152068000Y-129803000D02*
X151470000Y-129803000D01*
X154304000Y-129843000D02*
X153748000Y-129843000D01*
X152068000Y-129843000D02*
X151512000Y-129843000D01*
X154259000Y-129883000D02*
X151557000Y-129883000D01*
X154212000Y-129923000D02*
X151604000Y-129923000D01*
X154162000Y-129963000D02*
X151654000Y-129963000D01*
X154108000Y-130003000D02*
X151708000Y-130003000D01*
X154050000Y-130043000D02*
X151766000Y-130043000D01*
X153988000Y-130083000D02*
X151828000Y-130083000D01*
X153921000Y-130123000D02*
X151895000Y-130123000D01*
X153848000Y-130163000D02*
X151968000Y-130163000D01*
X153767000Y-130203000D02*
X152049000Y-130203000D01*
X153676000Y-130243000D02*
X152140000Y-130243000D01*
X153572000Y-130283000D02*
X152244000Y-130283000D01*
X153445000Y-130323000D02*
X152371000Y-130323000D01*
X153278000Y-130363000D02*
X152538000Y-130363000D01*
X155028000Y-128282000D02*
G75*
G03*
X155028000Y-128282000I-2120000J0D01*
G01*
%TO.C,R8*%
X97052000Y-97028000D02*
X97822000Y-97028000D01*
X97822000Y-95658000D02*
X97822000Y-98398000D01*
X97822000Y-98398000D02*
X104362000Y-98398000D01*
X104362000Y-95658000D02*
X97822000Y-95658000D01*
X104362000Y-98398000D02*
X104362000Y-95658000D01*
X105132000Y-97028000D02*
X104362000Y-97028000D01*
%TO.C,R14*%
X141258936Y-108056000D02*
X142713064Y-108056000D01*
X141258936Y-109876000D02*
X142713064Y-109876000D01*
%TO.C,R4*%
X160416000Y-118522000D02*
X156576000Y-118522000D01*
X160416000Y-116682000D02*
X156576000Y-116682000D01*
%TO.C,D5*%
X150876000Y-99290000D02*
X150876000Y-98640000D01*
X149756000Y-98640000D02*
X151996000Y-98640000D01*
X151996000Y-98640000D02*
X151996000Y-94400000D01*
X149756000Y-98040000D02*
X151996000Y-98040000D01*
X149756000Y-97920000D02*
X151996000Y-97920000D01*
X149756000Y-97800000D02*
X151996000Y-97800000D01*
X149756000Y-94400000D02*
X149756000Y-98640000D01*
X151996000Y-94400000D02*
X149756000Y-94400000D01*
X150876000Y-93750000D02*
X150876000Y-94400000D01*
D11*
%TO.C,U_3.3V1*%
X77290000Y-65446000D02*
X118290000Y-65446000D01*
X118290000Y-65446000D02*
X118290000Y-86446000D01*
X118290000Y-86446000D02*
X77290000Y-86446000D01*
X77290000Y-86446000D02*
X77290000Y-65446000D01*
D12*
%TO.C,PT1*%
X44292500Y-71930000D02*
X62447500Y-71930000D01*
X44292500Y-71930000D02*
X44292500Y-48430000D01*
X62447500Y-71930000D02*
X62447500Y-66350000D01*
X58462500Y-66350000D02*
X62447500Y-66350000D01*
X58462500Y-55923000D02*
X58462500Y-66350000D01*
X62447500Y-55923000D02*
X58462500Y-55923000D01*
X58462500Y-52950000D02*
X62447500Y-52950000D01*
X62447500Y-52950000D02*
X62447500Y-55923000D01*
X58462500Y-51478000D02*
X58462500Y-52950000D01*
X62447500Y-51478000D02*
X58462500Y-51478000D01*
X44292500Y-48430000D02*
X62447500Y-48430000D01*
X62447500Y-48430000D02*
X62447500Y-51478000D01*
%TO.C,C1*%
X139029900Y-132005000D02*
X138629900Y-132005000D01*
X138829900Y-132205000D02*
X138829900Y-131805000D01*
X136760099Y-132890000D02*
X136760099Y-131650000D01*
X136760099Y-129970000D02*
X136760099Y-128730000D01*
X136720099Y-132890000D02*
X136720099Y-131650000D01*
X136720099Y-129970000D02*
X136720099Y-128730000D01*
X136680099Y-132889000D02*
X136680099Y-131650000D01*
X136680099Y-129970000D02*
X136680099Y-128731000D01*
X136640099Y-132887000D02*
X136640099Y-131650000D01*
X136640099Y-129970000D02*
X136640099Y-128733000D01*
X136600099Y-132884000D02*
X136600099Y-131650000D01*
X136600099Y-129970000D02*
X136600099Y-128736000D01*
X136560099Y-132881000D02*
X136560099Y-131650000D01*
X136560099Y-129970000D02*
X136560099Y-128739000D01*
X136520099Y-132877000D02*
X136520099Y-131650000D01*
X136520099Y-129970000D02*
X136520099Y-128743000D01*
X136480099Y-132872000D02*
X136480099Y-131650000D01*
X136480099Y-129970000D02*
X136480099Y-128748000D01*
X136440099Y-132866000D02*
X136440099Y-131650000D01*
X136440099Y-129970000D02*
X136440099Y-128754000D01*
X136400099Y-132860000D02*
X136400099Y-131650000D01*
X136400099Y-129970000D02*
X136400099Y-128760000D01*
X136360099Y-132852000D02*
X136360099Y-131650000D01*
X136360099Y-129970000D02*
X136360099Y-128768000D01*
X136320099Y-132844000D02*
X136320099Y-131650000D01*
X136320099Y-129970000D02*
X136320099Y-128776000D01*
X136280099Y-132835000D02*
X136280099Y-131650000D01*
X136280099Y-129970000D02*
X136280099Y-128785000D01*
X136240099Y-132826000D02*
X136240099Y-131650000D01*
X136240099Y-129970000D02*
X136240099Y-128794000D01*
X136200099Y-132815000D02*
X136200099Y-131650000D01*
X136200099Y-129970000D02*
X136200099Y-128805000D01*
X136160099Y-132804000D02*
X136160099Y-131650000D01*
X136160099Y-129970000D02*
X136160099Y-128816000D01*
X136120099Y-132792000D02*
X136120099Y-131650000D01*
X136120099Y-129970000D02*
X136120099Y-128828000D01*
X136080099Y-132778000D02*
X136080099Y-131650000D01*
X136080099Y-129970000D02*
X136080099Y-128842000D01*
X136039099Y-132764000D02*
X136039099Y-131650000D01*
X136039099Y-129970000D02*
X136039099Y-128856000D01*
X135999099Y-132750000D02*
X135999099Y-131650000D01*
X135999099Y-129970000D02*
X135999099Y-128870000D01*
X135959099Y-132734000D02*
X135959099Y-131650000D01*
X135959099Y-129970000D02*
X135959099Y-128886000D01*
X135919099Y-132717000D02*
X135919099Y-131650000D01*
X135919099Y-129970000D02*
X135919099Y-128903000D01*
X135879099Y-132699000D02*
X135879099Y-131650000D01*
X135879099Y-129970000D02*
X135879099Y-128921000D01*
X135839099Y-132680000D02*
X135839099Y-131650000D01*
X135839099Y-129970000D02*
X135839099Y-128940000D01*
X135799099Y-132661000D02*
X135799099Y-131650000D01*
X135799099Y-129970000D02*
X135799099Y-128959000D01*
X135759099Y-132640000D02*
X135759099Y-131650000D01*
X135759099Y-129970000D02*
X135759099Y-128980000D01*
X135719099Y-132618000D02*
X135719099Y-131650000D01*
X135719099Y-129970000D02*
X135719099Y-129002000D01*
X135679099Y-132595000D02*
X135679099Y-131650000D01*
X135679099Y-129970000D02*
X135679099Y-129025000D01*
X135639099Y-132570000D02*
X135639099Y-131650000D01*
X135639099Y-129970000D02*
X135639099Y-129050000D01*
X135599099Y-132545000D02*
X135599099Y-131650000D01*
X135599099Y-129970000D02*
X135599099Y-129075000D01*
X135559099Y-132518000D02*
X135559099Y-131650000D01*
X135559099Y-129970000D02*
X135559099Y-129102000D01*
X135519099Y-132490000D02*
X135519099Y-131650000D01*
X135519099Y-129970000D02*
X135519099Y-129130000D01*
X135479099Y-132460000D02*
X135479099Y-131650000D01*
X135479099Y-129970000D02*
X135479099Y-129160000D01*
X135439099Y-132429000D02*
X135439099Y-131650000D01*
X135439099Y-129970000D02*
X135439099Y-129191000D01*
X135399099Y-132397000D02*
X135399099Y-131650000D01*
X135399099Y-129970000D02*
X135399099Y-129223000D01*
X135359099Y-132362000D02*
X135359099Y-131650000D01*
X135359099Y-129970000D02*
X135359099Y-129258000D01*
X135319099Y-132326000D02*
X135319099Y-131650000D01*
X135319099Y-129970000D02*
X135319099Y-129294000D01*
X135279099Y-132288000D02*
X135279099Y-131650000D01*
X135279099Y-129970000D02*
X135279099Y-129332000D01*
X135239099Y-132248000D02*
X135239099Y-131650000D01*
X135239099Y-129970000D02*
X135239099Y-129372000D01*
X135199099Y-132206000D02*
X135199099Y-131650000D01*
X135199099Y-129970000D02*
X135199099Y-129414000D01*
X135159099Y-132161000D02*
X135159099Y-129459000D01*
X135119099Y-132114000D02*
X135119099Y-129506000D01*
X135079099Y-132064000D02*
X135079099Y-129556000D01*
X135039099Y-132010000D02*
X135039099Y-129610000D01*
X134999099Y-131952000D02*
X134999099Y-129668000D01*
X134959099Y-131890000D02*
X134959099Y-129730000D01*
X134919099Y-131823000D02*
X134919099Y-129797000D01*
X134879099Y-131750000D02*
X134879099Y-129870000D01*
X134839099Y-131669000D02*
X134839099Y-129951000D01*
X134799099Y-131578000D02*
X134799099Y-130042000D01*
X134759099Y-131474000D02*
X134759099Y-130146000D01*
X134719099Y-131347000D02*
X134719099Y-130273000D01*
X134679099Y-131180000D02*
X134679099Y-130440000D01*
X138880099Y-130810000D02*
G75*
G03*
X138880099Y-130810000I-2120000J0D01*
G01*
%TO.C,R15*%
X157721500Y-100295064D02*
X157721500Y-98840936D01*
X159541500Y-100295064D02*
X159541500Y-98840936D01*
%TO.C,D4*%
X118642000Y-123698000D02*
X119292000Y-123698000D01*
X119292000Y-122578000D02*
X119292000Y-124818000D01*
X119292000Y-124818000D02*
X123532000Y-124818000D01*
X119892000Y-122578000D02*
X119892000Y-124818000D01*
X120012000Y-122578000D02*
X120012000Y-124818000D01*
X120132000Y-122578000D02*
X120132000Y-124818000D01*
X123532000Y-122578000D02*
X119292000Y-122578000D01*
X123532000Y-124818000D02*
X123532000Y-122578000D01*
X124182000Y-123698000D02*
X123532000Y-123698000D01*
%TO.C,Q2*%
X134269500Y-122758000D02*
X130669500Y-122758000D01*
X132469500Y-127208000D02*
G75*
G03*
X134307978Y-122769522I0J2600000D01*
G01*
X130631022Y-122769522D02*
G75*
G03*
X132469500Y-127208000I1838478J-1838478D01*
G01*
%TO.C,Input110*%
X38930000Y-38080000D02*
X39930000Y-38080000D01*
X38930000Y-38080000D02*
X38930000Y-37080000D01*
X47870000Y-37780000D02*
X39230000Y-37780000D01*
X39230000Y-37770000D02*
X39230000Y-22420000D01*
X40800000Y-36800000D02*
X46100000Y-36800000D01*
X46100000Y-36800000D02*
X46100000Y-36050000D01*
X46100000Y-31770000D02*
X46100000Y-28450000D01*
X46100000Y-24130000D02*
X46100000Y-23380000D01*
X40800000Y-23380000D02*
X40800000Y-36800000D01*
X46100000Y-23380000D02*
X40800000Y-23380000D01*
X39230000Y-22420000D02*
X47870000Y-22420000D01*
X47870000Y-22420000D02*
X47870000Y-37780000D01*
X46100000Y-36050000D02*
G75*
G03*
X46099291Y-31769304I-2100000J2140000D01*
G01*
X46100000Y-28450000D02*
G75*
G03*
X46100522Y-24130508I-2100000J2160000D01*
G01*
%TO.C,SW1*%
X92651500Y-146369000D02*
X91321500Y-146369000D01*
X92651500Y-145039000D02*
X92651500Y-146369000D01*
X92651500Y-143769000D02*
X92651500Y-141169000D01*
X92651500Y-143769000D02*
X89991500Y-143769000D01*
X92651500Y-141169000D02*
X89991500Y-141169000D01*
X89991500Y-143769000D02*
X89991500Y-141169000D01*
%TO.C,R3*%
X153528000Y-110840000D02*
X157368000Y-110840000D01*
X153528000Y-112680000D02*
X157368000Y-112680000D01*
%TO.C,R19*%
X142134000Y-93506936D02*
X142134000Y-94961064D01*
X140314000Y-93506936D02*
X140314000Y-94961064D01*
%TO.C,R2*%
X167290000Y-119238000D02*
X167290000Y-123078000D01*
X165450000Y-119238000D02*
X165450000Y-123078000D01*
%TO.C,C6*%
X101375000Y-115321651D02*
X101375000Y-116121651D01*
X101775000Y-115721651D02*
X100975000Y-115721651D01*
X103140000Y-119731349D02*
X94980000Y-119731349D01*
X103140000Y-119771349D02*
X94980000Y-119771349D01*
X103140000Y-119811349D02*
X94980000Y-119811349D01*
X103139000Y-119851349D02*
X94981000Y-119851349D01*
X103137000Y-119891349D02*
X94983000Y-119891349D01*
X103136000Y-119931349D02*
X94984000Y-119931349D01*
X103134000Y-119971349D02*
X94986000Y-119971349D01*
X103131000Y-120011349D02*
X94989000Y-120011349D01*
X103128000Y-120051349D02*
X94992000Y-120051349D01*
X103125000Y-120091349D02*
X94995000Y-120091349D01*
X103121000Y-120131349D02*
X94999000Y-120131349D01*
X103117000Y-120171349D02*
X95003000Y-120171349D01*
X103112000Y-120211349D02*
X95008000Y-120211349D01*
X103108000Y-120251349D02*
X95012000Y-120251349D01*
X103102000Y-120291349D02*
X95018000Y-120291349D01*
X103097000Y-120331349D02*
X95023000Y-120331349D01*
X103090000Y-120371349D02*
X95030000Y-120371349D01*
X103084000Y-120411349D02*
X95036000Y-120411349D01*
X103077000Y-120452349D02*
X100100000Y-120452349D01*
X98020000Y-120452349D02*
X95043000Y-120452349D01*
X103070000Y-120492349D02*
X100100000Y-120492349D01*
X98020000Y-120492349D02*
X95050000Y-120492349D01*
X103062000Y-120532349D02*
X100100000Y-120532349D01*
X98020000Y-120532349D02*
X95058000Y-120532349D01*
X103054000Y-120572349D02*
X100100000Y-120572349D01*
X98020000Y-120572349D02*
X95066000Y-120572349D01*
X103045000Y-120612349D02*
X100100000Y-120612349D01*
X98020000Y-120612349D02*
X95075000Y-120612349D01*
X103036000Y-120652349D02*
X100100000Y-120652349D01*
X98020000Y-120652349D02*
X95084000Y-120652349D01*
X103027000Y-120692349D02*
X100100000Y-120692349D01*
X98020000Y-120692349D02*
X95093000Y-120692349D01*
X103017000Y-120732349D02*
X100100000Y-120732349D01*
X98020000Y-120732349D02*
X95103000Y-120732349D01*
X103007000Y-120772349D02*
X100100000Y-120772349D01*
X98020000Y-120772349D02*
X95113000Y-120772349D01*
X102996000Y-120812349D02*
X100100000Y-120812349D01*
X98020000Y-120812349D02*
X95124000Y-120812349D01*
X102985000Y-120852349D02*
X100100000Y-120852349D01*
X98020000Y-120852349D02*
X95135000Y-120852349D01*
X102974000Y-120892349D02*
X100100000Y-120892349D01*
X98020000Y-120892349D02*
X95146000Y-120892349D01*
X102962000Y-120932349D02*
X100100000Y-120932349D01*
X98020000Y-120932349D02*
X95158000Y-120932349D01*
X102949000Y-120972349D02*
X100100000Y-120972349D01*
X98020000Y-120972349D02*
X95171000Y-120972349D01*
X102937000Y-121012349D02*
X100100000Y-121012349D01*
X98020000Y-121012349D02*
X95183000Y-121012349D01*
X102923000Y-121052349D02*
X100100000Y-121052349D01*
X98020000Y-121052349D02*
X95197000Y-121052349D01*
X102910000Y-121092349D02*
X100100000Y-121092349D01*
X98020000Y-121092349D02*
X95210000Y-121092349D01*
X102895000Y-121132349D02*
X100100000Y-121132349D01*
X98020000Y-121132349D02*
X95225000Y-121132349D01*
X102881000Y-121172349D02*
X100100000Y-121172349D01*
X98020000Y-121172349D02*
X95239000Y-121172349D01*
X102865000Y-121212349D02*
X100100000Y-121212349D01*
X98020000Y-121212349D02*
X95255000Y-121212349D01*
X102850000Y-121252349D02*
X100100000Y-121252349D01*
X98020000Y-121252349D02*
X95270000Y-121252349D01*
X102834000Y-121292349D02*
X100100000Y-121292349D01*
X98020000Y-121292349D02*
X95286000Y-121292349D01*
X102817000Y-121332349D02*
X100100000Y-121332349D01*
X98020000Y-121332349D02*
X95303000Y-121332349D01*
X102800000Y-121372349D02*
X100100000Y-121372349D01*
X98020000Y-121372349D02*
X95320000Y-121372349D01*
X102782000Y-121412349D02*
X100100000Y-121412349D01*
X98020000Y-121412349D02*
X95338000Y-121412349D01*
X102764000Y-121452349D02*
X100100000Y-121452349D01*
X98020000Y-121452349D02*
X95356000Y-121452349D01*
X102746000Y-121492349D02*
X100100000Y-121492349D01*
X98020000Y-121492349D02*
X95374000Y-121492349D01*
X102726000Y-121532349D02*
X100100000Y-121532349D01*
X98020000Y-121532349D02*
X95394000Y-121532349D01*
X102707000Y-121572349D02*
X100100000Y-121572349D01*
X98020000Y-121572349D02*
X95413000Y-121572349D01*
X102687000Y-121612349D02*
X100100000Y-121612349D01*
X98020000Y-121612349D02*
X95433000Y-121612349D01*
X102666000Y-121652349D02*
X100100000Y-121652349D01*
X98020000Y-121652349D02*
X95454000Y-121652349D01*
X102644000Y-121692349D02*
X100100000Y-121692349D01*
X98020000Y-121692349D02*
X95476000Y-121692349D01*
X102622000Y-121732349D02*
X100100000Y-121732349D01*
X98020000Y-121732349D02*
X95498000Y-121732349D01*
X102600000Y-121772349D02*
X100100000Y-121772349D01*
X98020000Y-121772349D02*
X95520000Y-121772349D01*
X102577000Y-121812349D02*
X100100000Y-121812349D01*
X98020000Y-121812349D02*
X95543000Y-121812349D01*
X102553000Y-121852349D02*
X100100000Y-121852349D01*
X98020000Y-121852349D02*
X95567000Y-121852349D01*
X102529000Y-121892349D02*
X100100000Y-121892349D01*
X98020000Y-121892349D02*
X95591000Y-121892349D01*
X102504000Y-121932349D02*
X100100000Y-121932349D01*
X98020000Y-121932349D02*
X95616000Y-121932349D01*
X102478000Y-121972349D02*
X100100000Y-121972349D01*
X98020000Y-121972349D02*
X95642000Y-121972349D01*
X102452000Y-122012349D02*
X100100000Y-122012349D01*
X98020000Y-122012349D02*
X95668000Y-122012349D01*
X102425000Y-122052349D02*
X100100000Y-122052349D01*
X98020000Y-122052349D02*
X95695000Y-122052349D01*
X102398000Y-122092349D02*
X100100000Y-122092349D01*
X98020000Y-122092349D02*
X95722000Y-122092349D01*
X102369000Y-122132349D02*
X100100000Y-122132349D01*
X98020000Y-122132349D02*
X95751000Y-122132349D01*
X102340000Y-122172349D02*
X100100000Y-122172349D01*
X98020000Y-122172349D02*
X95780000Y-122172349D01*
X102310000Y-122212349D02*
X100100000Y-122212349D01*
X98020000Y-122212349D02*
X95810000Y-122212349D01*
X102280000Y-122252349D02*
X100100000Y-122252349D01*
X98020000Y-122252349D02*
X95840000Y-122252349D01*
X102249000Y-122292349D02*
X100100000Y-122292349D01*
X98020000Y-122292349D02*
X95871000Y-122292349D01*
X102216000Y-122332349D02*
X100100000Y-122332349D01*
X98020000Y-122332349D02*
X95904000Y-122332349D01*
X102184000Y-122372349D02*
X100100000Y-122372349D01*
X98020000Y-122372349D02*
X95936000Y-122372349D01*
X102150000Y-122412349D02*
X100100000Y-122412349D01*
X98020000Y-122412349D02*
X95970000Y-122412349D01*
X102115000Y-122452349D02*
X100100000Y-122452349D01*
X98020000Y-122452349D02*
X96005000Y-122452349D01*
X102079000Y-122492349D02*
X100100000Y-122492349D01*
X98020000Y-122492349D02*
X96041000Y-122492349D01*
X102043000Y-122532349D02*
X96077000Y-122532349D01*
X102005000Y-122572349D02*
X96115000Y-122572349D01*
X101967000Y-122612349D02*
X96153000Y-122612349D01*
X101927000Y-122652349D02*
X96193000Y-122652349D01*
X101886000Y-122692349D02*
X96234000Y-122692349D01*
X101844000Y-122732349D02*
X96276000Y-122732349D01*
X101801000Y-122772349D02*
X96319000Y-122772349D01*
X101757000Y-122812349D02*
X96363000Y-122812349D01*
X101711000Y-122852349D02*
X96409000Y-122852349D01*
X101664000Y-122892349D02*
X96456000Y-122892349D01*
X101616000Y-122932349D02*
X96504000Y-122932349D01*
X101565000Y-122972349D02*
X96555000Y-122972349D01*
X101514000Y-123012349D02*
X96606000Y-123012349D01*
X101460000Y-123052349D02*
X96660000Y-123052349D01*
X101405000Y-123092349D02*
X96715000Y-123092349D01*
X101347000Y-123132349D02*
X96773000Y-123132349D01*
X101288000Y-123172349D02*
X96832000Y-123172349D01*
X101226000Y-123212349D02*
X96894000Y-123212349D01*
X101162000Y-123252349D02*
X96958000Y-123252349D01*
X101094000Y-123292349D02*
X97026000Y-123292349D01*
X101024000Y-123332349D02*
X97096000Y-123332349D01*
X100950000Y-123372349D02*
X97170000Y-123372349D01*
X100873000Y-123412349D02*
X97247000Y-123412349D01*
X100791000Y-123452349D02*
X97329000Y-123452349D01*
X100705000Y-123492349D02*
X97415000Y-123492349D01*
X100612000Y-123532349D02*
X97508000Y-123532349D01*
X100513000Y-123572349D02*
X97607000Y-123572349D01*
X100406000Y-123612349D02*
X97714000Y-123612349D01*
X100289000Y-123652349D02*
X97831000Y-123652349D01*
X100158000Y-123692349D02*
X97962000Y-123692349D01*
X100008000Y-123732349D02*
X98112000Y-123732349D01*
X99828000Y-123772349D02*
X98292000Y-123772349D01*
X99593000Y-123812349D02*
X98527000Y-123812349D01*
X103180000Y-119731349D02*
G75*
G03*
X103180000Y-119731349I-4120000J0D01*
G01*
%TO.C,A1*%
X85566200Y-145610000D02*
X85566200Y-145190000D01*
X85566200Y-143070000D02*
X85566200Y-142650000D01*
X85566200Y-140530000D02*
X85566200Y-140110000D01*
X85566200Y-137990000D02*
X85566200Y-137570000D01*
X85566200Y-135450000D02*
X85566200Y-135030000D01*
X85566200Y-132910000D02*
X85566200Y-132490000D01*
X85566200Y-130370000D02*
X85566200Y-129950000D01*
X85566200Y-127830000D02*
X85566200Y-127410000D01*
X85566200Y-125290000D02*
X85566200Y-124870000D01*
X85566200Y-122750000D02*
X85566200Y-122330000D01*
X85566200Y-120210000D02*
X85566200Y-119790000D01*
X85566200Y-117670000D02*
X85566200Y-117250000D01*
X85566200Y-115130000D02*
X85566200Y-114710000D01*
X85566200Y-112590000D02*
X85566200Y-112170000D01*
X85566200Y-110050000D02*
X85566200Y-109630000D01*
X85566200Y-107510000D02*
X85566200Y-107090000D01*
X85566200Y-104970000D02*
X85566200Y-104550000D01*
X85566200Y-102430000D02*
X85566200Y-102010000D01*
X85566200Y-99890000D02*
X85566200Y-99470000D01*
X85006200Y-148100000D02*
X78816200Y-148100000D01*
X85006200Y-96980000D02*
X78606200Y-96980000D01*
X79106200Y-149230000D02*
X78776200Y-149420000D01*
X78816200Y-148730000D02*
X79106200Y-149230000D01*
X78816200Y-148100000D02*
X85006200Y-148100000D01*
X78816200Y-148100000D02*
X78816200Y-148730000D01*
X78776200Y-149420000D02*
X71236200Y-149420000D01*
X76486200Y-96980000D02*
X76066200Y-96980000D01*
X73946200Y-96980000D02*
X73526200Y-96980000D01*
X71406200Y-96980000D02*
X65006200Y-96980000D01*
X71236200Y-149420000D02*
X70906200Y-149230000D01*
X71196200Y-148730000D02*
X71196200Y-148100000D01*
X70906200Y-149230000D02*
X71196200Y-148730000D01*
X65006200Y-148100000D02*
X71196200Y-148100000D01*
X64446200Y-145610000D02*
X64446200Y-145190000D01*
X64446200Y-143070000D02*
X64446200Y-142650000D01*
X64446200Y-140530000D02*
X64446200Y-140110000D01*
X64446200Y-137990000D02*
X64446200Y-137570000D01*
X64446200Y-135450000D02*
X64446200Y-135030000D01*
X64446200Y-132910000D02*
X64446200Y-132490000D01*
X64446200Y-130370000D02*
X64446200Y-129950000D01*
X64446200Y-127830000D02*
X64446200Y-127410000D01*
X64446200Y-125290000D02*
X64446200Y-124870000D01*
X64446200Y-122750000D02*
X64446200Y-122330000D01*
X64446200Y-120210000D02*
X64446200Y-119790000D01*
X64446200Y-117670000D02*
X64446200Y-117250000D01*
X64446200Y-115130000D02*
X64446200Y-114710000D01*
X64446200Y-112590000D02*
X64446200Y-112170000D01*
X64446200Y-110050000D02*
X64446200Y-109630000D01*
X64446200Y-107510000D02*
X64446200Y-107090000D01*
X64446200Y-104970000D02*
X64446200Y-104550000D01*
X64446200Y-102430000D02*
X64446200Y-102010000D01*
X64446200Y-99890000D02*
X64446200Y-99470000D01*
X85006200Y-148099999D02*
G75*
G03*
X85536199Y-147730000I1771J562057D01*
G01*
X85536199Y-97350000D02*
G75*
G03*
X85006200Y-96980001I-528226J-192055D01*
G01*
X64476175Y-147730009D02*
G75*
G03*
X65006200Y-148099999I528325J192209D01*
G01*
X65006200Y-96980056D02*
G75*
G03*
X64476201Y-97350000I-1800J-562044D01*
G01*
%TO.C,R1*%
X170530000Y-123078000D02*
X170530000Y-119238000D01*
X172370000Y-123078000D02*
X172370000Y-119238000D01*
%TO.C,C3*%
X158510500Y-133857276D02*
X158510500Y-134366724D01*
X157465500Y-133857276D02*
X157465500Y-134366724D01*
%TO.C,Q1*%
X133761500Y-116260000D02*
X130161500Y-116260000D01*
X131961500Y-120710000D02*
G75*
G03*
X133799978Y-116271522I0J2600000D01*
G01*
X130123022Y-116271522D02*
G75*
G03*
X131961500Y-120710000I1838478J-1838478D01*
G01*
%TO.C,D3*%
X118896000Y-118364000D02*
X119546000Y-118364000D01*
X119546000Y-117244000D02*
X119546000Y-119484000D01*
X119546000Y-119484000D02*
X123786000Y-119484000D01*
X120146000Y-117244000D02*
X120146000Y-119484000D01*
X120266000Y-117244000D02*
X120266000Y-119484000D01*
X120386000Y-117244000D02*
X120386000Y-119484000D01*
X123786000Y-117244000D02*
X119546000Y-117244000D01*
X123786000Y-119484000D02*
X123786000Y-117244000D01*
X124436000Y-118364000D02*
X123786000Y-118364000D01*
%TO.C,CIn0*%
X121673252Y-32485000D02*
X121150748Y-32485000D01*
X121673252Y-31015000D02*
X121150748Y-31015000D01*
%TO.C,R16*%
X153450936Y-103992000D02*
X154905064Y-103992000D01*
X153450936Y-105812000D02*
X154905064Y-105812000D01*
D10*
%TO.C,D8*%
X172621500Y-111970000D02*
X175121500Y-111970000D01*
D12*
%TO.C,R18*%
X154284000Y-98263064D02*
X154284000Y-96808936D01*
X156104000Y-98263064D02*
X156104000Y-96808936D01*
%TO.C,U3*%
X117562000Y-18320000D02*
X117562000Y-22961000D01*
X117562000Y-18320000D02*
X127802000Y-18320000D01*
X117562000Y-19830000D02*
X127802000Y-19830000D01*
X117562000Y-22961000D02*
X127802000Y-22961000D01*
X120832000Y-18320000D02*
X120832000Y-19830000D01*
X124533000Y-18320000D02*
X124533000Y-19830000D01*
X127802000Y-18320000D02*
X127802000Y-22961000D01*
%TO.C,CIn4*%
X111800000Y-33020000D02*
G75*
G03*
X111800000Y-33020000I-5120000J0D01*
G01*
%TO.C,JP1*%
X78550000Y-19510000D02*
X78550000Y-18180000D01*
X79880000Y-19510000D02*
X78550000Y-19510000D01*
X81150000Y-19510000D02*
X86290000Y-19510000D01*
X81150000Y-19510000D02*
X81150000Y-16850000D01*
X86290000Y-19510000D02*
X86290000Y-16850000D01*
X81150000Y-16850000D02*
X86290000Y-16850000D01*
%TO.C,R11*%
X141258936Y-104500000D02*
X142713064Y-104500000D01*
X141258936Y-106320000D02*
X142713064Y-106320000D01*
%TO.C,R9*%
X142739064Y-102764000D02*
X141284936Y-102764000D01*
X142739064Y-100944000D02*
X141284936Y-100944000D01*
%TO.C,R17*%
X165042436Y-114152000D02*
X166496564Y-114152000D01*
X165042436Y-115972000D02*
X166496564Y-115972000D01*
%TO.C,C4*%
X165361252Y-107923000D02*
X164838748Y-107923000D01*
X165361252Y-106453000D02*
X164838748Y-106453000D01*
%TO.C,R12*%
X136940936Y-79100000D02*
X138395064Y-79100000D01*
X136940936Y-80920000D02*
X138395064Y-80920000D01*
%TO.C,J2*%
X126989500Y-143034000D02*
X126989500Y-147034000D01*
X127279500Y-142004000D02*
X127279500Y-148024000D01*
X127279500Y-148024000D02*
X132579500Y-148024000D01*
X127859500Y-142004000D02*
X127859500Y-142604000D01*
X127859500Y-142604000D02*
X129459500Y-142604000D01*
X128659500Y-147024000D02*
X128909500Y-146494000D01*
X128659500Y-147024000D02*
X131199500Y-147024000D01*
X128659500Y-148024000D02*
X128659500Y-147024000D01*
X128909500Y-146494000D02*
X130949500Y-146494000D01*
X128909500Y-148024000D02*
X128909500Y-147024000D01*
X129459500Y-142604000D02*
X129459500Y-142004000D01*
X130399500Y-142004000D02*
X130399500Y-142604000D01*
X130399500Y-142604000D02*
X131999500Y-142604000D01*
X130949500Y-146494000D02*
X131199500Y-147024000D01*
X130949500Y-148024000D02*
X130949500Y-147024000D01*
X131199500Y-147024000D02*
X131199500Y-148024000D01*
X131999500Y-142604000D02*
X131999500Y-142004000D01*
X132579500Y-142004000D02*
X127279500Y-142004000D01*
X132579500Y-148024000D02*
X132579500Y-142004000D01*
%TO.C,R13*%
X138395064Y-74570000D02*
X136940936Y-74570000D01*
X138395064Y-72750000D02*
X136940936Y-72750000D01*
%TO.C,J5*%
X154442000Y-80138000D02*
X155942000Y-80138000D01*
X154442000Y-87138000D02*
X155942000Y-87138000D01*
X154442000Y-88638000D02*
X154442000Y-80138000D01*
X155942000Y-80138000D02*
X155942000Y-82338000D01*
X155942000Y-82338000D02*
X154442000Y-82338000D01*
X155942000Y-87138000D02*
X155942000Y-82338000D01*
X156772000Y-84288000D02*
X157092000Y-84288000D01*
X156772000Y-87708000D02*
X156772000Y-84288000D01*
X157092000Y-84288000D02*
X157412000Y-84288000D01*
X157092000Y-87788000D02*
X156772000Y-87708000D01*
X157412000Y-84288000D02*
X157412000Y-87708000D01*
X157412000Y-87708000D02*
X157092000Y-87788000D01*
X159272000Y-84288000D02*
X159592000Y-84288000D01*
X159272000Y-87708000D02*
X159272000Y-84288000D01*
X159592000Y-84288000D02*
X159912000Y-84288000D01*
X159592000Y-87788000D02*
X159272000Y-87708000D01*
X159912000Y-84288000D02*
X159912000Y-87708000D01*
X159912000Y-87708000D02*
X159592000Y-87788000D01*
X161772000Y-84288000D02*
X162092000Y-84288000D01*
X161772000Y-87708000D02*
X161772000Y-84288000D01*
X162092000Y-84288000D02*
X162412000Y-84288000D01*
X162092000Y-87788000D02*
X161772000Y-87708000D01*
X162412000Y-84288000D02*
X162412000Y-87708000D01*
X162412000Y-87708000D02*
X162092000Y-87788000D01*
X164272000Y-84288000D02*
X164592000Y-84288000D01*
X164272000Y-87708000D02*
X164272000Y-84288000D01*
X164292000Y-79688000D02*
X164592000Y-80288000D01*
X164592000Y-80288000D02*
X164892000Y-79688000D01*
X164592000Y-84288000D02*
X164912000Y-84288000D01*
X164592000Y-87788000D02*
X164272000Y-87708000D01*
X164892000Y-79688000D02*
X164292000Y-79688000D01*
X164912000Y-84288000D02*
X164912000Y-87708000D01*
X164912000Y-87708000D02*
X164592000Y-87788000D01*
X165742000Y-80138000D02*
X167242000Y-80138000D01*
X165742000Y-82338000D02*
X165742000Y-80138000D01*
X165742000Y-82338000D02*
X167242000Y-82338000D01*
X165742000Y-83288000D02*
X155942000Y-83288000D01*
X165742000Y-84288000D02*
X155942000Y-84288000D01*
X165742000Y-87138000D02*
X165742000Y-82338000D01*
X167242000Y-80138000D02*
X167242000Y-88638000D01*
X167242000Y-87138000D02*
X165742000Y-87138000D01*
X167242000Y-88638000D02*
X154442000Y-88638000D01*
D11*
X145707000Y-16748000D02*
X175797000Y-16748000D01*
X175797000Y-16748000D02*
X175797000Y-90448000D01*
X175797000Y-90448000D02*
X145707000Y-90448000D01*
X145707000Y-90448000D02*
X145707000Y-16748000D01*
D12*
%TO.C,R21*%
X119658000Y-110998000D02*
X120428000Y-110998000D01*
X120428000Y-109628000D02*
X120428000Y-112368000D01*
X120428000Y-112368000D02*
X126968000Y-112368000D01*
X126968000Y-109628000D02*
X120428000Y-109628000D01*
X126968000Y-112368000D02*
X126968000Y-109628000D01*
X127738000Y-110998000D02*
X126968000Y-110998000D01*
%TO.C,SW4*%
X107637500Y-146369000D02*
X106307500Y-146369000D01*
X107637500Y-145039000D02*
X107637500Y-146369000D01*
X107637500Y-143769000D02*
X107637500Y-141169000D01*
X107637500Y-143769000D02*
X104977500Y-143769000D01*
X107637500Y-141169000D02*
X104977500Y-141169000D01*
X104977500Y-143769000D02*
X104977500Y-141169000D01*
%TO.C,J9*%
X124487500Y-146780000D02*
X124487500Y-142780000D01*
X124197500Y-147810000D02*
X124197500Y-141790000D01*
X124197500Y-141790000D02*
X118897500Y-141790000D01*
X123617500Y-147810000D02*
X123617500Y-147210000D01*
X123617500Y-147210000D02*
X122017500Y-147210000D01*
X122817500Y-142790000D02*
X122567500Y-143320000D01*
X122817500Y-142790000D02*
X120277500Y-142790000D01*
X122817500Y-141790000D02*
X122817500Y-142790000D01*
X122567500Y-143320000D02*
X120527500Y-143320000D01*
X122567500Y-141790000D02*
X122567500Y-142790000D01*
X122017500Y-147210000D02*
X122017500Y-147810000D01*
X121077500Y-147810000D02*
X121077500Y-147210000D01*
X121077500Y-147210000D02*
X119477500Y-147210000D01*
X120527500Y-143320000D02*
X120277500Y-142790000D01*
X120527500Y-141790000D02*
X120527500Y-142790000D01*
X120277500Y-142790000D02*
X120277500Y-141790000D01*
X119477500Y-147210000D02*
X119477500Y-147810000D01*
X118897500Y-147810000D02*
X124197500Y-147810000D01*
X118897500Y-141790000D02*
X118897500Y-147810000D01*
%TO.C,R20*%
X105386000Y-107188000D02*
X104616000Y-107188000D01*
X104616000Y-108558000D02*
X104616000Y-105818000D01*
X104616000Y-105818000D02*
X98076000Y-105818000D01*
X98076000Y-108558000D02*
X104616000Y-108558000D01*
X98076000Y-105818000D02*
X98076000Y-108558000D01*
X97306000Y-107188000D02*
X98076000Y-107188000D01*
%TO.C,SW3*%
X102303500Y-146364000D02*
X100973500Y-146364000D01*
X102303500Y-145034000D02*
X102303500Y-146364000D01*
X102303500Y-143764000D02*
X102303500Y-141164000D01*
X102303500Y-143764000D02*
X99643500Y-143764000D01*
X102303500Y-141164000D02*
X99643500Y-141164000D01*
X99643500Y-143764000D02*
X99643500Y-141164000D01*
%TD*%
M02*
