%TF.GenerationSoftware,KiCad,Pcbnew,7.0.1*%
%TF.CreationDate,2023-05-11T18:44:24-05:00*%
%TF.ProjectId,CircuitoPotencia,43697263-7569-4746-9f50-6f74656e6369,rev?*%
%TF.SameCoordinates,Original*%
%TF.FileFunction,Soldermask,Top*%
%TF.FilePolarity,Negative*%
%FSLAX46Y46*%
G04 Gerber Fmt 4.6, Leading zero omitted, Abs format (unit mm)*
G04 Created by KiCad (PCBNEW 7.0.1) date 2023-05-11 18:44:24*
%MOMM*%
%LPD*%
G01*
G04 APERTURE LIST*
G04 Aperture macros list*
%AMRoundRect*
0 Rectangle with rounded corners*
0 $1 Rounding radius*
0 $2 $3 $4 $5 $6 $7 $8 $9 X,Y pos of 4 corners*
0 Add a 4 corners polygon primitive as box body*
4,1,4,$2,$3,$4,$5,$6,$7,$8,$9,$2,$3,0*
0 Add four circle primitives for the rounded corners*
1,1,$1+$1,$2,$3*
1,1,$1+$1,$4,$5*
1,1,$1+$1,$6,$7*
1,1,$1+$1,$8,$9*
0 Add four rect primitives between the rounded corners*
20,1,$1+$1,$2,$3,$4,$5,0*
20,1,$1+$1,$4,$5,$6,$7,0*
20,1,$1+$1,$6,$7,$8,$9,0*
20,1,$1+$1,$8,$9,$2,$3,0*%
%AMFreePoly0*
4,1,58,1.881242,0.792533,1.914585,0.788777,1.924216,0.782725,1.935306,0.780194,1.961541,0.759271,1.989950,0.741421,2.341421,0.389950,2.359271,0.361541,2.380194,0.335306,2.382725,0.324216,2.388777,0.314585,2.392533,0.281242,2.400000,0.248529,2.400000,-0.248529,2.392533,-0.281242,2.388777,-0.314585,2.382725,-0.324216,2.380194,-0.335306,2.359271,-0.361541,2.341421,-0.389950,
1.989950,-0.741421,1.961541,-0.759271,1.935306,-0.780194,1.924216,-0.782725,1.914585,-0.788777,1.881242,-0.792533,1.848529,-0.800000,0.000000,-0.800000,-0.248529,-0.800000,-0.281242,-0.792533,-0.314585,-0.788777,-0.324216,-0.782725,-0.335306,-0.780194,-0.361541,-0.759271,-0.389950,-0.741421,-0.741421,-0.389950,-0.759271,-0.361541,-0.780194,-0.335306,-0.782725,-0.324216,-0.788777,-0.314585,
-0.792533,-0.281242,-0.800000,-0.248529,-0.800000,0.248529,-0.792533,0.281242,-0.788777,0.314585,-0.782725,0.324216,-0.780194,0.335306,-0.759271,0.361541,-0.741421,0.389950,-0.389950,0.741421,-0.361541,0.759271,-0.335306,0.780194,-0.324216,0.782725,-0.314585,0.788777,-0.281242,0.792533,-0.248529,0.800000,1.848529,0.800000,1.881242,0.792533,1.881242,0.792533,$1*%
%AMFreePoly1*
4,1,58,0.281242,0.792533,0.314585,0.788777,0.324216,0.782725,0.335306,0.780194,0.361541,0.759271,0.389950,0.741421,0.741421,0.389950,0.759271,0.361541,0.780194,0.335306,0.782725,0.324216,0.788777,0.314585,0.792533,0.281242,0.800000,0.248529,0.800000,-0.248529,0.792533,-0.281242,0.788777,-0.314585,0.782725,-0.324216,0.780194,-0.335306,0.759271,-0.361541,0.741421,-0.389950,
0.389950,-0.741421,0.361541,-0.759271,0.335306,-0.780194,0.324216,-0.782725,0.314585,-0.788777,0.281242,-0.792533,0.248529,-0.800000,0.000000,-0.800000,-0.248529,-0.800000,-0.281242,-0.792533,-0.314585,-0.788777,-0.324216,-0.782725,-0.335306,-0.780194,-0.361541,-0.759271,-0.389950,-0.741421,-0.741421,-0.389950,-0.759271,-0.361541,-0.780194,-0.335306,-0.782725,-0.324216,-0.788777,-0.314585,
-0.792533,-0.281242,-0.800000,-0.248529,-0.800000,0.248529,-0.792533,0.281242,-0.788777,0.314585,-0.782725,0.324216,-0.780194,0.335306,-0.759271,0.361541,-0.741421,0.389950,-0.389950,0.741421,-0.361541,0.759271,-0.335306,0.780194,-0.324216,0.782725,-0.314585,0.788777,-0.281242,0.792533,-0.248529,0.800000,0.248529,0.800000,0.281242,0.792533,0.281242,0.792533,$1*%
G04 Aperture macros list end*
%ADD10R,1.700000X1.700000*%
%ADD11O,1.700000X1.700000*%
%ADD12RoundRect,0.250000X-0.600000X-0.600000X0.600000X-0.600000X0.600000X0.600000X-0.600000X0.600000X0*%
%ADD13C,1.700000*%
%ADD14C,1.600000*%
%ADD15O,1.600000X1.600000*%
%ADD16RoundRect,0.250000X0.400000X0.625000X-0.400000X0.625000X-0.400000X-0.625000X0.400000X-0.625000X0*%
%ADD17RoundRect,0.250000X-0.337500X-0.475000X0.337500X-0.475000X0.337500X0.475000X-0.337500X0.475000X0*%
%ADD18RoundRect,0.250000X-0.750000X0.600000X-0.750000X-0.600000X0.750000X-0.600000X0.750000X0.600000X0*%
%ADD19O,2.000000X1.700000*%
%ADD20C,1.400000*%
%ADD21O,1.400000X1.400000*%
%ADD22C,1.270000*%
%ADD23R,2.540000X2.540000*%
%ADD24C,2.540000*%
%ADD25R,1.600000X1.600000*%
%ADD26RoundRect,0.250000X-0.725000X0.600000X-0.725000X-0.600000X0.725000X-0.600000X0.725000X0.600000X0*%
%ADD27O,1.950000X1.700000*%
%ADD28C,1.524000*%
%ADD29R,1.524000X1.524000*%
%ADD30RoundRect,0.050000X-0.840000X0.760000X-0.840000X-0.760000X0.840000X-0.760000X0.840000X0.760000X0*%
%ADD31R,1.200000X1.200000*%
%ADD32C,1.200000*%
%ADD33RoundRect,0.250000X-0.400000X-0.625000X0.400000X-0.625000X0.400000X0.625000X-0.400000X0.625000X0*%
%ADD34RoundRect,0.250000X0.625000X-0.400000X0.625000X0.400000X-0.625000X0.400000X-0.625000X-0.400000X0*%
%ADD35R,1.050000X1.500000*%
%ADD36O,1.050000X1.500000*%
%ADD37RoundRect,0.250000X-0.625000X0.400000X-0.625000X-0.400000X0.625000X-0.400000X0.625000X0.400000X0*%
%ADD38FreePoly0,180.000000*%
%ADD39FreePoly1,180.000000*%
%ADD40O,3.200000X1.600000*%
%ADD41RoundRect,0.200000X1.400000X0.600000X-1.400000X0.600000X-1.400000X-0.600000X1.400000X-0.600000X0*%
%ADD42RoundRect,0.200000X0.600000X0.600000X-0.600000X0.600000X-0.600000X-0.600000X0.600000X-0.600000X0*%
%ADD43RoundRect,0.237500X-0.237500X0.250000X-0.237500X-0.250000X0.237500X-0.250000X0.237500X0.250000X0*%
%ADD44RoundRect,0.250000X0.337500X0.475000X-0.337500X0.475000X-0.337500X-0.475000X0.337500X-0.475000X0*%
%ADD45RoundRect,0.050000X0.840000X-0.760000X0.840000X0.760000X-0.840000X0.760000X-0.840000X-0.760000X0*%
%ADD46R,1.905000X2.000000*%
%ADD47O,1.905000X2.000000*%
%ADD48RoundRect,0.250000X-0.620000X-0.845000X0.620000X-0.845000X0.620000X0.845000X-0.620000X0.845000X0*%
%ADD49O,1.740000X2.190000*%
%ADD50R,1.850000X1.850000*%
%ADD51C,1.850000*%
%ADD52RoundRect,0.250000X0.620000X0.845000X-0.620000X0.845000X-0.620000X-0.845000X0.620000X-0.845000X0*%
G04 APERTURE END LIST*
D10*
%TO.C,SW2*%
X96147500Y-145039000D03*
D11*
X96147500Y-142499000D03*
%TD*%
D12*
%TO.C,J3*%
X49530000Y-99060000D03*
D13*
X52070000Y-99060000D03*
X49530000Y-101600000D03*
X52070000Y-101600000D03*
X49530000Y-104140000D03*
X52070000Y-104140000D03*
X49530000Y-106680000D03*
X52070000Y-106680000D03*
X49530000Y-109220000D03*
X52070000Y-109220000D03*
%TD*%
D14*
%TO.C,R7*%
X96266000Y-101600000D03*
D15*
X106426000Y-101600000D03*
%TD*%
D10*
%TO.C,J1*%
X50173500Y-138684000D03*
D11*
X50173500Y-136144000D03*
X50173500Y-133604000D03*
X50173500Y-131064000D03*
%TD*%
D16*
%TO.C,R10*%
X173000000Y-113792000D03*
X169900000Y-113792000D03*
%TD*%
D17*
%TO.C,C5*%
X153140500Y-107950000D03*
X155215500Y-107950000D03*
%TD*%
D18*
%TO.C,J6*%
X178562000Y-112268000D03*
D19*
X178562000Y-114768000D03*
%TD*%
D20*
%TO.C,R6*%
X161290000Y-129794000D03*
D21*
X156210000Y-129794000D03*
%TD*%
D22*
%TO.C,U2*%
X140343500Y-117602000D03*
X140343500Y-120142000D03*
X140343500Y-122682000D03*
X140343500Y-125222000D03*
X147963500Y-125222000D03*
X147963500Y-122682000D03*
X147963500Y-120142000D03*
X147963500Y-117602000D03*
%TD*%
%TO.C,IC1*%
X162010000Y-96445200D03*
X162010000Y-98985200D03*
X162010000Y-101525200D03*
X162010000Y-104065200D03*
X169630000Y-104065200D03*
X169630000Y-101525200D03*
X169630000Y-98985200D03*
X169630000Y-96445200D03*
%TD*%
D23*
%TO.C,J8*%
X149860000Y-143002000D03*
D24*
X157480000Y-143002000D03*
%TD*%
D10*
%TO.C,SW5*%
X111641500Y-145039000D03*
D11*
X111641500Y-142499000D03*
%TD*%
D25*
%TO.C,C7*%
X110236000Y-135256651D03*
D14*
X110236000Y-131756651D03*
%TD*%
D26*
%TO.C,J4*%
X178816000Y-97576000D03*
D27*
X178816000Y-100076000D03*
X178816000Y-102576000D03*
X178816000Y-105076000D03*
%TD*%
D14*
%TO.C,CIn3*%
X104144500Y-20556750D03*
X109144500Y-20556750D03*
%TD*%
D28*
%TO.C,U_5V1*%
X79130000Y-44540000D03*
D29*
X79130000Y-62340000D03*
D28*
X116730000Y-44540000D03*
D29*
X116730000Y-62340000D03*
%TD*%
D25*
%TO.C,D6*%
X146812000Y-92202000D03*
D15*
X146812000Y-99822000D03*
%TD*%
D20*
%TO.C,R5*%
X156210000Y-125730000D03*
D21*
X161290000Y-125730000D03*
%TD*%
D30*
%TO.C,D9*%
X173990000Y-101346000D03*
X173990000Y-104746000D03*
%TD*%
D31*
%TO.C,C2*%
X152908000Y-127532000D03*
D32*
X152908000Y-129032000D03*
%TD*%
D14*
%TO.C,R8*%
X96012000Y-97028000D03*
D15*
X106172000Y-97028000D03*
%TD*%
D33*
%TO.C,R14*%
X140436000Y-108966000D03*
X143536000Y-108966000D03*
%TD*%
D20*
%TO.C,R4*%
X161036000Y-117602000D03*
D21*
X155956000Y-117602000D03*
%TD*%
D25*
%TO.C,D5*%
X150876000Y-100330000D03*
D15*
X150876000Y-92710000D03*
%TD*%
D28*
%TO.C,U_3.3V1*%
X78990000Y-66846000D03*
D29*
X78990000Y-84646000D03*
D28*
X116590000Y-66846000D03*
D29*
X116590000Y-84646000D03*
%TD*%
D28*
%TO.C,PT1*%
X60912500Y-70030000D03*
X60912500Y-67530000D03*
X60912500Y-54630000D03*
X60912500Y-49630000D03*
%TD*%
D31*
%TO.C,C1*%
X137510099Y-130810000D03*
D32*
X136010099Y-130810000D03*
%TD*%
D34*
%TO.C,R15*%
X158631500Y-101118000D03*
X158631500Y-98018000D03*
%TD*%
D25*
%TO.C,D4*%
X117602000Y-123698000D03*
D15*
X125222000Y-123698000D03*
%TD*%
D35*
%TO.C,Q2*%
X133739500Y-124608000D03*
D36*
X132469500Y-124608000D03*
X131199500Y-124608000D03*
%TD*%
D23*
%TO.C,Input110*%
X44000000Y-33910000D03*
D24*
X44000000Y-26290000D03*
%TD*%
D10*
%TO.C,SW1*%
X91321500Y-145039000D03*
D11*
X91321500Y-142499000D03*
%TD*%
D20*
%TO.C,R3*%
X152908000Y-111760000D03*
D21*
X157988000Y-111760000D03*
%TD*%
D37*
%TO.C,R19*%
X141224000Y-92684000D03*
X141224000Y-95784000D03*
%TD*%
D20*
%TO.C,R2*%
X166370000Y-118618000D03*
D21*
X166370000Y-123698000D03*
%TD*%
D25*
%TO.C,C6*%
X99060000Y-117981349D03*
D14*
X99060000Y-121481349D03*
%TD*%
D38*
%TO.C,A1*%
X85496200Y-146670000D03*
D39*
X83896200Y-146670000D03*
D40*
X84696200Y-144130000D03*
D14*
X83896200Y-144130000D03*
D41*
X84696200Y-141590000D03*
D42*
X83896200Y-141590000D03*
D40*
X84696200Y-139050000D03*
X84696200Y-136510000D03*
D14*
X83896200Y-136510000D03*
D40*
X84696200Y-133970000D03*
D14*
X83896200Y-133970000D03*
D40*
X84696200Y-131430000D03*
D14*
X83896200Y-131430000D03*
D41*
X84696200Y-128890000D03*
D42*
X83896200Y-128890000D03*
D40*
X84696200Y-126350000D03*
D14*
X83896200Y-126350000D03*
D40*
X84696200Y-123810000D03*
D14*
X83896200Y-123810000D03*
D40*
X84696200Y-121270000D03*
D14*
X83896200Y-121270000D03*
D40*
X84696200Y-118730000D03*
D14*
X83896200Y-118730000D03*
D41*
X84696200Y-116190000D03*
D42*
X83896200Y-116190000D03*
D40*
X84696200Y-113650000D03*
D14*
X83896200Y-113650000D03*
D40*
X84696200Y-111110000D03*
D14*
X83896200Y-111110000D03*
D40*
X84696200Y-108570000D03*
D14*
X83896200Y-108570000D03*
D40*
X84696200Y-106030000D03*
D14*
X83896200Y-106030000D03*
D41*
X84696200Y-103490000D03*
D42*
X83896200Y-103490000D03*
D40*
X84696200Y-100950000D03*
D14*
X83896200Y-100950000D03*
D40*
X84696200Y-98410000D03*
D14*
X83896200Y-98410000D03*
X66116200Y-98410000D03*
D40*
X65316200Y-98410000D03*
D14*
X66116200Y-100950000D03*
D40*
X65316200Y-100950000D03*
D42*
X66116200Y-103490000D03*
D41*
X65316200Y-103490000D03*
D14*
X66116200Y-106030000D03*
D40*
X65316200Y-106030000D03*
D14*
X66116200Y-108570000D03*
D40*
X65316200Y-108570000D03*
D14*
X66116200Y-111110000D03*
D40*
X65316200Y-111110000D03*
D14*
X66116200Y-113650000D03*
D40*
X65316200Y-113650000D03*
D42*
X66116200Y-116190000D03*
D41*
X65316200Y-116190000D03*
D14*
X66116200Y-118730000D03*
D40*
X65316200Y-118730000D03*
D14*
X66116200Y-121270000D03*
D40*
X65316200Y-121270000D03*
D14*
X66116200Y-123810000D03*
D40*
X65316200Y-123810000D03*
D14*
X66116200Y-126350000D03*
D40*
X65316200Y-126350000D03*
D42*
X66116200Y-128890000D03*
D41*
X65316200Y-128890000D03*
D14*
X66116200Y-131430000D03*
D40*
X65316200Y-131430000D03*
D14*
X66116200Y-133970000D03*
D40*
X65316200Y-133970000D03*
D14*
X66116200Y-136510000D03*
D40*
X65316200Y-136510000D03*
D14*
X66116200Y-139050000D03*
D40*
X65316200Y-139050000D03*
D42*
X66116200Y-141590000D03*
D41*
X65316200Y-141590000D03*
D14*
X66116200Y-144130000D03*
D40*
X65316200Y-144130000D03*
D14*
X66116200Y-146670000D03*
D40*
X65316200Y-146670000D03*
%TD*%
D20*
%TO.C,R1*%
X171450000Y-123698000D03*
D21*
X171450000Y-118618000D03*
%TD*%
D43*
%TO.C,C3*%
X157988000Y-133199500D03*
X157988000Y-135024500D03*
%TD*%
D35*
%TO.C,Q1*%
X133231500Y-118110000D03*
D36*
X131961500Y-118110000D03*
X130691500Y-118110000D03*
%TD*%
D25*
%TO.C,D3*%
X117856000Y-118364000D03*
D15*
X125476000Y-118364000D03*
%TD*%
D44*
%TO.C,CIn0*%
X122449500Y-31750000D03*
X120374500Y-31750000D03*
%TD*%
D33*
%TO.C,R16*%
X152628000Y-104902000D03*
X155728000Y-104902000D03*
%TD*%
D45*
%TO.C,D8*%
X173871500Y-110920000D03*
X173871500Y-107520000D03*
%TD*%
D34*
%TO.C,R18*%
X155194000Y-99086000D03*
X155194000Y-95986000D03*
%TD*%
D46*
%TO.C,U3*%
X120142000Y-21590000D03*
D47*
X122682000Y-21590000D03*
X125222000Y-21590000D03*
%TD*%
D14*
%TO.C,CIn4*%
X104180000Y-33020000D03*
X109180000Y-33020000D03*
%TD*%
D10*
%TO.C,JP1*%
X79880000Y-18180000D03*
D11*
X82420000Y-18180000D03*
X84960000Y-18180000D03*
%TD*%
D33*
%TO.C,R11*%
X140436000Y-105410000D03*
X143536000Y-105410000D03*
%TD*%
D16*
%TO.C,R9*%
X143562000Y-101854000D03*
X140462000Y-101854000D03*
%TD*%
D33*
%TO.C,R17*%
X164219500Y-115062000D03*
X167319500Y-115062000D03*
%TD*%
D44*
%TO.C,C4*%
X166137500Y-107188000D03*
X164062500Y-107188000D03*
%TD*%
D33*
%TO.C,R12*%
X136118000Y-80010000D03*
X139218000Y-80010000D03*
%TD*%
D48*
%TO.C,J2*%
X128659500Y-145034000D03*
D49*
X131199500Y-145034000D03*
%TD*%
D14*
%TO.C,*%
X83896200Y-139039600D03*
%TD*%
D16*
%TO.C,R13*%
X139218000Y-73660000D03*
X136118000Y-73660000D03*
%TD*%
D50*
%TO.C,J5*%
X164592000Y-81788000D03*
D51*
X162092000Y-81788000D03*
X159592000Y-81788000D03*
X157092000Y-81788000D03*
%TD*%
D14*
%TO.C,R21*%
X118618000Y-110998000D03*
D15*
X128778000Y-110998000D03*
%TD*%
D10*
%TO.C,SW4*%
X106307500Y-145039000D03*
D11*
X106307500Y-142499000D03*
%TD*%
D52*
%TO.C,J9*%
X122817500Y-144780000D03*
D49*
X120277500Y-144780000D03*
%TD*%
D14*
%TO.C,R20*%
X106426000Y-107188000D03*
D15*
X96266000Y-107188000D03*
%TD*%
D10*
%TO.C,SW3*%
X100973500Y-145034000D03*
D11*
X100973500Y-142494000D03*
%TD*%
M02*
