%TF.GenerationSoftware,KiCad,Pcbnew,7.0.1*%
%TF.CreationDate,2023-05-11T18:44:24-05:00*%
%TF.ProjectId,CircuitoPotencia,43697263-7569-4746-9f50-6f74656e6369,rev?*%
%TF.SameCoordinates,Original*%
%TF.FileFunction,Other,Comment*%
%FSLAX46Y46*%
G04 Gerber Fmt 4.6, Leading zero omitted, Abs format (unit mm)*
G04 Created by KiCad (PCBNEW 7.0.1) date 2023-05-11 18:44:24*
%MOMM*%
%LPD*%
G01*
G04 APERTURE LIST*
%ADD10C,0.150000*%
G04 APERTURE END LIST*
D10*
%TO.C,A1*%
X81039057Y-103313095D02*
X80562867Y-103313095D01*
X81134295Y-103027380D02*
X80800962Y-104027380D01*
X80800962Y-104027380D02*
X80467629Y-103027380D01*
X80134295Y-103694047D02*
X80134295Y-103027380D01*
X80134295Y-103598809D02*
X80086676Y-103646428D01*
X80086676Y-103646428D02*
X79991438Y-103694047D01*
X79991438Y-103694047D02*
X79848581Y-103694047D01*
X79848581Y-103694047D02*
X79753343Y-103646428D01*
X79753343Y-103646428D02*
X79705724Y-103551190D01*
X79705724Y-103551190D02*
X79705724Y-103027380D01*
X79372390Y-103694047D02*
X78991438Y-103694047D01*
X79229533Y-104027380D02*
X79229533Y-103170238D01*
X79229533Y-103170238D02*
X79181914Y-103075000D01*
X79181914Y-103075000D02*
X79086676Y-103027380D01*
X79086676Y-103027380D02*
X78991438Y-103027380D01*
X78277152Y-103075000D02*
X78372390Y-103027380D01*
X78372390Y-103027380D02*
X78562866Y-103027380D01*
X78562866Y-103027380D02*
X78658104Y-103075000D01*
X78658104Y-103075000D02*
X78705723Y-103170238D01*
X78705723Y-103170238D02*
X78705723Y-103551190D01*
X78705723Y-103551190D02*
X78658104Y-103646428D01*
X78658104Y-103646428D02*
X78562866Y-103694047D01*
X78562866Y-103694047D02*
X78372390Y-103694047D01*
X78372390Y-103694047D02*
X78277152Y-103646428D01*
X78277152Y-103646428D02*
X78229533Y-103551190D01*
X78229533Y-103551190D02*
X78229533Y-103455952D01*
X78229533Y-103455952D02*
X78705723Y-103360714D01*
X77800961Y-103694047D02*
X77800961Y-103027380D01*
X77800961Y-103598809D02*
X77753342Y-103646428D01*
X77753342Y-103646428D02*
X77658104Y-103694047D01*
X77658104Y-103694047D02*
X77515247Y-103694047D01*
X77515247Y-103694047D02*
X77420009Y-103646428D01*
X77420009Y-103646428D02*
X77372390Y-103551190D01*
X77372390Y-103551190D02*
X77372390Y-103027380D01*
X76896199Y-103694047D02*
X76896199Y-103027380D01*
X76896199Y-103598809D02*
X76848580Y-103646428D01*
X76848580Y-103646428D02*
X76753342Y-103694047D01*
X76753342Y-103694047D02*
X76610485Y-103694047D01*
X76610485Y-103694047D02*
X76515247Y-103646428D01*
X76515247Y-103646428D02*
X76467628Y-103551190D01*
X76467628Y-103551190D02*
X76467628Y-103027380D01*
X75562866Y-103027380D02*
X75562866Y-103551190D01*
X75562866Y-103551190D02*
X75610485Y-103646428D01*
X75610485Y-103646428D02*
X75705723Y-103694047D01*
X75705723Y-103694047D02*
X75896199Y-103694047D01*
X75896199Y-103694047D02*
X75991437Y-103646428D01*
X75562866Y-103075000D02*
X75658104Y-103027380D01*
X75658104Y-103027380D02*
X75896199Y-103027380D01*
X75896199Y-103027380D02*
X75991437Y-103075000D01*
X75991437Y-103075000D02*
X76039056Y-103170238D01*
X76039056Y-103170238D02*
X76039056Y-103265476D01*
X76039056Y-103265476D02*
X75991437Y-103360714D01*
X75991437Y-103360714D02*
X75896199Y-103408333D01*
X75896199Y-103408333D02*
X75658104Y-103408333D01*
X75658104Y-103408333D02*
X75562866Y-103455952D01*
X74324770Y-103027380D02*
X74324770Y-104027380D01*
X73753342Y-103027380D02*
X74181913Y-103598809D01*
X73753342Y-104027380D02*
X74324770Y-103455952D01*
X72943818Y-103075000D02*
X73039056Y-103027380D01*
X73039056Y-103027380D02*
X73229532Y-103027380D01*
X73229532Y-103027380D02*
X73324770Y-103075000D01*
X73324770Y-103075000D02*
X73372389Y-103170238D01*
X73372389Y-103170238D02*
X73372389Y-103551190D01*
X73372389Y-103551190D02*
X73324770Y-103646428D01*
X73324770Y-103646428D02*
X73229532Y-103694047D01*
X73229532Y-103694047D02*
X73039056Y-103694047D01*
X73039056Y-103694047D02*
X72943818Y-103646428D01*
X72943818Y-103646428D02*
X72896199Y-103551190D01*
X72896199Y-103551190D02*
X72896199Y-103455952D01*
X72896199Y-103455952D02*
X73372389Y-103360714D01*
X72086675Y-103075000D02*
X72181913Y-103027380D01*
X72181913Y-103027380D02*
X72372389Y-103027380D01*
X72372389Y-103027380D02*
X72467627Y-103075000D01*
X72467627Y-103075000D02*
X72515246Y-103170238D01*
X72515246Y-103170238D02*
X72515246Y-103551190D01*
X72515246Y-103551190D02*
X72467627Y-103646428D01*
X72467627Y-103646428D02*
X72372389Y-103694047D01*
X72372389Y-103694047D02*
X72181913Y-103694047D01*
X72181913Y-103694047D02*
X72086675Y-103646428D01*
X72086675Y-103646428D02*
X72039056Y-103551190D01*
X72039056Y-103551190D02*
X72039056Y-103455952D01*
X72039056Y-103455952D02*
X72515246Y-103360714D01*
X71610484Y-103694047D02*
X71610484Y-102694047D01*
X71610484Y-103646428D02*
X71515246Y-103694047D01*
X71515246Y-103694047D02*
X71324770Y-103694047D01*
X71324770Y-103694047D02*
X71229532Y-103646428D01*
X71229532Y-103646428D02*
X71181913Y-103598809D01*
X71181913Y-103598809D02*
X71134294Y-103503571D01*
X71134294Y-103503571D02*
X71134294Y-103217857D01*
X71134294Y-103217857D02*
X71181913Y-103122619D01*
X71181913Y-103122619D02*
X71229532Y-103075000D01*
X71229532Y-103075000D02*
X71324770Y-103027380D01*
X71324770Y-103027380D02*
X71515246Y-103027380D01*
X71515246Y-103027380D02*
X71610484Y-103075000D01*
X70562865Y-103027380D02*
X70658103Y-103075000D01*
X70658103Y-103075000D02*
X70705722Y-103122619D01*
X70705722Y-103122619D02*
X70753341Y-103217857D01*
X70753341Y-103217857D02*
X70753341Y-103503571D01*
X70753341Y-103503571D02*
X70705722Y-103598809D01*
X70705722Y-103598809D02*
X70658103Y-103646428D01*
X70658103Y-103646428D02*
X70562865Y-103694047D01*
X70562865Y-103694047D02*
X70420008Y-103694047D01*
X70420008Y-103694047D02*
X70324770Y-103646428D01*
X70324770Y-103646428D02*
X70277151Y-103598809D01*
X70277151Y-103598809D02*
X70229532Y-103503571D01*
X70229532Y-103503571D02*
X70229532Y-103217857D01*
X70229532Y-103217857D02*
X70277151Y-103122619D01*
X70277151Y-103122619D02*
X70324770Y-103075000D01*
X70324770Y-103075000D02*
X70420008Y-103027380D01*
X70420008Y-103027380D02*
X70562865Y-103027380D01*
X69372389Y-103694047D02*
X69372389Y-103027380D01*
X69800960Y-103694047D02*
X69800960Y-103170238D01*
X69800960Y-103170238D02*
X69753341Y-103075000D01*
X69753341Y-103075000D02*
X69658103Y-103027380D01*
X69658103Y-103027380D02*
X69515246Y-103027380D01*
X69515246Y-103027380D02*
X69420008Y-103075000D01*
X69420008Y-103075000D02*
X69372389Y-103122619D01*
X69039055Y-103694047D02*
X68658103Y-103694047D01*
X68896198Y-104027380D02*
X68896198Y-103170238D01*
X68896198Y-103170238D02*
X68848579Y-103075000D01*
X68848579Y-103075000D02*
X68753341Y-103027380D01*
X68753341Y-103027380D02*
X68658103Y-103027380D01*
%TD*%
M02*
