%TF.GenerationSoftware,KiCad,Pcbnew,7.0.1*%
%TF.CreationDate,2023-05-23T10:25:23-05:00*%
%TF.ProjectId,simulacion_Carro,73696d75-6c61-4636-996f-6e5f43617272,rev?*%
%TF.SameCoordinates,Original*%
%TF.FileFunction,Soldermask,Bot*%
%TF.FilePolarity,Negative*%
%FSLAX46Y46*%
G04 Gerber Fmt 4.6, Leading zero omitted, Abs format (unit mm)*
G04 Created by KiCad (PCBNEW 7.0.1) date 2023-05-23 10:25:23*
%MOMM*%
%LPD*%
G01*
G04 APERTURE LIST*
G04 Aperture macros list*
%AMRoundRect*
0 Rectangle with rounded corners*
0 $1 Rounding radius*
0 $2 $3 $4 $5 $6 $7 $8 $9 X,Y pos of 4 corners*
0 Add a 4 corners polygon primitive as box body*
4,1,4,$2,$3,$4,$5,$6,$7,$8,$9,$2,$3,0*
0 Add four circle primitives for the rounded corners*
1,1,$1+$1,$2,$3*
1,1,$1+$1,$4,$5*
1,1,$1+$1,$6,$7*
1,1,$1+$1,$8,$9*
0 Add four rect primitives between the rounded corners*
20,1,$1+$1,$2,$3,$4,$5,0*
20,1,$1+$1,$4,$5,$6,$7,0*
20,1,$1+$1,$6,$7,$8,$9,0*
20,1,$1+$1,$8,$9,$2,$3,0*%
%AMFreePoly0*
4,1,58,0.281242,0.792533,0.314585,0.788777,0.324216,0.782725,0.335306,0.780194,0.361541,0.759271,0.389950,0.741421,0.741421,0.389950,0.759271,0.361541,0.780194,0.335306,0.782725,0.324216,0.788777,0.314585,0.792533,0.281242,0.800000,0.248529,0.800000,-0.248529,0.792533,-0.281242,0.788777,-0.314585,0.782725,-0.324216,0.780194,-0.335306,0.759271,-0.361541,0.741421,-0.389950,
0.389950,-0.741421,0.361541,-0.759271,0.335306,-0.780194,0.324216,-0.782725,0.314585,-0.788777,0.281242,-0.792533,0.248529,-0.800000,0.000000,-0.800000,-0.248529,-0.800000,-0.281242,-0.792533,-0.314585,-0.788777,-0.324216,-0.782725,-0.335306,-0.780194,-0.361541,-0.759271,-0.389950,-0.741421,-0.741421,-0.389950,-0.759271,-0.361541,-0.780194,-0.335306,-0.782725,-0.324216,-0.788777,-0.314585,
-0.792533,-0.281242,-0.800000,-0.248529,-0.800000,0.248529,-0.792533,0.281242,-0.788777,0.314585,-0.782725,0.324216,-0.780194,0.335306,-0.759271,0.361541,-0.741421,0.389950,-0.389950,0.741421,-0.361541,0.759271,-0.335306,0.780194,-0.324216,0.782725,-0.314585,0.788777,-0.281242,0.792533,-0.248529,0.800000,0.248529,0.800000,0.281242,0.792533,0.281242,0.792533,$1*%
G04 Aperture macros list end*
%ADD10C,2.400000*%
%ADD11O,2.400000X2.400000*%
%ADD12R,1.350000X1.350000*%
%ADD13O,1.350000X1.350000*%
%ADD14R,2.200000X2.200000*%
%ADD15O,2.200000X2.200000*%
%ADD16R,1.050000X1.500000*%
%ADD17O,1.050000X1.500000*%
%ADD18R,1.500000X1.050000*%
%ADD19O,1.500000X1.050000*%
%ADD20FreePoly0,90.000000*%
%ADD21C,1.600000*%
%ADD22RoundRect,0.200000X0.600000X-0.600000X0.600000X0.600000X-0.600000X0.600000X-0.600000X-0.600000X0*%
G04 APERTURE END LIST*
D10*
%TO.C,R4*%
X167919400Y-54864000D03*
D11*
X180619400Y-54864000D03*
%TD*%
D10*
%TO.C,R6*%
X135001000Y-95021400D03*
D11*
X147701000Y-95021400D03*
%TD*%
D12*
%TO.C,J1*%
X188386200Y-85293200D03*
D13*
X190386200Y-85293200D03*
X192386200Y-85293200D03*
X194386200Y-85293200D03*
%TD*%
D10*
%TO.C,R9*%
X155702000Y-67767200D03*
D11*
X155702000Y-80467200D03*
%TD*%
D10*
%TO.C,R1*%
X110058200Y-55041800D03*
D11*
X110058200Y-67741800D03*
%TD*%
D14*
%TO.C,D1*%
X124333000Y-54914800D03*
D15*
X134493000Y-54914800D03*
%TD*%
D10*
%TO.C,R7*%
X110109000Y-88747600D03*
D11*
X122809000Y-88747600D03*
%TD*%
D16*
%TO.C,Q2*%
X166243000Y-81305400D03*
D17*
X167513000Y-81305400D03*
X168783000Y-81305400D03*
%TD*%
D10*
%TO.C,R8*%
X134874000Y-71221600D03*
D11*
X134874000Y-83921600D03*
%TD*%
D10*
%TO.C,R3*%
X197916800Y-67843400D03*
D11*
X185216800Y-67843400D03*
%TD*%
D10*
%TO.C,R5*%
X175996600Y-105384600D03*
D11*
X175996600Y-92684600D03*
%TD*%
D18*
%TO.C,Q3*%
X166674800Y-90754200D03*
D19*
X166674800Y-92024200D03*
X166674800Y-93294200D03*
%TD*%
D10*
%TO.C,R2*%
X145973800Y-55041800D03*
D11*
X145973800Y-67741800D03*
%TD*%
D20*
%TO.C,A1*%
X115062000Y-143205000D03*
D21*
X117602000Y-143205000D03*
D22*
X120142000Y-143205000D03*
D21*
X122682000Y-143205000D03*
X125222000Y-143205000D03*
X127762000Y-143205000D03*
X130302000Y-143205000D03*
D22*
X132842000Y-143205000D03*
D21*
X135382000Y-143205000D03*
X137922000Y-143205000D03*
X140462000Y-143205000D03*
X143002000Y-143205000D03*
D22*
X145542000Y-143205000D03*
D21*
X148082000Y-143205000D03*
X150622000Y-143205000D03*
X153162000Y-143205000D03*
X155702000Y-143205000D03*
D22*
X158242000Y-143205000D03*
D21*
X160782000Y-143205000D03*
X163322000Y-143205000D03*
X163322000Y-125425000D03*
X160782000Y-125425000D03*
D22*
X158242000Y-125425000D03*
D21*
X155702000Y-125425000D03*
X153162000Y-125425000D03*
X150622000Y-125425000D03*
X148082000Y-125425000D03*
D22*
X145542000Y-125425000D03*
D21*
X143002000Y-125425000D03*
X140462000Y-125425000D03*
X137922000Y-125425000D03*
X135382000Y-125425000D03*
D22*
X132842000Y-125425000D03*
D21*
X130302000Y-125425000D03*
X127762000Y-125425000D03*
X125222000Y-125425000D03*
X122682000Y-125425000D03*
D22*
X120142000Y-125425000D03*
D21*
X117602000Y-125425000D03*
X115062000Y-125425000D03*
D20*
X163092000Y-136855000D03*
D22*
X163092000Y-134315000D03*
D21*
X163092000Y-131775000D03*
%TD*%
M02*
